<?xml version="1.0" encoding="UTF-8" standalone="no"?>
<!-- Created with Inkscape (http://www.inkscape.org/) -->

<svg
   width="39.204987mm"
   height="21.096313mm"
   viewBox="0 0 39.204987 21.096313"
   version="1.1"
   id="svg336"
   xml:space="preserve"
   inkscape:version="1.2.2 (b0a8486541, 2022-12-01)"
   sodipodi:docname="instructions.svg"
   inkscape:export-filename="instructions.svg"
   inkscape:export-xdpi="300.34"
   inkscape:export-ydpi="300.34"
   xmlns:inkscape="http://www.inkscape.org/namespaces/inkscape"
   xmlns:sodipodi="http://sodipodi.sourceforge.net/DTD/sodipodi-0.dtd"
   xmlns="http://www.w3.org/2000/svg"
   xmlns:svg="http://www.w3.org/2000/svg"><sodipodi:namedview
     id="namedview338"
     pagecolor="#ffffff"
     bordercolor="#999999"
     borderopacity="1"
     inkscape:showpageshadow="0"
     inkscape:pageopacity="0"
     inkscape:pagecheckerboard="0"
     inkscape:deskcolor="#d1d1d1"
     inkscape:document-units="mm"
     showgrid="false"
     inkscape:zoom="4.3392765"
     inkscape:cx="1249.1714"
     inkscape:cy="1577.2215"
     inkscape:window-width="1920"
     inkscape:window-height="1131"
     inkscape:window-x="1920"
     inkscape:window-y="32"
     inkscape:window-maximized="1"
     inkscape:current-layer="layer1"
     inkscape:lockguides="true" /><defs
     id="defs333" /><g
     inkscape:label="Layer 1"
     inkscape:groupmode="layer"
     id="layer1"
     transform="translate(-317.89805,-350.95159)"><g
       id="g137459"><path
         style="fill:#fff6d5;stroke:none;stroke-width:0.264583px;stroke-linecap:butt;stroke-linejoin:miter;stroke-opacity:1"
         d="m 319.21745,354.48474 5.35176,10.48181 3.38747,4.67739 h 5.12283 v -1.05321 l -7.95481,-9.54786 10.27516,-0.39111 -13.96862,-6.38074"
         id="path106140"
         sodipodi:nodetypes="cccccccc" /><rect
         style="fill:#f9f9f9;fill-opacity:1;stroke:#4d4d4d;stroke-width:0.403301;stroke-linecap:round;stroke-linejoin:round;stroke-dasharray:none;stroke-dashoffset:0;stroke-opacity:1;paint-order:markers fill stroke"
         id="rect106042"
         width="36.019291"
         height="2.2023315"
         x="320.526"
         y="369.64392" /><path
         style="fill:#b3b3b3;fill-opacity:1;stroke:#000000;stroke-width:0.3;stroke-linecap:round;stroke-linejoin:miter;stroke-dasharray:none;stroke-opacity:1"
         d="m 333.07951,370.16415 v -2.16764 c 0,-0.32515 0.21676,-0.54191 0.54191,-0.54191 h 8.0938 c 0.32514,0 0.54191,0.21676 0.54191,0.54191 v 2.16764"
         id="path106044"
         sodipodi:nodetypes="cccccc" /><rect
         style="fill:#c8b7b7;fill-opacity:1;stroke:#800000;stroke-width:0.2;stroke-linecap:round;stroke-linejoin:round;stroke-dasharray:none;stroke-dashoffset:0;stroke-opacity:1;paint-order:markers fill stroke"
         id="rect106082"
         width="0.80452681"
         height="16.524302"
         x="341.60919"
         y="354.05365" /><rect
         style="fill:#c8b7b7;fill-opacity:1;stroke:#808080;stroke-width:0.2;stroke-linecap:round;stroke-linejoin:round;stroke-dasharray:none;stroke-dashoffset:0;stroke-opacity:1;paint-order:markers fill stroke"
         id="rect106090"
         width="21.850561"
         height="1.4066162"
         x="324.11371"
         y="357.94846" /><path
         style="fill:none;stroke:#d7e3f4;stroke-width:0.264583px;stroke-linecap:butt;stroke-linejoin:miter;stroke-opacity:1"
         d="m 320.78516,362.38551 c 0,0 2.58936,1.60541 4.04808,1.93633 1.04028,0.236 2.42082,0.6978 3.40633,0.28959 1.01111,-0.41882 2.12217,-1.5168 2.11542,-2.6112 -0.006,-1.00633 -1.15461,-2.11196 -2.16095,-2.10829 -0.89685,0.003 -1.90982,0.99604 -1.91208,1.89289 -0.002,0.71187 0.79825,1.51011 1.51012,1.51011 0.53595,0 1.13693,-0.60096 1.13693,-1.13691 10e-6,-0.3432 -0.72803,-0.72806 -0.72803,-0.72806"
         id="path106092"
         sodipodi:nodetypes="csssssssc" /><path
         style="fill:none;stroke:#d7e3f4;stroke-width:0.178902px;stroke-linecap:butt;stroke-linejoin:miter;stroke-opacity:1"
         d="m 323.29667,366.0779 c 0,0 1.97213,-0.59539 2.98277,-0.55624 0.72073,0.0279 1.70322,-0.0321 2.27544,0.40699 0.58709,0.45049 1.1206,1.36205 0.92467,2.07565 -0.18003,0.65621 -1.12371,1.17732 -1.78034,0.99881 -0.58523,-0.15892 -1.07304,-0.98477 -0.91756,-1.57093 0.12327,-0.46529 0.78563,-0.84659 1.25058,-0.72201 0.35004,0.0938 0.63738,0.59147 0.54359,0.94152 -0.0601,0.22415 -0.60291,0.3481 -0.60291,0.3481"
         id="path106094"
         sodipodi:nodetypes="csssssssc" /><g
         id="g106112"
         transform="matrix(0.07826838,0,0,0.07826838,317.50668,350.56021)"><g
           id="g106098"><polygon
             fill="#fcea2b"
             stroke="none"
             points="16.6764,41.1813 6,36 16.6765,30.8184 10.0181,20.9937 21.8582,21.8576 20.9944,10.0177 30.8187,16.6764 36,6 41.1816,16.6765 51.0063,10.0181 50.1424,21.8582 61.9823,20.9944 55.3236,30.8187 66,36 55.3235,41.1816 61.9819,51.0063 50.1418,50.1424 51.0056,61.9823 41.1813,55.3236 36,66 30.8184,55.3235 20.9937,61.9819 21.8576,50.1418 10.0177,51.0056 "
             id="polygon106096" /></g><g
           id="g106100" /><g
           id="g106102" /><g
           id="g106104" /><g
           id="g106110"><circle
             cx="36"
             cy="35.950001"
             r="19.8276"
             fill="none"
             stroke="#000000"
             stroke-linecap="round"
             stroke-linejoin="round"
             stroke-miterlimit="10"
             stroke-width="2"
             id="circle106106" /><polygon
             fill="none"
             stroke="#000000"
             stroke-linecap="round"
             stroke-linejoin="round"
             stroke-miterlimit="10"
             stroke-width="2"
             points="16.6764,41.1813 6,36 16.6765,30.8184 10.0181,20.9937 21.8582,21.8576 20.9944,10.0177 30.8187,16.6764 36,6 41.1816,16.6765 51.0063,10.0181 50.1424,21.8582 61.9823,20.9944 55.3236,30.8187 66,36 55.3235,41.1816 61.9819,51.0063 50.1418,50.1424 51.0056,61.9823 41.1813,55.3236 36,66 30.8184,55.3235 20.9937,61.9819 21.8576,50.1418 10.0177,51.0056 "
             id="polygon106108" /></g></g><g
         id="g106138"
         transform="matrix(0.14707566,0,0,0.14707566,332.47119,361.07848)"><g
           id="g106114" /><g
           id="g106122"><g
             id="g106120"><path
               fill="#fcea2b"
               d="m 42.533,22.2881 a 4.3,4.3 0 0 0 -4.209,-4.1314 h -6 a 4.3,4.3 0 0 0 -4.209,4.1314 l -0.792,19.4393 a 1.0173,1.0173 0 0 1 -0.1209,0.4369 L 30.1357,40.07 29.4221,62.2033 a 1.2322,1.2322 0 0 0 0.25,0.8789 0.2412,0.2412 0 0 0 0.152,0.09 c 0.214,0 0.656,-0.4266 0.735,-1.1254 l 2.8986,-22.5033 a 4.9252,4.9252 0 0 1 0.4028,-1.1922 l 0.7246,-0.8052 H 36.21 l 0.984,0.6231 a 4.9259,4.9259 0 0 1 0.352,1.3413 l 2.542,22.5343 c 0.079,0.6978 0.522,1.1254 0.736,1.1254 a 0.242,0.242 0 0 0 0.152,-0.09 c 0.1922,-0.2483 0.4894,-0.585 0.4568,-0.9 L 40.5006,40.0702 44,42.5"
               id="path106116" /><circle
               cx="35.4039"
               cy="10.6511"
               r="2.9690001"
               fill="#fcea2b"
               id="circle106118" /></g></g><g
           id="g106136"><g
             id="g106134"><g
               id="g106130"><circle
                 cx="35.4039"
                 cy="10.6511"
                 r="2.9690001"
                 fill="none"
                 stroke="#000000"
                 stroke-miterlimit="10"
                 stroke-width="2"
                 id="circle106124" /><path
                 fill="none"
                 stroke="#000000"
                 stroke-linecap="round"
                 stroke-linejoin="round"
                 stroke-width="2"
                 d="m 40.37,23.5891 1.9,38 c 0.055,1.1 -0.575,2 -1.4,2 a 2.076,2.076 0 0 1 -1.729,-1.987 l -2.542,-22.031 c -0.129,-1.093 -0.679,-1.987 -1.229,-1.987 -0.55,0 -1.103,0.894 -1.229,1.987 l -2.539,22.031 a 2.076,2.076 0 0 1 -1.729,1.987 c -0.825,0 -1.455,-0.9 -1.4,-2 l 1.9,-38"
                 id="path106126" /><path
                 fill="none"
                 stroke="#000000"
                 stroke-linecap="round"
                 stroke-linejoin="round"
                 stroke-width="2"
                 d="m 26.3729,41.5891 0.792,-19 a 5.274,5.274 0 0 1 5.208,-5 h 6"
                 id="path106128" /></g><path
               fill="none"
               stroke="#000000"
               stroke-linecap="round"
               stroke-linejoin="round"
               stroke-width="2"
               d="m 38.3,17.589 a 5.274,5.274 0 0 1 5.208,5 l 0.792,19"
               id="path106132" /></g></g></g><path
         style="fill:none;stroke:#000000;stroke-width:0.1;stroke-linecap:round;stroke-linejoin:round;stroke-dasharray:none;stroke-opacity:1"
         d="m 324.11371,357.94846 17.49549,-3.89482 h 0.80452 l 3.55055,3.89482"
         id="path106142" /><path
         style="fill:#5f8dd3;stroke:#0b1728;stroke-width:0.187355px;stroke-linecap:butt;stroke-linejoin:miter;stroke-opacity:1"
         d="m 344.35742,367.76476 c -0.54348,0.34385 -1.53239,0.65704 -1.00928,1.20628 0.52311,0.54923 0.83693,-0.24617 1.00928,-1.20628 z"
         id="path105970-8"
         sodipodi:nodetypes="czc" /><path
         style="fill:#5f8dd3;stroke:#0b1728;stroke-width:0.264583px;stroke-linecap:butt;stroke-linejoin:miter;stroke-opacity:1"
         d="m 344.80916,359.68841 c -0.76751,0.48559 -2.16405,0.92788 -1.42531,1.7035 0.73874,0.77562 1.18192,-0.34765 1.42531,-1.7035 z"
         id="path105972-0"
         sodipodi:nodetypes="czc" /><path
         style="fill:#5f8dd3;stroke:#0b1728;stroke-width:0.264583px;stroke-linecap:butt;stroke-linejoin:miter;stroke-opacity:1"
         d="m 346.83929,361.67994 c -0.76751,0.48559 -2.16405,0.92788 -1.42531,1.7035 0.73874,0.77562 1.18192,-0.34765 1.42531,-1.7035 z"
         id="path105976-4"
         sodipodi:nodetypes="czc" /><path
         style="fill:#5f8dd3;stroke:#0b1728;stroke-width:0.264583px;stroke-linecap:butt;stroke-linejoin:miter;stroke-opacity:1"
         d="m 345.44437,364.24077 c -0.76751,0.48559 -2.16405,0.92788 -1.42531,1.7035 0.73874,0.77562 1.18192,-0.34764 1.42531,-1.7035 z"
         id="path105978-2"
         sodipodi:nodetypes="czc" /><path
         style="fill:#5f8dd3;stroke:#0b1728;stroke-width:0.264583px;stroke-linecap:butt;stroke-linejoin:miter;stroke-opacity:1"
         d="m 347.27067,366.8016 c -0.76751,0.48559 -2.16405,0.92788 -1.42531,1.70351 0.73874,0.77562 1.18192,-0.34765 1.42531,-1.70351 z"
         id="path105980-9"
         sodipodi:nodetypes="czc" /><path
         style="fill:none;stroke:#d7e3f4;stroke-width:0.15;stroke-linecap:butt;stroke-linejoin:miter;stroke-dasharray:none;stroke-opacity:1"
         d="m 333.88554,360.24595 c 0,0 0.94988,-0.28677 1.43666,-0.26792 0.34715,0.0134 0.82037,-0.0155 1.09598,0.19603 0.28277,0.21698 0.53974,0.65604 0.44537,0.99975 -0.0867,0.31606 -0.54124,0.56707 -0.85751,0.48108 -0.28188,-0.0765 -0.51683,-0.47431 -0.44194,-0.75664 0.0594,-0.22411 0.3784,-0.40776 0.60234,-0.34776 0.1686,0.0452 0.307,0.28489 0.26183,0.45349 -0.029,0.10796 -0.2904,0.16766 -0.2904,0.16766"
         id="path106006-6"
         sodipodi:nodetypes="csssssssc" /><path
         style="fill:#5f8dd3;stroke:#0b1728;stroke-width:0.16839px;stroke-linecap:butt;stroke-linejoin:miter;stroke-opacity:1"
         d="m 342.75706,366.71438 c -0.48847,0.30904 -1.37728,0.59053 -0.90712,1.08416 0.47016,0.49363 0.75222,-0.22125 0.90712,-1.08416 z"
         id="path106010-0"
         sodipodi:nodetypes="czc" /><path
         style="fill:#5f8dd3;stroke:#0b1728;stroke-width:0.16333px;stroke-linecap:butt;stroke-linejoin:miter;stroke-opacity:1"
         d="m 343.32854,362.61142 c -0.4738,0.29976 -1.3359,0.5728 -0.87986,1.05159 0.45603,0.4788 0.72961,-0.2146 0.87986,-1.05159 z"
         id="path106012-4"
         sodipodi:nodetypes="czc" /><path
         style="fill:#5f8dd3;stroke:#0b1728;stroke-width:0.16333px;stroke-linecap:butt;stroke-linejoin:miter;stroke-opacity:1"
         d="m 342.95663,364.55044 c -0.4738,0.29976 -1.3359,0.5728 -0.87986,1.05159 0.45603,0.4788 0.72961,-0.2146 0.87986,-1.05159 z"
         id="path106014-2"
         sodipodi:nodetypes="czc" /><path
         style="fill:none;stroke:#d7e3f4;stroke-width:0.264583px;stroke-linecap:butt;stroke-linejoin:miter;stroke-opacity:1"
         d="m 347.40086,362.38551 c 0,0 2.58936,1.60541 4.04808,1.93633 1.04028,0.236 2.42082,0.6978 3.40633,0.28959 1.01111,-0.41882 2.12217,-1.5168 2.11542,-2.6112 -0.006,-1.00633 -1.15461,-2.11196 -2.16095,-2.10829 -0.89685,0.003 -1.90982,0.99604 -1.91208,1.89289 -0.002,0.71187 0.79825,1.51011 1.51012,1.51011 0.53595,0 1.13693,-0.60096 1.13693,-1.13691 10e-6,-0.3432 -0.72803,-0.72806 -0.72803,-0.72806"
         id="path106261"
         sodipodi:nodetypes="csssssssc" /><path
         style="fill:none;stroke:#d7e3f4;stroke-width:0.178902px;stroke-linecap:butt;stroke-linejoin:miter;stroke-opacity:1"
         d="m 349.91237,366.0779 c 0,0 1.97213,-0.59539 2.98277,-0.55624 0.72073,0.0279 1.70322,-0.0321 2.27544,0.40699 0.58709,0.45049 1.1206,1.36205 0.92467,2.07565 -0.18003,0.65621 -1.12371,1.17732 -1.78034,0.99881 -0.58523,-0.15892 -1.07304,-0.98477 -0.91756,-1.57093 0.12327,-0.46529 0.78563,-0.84659 1.25058,-0.72201 0.35004,0.0938 0.63738,0.59147 0.54359,0.94152 -0.0601,0.22415 -0.60291,0.3481 -0.60291,0.3481"
         id="path106263"
         sodipodi:nodetypes="csssssssc" /></g></g><style
     type="text/css"
     id="style3760">
	.st0{fill-rule:evenodd;clip-rule:evenodd;fill:#388344;}
	.st1{fill-rule:evenodd;clip-rule:evenodd;fill:#1F1D21;}
</style><style
     type="text/css"
     id="style3760-5">
	.st0{fill-rule:evenodd;clip-rule:evenodd;fill:#388344;}
	.st1{fill-rule:evenodd;clip-rule:evenodd;fill:#1F1D21;}
</style><style
     type="text/css"
     id="style3760-9">
	.st0{fill-rule:evenodd;clip-rule:evenodd;fill:#388344;}
	.st1{fill-rule:evenodd;clip-rule:evenodd;fill:#1F1D21;}
</style><style
     type="text/css"
     id="style3760-7">
	.st0{fill-rule:evenodd;clip-rule:evenodd;fill:#388344;}
	.st1{fill-rule:evenodd;clip-rule:evenodd;fill:#1F1D21;}
</style></svg>
