<?xml version="1.0" encoding="UTF-8" standalone="no"?>
<!-- Created with Inkscape (http://www.inkscape.org/) -->

<svg
   width="86.149734mm"
   height="77.381653mm"
   viewBox="0 0 86.149734 77.381653"
   version="1.1"
   id="svg336"
   xml:space="preserve"
   xmlns="http://www.w3.org/2000/svg"
   xmlns:svg="http://www.w3.org/2000/svg"><defs
     id="defs333"><marker
       style="overflow:visible"
       id="Arrow1"
       refX="0"
       refY="0"
       orient="auto-start-reverse"
       markerWidth="4.0606604"
       markerHeight="6.7071066"
       viewBox="0 0 4.0606602 6.7071068"
       preserveAspectRatio="xMidYMid"><path
         style="fill:none;stroke:context-stroke;stroke-width:1;stroke-linecap:butt"
         d="M 3,-3 0,0 3,3"
         id="path5057"
         transform="rotate(180,0.125,0)" /></marker></defs><g
     id="layer1"
     transform="translate(-237.29745,-313.81884)"><g
       id="g79160"
       transform="translate(0,171.69711)"><path
         id="path79120"
         style="fill:#ffd42a;stroke:#ffff00;stroke-width:0.952296;stroke-linecap:round;stroke-dasharray:none;paint-order:markers fill stroke"
         d="m 275.97658,142.59788 h 4.67989 v 71.8751 l -4.67989,3.99745 z" /><g
         id="g79158"><path
           id="path79122"
           style="fill:#000000;stroke:#000000;stroke-width:0.2;stroke-linecap:round;stroke-dasharray:none;paint-order:markers fill stroke"
           d="m 281.23262,142.22173 h 31.00388 c 15.15011,0 14.47455,24.90967 0,24.90967 h -31.00388 z" /><rect
           style="fill:#0000ff;stroke:#000000;stroke-width:0.329825;stroke-linecap:round;stroke-linejoin:miter;stroke-dasharray:none;stroke-dashoffset:0;paint-order:markers fill stroke"
           id="rect79124"
           width="12.712893"
           height="4.8415952"
           x="294.3887"
           y="145.77892"
           ry="2.3260634" /><g
           aria-label="1001"
           id="text79128"
           style="font-size:4.65419px;line-height:1.25;font-family:'Noto Sans';-inkscape-font-specification:'Noto Sans';stroke-width:0.43633"
           transform="translate(-3.6634125e-4)"><path
             d="m 297.57562,149.86359 h -0.70278 v -1.92218 q 0,-0.12101 0.005,-0.31649 0.009,-0.19547 0.014,-0.34441 -0.0233,0.0279 -0.1024,0.10239 -0.0745,0.0698 -0.13962,0.12567 l -0.38164,0.30717 -0.33976,-0.42353 1.07046,-0.85172 h 0.57712 z"
             style="font-weight:bold;-inkscape-font-specification:'Noto Sans Bold'"
             id="path79628" /><path
             d="m 300.80563,148.20204 q 0,0.53523 -0.11635,0.91688 -0.1117,0.38164 -0.36768,0.58642 -0.25133,0.20479 -0.67951,0.20479 -0.60039,0 -0.87965,-0.45146 -0.27925,-0.45611 -0.27925,-1.25663 0,-0.53989 0.1117,-0.92153 0.1117,-0.38164 0.36768,-0.58643 0.25598,-0.20478 0.67952,-0.20478 0.59573,0 0.87964,0.45146 0.2839,0.45145 0.2839,1.26128 z m -1.62431,0 q 0,0.56781 0.0977,0.85637 0.0977,0.28391 0.36303,0.28391 0.26063,0 0.36302,-0.28391 0.10239,-0.2839 0.10239,-0.85637 0,-0.56781 -0.10239,-0.85637 -0.10239,-0.28856 -0.36302,-0.28856 -0.26529,0 -0.36303,0.28856 -0.0977,0.28856 -0.0977,0.85637 z"
             style="font-weight:bold;-inkscape-font-specification:'Noto Sans Bold'"
             id="path79630" /><path
             d="m 303.46783,148.20204 q 0,0.53523 -0.11635,0.91688 -0.1117,0.38164 -0.36768,0.58642 -0.25133,0.20479 -0.67952,0.20479 -0.60039,0 -0.87964,-0.45146 -0.27925,-0.45611 -0.27925,-1.25663 0,-0.53989 0.1117,-0.92153 0.1117,-0.38164 0.36768,-0.58643 0.25598,-0.20478 0.67951,-0.20478 0.59574,0 0.87965,0.45146 0.2839,0.45145 0.2839,1.26128 z m -1.62431,0 q 0,0.56781 0.0977,0.85637 0.0977,0.28391 0.36302,0.28391 0.26064,0 0.36303,-0.28391 0.10239,-0.2839 0.10239,-0.85637 0,-0.56781 -0.10239,-0.85637 -0.10239,-0.28856 -0.36303,-0.28856 -0.26528,0 -0.36302,0.28856 -0.0977,0.28856 -0.0977,0.85637 z"
             style="font-weight:bold;-inkscape-font-specification:'Noto Sans Bold'"
             id="path79632" /><path
             d="m 305.56222,149.86359 h -0.70278 v -1.92218 q 0,-0.12101 0.005,-0.31649 0.009,-0.19547 0.014,-0.34441 -0.0233,0.0279 -0.10239,0.10239 -0.0745,0.0698 -0.13962,0.12567 l -0.38165,0.30717 -0.33975,-0.42353 1.07046,-0.85172 h 0.57712 z"
             style="font-weight:bold;-inkscape-font-specification:'Noto Sans Bold'"
             id="path79634" /></g><rect
           style="fill:#ff0000;stroke:#000000;stroke-width:0.329825;stroke-linecap:round;stroke-linejoin:miter;stroke-dasharray:none;stroke-dashoffset:0;paint-order:markers fill stroke"
           id="rect79130"
           width="12.712893"
           height="4.8415952"
           x="294.3887"
           y="151.56532"
           ry="2.3260634" /><g
           aria-label="2345"
           id="text79134"
           style="font-size:4.65419px;line-height:1.25;font-family:'Noto Sans';-inkscape-font-specification:'Noto Sans';stroke-width:0.43633"
           transform="translate(-0.21406634,-0.00231954)"><path
             d="m 298.16205,155.64999 h -2.32244 v -0.48869 l 0.8331,-0.8424 q 0.25133,-0.26064 0.40491,-0.43284 0.15359,-0.17686 0.22341,-0.31649 0.0698,-0.14428 0.0698,-0.30718 0,-0.20013 -0.1117,-0.29786 -0.10705,-0.0977 -0.29322,-0.0977 -0.19082,0 -0.37233,0.0884 -0.18151,0.0884 -0.38164,0.25132 l -0.38165,-0.45145 q 0.14428,-0.12567 0.30252,-0.23271 0.1629,-0.10705 0.37234,-0.17221 0.21409,-0.0698 0.51196,-0.0698 0.32579,0 0.5585,0.12101 0.23737,0.11635 0.36303,0.32114 0.13032,0.20013 0.13032,0.45611 0,0.2746 -0.1117,0.50265 -0.10705,0.22806 -0.31649,0.45146 -0.20478,0.2234 -0.498,0.49334 l -0.42818,0.40026 v 0.0326 h 1.44745 z"
             style="font-weight:bold;-inkscape-font-specification:'Noto Sans Bold'"
             id="path79646" /><path
             d="m 300.69393,153.07157 q 0,0.34441 -0.20944,0.5492 -0.20478,0.20478 -0.5073,0.27925 v 0.014 q 0.40026,0.0465 0.60504,0.24202 0.20944,0.19547 0.20944,0.52592 0,0.28856 -0.14428,0.52127 -0.13963,0.22806 -0.43749,0.36303 -0.29322,0.13032 -0.75864,0.13032 -0.53988,0 -0.95876,-0.18152 v -0.59573 q 0.21409,0.10704 0.4468,0.16289 0.23737,0.0558 0.4375,0.0558 0.37699,0 0.52592,-0.13031 0.15359,-0.13032 0.15359,-0.36769 0,-0.13962 -0.0698,-0.2327 -0.0698,-0.0977 -0.24668,-0.14428 -0.1722,-0.0512 -0.48403,-0.0512 h -0.25133 v -0.53989 h 0.25598 q 0.30718,0 0.46542,-0.0559 0.1629,-0.0605 0.21875,-0.15824 0.0605,-0.10239 0.0605,-0.23271 0,-0.17686 -0.1117,-0.2746 -0.10704,-0.10239 -0.36302,-0.10239 -0.23737,0 -0.41423,0.0838 -0.1722,0.0791 -0.29321,0.15824 l -0.3258,-0.48404 q 0.19548,-0.13962 0.45612,-0.23271 0.26528,-0.0931 0.62831,-0.0931 0.51196,0 0.80983,0.20944 0.30252,0.20478 0.30252,0.58177 z"
             style="font-weight:bold;-inkscape-font-specification:'Noto Sans Bold'"
             id="path79648" /><path
             d="m 303.56092,154.96117 h -0.40026 v 0.68882 h -0.68417 v -0.68882 h -1.41953 v -0.48869 l 1.45676,-2.14558 h 0.64694 v 2.08973 h 0.40026 z m -1.08443,-1.10769 q 0,-0.10705 0.005,-0.26064 0.005,-0.15359 0.009,-0.2839 0.009,-0.13498 0.014,-0.17686 h -0.0186 q -0.0419,0.0931 -0.0884,0.18151 -0.0465,0.0884 -0.1117,0.18151 l -0.6097,0.92153 h 0.80052 z"
             style="font-weight:bold;-inkscape-font-specification:'Noto Sans Bold'"
             id="path79650" /><path
             d="m 305.0363,153.52768 q 0.30252,0 0.53988,0.11636 0.23737,0.11635 0.37234,0.33975 0.13962,0.2234 0.13962,0.55385 0,0.53989 -0.3351,0.85172 -0.3351,0.30718 -0.99134,0.30718 -0.26064,0 -0.49334,-0.0465 -0.22806,-0.0465 -0.40027,-0.13497 v -0.60504 q 0.17221,0.0884 0.41423,0.15359 0.24202,0.0605 0.45611,0.0605 0.31183,0 0.47473,-0.12566 0.16755,-0.13032 0.16755,-0.40026 0,-0.50266 -0.66555,-0.50266 -0.13032,0 -0.26995,0.0279 -0.13962,0.0233 -0.23271,0.0465 l -0.27925,-0.14893 0.12567,-1.69413 h 1.80117 v 0.59574 h -1.18682 l -0.0605,0.65159 q 0.0791,-0.014 0.16755,-0.0279 0.0931,-0.0186 0.25598,-0.0186 z"
             style="font-weight:bold;-inkscape-font-specification:'Noto Sans Bold'"
             id="path79652" /></g><rect
           style="fill:#0000ff;stroke:#000000;stroke-width:0.329825;stroke-linecap:round;stroke-linejoin:miter;stroke-dasharray:none;stroke-dashoffset:0;paint-order:markers fill stroke"
           id="rect79136"
           width="12.712893"
           height="4.8415952"
           x="308.30408"
           y="145.77892"
           ry="2.3260634" /><g
           aria-label="1002"
           id="text79140"
           style="font-size:4.65419px;line-height:1.25;font-family:'Noto Sans';-inkscape-font-specification:'Noto Sans';stroke-width:0.43633"
           transform="translate(-0.29341659)"><path
             d="m 311.49103,149.86359 h -0.70278 v -1.92218 q 0,-0.12101 0.005,-0.31649 0.009,-0.19547 0.014,-0.34441 -0.0233,0.0279 -0.10239,0.10239 -0.0745,0.0698 -0.13963,0.12567 l -0.38164,0.30717 -0.33976,-0.42353 1.07047,-0.85172 h 0.57712 z"
             style="font-weight:bold;-inkscape-font-specification:'Noto Sans Bold'"
             id="path79637" /><path
             d="m 314.72104,148.20204 q 0,0.53523 -0.11636,0.91688 -0.1117,0.38164 -0.36768,0.58642 -0.25132,0.20479 -0.67951,0.20479 -0.60039,0 -0.87964,-0.45146 -0.27925,-0.45611 -0.27925,-1.25663 0,-0.53989 0.1117,-0.92153 0.1117,-0.38164 0.36768,-0.58643 0.25598,-0.20478 0.67951,-0.20478 0.59574,0 0.87964,0.45146 0.28391,0.45145 0.28391,1.26128 z m -1.62431,0 q 0,0.56781 0.0977,0.85637 0.0977,0.28391 0.36303,0.28391 0.26064,0 0.36303,-0.28391 0.10239,-0.2839 0.10239,-0.85637 0,-0.56781 -0.10239,-0.85637 -0.10239,-0.28856 -0.36303,-0.28856 -0.26529,0 -0.36303,0.28856 -0.0977,0.28856 -0.0977,0.85637 z"
             style="font-weight:bold;-inkscape-font-specification:'Noto Sans Bold'"
             id="path79639" /><path
             d="m 317.38324,148.20204 q 0,0.53523 -0.11636,0.91688 -0.1117,0.38164 -0.36768,0.58642 -0.25132,0.20479 -0.67951,0.20479 -0.60039,0 -0.87964,-0.45146 -0.27925,-0.45611 -0.27925,-1.25663 0,-0.53989 0.1117,-0.92153 0.1117,-0.38164 0.36768,-0.58643 0.25598,-0.20478 0.67951,-0.20478 0.59574,0 0.87964,0.45146 0.28391,0.45145 0.28391,1.26128 z m -1.62431,0 q 0,0.56781 0.0977,0.85637 0.0977,0.28391 0.36303,0.28391 0.26063,0 0.36303,-0.28391 0.10239,-0.2839 0.10239,-0.85637 0,-0.56781 -0.10239,-0.85637 -0.1024,-0.28856 -0.36303,-0.28856 -0.26529,0 -0.36303,0.28856 -0.0977,0.28856 -0.0977,0.85637 z"
             style="font-weight:bold;-inkscape-font-specification:'Noto Sans Bold'"
             id="path79641" /><path
             d="m 320.06405,149.86359 h -2.32244 v -0.48869 l 0.8331,-0.84241 q 0.25133,-0.26064 0.40492,-0.43284 0.15359,-0.17686 0.2234,-0.31649 0.0698,-0.14428 0.0698,-0.30717 0,-0.20013 -0.1117,-0.29787 -0.10705,-0.0977 -0.29321,-0.0977 -0.19083,0 -0.37234,0.0884 -0.18151,0.0884 -0.38164,0.25133 l -0.38165,-0.45146 q 0.14428,-0.12566 0.30253,-0.23271 0.16289,-0.10705 0.37233,-0.1722 0.21409,-0.0698 0.51196,-0.0698 0.3258,0 0.55851,0.12101 0.23736,0.11636 0.36302,0.32114 0.13032,0.20013 0.13032,0.45611 0,0.2746 -0.1117,0.50265 -0.10705,0.22806 -0.31649,0.45146 -0.20478,0.2234 -0.49799,0.49334 l -0.42819,0.40026 v 0.0326 h 1.44745 z"
             style="font-weight:bold;-inkscape-font-specification:'Noto Sans Bold'"
             id="path79643" /></g><rect
           style="fill:#1a1a1a;stroke:#000000;stroke-width:0.329825;stroke-linecap:round;stroke-linejoin:miter;stroke-dasharray:none;stroke-dashoffset:0;paint-order:markers fill stroke"
           id="rect79142"
           width="12.712893"
           height="4.8415952"
           x="308.30408"
           y="151.56532"
           ry="2.3260634" /><path
           id="path79144"
           style="fill:#ffd42a;stroke:#ffff00;stroke-width:0.2;stroke-linecap:round;stroke-dasharray:none;paint-order:markers fill stroke"
           d="m 281.23262,142.22173 h 3.76174 c 11.40591,0 12.09674,24.90967 0,24.90967 h -3.76174 z" /><g
           aria-label="Rua das Flores"
           id="text79148"
           style="font-size:2.11667px;line-height:1.25;font-family:'Noto Sans';-inkscape-font-specification:'Noto Sans';stroke-width:0.503922"><path
             d="m 293.60341,163.29415 q 0.28152,0 0.41487,0.10795 0.13546,0.10583 0.13546,0.32173 0,0.12065 -0.0445,0.20109 -0.0444,0.0804 -0.1143,0.12911 -0.0677,0.0466 -0.14393,0.0741 l 0.41487,0.67733 h -0.22225 l -0.36619,-0.62442 h -0.30056 v 0.62442 h -0.1905 v -1.5113 z m -0.0106,0.1651 h -0.2159 v 0.56092 h 0.22648 q 0.18415,0 0.26882,-0.072 0.0847,-0.0741 0.0847,-0.2159 0,-0.14817 -0.0889,-0.20955 -0.0889,-0.0635 -0.27516,-0.0635 z"
             style="fill:#ffffff"
             id="path79655" /><path
             d="m 295.42586,163.67092 v 1.13453 h -0.1524 l -0.0275,-0.15028 h -0.008 q -0.055,0.0889 -0.1524,0.13123 -0.0974,0.0402 -0.20743,0.0402 -0.20532,0 -0.30904,-0.0974 -0.10372,-0.0995 -0.10372,-0.31538 v -0.74295 h 0.18839 v 0.73025 q 0,0.27093 0.25188,0.27093 0.18839,0 0.26035,-0.10583 0.0741,-0.10584 0.0741,-0.3048 v -0.59055 z"
             style="fill:#ffffff"
             id="path79657" /><path
             d="m 296.21538,163.65187 q 0.20743,0 0.30692,0.091 0.0995,0.091 0.0995,0.28999 v 0.77258 h -0.13547 l -0.036,-0.16087 h -0.008 q -0.0741,0.0931 -0.15663,0.13759 -0.0804,0.0444 -0.22437,0.0444 -0.15451,0 -0.25611,-0.0804 -0.1016,-0.0825 -0.1016,-0.25611 0,-0.16934 0.13335,-0.26035 0.13335,-0.0931 0.41063,-0.1016 l 0.19262,-0.006 v -0.0677 q 0,-0.14181 -0.0614,-0.19685 -0.0614,-0.055 -0.17356,-0.055 -0.0889,0 -0.16934,0.0275 -0.0804,0.0254 -0.15028,0.0593 l -0.0571,-0.1397 q 0.0741,-0.0402 0.17568,-0.0677 0.1016,-0.0296 0.21167,-0.0296 z m 0.055,0.60536 q -0.21166,0.008 -0.29421,0.0677 -0.0804,0.0593 -0.0804,0.16721 0,0.0953 0.0571,0.1397 0.0593,0.0445 0.15029,0.0445 0.14393,0 0.23918,-0.0783 0.0953,-0.0804 0.0953,-0.24554 v -0.1016 z"
             style="fill:#ffffff"
             id="path79659" /><path
             d="m 297.92565,164.82662 q -0.21166,0 -0.33867,-0.14605 -0.127,-0.14817 -0.127,-0.44027 0,-0.2921 0.127,-0.44027 0.12912,-0.15028 0.34079,-0.15028 0.13123,0 0.21378,0.0487 0.0847,0.0487 0.13759,0.11854 h 0.0127 q -0.002,-0.0275 -0.008,-0.0804 -0.004,-0.055 -0.004,-0.0868 v -0.45297 h 0.18626 v 1.60867 h -0.15028 l -0.0275,-0.1524 h -0.008 q -0.0508,0.072 -0.13547,0.12277 -0.0847,0.0508 -0.21802,0.0508 z m 0.0296,-0.15452 q 0.17991,0 0.25188,-0.0974 0.0741,-0.0995 0.0741,-0.29845 v -0.0339 q 0,-0.21167 -0.0698,-0.32385 -0.0699,-0.1143 -0.25823,-0.1143 -0.15028,0 -0.22648,0.12065 -0.0741,0.11853 -0.0741,0.31961 0,0.2032 0.0741,0.31539 0.0762,0.11218 0.2286,0.11218 z"
             style="fill:#ffffff"
             id="path79661" /><path
             d="m 299.25492,163.65187 q 0.20743,0 0.30692,0.091 0.0995,0.091 0.0995,0.28999 v 0.77258 h -0.13547 l -0.036,-0.16087 h -0.008 q -0.0741,0.0931 -0.15663,0.13759 -0.0804,0.0444 -0.22437,0.0444 -0.15451,0 -0.25611,-0.0804 -0.1016,-0.0825 -0.1016,-0.25611 0,-0.16934 0.13335,-0.26035 0.13335,-0.0931 0.41063,-0.1016 l 0.19262,-0.006 v -0.0677 q 0,-0.14181 -0.0614,-0.19685 -0.0614,-0.055 -0.17356,-0.055 -0.0889,0 -0.16934,0.0275 -0.0804,0.0254 -0.15028,0.0593 l -0.0571,-0.1397 q 0.0741,-0.0402 0.17568,-0.0677 0.1016,-0.0296 0.21167,-0.0296 z m 0.055,0.60536 q -0.21166,0.008 -0.29421,0.0677 -0.0804,0.0593 -0.0804,0.16721 0,0.0953 0.0572,0.1397 0.0593,0.0445 0.15029,0.0445 0.14393,0 0.23918,-0.0783 0.0953,-0.0804 0.0953,-0.24554 v -0.1016 z"
             style="fill:#ffffff"
             id="path79663" /><path
             d="m 300.75141,164.49218 q 0,0.1651 -0.12277,0.24977 -0.12277,0.0847 -0.3302,0.0847 -0.11853,0 -0.20532,-0.019 -0.0847,-0.019 -0.15028,-0.0529 v -0.16933 q 0.0677,0.0339 0.16298,0.0635 0.0974,0.0275 0.19685,0.0275 0.14182,0 0.20532,-0.0445 0.0635,-0.0466 0.0635,-0.12276 0,-0.0423 -0.0233,-0.0762 -0.0233,-0.0339 -0.0847,-0.0677 -0.0593,-0.0339 -0.17145,-0.0762 -0.11007,-0.0423 -0.18838,-0.0847 -0.0783,-0.0423 -0.12065,-0.1016 -0.0423,-0.0593 -0.0423,-0.1524 0,-0.14394 0.11642,-0.22225 0.11853,-0.0783 0.30903,-0.0783 0.10372,0 0.19262,0.0212 0.091,0.019 0.16933,0.055 l -0.0635,0.14817 q -0.072,-0.0296 -0.15028,-0.0508 -0.0783,-0.0212 -0.16087,-0.0212 -0.1143,0 -0.17568,0.0381 -0.0593,0.036 -0.0593,0.0995 0,0.0466 0.0275,0.0804 0.0275,0.0317 0.091,0.0635 0.0656,0.0296 0.17356,0.072 0.10795,0.0402 0.18415,0.0825 0.0762,0.0423 0.11642,0.10372 0.0402,0.0593 0.0402,0.15028 z"
             style="fill:#ffffff"
             id="path79665" /><path
             d="m 301.79281,164.80545 h -0.1905 v -1.5113 h 0.84455 v 0.16722 h -0.65405 v 0.53551 h 0.61383 v 0.16722 h -0.61383 z"
             style="fill:#ffffff"
             id="path79667" /><path
             d="m 302.86173,164.80545 h -0.18627 v -1.60867 h 0.18627 z"
             style="fill:#ffffff"
             id="path79669" /><path
             d="m 304.20793,164.23607 q 0,0.28151 -0.14394,0.43603 -0.14181,0.15452 -0.38523,0.15452 -0.15028,0 -0.26882,-0.0677 -0.11641,-0.0699 -0.18415,-0.20108 -0.0677,-0.13335 -0.0677,-0.32173 0,-0.28152 0.14182,-0.43392 0.14181,-0.1524 0.38523,-0.1524 0.15452,0 0.27093,0.0699 0.11854,0.0677 0.18415,0.19897 0.0677,0.12911 0.0677,0.3175 z m -0.85725,0 q 0,0.20108 0.0783,0.31961 0.0804,0.11642 0.254,0.11642 0.17145,0 0.25189,-0.11642 0.0804,-0.11853 0.0804,-0.31961 0,-0.20109 -0.0804,-0.31539 -0.0804,-0.1143 -0.254,-0.1143 -0.17357,0 -0.25189,0.1143 -0.0783,0.1143 -0.0783,0.31539 z"
             style="fill:#ffffff"
             id="path79671" /><path
             d="m 305.03131,163.64975 q 0.0317,0 0.0677,0.004 0.0381,0.002 0.0656,0.008 l -0.0233,0.17145 q -0.0275,-0.006 -0.0614,-0.0106 -0.0317,-0.004 -0.0614,-0.004 -0.0868,0 -0.16298,0.0487 -0.0762,0.0466 -0.12277,0.13335 -0.0445,0.0847 -0.0445,0.19896 v 0.60537 h -0.18627 v -1.13453 h 0.1524 l 0.0212,0.20743 h 0.008 q 0.055,-0.0931 0.14181,-0.16087 0.0868,-0.0677 0.20532,-0.0677 z"
             style="fill:#ffffff"
             id="path79673" /><path
             d="m 305.77214,163.64975 q 0.14605,0 0.24977,0.0635 0.10583,0.0635 0.16087,0.17992 0.0572,0.1143 0.0572,0.26881 v 0.11219 h -0.77682 q 0.004,0.19261 0.0974,0.29421 0.0953,0.0995 0.26458,0.0995 0.10795,0 0.1905,-0.019 0.0847,-0.0212 0.17357,-0.0593 v 0.16298 q -0.0868,0.0381 -0.17145,0.055 -0.0847,0.019 -0.20109,0.019 -0.16086,0 -0.28575,-0.0656 -0.12276,-0.0656 -0.19261,-0.19473 -0.0677,-0.13124 -0.0677,-0.31962 0,-0.18627 0.0614,-0.31962 0.0635,-0.13335 0.17568,-0.20531 0.1143,-0.072 0.26458,-0.072 z m -0.002,0.1524 q -0.13335,0 -0.21167,0.0868 -0.0762,0.0847 -0.091,0.23707 h 0.57785 q -0.002,-0.14393 -0.0677,-0.23283 -0.0656,-0.091 -0.20743,-0.091 z"
             style="fill:#ffffff"
             id="path79675" /><path
             d="m 307.26651,164.49218 q 0,0.1651 -0.12277,0.24977 -0.12276,0.0847 -0.3302,0.0847 -0.11853,0 -0.20531,-0.019 -0.0847,-0.019 -0.15029,-0.0529 v -0.16933 q 0.0677,0.0339 0.16299,0.0635 0.0974,0.0275 0.19685,0.0275 0.14181,0 0.20531,-0.0445 0.0635,-0.0466 0.0635,-0.12276 0,-0.0423 -0.0233,-0.0762 -0.0233,-0.0339 -0.0847,-0.0677 -0.0593,-0.0339 -0.17145,-0.0762 -0.11006,-0.0423 -0.18838,-0.0847 -0.0783,-0.0423 -0.12065,-0.1016 -0.0423,-0.0593 -0.0423,-0.1524 0,-0.14394 0.11641,-0.22225 0.11854,-0.0783 0.30904,-0.0783 0.10371,0 0.19261,0.0212 0.091,0.019 0.16934,0.055 l -0.0635,0.14817 q -0.072,-0.0296 -0.15029,-0.0508 -0.0783,-0.0212 -0.16086,-0.0212 -0.1143,0 -0.17569,0.0381 -0.0593,0.036 -0.0593,0.0995 0,0.0466 0.0275,0.0804 0.0275,0.0317 0.091,0.0635 0.0656,0.0296 0.17357,0.072 0.10795,0.0402 0.18415,0.0825 0.0762,0.0423 0.11641,0.10372 0.0402,0.0593 0.0402,0.15028 z"
             style="fill:#ffffff"
             id="path79677" /></g><g
           aria-label="Cod: 123456"
           id="text79152"
           style="font-size:1.05833px;line-height:1.25;font-family:'Noto Sans';-inkscape-font-specification:'Noto Sans';stroke-width:0.264583"><path
             d="m 281.93108,165.71171 q -0.1217,0 -0.19155,0.0815 -0.0698,0.0815 -0.0698,0.22331 0,0.14076 0.0646,0.22331 0.0656,0.0815 0.19579,0.0815 0.0497,0 0.0942,-0.008 0.0444,-0.008 0.0868,-0.0212 v 0.0825 q -0.0423,0.0159 -0.0878,0.0233 -0.0445,0.007 -0.10689,0.007 -0.11536,0 -0.19262,-0.0476 -0.0773,-0.0476 -0.11641,-0.13546 -0.0381,-0.0879 -0.0381,-0.20638 0,-0.1143 0.0413,-0.20108 0.0423,-0.0878 0.12383,-0.13653 0.0815,-0.0497 0.1979,-0.0497 0.11959,0 0.20849,0.0445 l -0.0381,0.0804 q -0.0349,-0.0159 -0.0783,-0.0286 -0.0423,-0.0127 -0.0931,-0.0127 z"
             id="path79607" /><path
             d="m 282.75658,166.10964 q 0,0.14076 -0.072,0.21802 -0.0709,0.0773 -0.19262,0.0773 -0.0751,0 -0.13441,-0.0339 -0.0582,-0.0349 -0.0921,-0.10054 -0.0339,-0.0667 -0.0339,-0.16087 0,-0.14076 0.0709,-0.21696 0.0709,-0.0762 0.19261,-0.0762 0.0773,0 0.13547,0.0349 0.0593,0.0339 0.0921,0.0995 0.0339,0.0646 0.0339,0.15875 z m -0.42862,0 q 0,0.10054 0.0392,0.15981 0.0402,0.0582 0.127,0.0582 0.0857,0 0.12594,-0.0582 0.0402,-0.0593 0.0402,-0.15981 0,-0.10054 -0.0402,-0.15769 -0.0402,-0.0572 -0.127,-0.0572 -0.0868,0 -0.12594,0.0572 -0.0392,0.0571 -0.0392,0.15769 z"
             id="path79609" /><path
             d="m 283.10477,166.40492 q -0.10583,0 -0.16933,-0.073 -0.0635,-0.0741 -0.0635,-0.22013 0,-0.14605 0.0635,-0.22013 0.0646,-0.0751 0.17039,-0.0751 0.0656,0 0.10689,0.0243 0.0423,0.0243 0.0688,0.0593 h 0.006 q -10e-4,-0.0138 -0.004,-0.0402 -0.002,-0.0275 -0.002,-0.0434 V 165.59 h 0.0931 v 0.80433 h -0.0751 l -0.0138,-0.0762 h -0.004 q -0.0254,0.036 -0.0677,0.0614 -0.0423,0.0254 -0.10901,0.0254 z m 0.0148,-0.0773 q 0.09,0 0.12594,-0.0487 0.037,-0.0497 0.037,-0.14922 v -0.0169 q 0,-0.10584 -0.0349,-0.16193 -0.0349,-0.0571 -0.12912,-0.0571 -0.0751,0 -0.11324,0.0603 -0.037,0.0593 -0.037,0.15981 0,0.1016 0.037,0.15769 0.0381,0.0561 0.1143,0.0561 z"
             id="path79611" /><path
             d="m 283.5408,165.88422 q 0,-0.0402 0.019,-0.0561 0.019,-0.0159 0.0455,-0.0159 0.0275,0 0.0466,0.0159 0.0201,0.0159 0.0201,0.0561 0,0.0381 -0.0201,0.055 -0.019,0.0169 -0.0466,0.0169 -0.0265,0 -0.0455,-0.0169 -0.019,-0.0169 -0.019,-0.055 z m 0,0.45296 q 0,-0.0392 0.019,-0.055 0.019,-0.0159 0.0455,-0.0159 0.0275,0 0.0466,0.0159 0.0201,0.0159 0.0201,0.055 0,0.0381 -0.0201,0.055 -0.019,0.0169 -0.0466,0.0169 -0.0265,0 -0.0455,-0.0169 -0.019,-0.0169 -0.019,-0.055 z"
             id="path79613" /><path
             d="m 284.39911,166.39433 h -0.091 v -0.5281 q 0,-0.0455 10e-4,-0.073 0.001,-0.0275 0.003,-0.0572 -0.0169,0.0169 -0.0307,0.0286 -0.0138,0.0116 -0.0349,0.0296 l -0.0804,0.0656 -0.0487,-0.0625 0.20426,-0.15874 h 0.0773 z"
             id="path79615" /><path
             d="m 285.1791,166.39433 h -0.49953 v -0.0773 l 0.19791,-0.20002 q 0.0571,-0.0572 0.0963,-0.1016 0.0392,-0.0444 0.0593,-0.0868 0.0201,-0.0434 0.0201,-0.0942 0,-0.0625 -0.037,-0.0942 -0.0371,-0.0328 -0.0963,-0.0328 -0.055,0 -0.0974,0.019 -0.0413,0.019 -0.0847,0.0529 l -0.0497,-0.0624 q 0.0444,-0.037 0.1016,-0.0624 0.0582,-0.0265 0.13018,-0.0265 0.10583,0 0.16721,0.054 0.0614,0.0529 0.0614,0.1471 0,0.0593 -0.0243,0.11113 -0.0244,0.0519 -0.0677,0.10266 -0.0434,0.0497 -0.1016,0.10689 l -0.15769,0.15557 v 0.004 h 0.38206 z"
             id="path79617" /><path
             d="m 285.75589,165.81543 q 0,0.0762 -0.0423,0.1217 -0.0423,0.0445 -0.1143,0.0593 v 0.004 q 0.091,0.0106 0.13546,0.0572 0.0445,0.0466 0.0445,0.12171 0,0.0656 -0.0307,0.11748 -0.0307,0.0508 -0.0952,0.0794 -0.0635,0.0286 -0.16404,0.0286 -0.0593,0 -0.11007,-0.01 -0.0508,-0.008 -0.0974,-0.0317 v -0.0868 q 0.0476,0.0233 0.10266,0.037 0.055,0.0127 0.10583,0.0127 0.1016,0 0.14605,-0.0392 0.0455,-0.0402 0.0455,-0.11006 0,-0.0709 -0.0561,-0.1016 -0.055,-0.0318 -0.15558,-0.0318 h -0.073 v -0.0794 h 0.0741 q 0.0931,0 0.14076,-0.0392 0.0487,-0.0392 0.0487,-0.10371 0,-0.055 -0.037,-0.0847 -0.037,-0.0307 -0.10054,-0.0307 -0.0614,0 -0.10478,0.018 -0.0434,0.018 -0.0857,0.0455 l -0.0466,-0.0635 q 0.0402,-0.0318 0.0995,-0.055 0.0603,-0.0233 0.13653,-0.0233 0.11853,0 0.17568,0.0529 0.0582,0.0529 0.0582,0.13441 z"
             id="path79619" /><path
             d="m 286.4237,166.22288 h -0.11007 v 0.17145 h -0.09 v -0.17145 h -0.36195 v -0.0794 l 0.3556,-0.50906 h 0.0963 v 0.50483 h 0.11007 z m -0.20003,-0.32173 q 0,-0.055 0.002,-0.0931 0.002,-0.0392 0.003,-0.0741 h -0.004 q -0.008,0.0201 -0.0212,0.0434 -0.0127,0.0233 -0.0243,0.0392 l -0.22648,0.3228 h 0.27093 z"
             id="path79621" /><path
             d="m 286.7359,165.93078 q 0.11642,0 0.18521,0.0582 0.0688,0.0582 0.0688,0.16404 0,0.11748 -0.0751,0.18521 -0.0741,0.0667 -0.20743,0.0667 -0.0582,0 -0.11007,-0.0106 -0.0508,-0.0106 -0.0857,-0.0307 v -0.0878 q 0.0381,0.0233 0.0921,0.037 0.055,0.0127 0.10478,0.0127 0.0836,0 0.13441,-0.0392 0.0519,-0.0402 0.0519,-0.12382 0,-0.0741 -0.0455,-0.11324 -0.0455,-0.0402 -0.14394,-0.0402 -0.0296,0 -0.0677,0.005 -0.0381,0.005 -0.0614,0.0106 l -0.0466,-0.0296 0.0286,-0.35665 h 0.37888 v 0.0847 h -0.29951 l -0.018,0.21908 q 0.018,-0.003 0.0487,-0.007 0.0307,-0.004 0.0677,-0.004 z"
             id="path79623" /><path
             d="m 287.10844,166.07154 q 0,-0.0815 0.0138,-0.15981 0.0148,-0.0794 0.0519,-0.14287 0.0381,-0.0646 0.10584,-0.10266 0.0677,-0.0381 0.17462,-0.0381 0.0222,0 0.0487,0.002 0.0275,0.002 0.0444,0.007 v 0.0794 q -0.019,-0.006 -0.0434,-0.01 -0.0233,-0.003 -0.0476,-0.003 -0.073,0 -0.12171,0.0243 -0.0487,0.0243 -0.0773,0.0667 -0.0275,0.0423 -0.0402,0.0974 -0.0127,0.055 -0.0159,0.11748 h 0.006 q 0.0243,-0.037 0.0677,-0.0624 0.0434,-0.0265 0.11113,-0.0265 0.0984,0 0.15875,0.0603 0.0603,0.0593 0.0603,0.16934 0,0.11853 -0.0656,0.18626 -0.0646,0.0677 -0.17463,0.0677 -0.072,0 -0.13017,-0.036 -0.0582,-0.036 -0.0931,-0.11006 -0.0339,-0.0741 -0.0339,-0.18733 z m 0.25611,0.25506 q 0.0667,0 0.10795,-0.0423 0.0413,-0.0434 0.0413,-0.13335 0,-0.072 -0.037,-0.1143 -0.036,-0.0423 -0.10901,-0.0423 -0.0497,0 -0.0868,0.0212 -0.0371,0.0201 -0.0582,0.0519 -0.0201,0.0318 -0.0201,0.0656 0,0.0455 0.018,0.091 0.018,0.0445 0.054,0.0741 0.036,0.0286 0.0899,0.0286 z"
             id="path79625" /></g><rect
           style="fill:#1a1a1a;stroke:#000000;stroke-width:0.329825;stroke-linecap:round;stroke-linejoin:miter;stroke-dasharray:none;stroke-dashoffset:0;paint-order:markers fill stroke"
           id="rect79154"
           width="12.712893"
           height="4.8415952"
           x="294.3887"
           y="157.35173"
           ry="2.3260634" /><rect
           style="fill:#1a1a1a;stroke:#000000;stroke-width:0.329825;stroke-linecap:round;stroke-linejoin:miter;stroke-dasharray:none;stroke-dashoffset:0;paint-order:markers fill stroke"
           id="rect79156"
           width="12.712893"
           height="4.8415952"
           x="308.30408"
           y="157.35173"
           ry="2.3260634" /></g></g><g
       id="g79184"
       transform="matrix(0.89064729,0,0,0.89064729,44.189834,186.29511)"><path
         id="path79162"
         style="fill:#ffffff;stroke:#ececec;stroke-width:0.2;stroke-linecap:round;paint-order:markers fill stroke"
         d="m 221.05965,143.28096 h 38.55101 v 26.44217 h -38.55101 z" /><path
         style="fill:none;stroke:#0bf40b;stroke-width:0.264976;stroke-linecap:butt;stroke-linejoin:miter;stroke-dasharray:none;stroke-opacity:1"
         d="m 221.05965,147.21906 h 38.55101"
         id="path79164" /><rect
         style="fill:#0bf40b;fill-opacity:1;stroke:#00ff00;stroke-width:0.2;stroke-linecap:round;stroke-linejoin:miter;stroke-dasharray:none;stroke-dashoffset:0;paint-order:markers fill stroke"
         id="rect79166"
         width="6.4242244"
         height="3.9703891"
         x="246.51555"
         y="143.28096" /><path
         style="fill:none;stroke:#0bf40b;stroke-width:0.264976;stroke-linecap:butt;stroke-linejoin:miter;stroke-dasharray:none;stroke-opacity:1"
         d="m 239.2084,157.02669 h 20.40226"
         id="path79168" /><path
         style="fill:none;stroke:#0bf40b;stroke-width:0.264976;stroke-linecap:butt;stroke-linejoin:miter;stroke-dasharray:none;stroke-opacity:1"
         d="m 221.05965,167.67839 h 38.55101"
         id="path79170" /><g
         aria-label="10"
         id="text79174"
         style="font-weight:bold;font-size:3.52778px;line-height:1.25;font-family:'Noto Sans';-inkscape-font-specification:'Noto Sans Bold';fill:#ffffff;stroke-width:0.264583"><path
           d="m 249.12793,146.52733 h -0.53269 v -1.45697 q 0,-0.0917 0.004,-0.23989 0.007,-0.14817 0.0106,-0.26106 -0.0176,0.0212 -0.0776,0.0776 -0.0565,0.0529 -0.10584,0.0952 l -0.28927,0.23284 -0.25753,-0.32103 0.81139,-0.64559 h 0.43744 z"
           id="path79456" /><path
           d="m 251.57621,145.26791 q 0,0.4057 -0.0882,0.69497 -0.0847,0.28928 -0.2787,0.4445 -0.1905,0.15523 -0.51505,0.15523 -0.45508,0 -0.66675,-0.3422 -0.21167,-0.34572 -0.21167,-0.9525 0,-0.40922 0.0847,-0.6985 0.0847,-0.28928 0.27869,-0.4445 0.19403,-0.15522 0.51506,-0.15522 0.45155,0 0.66675,0.34219 0.21519,0.3422 0.21519,0.95603 z m -1.23119,0 q 0,0.43039 0.0741,0.64911 0.0741,0.2152 0.27517,0.2152 0.19755,0 0.27517,-0.2152 0.0776,-0.21519 0.0776,-0.64911 0,-0.43039 -0.0776,-0.64911 -0.0776,-0.21872 -0.27517,-0.21872 -0.20108,0 -0.27517,0.21872 -0.0741,0.21872 -0.0741,0.64911 z"
           id="path79458" /></g><g
         aria-label="02"
         id="text79178"
         style="font-weight:bold;font-size:11.2889px;line-height:1.25;font-family:'Noto Sans';-inkscape-font-specification:'Noto Sans Bold';fill:#0bf40b;stroke-width:0.264583"><path
           d="m 250.71537,152.02983 q 0,1.29822 -0.28222,2.22391 -0.27093,0.92569 -0.89182,1.4224 -0.6096,0.49672 -1.64818,0.49672 -1.45627,0 -2.1336,-1.09503 -0.67734,-1.10631 -0.67734,-3.048 0,-1.30951 0.27094,-2.2352 0.27093,-0.92569 0.89182,-1.4224 0.62089,-0.49672 1.64818,-0.49672 1.44498,0 2.1336,1.09503 0.68862,1.09502 0.68862,3.05929 z m -3.93982,0 q 0,1.37725 0.23706,2.07716 0.23707,0.68862 0.88054,0.68862 0.63218,0 0.88053,-0.68862 0.24836,-0.68863 0.24836,-2.07716 0,-1.37725 -0.24836,-2.07716 -0.24835,-0.69991 -0.88053,-0.69991 -0.64347,0 -0.88054,0.69991 -0.23706,0.69991 -0.23706,2.07716 z"
           id="path79461" /><path
           d="m 257.21779,156.05997 h -5.63317 v -1.18534 l 2.02072,-2.04329 q 0.6096,-0.63218 0.98213,-1.04987 0.37254,-0.42897 0.54187,-0.76764 0.16933,-0.34996 0.16933,-0.74507 0,-0.48542 -0.27093,-0.72249 -0.25965,-0.23707 -0.7112,-0.23707 -0.46285,0 -0.90311,0.21449 -0.44027,0.21449 -0.92569,0.6096 l -0.92569,-1.09502 q 0.34995,-0.3048 0.73378,-0.56444 0.39511,-0.25965 0.90311,-0.41769 0.51929,-0.16934 1.24178,-0.16934 0.79022,0 1.35466,0.29351 0.57574,0.28223 0.88054,0.77894 0.31609,0.48542 0.31609,1.10631 0,0.66605 -0.27094,1.2192 -0.25964,0.55316 -0.76764,1.09503 -0.49671,0.54186 -1.20791,1.19662 l -1.03858,0.97084 v 0.079 h 3.51085 z"
           id="path79463" /></g><g
         aria-label="702"
         id="text79182"
         style="font-weight:bold;font-size:11.2889px;line-height:1.25;font-family:'Noto Sans';-inkscape-font-specification:'Noto Sans Bold';fill:#0bf40b;stroke-width:0.264583"><path
           d="m 240.28996,166.01207 3.02543,-6.62658 h -3.97369 v -1.4337 h 5.77991 v 1.07245 l -3.048,6.98783 z"
           id="path79466" /><path
           d="m 251.53371,161.98193 q 0,1.29823 -0.28222,2.22392 -0.27093,0.92569 -0.89182,1.4224 -0.6096,0.49671 -1.64818,0.49671 -1.45627,0 -2.1336,-1.09502 -0.67734,-1.10632 -0.67734,-3.04801 0,-1.30951 0.27094,-2.2352 0.27093,-0.92569 0.89182,-1.4224 0.62089,-0.49671 1.64818,-0.49671 1.44498,0 2.1336,1.09502 0.68862,1.09502 0.68862,3.05929 z m -3.93982,0 q 0,1.37725 0.23706,2.07716 0.23707,0.68862 0.88054,0.68862 0.63218,0 0.88053,-0.68862 0.24836,-0.68862 0.24836,-2.07716 0,-1.37724 -0.24836,-2.07716 -0.24835,-0.69991 -0.88053,-0.69991 -0.64347,0 -0.88054,0.69991 -0.23706,0.69992 -0.23706,2.07716 z"
           id="path79468" /><path
           d="m 258.03613,166.01207 h -5.63316 v -1.18533 l 2.02071,-2.0433 q 0.6096,-0.63217 0.98213,-1.04986 0.37254,-0.42898 0.54187,-0.76765 0.16933,-0.34995 0.16933,-0.74507 0,-0.48542 -0.27093,-0.72249 -0.25964,-0.23706 -0.7112,-0.23706 -0.46285,0 -0.90311,0.21449 -0.44027,0.21449 -0.92569,0.6096 l -0.92569,-1.09503 q 0.34995,-0.3048 0.73378,-0.56444 0.39511,-0.25965 0.90311,-0.41769 0.51929,-0.16933 1.24178,-0.16933 0.79022,0 1.35467,0.29351 0.57573,0.28222 0.88053,0.77893 0.31609,0.48542 0.31609,1.10631 0,0.66605 -0.27093,1.2192 -0.25965,0.55316 -0.76765,1.09503 -0.49671,0.54187 -1.20791,1.19662 l -1.03858,0.97085 v 0.079 h 3.51085 z"
           id="path79470" /></g></g><path
       id="path79186"
       style="fill:#ffcc00;stroke:#ffff00;stroke-width:0.2;stroke-linecap:round;stroke-dasharray:none;paint-order:markers fill stroke"
       d="m 237.39745,337.64762 h 38.00298 v 24.90967 h -38.00298 z" /><g
       id="g79194"
       transform="translate(7.0345795,159.22407)"><rect
         style="fill:#ff6600;stroke:#666666;stroke-width:0.1;stroke-linecap:round;stroke-linejoin:miter;stroke-dasharray:none;stroke-dashoffset:0;paint-order:markers fill stroke"
         id="rect79188"
         width="10.648019"
         height="4.8415985"
         x="232.29517"
         y="181.98073"
         ry="2.3260634" /><g
         aria-label="700"
         id="text79192"
         style="font-size:4.65419px;line-height:1.25;font-family:'Noto Sans';-inkscape-font-specification:'Noto Sans';fill:#ffffff;stroke-width:0.43633"><path
           d="m 234.07652,186.0654 1.24732,-2.73201 h -1.63827 v -0.59108 h 2.38294 v 0.44215 l -1.25663,2.88094 z"
           style="font-weight:bold;-inkscape-font-specification:'Noto Sans Bold'"
           id="path79540" /><path
           d="m 238.7121,184.40385 q 0,0.53524 -0.11636,0.91688 -0.1117,0.38164 -0.36768,0.58643 -0.25133,0.20478 -0.67951,0.20478 -0.60039,0 -0.87964,-0.45146 -0.27925,-0.45611 -0.27925,-1.25663 0,-0.53988 0.1117,-0.92153 0.1117,-0.38164 0.36768,-0.58642 0.25598,-0.20479 0.67951,-0.20479 0.59574,0 0.87964,0.45146 0.28391,0.45145 0.28391,1.26128 z m -1.62432,0 q 0,0.56781 0.0977,0.85637 0.0977,0.28391 0.36303,0.28391 0.26063,0 0.36303,-0.28391 0.10239,-0.2839 0.10239,-0.85637 0,-0.56781 -0.10239,-0.85637 -0.1024,-0.28856 -0.36303,-0.28856 -0.26529,0 -0.36303,0.28856 -0.0977,0.28856 -0.0977,0.85637 z"
           style="font-weight:bold;-inkscape-font-specification:'Noto Sans Bold'"
           id="path79542" /><path
           d="m 241.3743,184.40385 q 0,0.53524 -0.11636,0.91688 -0.1117,0.38164 -0.36768,0.58643 -0.25133,0.20478 -0.67951,0.20478 -0.60039,0 -0.87964,-0.45146 -0.27926,-0.45611 -0.27926,-1.25663 0,-0.53988 0.11171,-0.92153 0.1117,-0.38164 0.36768,-0.58642 0.25598,-0.20479 0.67951,-0.20479 0.59573,0 0.87964,0.45146 0.28391,0.45145 0.28391,1.26128 z m -1.62432,0 q 0,0.56781 0.0977,0.85637 0.0977,0.28391 0.36303,0.28391 0.26063,0 0.36303,-0.28391 0.10239,-0.2839 0.10239,-0.85637 0,-0.56781 -0.10239,-0.85637 -0.1024,-0.28856 -0.36303,-0.28856 -0.26529,0 -0.36303,0.28856 -0.0977,0.28856 -0.0977,0.85637 z"
           style="font-weight:bold;-inkscape-font-specification:'Noto Sans Bold'"
           id="path79544" /></g></g><rect
       style="fill:#000055;stroke:none;stroke-width:0.0919404;stroke-linecap:round;stroke-linejoin:miter;stroke-dasharray:none;stroke-dashoffset:0;paint-order:markers fill stroke"
       id="rect79196"
       width="38.002983"
       height="3.2804246"
       x="237.39745"
       y="359.27686"
       ry="0"
       rx="0" /><g
       aria-label="Ciclovia Moedas"
       id="text79200"
       style="font-size:2.11667px;line-height:1.25;font-family:'Noto Sans';-inkscape-font-specification:'Noto Sans';stroke-width:0.503922"><path
         d="m 239.61943,360.45036 q -0.18415,0 -0.28151,0.13758 -0.0974,0.13758 -0.0974,0.37677 0,0.2413 0.0889,0.37465 0.091,0.13123 0.28998,0.13123 0.0931,0 0.18415,-0.0212 0.0931,-0.0212 0.20109,-0.0593 v 0.26882 q -0.0995,0.0402 -0.19685,0.0593 -0.0974,0.019 -0.21802,0.019 -0.23283,0 -0.38523,-0.0952 -0.15029,-0.0974 -0.22225,-0.27093 -0.072,-0.17569 -0.072,-0.40852 0,-0.2286 0.0825,-0.40428 0.0825,-0.17569 0.23918,-0.27517 0.15875,-0.0995 0.38735,-0.0995 0.11219,0 0.22437,0.0296 0.1143,0.0275 0.21802,0.0762 l -0.10372,0.26035 q -0.0847,-0.0402 -0.17145,-0.0699 -0.0847,-0.0296 -0.16722,-0.0296 z"
         style="font-weight:bold;-inkscape-font-specification:'Noto Sans Bold';fill:#ffffff"
         id="path79504" /><path
         d="m 240.45975,360.10746 q 0.0698,0 0.12065,0.0339 0.0508,0.0317 0.0508,0.12065 0,0.0868 -0.0508,0.12065 -0.0508,0.0339 -0.12065,0.0339 -0.072,0 -0.12277,-0.0339 -0.0487,-0.0339 -0.0487,-0.12065 0,-0.0889 0.0487,-0.12065 0.0508,-0.0339 0.12277,-0.0339 z m 0.15663,0.45296 v 1.15571 H 240.301 v -1.15571 z"
         style="font-weight:bold;-inkscape-font-specification:'Noto Sans Bold';fill:#ffffff"
         id="path79506" /><path
         d="m 241.41649,361.73729 q -0.25824,0 -0.40006,-0.14181 -0.1397,-0.14394 -0.1397,-0.45086 0,-0.21166 0.072,-0.34501 0.072,-0.13335 0.19897,-0.19685 0.12912,-0.0635 0.29633,-0.0635 0.11854,0 0.20532,0.0233 0.0889,0.0233 0.15452,0.055 l -0.0931,0.24342 q -0.0741,-0.0296 -0.1397,-0.0487 -0.0635,-0.0191 -0.127,-0.0191 -0.24553,0 -0.24553,0.34925 0,0.17356 0.0635,0.25612 0.0656,0.0825 0.18203,0.0825 0.0995,0 0.17569,-0.0254 0.0762,-0.0275 0.14816,-0.0741 v 0.26882 q -0.072,0.0466 -0.1524,0.0656 -0.0783,0.0212 -0.19896,0.0212 z"
         style="font-weight:bold;-inkscape-font-specification:'Noto Sans Bold';fill:#ffffff"
         id="path79508" /><path
         d="m 242.34994,361.71613 h -0.31539 v -1.60867 h 0.31539 z"
         style="font-weight:bold;-inkscape-font-specification:'Noto Sans Bold';fill:#ffffff"
         id="path79510" /><path
         d="m 243.73001,361.13616 q 0,0.28787 -0.1524,0.4445 -0.15029,0.15663 -0.41064,0.15663 -0.16087,0 -0.28787,-0.0698 -0.12488,-0.0698 -0.19685,-0.2032 -0.072,-0.13547 -0.072,-0.32808 0,-0.28787 0.15028,-0.44239 0.15028,-0.15451 0.41275,-0.15451 0.16299,0 0.28787,0.0698 0.12488,0.0699 0.19685,0.2032 0.072,0.13123 0.072,0.32385 z m -0.79799,0 q 0,0.17145 0.055,0.26035 0.0572,0.0868 0.18416,0.0868 0.12488,0 0.17991,-0.0868 0.0571,-0.0889 0.0571,-0.26035 0,-0.17145 -0.0571,-0.25612 -0.055,-0.0868 -0.18203,-0.0868 -0.12488,0 -0.18204,0.0868 -0.055,0.0847 -0.055,0.25612 z"
         style="font-weight:bold;-inkscape-font-specification:'Noto Sans Bold';fill:#ffffff"
         id="path79512" /><path
         d="m 244.22319,361.71613 -0.44027,-1.15571 h 0.3302 l 0.22225,0.65829 q 0.019,0.0593 0.0296,0.12276 0.0127,0.0635 0.0148,0.11431 h 0.008 q 0.006,-0.11431 0.0466,-0.23707 l 0.22225,-0.65829 h 0.3302 l -0.44027,1.15571 z"
         style="font-weight:bold;-inkscape-font-specification:'Noto Sans Bold';fill:#ffffff"
         id="path79514" /><path
         d="m 245.31116,360.10746 q 0.0699,0 0.12065,0.0339 0.0508,0.0317 0.0508,0.12065 0,0.0868 -0.0508,0.12065 -0.0508,0.0339 -0.12065,0.0339 -0.072,0 -0.12277,-0.0339 -0.0487,-0.0339 -0.0487,-0.12065 0,-0.0889 0.0487,-0.12065 0.0508,-0.0339 0.12277,-0.0339 z m 0.15663,0.45296 v 1.15571 h -0.31538 v -1.15571 z"
         style="font-weight:bold;-inkscape-font-specification:'Noto Sans Bold';fill:#ffffff"
         id="path79516" /><path
         d="m 246.27213,360.53714 q 0.23283,0 0.3556,0.1016 0.12488,0.0995 0.12488,0.30692 v 0.77047 h -0.22013 l -0.0614,-0.15664 h -0.008 q -0.0741,0.0931 -0.15664,0.13547 -0.0825,0.0423 -0.22648,0.0423 -0.15452,0 -0.25612,-0.0889 -0.1016,-0.091 -0.1016,-0.27728 0,-0.18415 0.12912,-0.27094 0.12912,-0.0889 0.38735,-0.0974 l 0.20108,-0.006 v -0.0508 q 0,-0.091 -0.0487,-0.13335 -0.0466,-0.0423 -0.13123,-0.0423 -0.0847,0 -0.1651,0.0254 -0.0804,0.0233 -0.16087,0.0593 l -0.10372,-0.21378 q 0.0931,-0.0487 0.20532,-0.0762 0.1143,-0.0275 0.23707,-0.0275 z m 0.0444,0.6477 q -0.1524,0.004 -0.21167,0.055 -0.0593,0.0508 -0.0593,0.13335 0,0.072 0.0423,0.10372 0.0423,0.0296 0.11006,0.0296 0.1016,0 0.17145,-0.0593 0.0698,-0.0614 0.0698,-0.17145 v -0.0953 z"
         style="font-weight:bold;-inkscape-font-specification:'Noto Sans Bold';fill:#ffffff"
         id="path79518" /><path
         d="m 248.29143,361.71613 -0.36407,-1.18534 h -0.008 q 0.002,0.0423 0.006,0.127 0.004,0.0847 0.008,0.18203 0.004,0.0953 0.004,0.17357 v 0.70274 h -0.28575 v -1.51131 h 0.43603 l 0.35772,1.1557 h 0.006 l 0.37888,-1.1557 h 0.43603 v 1.51131 h -0.29845 v -0.71544 q 0,-0.072 0.002,-0.1651 0.004,-0.0931 0.006,-0.17568 0.004,-0.0847 0.006,-0.127 h -0.008 l -0.38946,1.18322 z"
         style="font-weight:bold;-inkscape-font-specification:'Noto Sans Bold';fill:#ffffff"
         id="path79520" /><path
         d="m 250.67268,361.13616 q 0,0.28787 -0.1524,0.4445 -0.15028,0.15663 -0.41063,0.15663 -0.16087,0 -0.28787,-0.0698 -0.12488,-0.0698 -0.19685,-0.2032 -0.072,-0.13547 -0.072,-0.32808 0,-0.28787 0.15028,-0.44239 0.15028,-0.15451 0.41275,-0.15451 0.16298,0 0.28787,0.0698 0.12488,0.0699 0.19685,0.2032 0.072,0.13123 0.072,0.32385 z m -0.79798,0 q 0,0.17145 0.055,0.26035 0.0572,0.0868 0.18415,0.0868 0.12489,0 0.17992,-0.0868 0.0572,-0.0889 0.0572,-0.26035 0,-0.17145 -0.0572,-0.25612 -0.055,-0.0868 -0.18203,-0.0868 -0.12489,0 -0.18204,0.0868 -0.055,0.0847 -0.055,0.25612 z"
         style="font-weight:bold;-inkscape-font-specification:'Noto Sans Bold';fill:#ffffff"
         id="path79522" /><path
         d="m 251.40928,360.53926 q 0.23919,0 0.37889,0.13758 0.1397,0.13547 0.1397,0.38735 v 0.1524 h -0.74507 q 0.004,0.13335 0.0783,0.20955 0.0762,0.0762 0.20955,0.0762 0.11218,0 0.2032,-0.0212 0.091,-0.0233 0.18838,-0.0698 v 0.24341 q -0.0847,0.0423 -0.17991,0.0614 -0.0931,0.0212 -0.22649,0.0212 -0.17357,0 -0.30692,-0.0635 -0.13335,-0.0656 -0.20955,-0.19685 -0.0762,-0.13123 -0.0762,-0.3302 0,-0.2032 0.0677,-0.33655 0.0699,-0.13547 0.19261,-0.2032 0.12277,-0.0677 0.28575,-0.0677 z m 0.002,0.22436 q -0.091,0 -0.1524,0.0593 -0.0593,0.0593 -0.0698,0.18415 h 0.44239 q -0.002,-0.10583 -0.055,-0.17357 -0.0529,-0.0698 -0.1651,-0.0698 z"
         style="font-weight:bold;-inkscape-font-specification:'Noto Sans Bold';fill:#ffffff"
         id="path79524" /><path
         d="m 252.55017,361.73729 q -0.19262,0 -0.31539,-0.15028 -0.12065,-0.1524 -0.12065,-0.44662 0,-0.29633 0.12277,-0.44873 0.12277,-0.1524 0.32174,-0.1524 0.12488,0 0.20531,0.0487 0.0804,0.0487 0.127,0.12065 h 0.0106 q -0.006,-0.0339 -0.0148,-0.0974 -0.008,-0.0656 -0.008,-0.13335 v -0.37041 h 0.31539 v 1.60867 h -0.2413 l -0.0614,-0.15029 h -0.0127 q -0.0466,0.072 -0.12488,0.12277 -0.0783,0.0487 -0.2032,0.0487 z m 0.11007,-0.25188 q 0.13123,0 0.18415,-0.0762 0.0529,-0.0783 0.055,-0.23284 v -0.0339 q 0,-0.16934 -0.0529,-0.25824 -0.0508,-0.0889 -0.1905,-0.0889 -0.10371,0 -0.16298,0.091 -0.0593,0.0889 -0.0593,0.25823 0,0.16934 0.0593,0.25612 0.0593,0.0847 0.16722,0.0847 z"
         style="font-weight:bold;-inkscape-font-specification:'Noto Sans Bold';fill:#ffffff"
         id="path79526" /><path
         d="m 253.99797,360.53714 q 0.23283,0 0.3556,0.1016 0.12488,0.0995 0.12488,0.30692 v 0.77047 h -0.22013 l -0.0614,-0.15664 h -0.008 q -0.0741,0.0931 -0.15663,0.13547 -0.0825,0.0423 -0.22649,0.0423 -0.15451,0 -0.25611,-0.0889 -0.1016,-0.091 -0.1016,-0.27728 0,-0.18415 0.12911,-0.27094 0.12912,-0.0889 0.38735,-0.0974 l 0.20109,-0.006 v -0.0508 q 0,-0.091 -0.0487,-0.13335 -0.0466,-0.0423 -0.13123,-0.0423 -0.0847,0 -0.1651,0.0254 -0.0804,0.0233 -0.16087,0.0593 l -0.10371,-0.21378 q 0.0931,-0.0487 0.20531,-0.0762 0.1143,-0.0275 0.23707,-0.0275 z m 0.0444,0.6477 q -0.1524,0.004 -0.21167,0.055 -0.0593,0.0508 -0.0593,0.13335 0,0.072 0.0423,0.10372 0.0423,0.0296 0.11007,0.0296 0.1016,0 0.17145,-0.0593 0.0699,-0.0614 0.0699,-0.17145 v -0.0953 z"
         style="font-weight:bold;-inkscape-font-specification:'Noto Sans Bold';fill:#ffffff"
         id="path79528" /><path
         d="m 255.60876,361.37322 q 0,0.17569 -0.12489,0.27094 -0.12276,0.0931 -0.3683,0.0931 -0.12065,0 -0.20743,-0.0169 -0.0868,-0.0148 -0.17357,-0.0508 v -0.26035 q 0.0931,0.0423 0.20108,0.0699 0.10795,0.0275 0.1905,0.0275 0.0931,0 0.13124,-0.0275 0.0402,-0.0275 0.0402,-0.072 0,-0.0296 -0.0169,-0.0529 -0.0148,-0.0233 -0.0677,-0.0529 -0.0529,-0.0296 -0.1651,-0.0762 -0.10795,-0.0466 -0.1778,-0.091 -0.0699,-0.0466 -0.10372,-0.11007 -0.0339,-0.0656 -0.0339,-0.16298 0,-0.16087 0.12489,-0.2413 0.12488,-0.0804 0.33232,-0.0804 0.10795,0 0.20531,0.0212 0.0974,0.0212 0.20109,0.0698 l -0.0952,0.22649 q -0.0847,-0.036 -0.16087,-0.0593 -0.0762,-0.0254 -0.15452,-0.0254 -0.1397,0 -0.1397,0.0762 0,0.0275 0.0169,0.0508 0.0191,0.0212 0.0699,0.0466 0.0529,0.0254 0.15452,0.0677 0.0995,0.0402 0.17145,0.0847 0.072,0.0423 0.11007,0.10795 0.0402,0.0635 0.0402,0.16721 z"
         style="font-weight:bold;-inkscape-font-specification:'Noto Sans Bold';fill:#ffffff"
         id="path79530" /></g><rect
       style="fill:#ff2a7f;stroke:#666666;stroke-width:0.1;stroke-linecap:round;stroke-linejoin:miter;stroke-dasharray:none;stroke-dashoffset:0;paint-order:markers fill stroke"
       id="rect79202"
       width="10.648019"
       height="4.8415985"
       x="251.41026"
       y="341.2048"
       ry="2.3260634" /><g
       aria-label="701"
       id="text79206"
       style="font-size:4.65419px;line-height:1.25;font-family:'Noto Sans';-inkscape-font-specification:'Noto Sans';fill:#ffffff;stroke-width:0.43633"><path
         d="m 253.19162,345.28946 1.24732,-2.73201 h -1.63827 v -0.59108 h 2.38294 v 0.44215 l -1.25663,2.88094 z"
         style="font-weight:bold;-inkscape-font-specification:'Noto Sans Bold'"
         id="path79533" /><path
         d="m 257.82719,343.62791 q 0,0.53524 -0.11635,0.91688 -0.1117,0.38164 -0.36768,0.58643 -0.25133,0.20478 -0.67951,0.20478 -0.60039,0 -0.87965,-0.45146 -0.27925,-0.45611 -0.27925,-1.25663 0,-0.53988 0.1117,-0.92153 0.1117,-0.38164 0.36768,-0.58642 0.25598,-0.20479 0.67952,-0.20479 0.59573,0 0.87964,0.45146 0.2839,0.45145 0.2839,1.26128 z m -1.62431,0 q 0,0.56781 0.0977,0.85637 0.0977,0.28391 0.36303,0.28391 0.26063,0 0.36302,-0.28391 0.1024,-0.2839 0.1024,-0.85637 0,-0.56781 -0.1024,-0.85637 -0.10239,-0.28856 -0.36302,-0.28856 -0.26529,0 -0.36303,0.28856 -0.0977,0.28856 -0.0977,0.85637 z"
         style="font-weight:bold;-inkscape-font-specification:'Noto Sans Bold'"
         id="path79535" /><path
         d="m 259.92158,345.28946 h -0.70278 v -1.92218 q 0,-0.12101 0.005,-0.31649 0.009,-0.19547 0.014,-0.34441 -0.0233,0.0279 -0.1024,0.1024 -0.0745,0.0698 -0.13962,0.12566 l -0.38165,0.30718 -0.33975,-0.42354 1.07046,-0.85171 h 0.57712 z"
         style="font-weight:bold;-inkscape-font-specification:'Noto Sans Bold'"
         id="path79537" /></g><g
       id="g79246"
       transform="translate(8.6220795,159.22407)"><rect
         style="fill:none;stroke:#000000;stroke-width:0.1;stroke-linecap:round;stroke-linejoin:miter;stroke-dasharray:none;stroke-dashoffset:0;paint-order:markers fill stroke"
         id="rect79208"
         width="8.406229"
         height="10.99733"
         x="255.92271"
         y="187.19481"
         ry="0.58745086" /><g
         aria-label="9999"
         id="text79212"
         style="font-size:3.175px;line-height:1.25;font-family:'Noto Sans';-inkscape-font-specification:'Noto Sans';stroke-width:0.264583"><path
           d="m 258.45119,196.23023 q 0,0.19368 -0.0286,0.38735 -0.0286,0.1905 -0.1016,0.36195 -0.0698,0.16828 -0.20002,0.30163 -0.127,0.13017 -0.32703,0.20637 -0.19685,0.073 -0.47942,0.073 -0.0667,0 -0.15558,-0.006 -0.0889,-0.003 -0.14922,-0.0159 v -0.38417 q 0.0635,0.0127 0.13335,0.0222 0.0699,0.01 0.1397,0.01 0.28257,0 0.43497,-0.0889 0.15558,-0.0921 0.21908,-0.25083 0.0635,-0.15875 0.073,-0.3683 h -0.019 q -0.0667,0.11113 -0.1778,0.18733 -0.10795,0.0762 -0.32385,0.0762 -0.28892,0 -0.46355,-0.18733 -0.17462,-0.18732 -0.17462,-0.53022 0,-0.3683 0.20637,-0.57785 0.20955,-0.20955 0.56515,-0.20955 0.23178,0 0.4191,0.10795 0.18733,0.10477 0.29845,0.32702 0.11113,0.21908 0.11113,0.5588 z m -0.81915,-0.6096 q -0.1397,0 -0.2286,0.0952 -0.0889,0.0952 -0.0889,0.30163 0,0.1651 0.0762,0.26035 0.0762,0.0952 0.23177,0.0952 0.10795,0 0.18415,-0.0476 0.0794,-0.0476 0.12383,-0.11747 0.0444,-0.073 0.0444,-0.14923 0,-0.10477 -0.0381,-0.20637 -0.0381,-0.1016 -0.1143,-0.1651 -0.0762,-0.0667 -0.1905,-0.0667 z"
           style="font-weight:bold;-inkscape-font-specification:'Noto Sans Bold'"
           id="path79584" /><path
           d="m 260.26729,196.23023 q 0,0.19368 -0.0286,0.38735 -0.0286,0.1905 -0.1016,0.36195 -0.0698,0.16828 -0.20003,0.30163 -0.127,0.13017 -0.32702,0.20637 -0.19685,0.073 -0.47943,0.073 -0.0667,0 -0.15557,-0.006 -0.0889,-0.003 -0.14923,-0.0159 v -0.38417 q 0.0635,0.0127 0.13335,0.0222 0.0699,0.01 0.1397,0.01 0.28258,0 0.43498,-0.0889 0.15557,-0.0921 0.21907,-0.25083 0.0635,-0.15875 0.073,-0.3683 h -0.019 q -0.0667,0.11113 -0.1778,0.18733 -0.10795,0.0762 -0.32385,0.0762 -0.28893,0 -0.46355,-0.18733 -0.17463,-0.18732 -0.17463,-0.53022 0,-0.3683 0.20638,-0.57785 0.20955,-0.20955 0.56515,-0.20955 0.23177,0 0.4191,0.10795 0.18732,0.10477 0.29845,0.32702 0.11112,0.21908 0.11112,0.5588 z m -0.81915,-0.6096 q -0.1397,0 -0.2286,0.0952 -0.0889,0.0952 -0.0889,0.30163 0,0.1651 0.0762,0.26035 0.0762,0.0952 0.23178,0.0952 0.10795,0 0.18415,-0.0476 0.0794,-0.0476 0.12382,-0.11747 0.0444,-0.073 0.0444,-0.14923 0,-0.10477 -0.0381,-0.20637 -0.0381,-0.1016 -0.1143,-0.1651 -0.0762,-0.0667 -0.1905,-0.0667 z"
           style="font-weight:bold;-inkscape-font-specification:'Noto Sans Bold'"
           id="path79586" /><path
           d="m 262.08339,196.23023 q 0,0.19368 -0.0286,0.38735 -0.0286,0.1905 -0.1016,0.36195 -0.0698,0.16828 -0.20003,0.30163 -0.127,0.13017 -0.32702,0.20637 -0.19685,0.073 -0.47943,0.073 -0.0667,0 -0.15557,-0.006 -0.0889,-0.003 -0.14923,-0.0159 v -0.38417 q 0.0635,0.0127 0.13335,0.0222 0.0699,0.01 0.1397,0.01 0.28258,0 0.43498,-0.0889 0.15557,-0.0921 0.21907,-0.25083 0.0635,-0.15875 0.073,-0.3683 h -0.019 q -0.0667,0.11113 -0.1778,0.18733 -0.10795,0.0762 -0.32385,0.0762 -0.28893,0 -0.46355,-0.18733 -0.17463,-0.18732 -0.17463,-0.53022 0,-0.3683 0.20638,-0.57785 0.20955,-0.20955 0.56515,-0.20955 0.23177,0 0.4191,0.10795 0.18732,0.10477 0.29845,0.32702 0.11112,0.21908 0.11112,0.5588 z m -0.81915,-0.6096 q -0.1397,0 -0.2286,0.0952 -0.0889,0.0952 -0.0889,0.30163 0,0.1651 0.0762,0.26035 0.0762,0.0952 0.23178,0.0952 0.10795,0 0.18415,-0.0476 0.0794,-0.0476 0.12382,-0.11747 0.0445,-0.073 0.0445,-0.14923 0,-0.10477 -0.0381,-0.20637 -0.0381,-0.1016 -0.1143,-0.1651 -0.0762,-0.0667 -0.1905,-0.0667 z"
           style="font-weight:bold;-inkscape-font-specification:'Noto Sans Bold'"
           id="path79588" /><path
           d="m 263.89949,196.23023 q 0,0.19368 -0.0286,0.38735 -0.0286,0.1905 -0.1016,0.36195 -0.0698,0.16828 -0.20003,0.30163 -0.127,0.13017 -0.32702,0.20637 -0.19685,0.073 -0.47943,0.073 -0.0667,0 -0.15557,-0.006 -0.0889,-0.003 -0.14923,-0.0159 v -0.38417 q 0.0635,0.0127 0.13335,0.0222 0.0699,0.01 0.1397,0.01 0.28258,0 0.43498,-0.0889 0.15557,-0.0921 0.21907,-0.25083 0.0635,-0.15875 0.073,-0.3683 h -0.019 q -0.0667,0.11113 -0.1778,0.18733 -0.10795,0.0762 -0.32385,0.0762 -0.28893,0 -0.46355,-0.18733 -0.17463,-0.18732 -0.17463,-0.53022 0,-0.3683 0.20638,-0.57785 0.20955,-0.20955 0.56515,-0.20955 0.23177,0 0.4191,0.10795 0.18732,0.10477 0.29845,0.32702 0.11112,0.21908 0.11112,0.5588 z m -0.81915,-0.6096 q -0.1397,0 -0.2286,0.0952 -0.0889,0.0952 -0.0889,0.30163 0,0.1651 0.0762,0.26035 0.0762,0.0952 0.23178,0.0952 0.10795,0 0.18415,-0.0476 0.0794,-0.0476 0.12382,-0.11747 0.0445,-0.073 0.0445,-0.14923 0,-0.10477 -0.0381,-0.20637 -0.0381,-0.1016 -0.1143,-0.1651 -0.0762,-0.0667 -0.1905,-0.0667 z"
           style="font-weight:bold;-inkscape-font-specification:'Noto Sans Bold'"
           id="path79590" /></g><g
         aria-label="C 01234"
         id="text79216"
         style="font-size:1.76389px;line-height:1.25;font-family:'Noto Sans';-inkscape-font-specification:'Noto Sans';stroke-width:0.264583"><path
           d="m 257.72764,191.436 q -0.17286,0 -0.26811,0.12347 -0.0935,0.12347 -0.0935,0.33514 0,0.21343 0.0882,0.33514 0.0882,0.11994 0.27163,0.11994 0.0794,0 0.15523,-0.0159 0.0758,-0.0176 0.15875,-0.0459 v 0.19226 q -0.0776,0.0317 -0.15699,0.0459 -0.0776,0.0141 -0.17992,0.0141 -0.19402,0 -0.32102,-0.0794 -0.127,-0.0811 -0.18874,-0.22578 -0.0617,-0.1464 -0.0617,-0.3422 0,-0.1905 0.0688,-0.33514 0.0688,-0.1464 0.20108,-0.2293 0.13405,-0.0829 0.32632,-0.0829 0.0952,0 0.18697,0.0229 0.0935,0.0212 0.17463,0.06 l -0.0776,0.18521 q -0.067,-0.03 -0.13934,-0.0529 -0.0706,-0.0247 -0.14464,-0.0247 z"
           style="font-weight:600;-inkscape-font-specification:'Noto Sans Semi-Bold'"
           id="path79571" /><path
           d="m 259.54092,191.89284 q 0,0.20285 -0.0423,0.34749 -0.0423,0.14464 -0.13759,0.22225 -0.0952,0.0776 -0.25223,0.0776 -0.22225,0 -0.32632,-0.1711 -0.10407,-0.17286 -0.10407,-0.47625 0,-0.20461 0.0423,-0.34925 0.0423,-0.14464 0.13582,-0.22225 0.0952,-0.0776 0.25224,-0.0776 0.22048,0 0.32632,0.1711 0.10583,0.1711 0.10583,0.47801 z m -0.63853,0 q 0,0.23107 0.0441,0.34749 0.0459,0.11642 0.16228,0.11642 0.11465,0 0.16051,-0.11466 0.0476,-0.11641 0.0476,-0.34925 0,-0.23283 -0.0476,-0.34925 -0.0459,-0.11641 -0.16051,-0.11641 -0.11642,0 -0.16228,0.11641 -0.0441,0.11642 -0.0441,0.34925 z"
           style="font-weight:600;-inkscape-font-specification:'Noto Sans Semi-Bold'"
           id="path79573" /><path
           d="m 260.30468,192.52255 h -0.22225 v -0.78493 q 0,-0.0564 0.002,-0.11994 0.002,-0.0635 0.005,-0.11818 -0.0176,0.0176 -0.0441,0.0423 -0.0265,0.0229 -0.0547,0.0476 l -0.14111,0.11289 -0.11113,-0.13758 0.38101,-0.30162 h 0.1852 z"
           style="font-weight:600;-inkscape-font-specification:'Noto Sans Semi-Bold'"
           id="path79575" /><path
           d="m 261.56234,192.52255 h -0.86254 v -0.16404 l 0.32102,-0.32456 q 0.0952,-0.097 0.15523,-0.1658 0.0617,-0.0688 0.09,-0.12876 0.03,-0.0617 0.03,-0.1323 0,-0.0864 -0.0494,-0.12876 -0.0494,-0.0441 -0.13053,-0.0441 -0.0794,0 -0.14816,0.0335 -0.0688,0.0318 -0.14288,0.0917 l -0.12171,-0.1464 q 0.0776,-0.067 0.17639,-0.11642 0.0988,-0.0512 0.24871,-0.0512 0.12171,0 0.2099,0.0441 0.0882,0.0423 0.13406,0.11818 0.0476,0.0759 0.0476,0.17639 0,0.10231 -0.0406,0.18874 -0.0406,0.0847 -0.11819,0.1711 -0.0758,0.0847 -0.18168,0.18344 l -0.19932,0.19227 v 0.0106 h 0.58209 z"
           style="font-weight:600;-inkscape-font-specification:'Noto Sans Semi-Bold'"
           id="path79577" /><path
           d="m 262.5219,191.55065 q 0,0.12876 -0.0759,0.20637 -0.0741,0.0759 -0.19227,0.10231 v 0.005 q 0.1517,0.0194 0.22931,0.0952 0.0776,0.0741 0.0776,0.19932 0,0.10936 -0.0529,0.19579 -0.0529,0.0864 -0.16404,0.13582 -0.10936,0.0494 -0.28222,0.0494 -0.10231,0 -0.1905,-0.0176 -0.0882,-0.0159 -0.16581,-0.0512 v -0.19579 q 0.0794,0.0406 0.16934,0.0617 0.09,0.0212 0.16933,0.0212 0.15346,0 0.21696,-0.0547 0.0635,-0.0564 0.0635,-0.15522 0,-0.0935 -0.0741,-0.13935 -0.0741,-0.0459 -0.24695,-0.0459 h -0.10583 v -0.17815 h 0.1076 q 0.16756,0 0.23106,-0.0529 0.0635,-0.0547 0.0635,-0.14288 0,-0.0758 -0.0494,-0.11818 -0.0494,-0.0423 -0.14817,-0.0423 -0.0952,0 -0.16404,0.0317 -0.0688,0.03 -0.12347,0.0653 l -0.10584,-0.15345 q 0.0706,-0.0529 0.16934,-0.09 0.10054,-0.037 0.23459,-0.037 0.19579,0 0.30163,0.0829 0.1076,0.0811 0.1076,0.22225 z"
           style="font-weight:600;-inkscape-font-specification:'Noto Sans Semi-Bold'"
           id="path79579" /><path
           d="m 263.61904,192.25268 h -0.16405 v 0.26987 h -0.21872 v -0.26987 h -0.56092 v -0.16581 l 0.56621,-0.82726 h 0.21343 v 0.81139 h 0.16405 z m -0.38277,-0.46391 q 0,-0.0476 0.002,-0.1023 0.002,-0.0547 0.004,-0.10054 0.004,-0.0476 0.005,-0.0723 h -0.007 q -0.0317,0.0741 -0.0759,0.13758 l -0.28575,0.41981 h 0.35807 z"
           style="font-weight:600;-inkscape-font-specification:'Noto Sans Semi-Bold'"
           id="path79581" /></g><path
         style="fill:none;stroke:#000000;stroke-width:0.15;stroke-linecap:butt;stroke-linejoin:round;stroke-dasharray:0.15, 0.15;stroke-dashoffset:0;stroke-opacity:1;marker-end:url(#Arrow1)"
         d="m 260.62469,193.34792 v 1.55941"
         id="path79218" /><path
         style="fill:none;stroke:#000000;stroke-width:0.1;stroke-linecap:butt;stroke-linejoin:miter;stroke-dasharray:none;stroke-opacity:1"
         d="m 255.92271,190.42438 h 8.40624"
         id="path79220" /><g
         aria-label="ao minuto"
         id="text79224"
         style="font-weight:600;font-size:1.23472px;line-height:1.25;font-family:'Noto Sans';-inkscape-font-specification:'Noto Sans Semi-Bold';stroke-width:0.264583"><path
           d="m 258.31276,189.421 q 0.12964,0 0.19632,0.0568 0.0679,0.0568 0.0679,0.17533 v 0.44944 h -0.10989 l -0.0309,-0.0926 h -0.005 q -0.0432,0.0543 -0.0914,0.0802 -0.0482,0.0247 -0.13088,0.0247 -0.0901,0 -0.1494,-0.0506 -0.0593,-0.0506 -0.0593,-0.15681 0,-0.10371 0.0753,-0.15557 0.0765,-0.0519 0.23089,-0.058 l 0.11607,-0.004 v -0.0333 q 0,-0.063 -0.0309,-0.0901 -0.0309,-0.0284 -0.0864,-0.0284 -0.0506,0 -0.0975,0.0148 -0.0457,0.0148 -0.0914,0.0346 l -0.0494,-0.10865 q 0.0494,-0.0259 0.11236,-0.042 0.0642,-0.0161 0.13335,-0.0161 z m 0.0284,0.36795 q -0.10249,0.004 -0.142,0.0358 -0.0395,0.0309 -0.0395,0.084 0,0.0482 0.0272,0.0691 0.0284,0.0198 0.0741,0.0198 0.0679,0 0.11483,-0.0383 0.0469,-0.0395 0.0469,-0.11606 v -0.0568 z"
           id="path79554" /><path
           d="m 259.36968,189.76673 q 0,0.16668 -0.0864,0.25805 -0.0864,0.0901 -0.2346,0.0901 -0.0914,0 -0.16298,-0.0408 -0.0716,-0.0407 -0.11236,-0.11853 -0.0408,-0.0778 -0.0408,-0.18891 0,-0.16669 0.0852,-0.25559 0.0864,-0.0901 0.23459,-0.0901 0.0926,0 0.16422,0.0408 0.0716,0.0395 0.11236,0.1173 0.0408,0.0765 0.0408,0.18768 z m -0.47784,0 q 0,0.10618 0.037,0.16421 0.0383,0.058 0.12224,0.058 0.084,0 0.121,-0.058 0.0383,-0.058 0.0383,-0.16421 0,-0.10619 -0.0383,-0.16299 -0.037,-0.0568 -0.12224,-0.0568 -0.0827,0 -0.121,0.0568 -0.037,0.0568 -0.037,0.16299 z"
           id="path79556" /><path
           d="m 260.61798,189.421 q 0.11359,0 0.17039,0.058 0.058,0.058 0.058,0.18767 v 0.43586 h -0.15557 v -0.40622 q 0,-0.1494 -0.1136,-0.1494 -0.0815,0 -0.11606,0.0531 -0.0346,0.0531 -0.0346,0.15434 v 0.34819 h -0.15558 v -0.40622 q 0,-0.1494 -0.11483,-0.1494 -0.0852,0 -0.11729,0.0593 -0.0321,0.0593 -0.0321,0.16916 v 0.3272 h -0.15557 v -0.66922 h 0.11977 l 0.0222,0.0877 h 0.009 q 0.0296,-0.0519 0.0827,-0.0753 0.0543,-0.0247 0.11236,-0.0247 0.0753,0 0.12594,0.0259 0.0519,0.0247 0.079,0.0778 h 0.0123 q 0.0309,-0.0543 0.0864,-0.079 0.0556,-0.0247 0.1173,-0.0247 z"
           id="path79558" /><path
           d="m 261.11928,189.17529 q 0.0358,0 0.0605,0.0185 0.0259,0.0173 0.0259,0.063 0,0.0457 -0.0259,0.0642 -0.0247,0.0185 -0.0605,0.0185 -0.0358,0 -0.0617,-0.0185 -0.0247,-0.0185 -0.0247,-0.0642 0,-0.0457 0.0247,-0.063 0.0259,-0.0185 0.0617,-0.0185 z m 0.0778,0.25806 v 0.66922 h -0.15557 v -0.66922 z"
           id="path79560" /><path
           d="m 261.75392,189.421 q 0.11236,0 0.17533,0.058 0.0642,0.058 0.0642,0.18767 v 0.43586 h -0.15558 v -0.40499 q 0,-0.15063 -0.12347,-0.15063 -0.0938,0 -0.12841,0.0593 -0.0346,0.0593 -0.0346,0.16916 v 0.3272 h -0.15558 v -0.66922 h 0.11977 l 0.0222,0.0877 h 0.009 q 0.0321,-0.0519 0.0877,-0.0753 0.0568,-0.0247 0.11977,-0.0247 z"
           id="path79562" /><path
           d="m 262.78245,189.43335 v 0.66922 h -0.12224 l -0.021,-0.0864 h -0.007 q -0.0333,0.0519 -0.0901,0.0753 -0.0556,0.0235 -0.11853,0.0235 -0.11236,0 -0.17656,-0.058 -0.063,-0.058 -0.063,-0.18644 v -0.43709 h 0.15557 v 0.40622 q 0,0.14941 0.12347,0.14941 0.0938,0 0.12841,-0.058 0.0358,-0.0593 0.0358,-0.17039 v -0.3272 z"
           id="path79564" /><path
           d="m 263.24053,189.99021 q 0.0284,0 0.0556,-0.005 0.0284,-0.006 0.0519,-0.0136 v 0.11606 q -0.0247,0.0111 -0.0642,0.0185 -0.0395,0.009 -0.0827,0.009 -0.0568,0 -0.10372,-0.0185 -0.0469,-0.0198 -0.0741,-0.0667 -0.0272,-0.0469 -0.0272,-0.13088 v -0.34819 h -0.0901 v -0.0679 l 0.0988,-0.0543 0.0494,-0.14199 h 0.0976 v 0.14693 h 0.19014 v 0.1173 h -0.19014 v 0.34696 q 0,0.0469 0.0247,0.0704 0.0247,0.0222 0.0642,0.0222 z"
           id="path79566" /><path
           d="m 264.08014,189.76673 q 0,0.16668 -0.0864,0.25805 -0.0864,0.0901 -0.2346,0.0901 -0.0914,0 -0.16298,-0.0408 -0.0716,-0.0407 -0.11236,-0.11853 -0.0408,-0.0778 -0.0408,-0.18891 0,-0.16669 0.0852,-0.25559 0.0864,-0.0901 0.23459,-0.0901 0.0926,0 0.16422,0.0408 0.0716,0.0395 0.11236,0.1173 0.0407,0.0765 0.0407,0.18768 z m -0.47784,0 q 0,0.10618 0.037,0.16421 0.0383,0.058 0.12224,0.058 0.084,0 0.121,-0.058 0.0383,-0.058 0.0383,-0.16421 0,-0.10619 -0.0383,-0.16299 -0.037,-0.0568 -0.12224,-0.0568 -0.0827,0 -0.121,0.0568 -0.037,0.0568 -0.037,0.16299 z"
           id="path79568" /></g><g
         aria-label="SMS"
         id="text79228"
         style="font-weight:bold;font-size:1.76389px;line-height:1.25;font-family:'Noto Sans';-inkscape-font-specification:'Noto Sans Bold';stroke-width:0.265"><path
           d="m 261.4449,188.56623 q 0,0.16757 -0.12171,0.26811 -0.11995,0.0988 -0.3422,0.0988 -0.19932,0 -0.3563,-0.0759 v -0.24871 q 0.09,0.0388 0.18521,0.0723 0.097,0.0317 0.19226,0.0317 0.0988,0 0.13935,-0.037 0.0423,-0.0388 0.0423,-0.097 0,-0.0476 -0.0335,-0.0811 -0.0317,-0.0335 -0.0864,-0.0617 -0.0547,-0.03 -0.12524,-0.0635 -0.0441,-0.0212 -0.0953,-0.0494 -0.0512,-0.03 -0.0988,-0.0723 -0.0459,-0.0441 -0.0758,-0.10584 -0.03,-0.0617 -0.03,-0.14817 0,-0.16933 0.11465,-0.26281 0.11465,-0.0952 0.31221,-0.0952 0.0988,0 0.18697,0.0229 0.09,0.0229 0.18697,0.0653 l -0.0864,0.20814 q -0.0864,-0.0353 -0.15522,-0.0547 -0.0688,-0.0194 -0.14111,-0.0194 -0.0759,0 -0.11642,0.0353 -0.0406,0.0353 -0.0406,0.0917 0,0.067 0.06,0.10583 0.06,0.0388 0.17815,0.0952 0.097,0.0459 0.16404,0.0952 0.0688,0.0494 0.10583,0.11642 0.0371,0.067 0.0371,0.1658 z"
           id="path79547" /><path
           d="m 262.2069,188.91548 -0.30339,-0.98778 h -0.007 q 0.002,0.0353 0.005,0.10584 0.004,0.0706 0.007,0.15169 0.004,0.0794 0.004,0.14464 v 0.58561 h -0.23813 v -1.25942 h 0.36336 l 0.2981,0.96309 h 0.005 l 0.31574,-0.96309 h 0.36336 v 1.25942 h -0.24871 v -0.59619 q 0,-0.06 0.002,-0.13759 0.004,-0.0776 0.005,-0.1464 0.004,-0.0706 0.005,-0.10583 h -0.007 l -0.32455,0.98601 z"
           id="path79549" /><path
           d="m 264.08015,188.56623 q 0,0.16757 -0.12171,0.26811 -0.11994,0.0988 -0.34219,0.0988 -0.19932,0 -0.35631,-0.0759 v -0.24871 q 0.09,0.0388 0.18521,0.0723 0.097,0.0317 0.19226,0.0317 0.0988,0 0.13935,-0.037 0.0423,-0.0388 0.0423,-0.097 0,-0.0476 -0.0335,-0.0811 -0.0317,-0.0335 -0.0864,-0.0617 -0.0547,-0.03 -0.12524,-0.0635 -0.0441,-0.0212 -0.0953,-0.0494 -0.0512,-0.03 -0.0988,-0.0723 -0.0459,-0.0441 -0.0759,-0.10584 -0.03,-0.0617 -0.03,-0.14817 0,-0.16933 0.11466,-0.26281 0.11465,-0.0952 0.3122,-0.0952 0.0988,0 0.18698,0.0229 0.0899,0.0229 0.18697,0.0653 l -0.0864,0.20814 q -0.0864,-0.0353 -0.15522,-0.0547 -0.0688,-0.0194 -0.14112,-0.0194 -0.0758,0 -0.11641,0.0353 -0.0406,0.0353 -0.0406,0.0917 0,0.067 0.06,0.10583 0.06,0.0388 0.17815,0.0952 0.097,0.0459 0.16405,0.0952 0.0688,0.0494 0.10583,0.11642 0.037,0.067 0.037,0.1658 z"
           id="path79551" /></g><g
         id="g79244"
         transform="translate(0.3504517,0.04462984)"><rect
           style="fill:none;stroke:#000000;stroke-width:0.15;stroke-linecap:round;stroke-linejoin:round;stroke-dasharray:none;stroke-dashoffset:0;paint-order:markers fill stroke"
           id="rect79230"
           width="1.4237213"
           height="2.2576466"
           x="255.92273"
           y="187.73764"
           ry="0.30709484" /><path
           style="fill:none;stroke:#000000;stroke-width:0.15;stroke-linecap:butt;stroke-linejoin:miter;stroke-dasharray:none;stroke-opacity:1"
           d="m 255.92272,189.08289 h 1.42373"
           id="path79232" /><path
           style="fill:none;stroke:#000000;stroke-width:0.15;stroke-linecap:butt;stroke-linejoin:miter;stroke-dasharray:none;stroke-opacity:1"
           d="m 255.92272,189.53002 h 1.42373"
           id="path79234" /><path
           style="fill:none;stroke:#000000;stroke-width:0.15;stroke-linecap:butt;stroke-linejoin:miter;stroke-dasharray:none;stroke-opacity:1"
           d="m 255.92272,188.63576 h 1.42373"
           id="path79236" /><path
           style="fill:none;stroke:#000000;stroke-width:0.15;stroke-linecap:butt;stroke-linejoin:miter;stroke-dasharray:none;stroke-opacity:1"
           d="m 256.85815,188.63576 v 1.40953"
           id="path79238" /><path
           style="fill:none;stroke:#000000;stroke-width:0.15;stroke-linecap:butt;stroke-linejoin:miter;stroke-dasharray:none;stroke-opacity:1"
           d="m 256.41102,188.63576 v 1.40953"
           id="path79240" /><path
           style="fill:none;stroke:#000000;stroke-width:0.15;stroke-linecap:butt;stroke-linejoin:round;stroke-dasharray:none;stroke-opacity:1"
           d="m 256.98117,187.73763 v -0.23797"
           id="path79242" /></g></g><g
       id="g79306"
       transform="translate(-29.40446,153.22395)"><path
         id="path79250"
         style="fill:#ffffff;stroke:#87aade;stroke-width:0.236;stroke-linecap:round;stroke-linejoin:round;paint-order:markers fill stroke"
         d="m 310.65508,185.7691 h 22.47641 c 1.64899,-0.11484 2.68794,1.61942 2.64584,2.64584 v 41.16209 h -25.12225 z" /><g
         id="g79270"
         transform="matrix(2.1306627,0,0,2.1306627,-356.93076,-218.90064)"><rect
           style="fill:#ffffff;fill-opacity:1;stroke:#87aade;stroke-width:0.15;stroke-linecap:round;stroke-linejoin:round;stroke-dasharray:none;stroke-dashoffset:0;stroke-opacity:1;paint-order:markers fill stroke"
           id="rect79252"
           width="0.56009668"
           height="0.36059824"
           x="315.20407"
           y="193.83627"
           ry="0.13355914"
           rx="0.13355914" /><rect
           style="fill:#ffffff;fill-opacity:1;stroke:#87aade;stroke-width:0.15;stroke-linecap:round;stroke-linejoin:round;stroke-dasharray:none;stroke-dashoffset:0;stroke-opacity:1;paint-order:markers fill stroke"
           id="rect79254"
           width="0.56009668"
           height="0.36059824"
           x="316.65839"
           y="193.83627"
           ry="0.13355914"
           rx="0.13355914" /><rect
           style="fill:#ffffff;fill-opacity:1;stroke:#87aade;stroke-width:0.118;stroke-linecap:round;stroke-linejoin:round;stroke-dasharray:none;stroke-dashoffset:0;stroke-opacity:1;paint-order:markers fill stroke"
           id="rect79256"
           width="2.6739225"
           height="2.6739225"
           x="314.89886"
           y="191.16924"
           ry="0.24044476" /><rect
           style="fill:#ffffff;fill-opacity:1;stroke:#87aade;stroke-width:0.146876;stroke-linecap:round;stroke-linejoin:round;stroke-dasharray:none;stroke-dashoffset:0;stroke-opacity:1;paint-order:markers fill stroke"
           id="rect79258"
           width="1.9912386"
           height="0.98433959"
           x="315.2402"
           y="191.74704"
           ry="0.23902902" /><circle
           style="fill:#ffffff;fill-opacity:1;stroke:#87aade;stroke-width:0.118;stroke-linecap:round;stroke-linejoin:round;stroke-dasharray:none;stroke-dashoffset:0;stroke-opacity:1;paint-order:markers fill stroke"
           id="circle79260"
           cx="315.45129"
           cy="193.24878"
           r="0.22104834" /><circle
           style="fill:#ffffff;fill-opacity:1;stroke:#87aade;stroke-width:0.118;stroke-linecap:round;stroke-linejoin:round;stroke-dasharray:none;stroke-dashoffset:0;stroke-opacity:1;paint-order:markers fill stroke"
           id="circle79262"
           cx="316.99826"
           cy="193.24878"
           r="0.22104834" /><path
           style="fill:none;stroke:#87aade;stroke-width:0.1;stroke-linecap:round;stroke-linejoin:miter;stroke-dasharray:none;stroke-opacity:1"
           d="M 315.54365,191.45969 H 316.928"
           id="path79264" /><path
           style="fill:none;stroke:#87aade;stroke-width:0.15;stroke-linecap:round;stroke-linejoin:round;stroke-dasharray:none;stroke-opacity:1"
           d="m 314.89438,191.65875 h -0.22379 v 0.36638"
           id="path79266" /><path
           style="fill:none;stroke:#87aade;stroke-width:0.15;stroke-linecap:round;stroke-linejoin:round;stroke-dasharray:none;stroke-opacity:1"
           d="m 317.57728,191.65875 h 0.22379 v 0.36638"
           id="path79268" /></g><g
         id="g79296"
         transform="translate(3.3653732,-3.1129295)"><g
           id="g79276"
           transform="matrix(2.0696865,0,0,2.0696865,-342.62576,-239.6011)"><path
             style="color:#000000;fill:#ffffff;stroke-width:0.5;stroke-linecap:round;stroke-linejoin:round;-inkscape-stroke:none;paint-order:markers fill stroke"
             d="m 324.45477,219.56993 a 1.2226865,1.2226865 0 0 1 -1.22268,1.22269 1.2226865,1.2226865 0 0 1 -1.22269,-1.22269 1.2226865,1.2226865 0 0 1 1.22269,-1.22269 1.2226865,1.2226865 0 0 1 1.22268,1.22269 z"
             id="path79272" /><path
             style="color:#000000;fill:#87aade;stroke-linecap:round;stroke-linejoin:round;-inkscape-stroke:none;paint-order:markers fill stroke"
             d="m 323.23242,218.09766 c -0.81038,-1e-5 -1.47266,0.66227 -1.47265,1.47265 -10e-6,0.81039 0.66227,1.47266 1.47265,1.47266 0.81038,-1e-5 1.47266,-0.66228 1.47266,-1.47266 0,-0.81038 -0.66228,-1.47265 -1.47266,-1.47265 z m 0,0.5 c 0.54016,0 0.97266,0.43249 0.97266,0.97265 0,0.54016 -0.4325,0.97266 -0.97266,0.97266 -0.54016,0 -0.97266,-0.43249 -0.97265,-0.97266 -10e-6,-0.54016 0.43249,-0.97266 0.97265,-0.97265 z"
             id="path79274" /></g><path
           id="path79278"
           style="fill:#87aade;stroke-width:0.460996;stroke-linecap:round;stroke-linejoin:round;paint-order:markers fill stroke"
           d="m 323.39342,224.30659 a 1.5,1.5 0 0 0 1.49914,1.49034 1.5,1.5 0 0 0 1.49965,-1.49034 h -0.49455 a 1.0049158,1.0056095 0 0 1 -1.0051,0.9958 1.0049158,1.0056095 0 0 1 -1.00408,-0.9958 z" /><circle
           style="fill:#8dd35f;fill-opacity:1;stroke:none;stroke-width:0.460996;stroke-linecap:round;stroke-linejoin:round;stroke-dasharray:none;stroke-dashoffset:0;stroke-opacity:1;paint-order:markers fill stroke"
           id="circle79280"
           cx="330.91196"
           cy="210.29268"
           r="1.5" /><path
           id="path79282"
           style="fill:#87aade;stroke-width:0.460996;stroke-linecap:round;stroke-linejoin:round;paint-order:markers fill stroke"
           d="m 323.39342,225.79693 a 1.5,1.5 0 0 0 1.49914,1.49034 1.5,1.5 0 0 0 1.49965,-1.49034 h -0.49455 a 1.0049158,1.0056095 0 0 1 -1.0051,0.9958 1.0049158,1.0056095 0 0 1 -1.00408,-0.9958 z" /><ellipse
           style="fill:#ffffff;fill-opacity:1;stroke:#8dd35f;stroke-width:0.460996;stroke-linecap:round;stroke-linejoin:round;stroke-dasharray:none;stroke-dashoffset:0;stroke-opacity:1;paint-order:markers fill stroke"
           id="ellipse79284"
           cx="330.94662"
           cy="207.24326"
           rx="1.2415111"
           ry="1.242368" /><path
           id="path79286"
           style="fill:#8dd35f;fill-opacity:1;stroke:none;stroke-width:0.460996;stroke-linecap:round;stroke-linejoin:round;stroke-dasharray:none;stroke-dashoffset:0;stroke-opacity:1;paint-order:markers fill stroke"
           d="m 329.41179,217.92594 a 1.5,1.5 0 0 0 1.50017,1.50017 1.5,1.5 0 0 0 1.50017,-1.50017 z" /><path
           id="path79288"
           style="fill:#8dd35f;fill-opacity:1;stroke:none;stroke-width:0.460996;stroke-linecap:round;stroke-linejoin:round;stroke-dasharray:none;stroke-dashoffset:0;stroke-opacity:1;paint-order:markers fill stroke"
           d="m 329.41179,219.42611 a 1.5,1.5 0 0 0 1.50017,1.50017 1.5,1.5 0 0 0 1.50017,-1.50017 z" /><path
           id="path79290"
           style="fill:#e6e6e6;stroke:none;stroke-width:0.800698;stroke-linecap:round;stroke-linejoin:round;paint-order:markers fill stroke"
           d="m 323.33703,217.89635 h 6.05397 v 6.41024 h -6.05397 z" /><path
           id="path79292"
           style="fill:#87aade;stroke-width:0.460996;stroke-linecap:round;stroke-linejoin:round;paint-order:markers fill stroke"
           d="m 326.39221,224.30659 a 1.5,1.5 0 0 0 1.49914,1.49034 1.5,1.5 0 0 0 1.49965,-1.49034 h -0.49455 a 1.0049158,1.0056095 0 0 1 -1.0051,0.9958 1.0049158,1.0056095 0 0 1 -1.00408,-0.9958 z" /><path
           id="path79294"
           style="fill:#cccccc;stroke:none;stroke-width:0.417561;stroke-linecap:round;stroke-linejoin:round;paint-order:markers fill stroke"
           d="m 329.391,220.96367 h 3.15713 v 3.34292 H 329.391 Z" /></g><g
         aria-label="M 01"
         id="text79300"
         style="font-size:4.23333px;line-height:1.25;font-family:'Noto Sans';-inkscape-font-specification:'Noto Sans';stroke-width:0.264583"><path
           d="m 315.54625,199.69725 -0.72814,-2.37066 h -0.0169 q 0.004,0.0847 0.0127,0.254 0.008,0.16933 0.0169,0.36406 0.008,0.1905 0.008,0.34713 v 1.40547 h -0.5715 v -3.0226 h 0.87207 l 0.71543,2.3114 h 0.0127 l 0.75776,-2.3114 h 0.87207 v 3.0226 h -0.5969 v -1.43087 q 0,-0.14393 0.004,-0.33019 0.008,-0.18627 0.0127,-0.35137 0.008,-0.16933 0.0127,-0.254 h -0.0169 l -0.77893,2.36643 z"
           style="font-weight:bold;-inkscape-font-specification:'Noto Sans Bold'"
           id="path79600" /><path
           d="m 321.24431,198.18595 q 0,0.48683 -0.10583,0.83397 -0.1016,0.34713 -0.33444,0.5334 -0.22859,0.18626 -0.61806,0.18626 -0.5461,0 -0.8001,-0.41063 -0.254,-0.41487 -0.254,-1.143 0,-0.49106 0.1016,-0.8382 0.1016,-0.34713 0.33443,-0.5334 0.23284,-0.18626 0.61807,-0.18626 0.54186,0 0.8001,0.41063 0.25823,0.41063 0.25823,1.14723 z m -1.47743,0 q 0,0.51647 0.0889,0.77893 0.0889,0.25824 0.3302,0.25824 0.23707,0 0.3302,-0.25824 0.0931,-0.25823 0.0931,-0.77893 0,-0.51646 -0.0931,-0.77893 -0.0931,-0.26247 -0.3302,-0.26247 -0.2413,0 -0.3302,0.26247 -0.0889,0.26247 -0.0889,0.77893 z"
           style="font-weight:bold;-inkscape-font-specification:'Noto Sans Bold'"
           id="path79602" /><path
           d="m 323.14931,199.69725 h -0.63923 v -1.74836 q 0,-0.11007 0.004,-0.28787 0.008,-0.1778 0.0127,-0.31327 -0.0212,0.0254 -0.0931,0.0931 -0.0677,0.0635 -0.127,0.1143 l -0.34713,0.2794 -0.30904,-0.38524 0.97367,-0.7747 h 0.52493 z"
           style="font-weight:bold;-inkscape-font-specification:'Noto Sans Bold'"
           id="path79604" /></g><g
         aria-label="M 10"
         id="text79304"
         style="font-size:4.23333px;line-height:1.25;font-family:'Noto Sans';-inkscape-font-specification:'Noto Sans';stroke-width:0.264583"><path
           d="m 315.54625,204.40964 -0.72814,-2.37067 h -0.0169 q 0.004,0.0847 0.0127,0.254 0.008,0.16934 0.0169,0.36407 0.008,0.1905 0.008,0.34713 v 1.40547 h -0.5715 v -3.0226 h 0.87207 l 0.71543,2.3114 h 0.0127 l 0.75776,-2.3114 h 0.87207 v 3.0226 h -0.5969 v -1.43087 q 0,-0.14393 0.004,-0.3302 0.008,-0.18626 0.0127,-0.35136 0.008,-0.16934 0.0127,-0.254 h -0.0169 l -0.77893,2.36643 z"
           style="font-weight:bold;-inkscape-font-specification:'Noto Sans Bold'"
           id="path79593" /><path
           d="m 320.72784,204.40964 h -0.63923 v -1.74837 q 0,-0.11006 0.004,-0.28786 0.008,-0.1778 0.0127,-0.31327 -0.0212,0.0254 -0.0931,0.0931 -0.0677,0.0635 -0.127,0.1143 l -0.34713,0.2794 -0.30903,-0.38523 0.97366,-0.7747 h 0.52493 z"
           style="font-weight:bold;-inkscape-font-specification:'Noto Sans Bold'"
           id="path79595" /><path
           d="m 323.66578,202.89834 q 0,0.48683 -0.10584,0.83396 -0.1016,0.34714 -0.33443,0.5334 -0.2286,0.18627 -0.61806,0.18627 -0.5461,0 -0.8001,-0.41063 -0.254,-0.41487 -0.254,-1.143 0,-0.49107 0.1016,-0.8382 0.1016,-0.34713 0.33443,-0.5334 0.23283,-0.18627 0.61807,-0.18627 0.54186,0 0.80009,0.41064 0.25824,0.41063 0.25824,1.14723 z m -1.47743,0 q 0,0.51646 0.0889,0.77893 0.0889,0.25823 0.3302,0.25823 0.23706,0 0.3302,-0.25823 0.0931,-0.25823 0.0931,-0.77893 0,-0.51647 -0.0931,-0.77893 -0.0931,-0.26247 -0.3302,-0.26247 -0.2413,0 -0.3302,0.26247 -0.0889,0.26246 -0.0889,0.77893 z"
           style="font-weight:bold;-inkscape-font-specification:'Noto Sans Bold'"
           id="path79597" /></g></g></g></svg>
