<?xml version="1.0" encoding="UTF-8" standalone="no"?>
<!-- Created with Inkscape (http://www.inkscape.org/) -->

<svg
   width="90.261322mm"
   height="67.119141mm"
   viewBox="0 0 90.261322 67.119141"
   version="1.1"
   id="svg336"
   xml:space="preserve"
   xmlns:inkscape="http://www.inkscape.org/namespaces/inkscape"
   xmlns:sodipodi="http://sodipodi.sourceforge.net/DTD/sodipodi-0.dtd"
   xmlns="http://www.w3.org/2000/svg"
   xmlns:svg="http://www.w3.org/2000/svg"><sodipodi:namedview
     id="namedview338"
     pagecolor="#ffffff"
     bordercolor="#999999"
     borderopacity="1"
     inkscape:showpageshadow="0"
     inkscape:pageopacity="0"
     inkscape:pagecheckerboard="0"
     inkscape:deskcolor="#d1d1d1"
     inkscape:document-units="mm"
     showgrid="false" /><defs
     id="defs333" /><g
     inkscape:label="Layer 1"
     inkscape:groupmode="layer"
     id="layer1"
     transform="translate(-335.53162,-313.81884)"><path
       id="path79308"
       style="fill:#ffd42a;stroke:#ffff00;stroke-width:0.952296;stroke-linecap:round;stroke-dasharray:none;paint-order:markers fill stroke"
       d="m 378.32234,314.29499 h 4.67989 l 0.0263,61.61295 -4.67989,3.99745 z"
       sodipodi:nodetypes="ccccc"
       inkscape:export-filename="flags-mess.svg"
       inkscape:export-xdpi="300.34"
       inkscape:export-ydpi="300.34" /><path
       id="path79310"
       style="fill:#000000;stroke:#000000;stroke-width:0.2;stroke-linecap:round;stroke-dasharray:none;paint-order:markers fill stroke"
       d="m 383.57838,313.91884 h 31.00388 c 15.15011,0 14.47455,24.90967 0,24.90967 h -31.00388 z"
       sodipodi:nodetypes="ccccc" /><rect
       style="fill:#0000ff;stroke:#000000;stroke-width:0.329825;stroke-linecap:round;stroke-linejoin:miter;stroke-dasharray:none;stroke-dashoffset:0;paint-order:markers fill stroke"
       id="rect79312"
       width="12.712893"
       height="4.8415952"
       x="396.73447"
       y="317.47601"
       ry="2.3260634" /><g
       aria-label="1001"
       id="text79316"
       style="font-size:4.65419px;line-height:1.25;font-family:'Noto Sans';-inkscape-font-specification:'Noto Sans';stroke-width:0.43633"><path
         d="m 399.92139,321.5607 h -0.70279 v -1.92218 q 0,-0.12101 0.005,-0.31649 0.009,-0.19547 0.014,-0.34441 -0.0233,0.0279 -0.10239,0.1024 -0.0745,0.0698 -0.13963,0.12566 l -0.38164,0.30718 -0.33976,-0.42354 1.07047,-0.85171 h 0.57712 z"
         style="font-weight:bold;-inkscape-font-specification:'Noto Sans Bold'"
         id="path82557" /><path
         d="m 403.1514,319.89915 q 0,0.53524 -0.11636,0.91688 -0.1117,0.38164 -0.36768,0.58643 -0.25132,0.20478 -0.67951,0.20478 -0.60039,0 -0.87964,-0.45146 -0.27925,-0.45611 -0.27925,-1.25663 0,-0.53988 0.1117,-0.92153 0.1117,-0.38164 0.36768,-0.58642 0.25598,-0.20479 0.67951,-0.20479 0.59574,0 0.87964,0.45146 0.28391,0.45145 0.28391,1.26128 z m -1.62432,0 q 0,0.56781 0.0977,0.85637 0.0977,0.28391 0.36303,0.28391 0.26063,0 0.36303,-0.28391 0.10239,-0.2839 0.10239,-0.85637 0,-0.56781 -0.10239,-0.85637 -0.1024,-0.28856 -0.36303,-0.28856 -0.26529,0 -0.36303,0.28856 -0.0977,0.28856 -0.0977,0.85637 z"
         style="font-weight:bold;-inkscape-font-specification:'Noto Sans Bold'"
         id="path82559" /><path
         d="m 405.8136,319.89915 q 0,0.53524 -0.11636,0.91688 -0.1117,0.38164 -0.36768,0.58643 -0.25133,0.20478 -0.67951,0.20478 -0.60039,0 -0.87964,-0.45146 -0.27925,-0.45611 -0.27925,-1.25663 0,-0.53988 0.1117,-0.92153 0.1117,-0.38164 0.36768,-0.58642 0.25598,-0.20479 0.67951,-0.20479 0.59574,0 0.87964,0.45146 0.28391,0.45145 0.28391,1.26128 z m -1.62432,0 q 0,0.56781 0.0977,0.85637 0.0977,0.28391 0.36303,0.28391 0.26063,0 0.36303,-0.28391 0.10239,-0.2839 0.10239,-0.85637 0,-0.56781 -0.10239,-0.85637 -0.1024,-0.28856 -0.36303,-0.28856 -0.26529,0 -0.36303,0.28856 -0.0977,0.28856 -0.0977,0.85637 z"
         style="font-weight:bold;-inkscape-font-specification:'Noto Sans Bold'"
         id="path82561" /><path
         d="m 407.90798,321.5607 h -0.70278 v -1.92218 q 0,-0.12101 0.005,-0.31649 0.009,-0.19547 0.014,-0.34441 -0.0233,0.0279 -0.10239,0.1024 -0.0745,0.0698 -0.13963,0.12566 l -0.38164,0.30718 -0.33976,-0.42354 1.07046,-0.85171 h 0.57712 z"
         style="font-weight:bold;-inkscape-font-specification:'Noto Sans Bold'"
         id="path82563" /></g><rect
       style="fill:#ff0000;stroke:#000000;stroke-width:0.329825;stroke-linecap:round;stroke-linejoin:miter;stroke-dasharray:none;stroke-dashoffset:0;paint-order:markers fill stroke"
       id="rect79318"
       width="12.712893"
       height="4.8415952"
       x="396.73447"
       y="323.26242"
       ry="2.3260634" /><g
       aria-label="1701"
       id="text79322"
       style="font-size:4.65419px;line-height:1.25;font-family:'Noto Sans';-inkscape-font-specification:'Noto Sans';stroke-width:0.43633"><path
         d="m 399.92142,327.34711 h -0.70279 v -1.92218 q 0,-0.12101 0.005,-0.31649 0.009,-0.19547 0.014,-0.34441 -0.0233,0.0279 -0.10239,0.10239 -0.0745,0.0698 -0.13963,0.12567 l -0.38164,0.30717 -0.33976,-0.42353 1.07047,-0.85171 h 0.57712 z"
         style="font-weight:bold;-inkscape-font-specification:'Noto Sans Bold'"
         id="path82584" /><path
         d="m 401.17805,327.34711 1.24732,-2.73201 h -1.63827 v -0.59108 h 2.38294 v 0.44214 l -1.25663,2.88095 z"
         style="font-weight:bold;-inkscape-font-specification:'Noto Sans Bold'"
         id="path82586" /><path
         d="m 405.81363,325.68556 q 0,0.53523 -0.11636,0.91688 -0.1117,0.38164 -0.36768,0.58642 -0.25133,0.20479 -0.67951,0.20479 -0.60039,0 -0.87964,-0.45146 -0.27925,-0.45611 -0.27925,-1.25663 0,-0.53988 0.1117,-0.92153 0.1117,-0.38164 0.36768,-0.58643 0.25598,-0.20478 0.67951,-0.20478 0.59574,0 0.87964,0.45146 0.28391,0.45145 0.28391,1.26128 z m -1.62432,0 q 0,0.56781 0.0977,0.85637 0.0977,0.28391 0.36303,0.28391 0.26063,0 0.36303,-0.28391 0.10239,-0.2839 0.10239,-0.85637 0,-0.56781 -0.10239,-0.85637 -0.1024,-0.28856 -0.36303,-0.28856 -0.26529,0 -0.36303,0.28856 -0.0977,0.28856 -0.0977,0.85637 z"
         style="font-weight:bold;-inkscape-font-specification:'Noto Sans Bold'"
         id="path82588" /><path
         d="m 407.90801,327.34711 h -0.70278 v -1.92218 q 0,-0.12101 0.005,-0.31649 0.009,-0.19547 0.014,-0.34441 -0.0233,0.0279 -0.10239,0.10239 -0.0745,0.0698 -0.13963,0.12567 l -0.38164,0.30717 -0.33976,-0.42353 1.07047,-0.85171 h 0.57711 z"
         style="font-weight:bold;-inkscape-font-specification:'Noto Sans Bold'"
         id="path82590" /></g><rect
       style="fill:#0000ff;stroke:#000000;stroke-width:0.329825;stroke-linecap:round;stroke-linejoin:miter;stroke-dasharray:none;stroke-dashoffset:0;paint-order:markers fill stroke"
       id="rect79324"
       width="12.712893"
       height="4.8415952"
       x="410.64984"
       y="317.47601"
       ry="2.3260634" /><g
       aria-label="1002"
       id="text79328"
       style="font-size:4.65419px;line-height:1.25;font-family:'Noto Sans';-inkscape-font-specification:'Noto Sans';stroke-width:0.43633"><path
         d="m 413.54358,321.5607 h -0.70278 v -1.92218 q 0,-0.12101 0.005,-0.31649 0.009,-0.19547 0.014,-0.34441 -0.0233,0.0279 -0.10239,0.1024 -0.0745,0.0698 -0.13962,0.12566 l -0.38165,0.30718 -0.33975,-0.42354 1.07046,-0.85171 h 0.57712 z"
         style="font-weight:bold;-inkscape-font-specification:'Noto Sans Bold'"
         id="path82566" /><path
         d="m 416.77359,319.89915 q 0,0.53524 -0.11636,0.91688 -0.1117,0.38164 -0.36768,0.58643 -0.25132,0.20478 -0.67951,0.20478 -0.60039,0 -0.87964,-0.45146 -0.27925,-0.45611 -0.27925,-1.25663 0,-0.53988 0.1117,-0.92153 0.1117,-0.38164 0.36768,-0.58642 0.25598,-0.20479 0.67951,-0.20479 0.59574,0 0.87964,0.45146 0.28391,0.45145 0.28391,1.26128 z m -1.62431,0 q 0,0.56781 0.0977,0.85637 0.0977,0.28391 0.36302,0.28391 0.26064,0 0.36303,-0.28391 0.10239,-0.2839 0.10239,-0.85637 0,-0.56781 -0.10239,-0.85637 -0.10239,-0.28856 -0.36303,-0.28856 -0.26529,0 -0.36302,0.28856 -0.0977,0.28856 -0.0977,0.85637 z"
         style="font-weight:bold;-inkscape-font-specification:'Noto Sans Bold'"
         id="path82568" /><path
         d="m 419.43579,319.89915 q 0,0.53524 -0.11636,0.91688 -0.1117,0.38164 -0.36768,0.58643 -0.25132,0.20478 -0.67951,0.20478 -0.60039,0 -0.87964,-0.45146 -0.27925,-0.45611 -0.27925,-1.25663 0,-0.53988 0.1117,-0.92153 0.1117,-0.38164 0.36768,-0.58642 0.25598,-0.20479 0.67951,-0.20479 0.59574,0 0.87964,0.45146 0.28391,0.45145 0.28391,1.26128 z m -1.62431,0 q 0,0.56781 0.0977,0.85637 0.0977,0.28391 0.36303,0.28391 0.26064,0 0.36303,-0.28391 0.10239,-0.2839 0.10239,-0.85637 0,-0.56781 -0.10239,-0.85637 -0.10239,-0.28856 -0.36303,-0.28856 -0.26529,0 -0.36303,0.28856 -0.0977,0.28856 -0.0977,0.85637 z"
         style="font-weight:bold;-inkscape-font-specification:'Noto Sans Bold'"
         id="path82570" /><path
         d="m 422.1166,321.5607 h -2.32244 v -0.48869 l 0.8331,-0.84241 q 0.25133,-0.26063 0.40492,-0.43284 0.15359,-0.17686 0.2234,-0.31648 0.0698,-0.14428 0.0698,-0.30718 0,-0.20013 -0.1117,-0.29787 -0.10704,-0.0977 -0.29321,-0.0977 -0.19082,0 -0.37234,0.0884 -0.18151,0.0884 -0.38164,0.25133 l -0.38164,-0.45146 q 0.14428,-0.12566 0.30252,-0.23271 0.16289,-0.10704 0.37233,-0.1722 0.2141,-0.0698 0.51196,-0.0698 0.3258,0 0.55851,0.121 0.23736,0.11636 0.36302,0.32114 0.13032,0.20013 0.13032,0.45611 0,0.2746 -0.1117,0.50266 -0.10705,0.22805 -0.31648,0.45145 -0.20479,0.2234 -0.498,0.49335 l -0.42819,0.40026 v 0.0326 h 1.44745 z"
         style="font-weight:bold;-inkscape-font-specification:'Noto Sans Bold'"
         id="path82572" /></g><rect
       style="fill:#ff0000;stroke:#000000;stroke-width:0.329825;stroke-linecap:round;stroke-linejoin:miter;stroke-dasharray:none;stroke-dashoffset:0;paint-order:markers fill stroke"
       id="rect79330"
       width="12.712893"
       height="4.8415952"
       x="410.64984"
       y="323.26242"
       ry="2.3260634" /><path
       id="path79332"
       style="fill:#ffd42a;stroke:#ffff00;stroke-width:0.2;stroke-linecap:round;stroke-dasharray:none;paint-order:markers fill stroke"
       d="m 383.57838,313.91884 h 3.76174 c 11.40591,0 12.09674,24.90967 0,24.90967 h -3.76174 z"
       sodipodi:nodetypes="ccccc" /><g
       aria-label="Rua das Flores"
       id="text79336"
       style="font-size:2.11667px;line-height:1.25;font-family:'Noto Sans';-inkscape-font-specification:'Noto Sans';stroke-width:0.503922"><path
         d="m 395.94917,334.99126 q 0.28152,0 0.41487,0.10795 0.13547,0.10583 0.13547,0.32174 0,0.12065 -0.0444,0.20108 -0.0444,0.0804 -0.1143,0.12912 -0.0677,0.0466 -0.14393,0.0741 l 0.41486,0.67733 h -0.22225 l -0.36618,-0.62441 h -0.30057 v 0.62441 h -0.1905 v -1.5113 z m -0.0106,0.1651 h -0.2159 v 0.56092 h 0.22648 q 0.18416,0 0.26882,-0.072 0.0847,-0.0741 0.0847,-0.2159 0,-0.14817 -0.0889,-0.20955 -0.0889,-0.0635 -0.27517,-0.0635 z"
         style="fill:#ffffff"
         id="path82611" /><path
         d="m 397.77163,335.36803 v 1.13453 h -0.1524 l -0.0275,-0.15028 h -0.008 q -0.055,0.0889 -0.1524,0.13123 -0.0974,0.0402 -0.20743,0.0402 -0.20532,0 -0.30903,-0.0974 -0.10372,-0.0995 -0.10372,-0.31538 v -0.74295 h 0.18838 v 0.73025 q 0,0.27093 0.25189,0.27093 0.18838,0 0.26035,-0.10583 0.0741,-0.10583 0.0741,-0.3048 v -0.59055 z"
         style="fill:#ffffff"
         id="path82613" /><path
         d="m 398.56114,335.34898 q 0.20744,0 0.30692,0.091 0.0995,0.091 0.0995,0.28998 v 0.77258 h -0.13547 l -0.036,-0.16086 h -0.008 q -0.0741,0.0931 -0.15664,0.13758 -0.0804,0.0444 -0.22436,0.0444 -0.15452,0 -0.25612,-0.0804 -0.1016,-0.0826 -0.1016,-0.25612 0,-0.16933 0.13335,-0.26035 0.13335,-0.0931 0.41063,-0.1016 l 0.19262,-0.006 v -0.0677 q 0,-0.14182 -0.0614,-0.19685 -0.0614,-0.055 -0.17357,-0.055 -0.0889,0 -0.16933,0.0275 -0.0804,0.0254 -0.15029,0.0593 l -0.0571,-0.1397 q 0.0741,-0.0402 0.17569,-0.0677 0.1016,-0.0296 0.21166,-0.0296 z m 0.055,0.60537 q -0.21167,0.008 -0.29422,0.0677 -0.0804,0.0593 -0.0804,0.16722 0,0.0953 0.0571,0.1397 0.0593,0.0444 0.15028,0.0444 0.14393,0 0.23918,-0.0783 0.0953,-0.0804 0.0953,-0.24553 v -0.1016 z"
         style="fill:#ffffff"
         id="path82615" /><path
         d="m 400.27142,336.52373 q -0.21167,0 -0.33867,-0.14605 -0.127,-0.14817 -0.127,-0.44027 0,-0.2921 0.127,-0.44026 0.12912,-0.15029 0.34078,-0.15029 0.13124,0 0.21379,0.0487 0.0847,0.0487 0.13758,0.11853 h 0.0127 q -0.002,-0.0275 -0.008,-0.0804 -0.004,-0.055 -0.004,-0.0868 v -0.45297 h 0.18627 v 1.60867 h -0.15029 l -0.0275,-0.1524 h -0.008 q -0.0508,0.072 -0.13547,0.12277 -0.0847,0.0508 -0.21801,0.0508 z m 0.0296,-0.15452 q 0.17992,0 0.25188,-0.0974 0.0741,-0.0995 0.0741,-0.29845 v -0.0339 q 0,-0.21167 -0.0699,-0.32385 -0.0698,-0.1143 -0.25824,-0.1143 -0.15028,0 -0.22648,0.12065 -0.0741,0.11853 -0.0741,0.31962 0,0.2032 0.0741,0.31538 0.0762,0.11218 0.2286,0.11218 z"
         style="fill:#ffffff"
         id="path82617" /><path
         d="m 401.60068,335.34898 q 0.20744,0 0.30692,0.091 0.0995,0.091 0.0995,0.28998 v 0.77258 h -0.13547 l -0.036,-0.16086 h -0.008 q -0.0741,0.0931 -0.15664,0.13758 -0.0804,0.0444 -0.22436,0.0444 -0.15452,0 -0.25612,-0.0804 -0.1016,-0.0826 -0.1016,-0.25612 0,-0.16933 0.13335,-0.26035 0.13335,-0.0931 0.41063,-0.1016 l 0.19262,-0.006 v -0.0677 q 0,-0.14182 -0.0614,-0.19685 -0.0614,-0.055 -0.17357,-0.055 -0.0889,0 -0.16933,0.0275 -0.0804,0.0254 -0.15029,0.0593 l -0.0572,-0.1397 q 0.0741,-0.0402 0.17569,-0.0677 0.1016,-0.0296 0.21166,-0.0296 z m 0.055,0.60537 q -0.21167,0.008 -0.29422,0.0677 -0.0804,0.0593 -0.0804,0.16722 0,0.0953 0.0571,0.1397 0.0593,0.0444 0.15028,0.0444 0.14393,0 0.23918,-0.0783 0.0952,-0.0804 0.0952,-0.24553 v -0.1016 z"
         style="fill:#ffffff"
         id="path82619" /><path
         d="m 403.09717,336.1893 q 0,0.1651 -0.12277,0.24976 -0.12276,0.0847 -0.3302,0.0847 -0.11853,0 -0.20531,-0.019 -0.0847,-0.019 -0.15029,-0.0529 v -0.16933 q 0.0677,0.0339 0.16299,0.0635 0.0974,0.0275 0.19685,0.0275 0.14181,0 0.20531,-0.0444 0.0635,-0.0466 0.0635,-0.12277 0,-0.0423 -0.0233,-0.0762 -0.0233,-0.0339 -0.0847,-0.0677 -0.0593,-0.0339 -0.17145,-0.0762 -0.11006,-0.0423 -0.18838,-0.0847 -0.0783,-0.0423 -0.12065,-0.1016 -0.0423,-0.0593 -0.0423,-0.1524 0,-0.14393 0.11641,-0.22225 0.11854,-0.0783 0.30904,-0.0783 0.10371,0 0.19261,0.0212 0.091,0.0191 0.16934,0.055 l -0.0635,0.14817 q -0.072,-0.0296 -0.15029,-0.0508 -0.0783,-0.0212 -0.16086,-0.0212 -0.1143,0 -0.17569,0.0381 -0.0593,0.036 -0.0593,0.0995 0,0.0466 0.0275,0.0804 0.0275,0.0317 0.091,0.0635 0.0656,0.0296 0.17357,0.072 0.10795,0.0402 0.18415,0.0825 0.0762,0.0423 0.11641,0.10371 0.0402,0.0593 0.0402,0.15029 z"
         style="fill:#ffffff"
         id="path82621" /><path
         d="m 404.13857,336.50256 h -0.1905 v -1.5113 h 0.84456 v 0.16722 h -0.65406 v 0.53552 h 0.61384 v 0.16721 h -0.61384 z"
         style="fill:#ffffff"
         id="path82623" /><path
         d="m 405.20749,336.50256 h -0.18627 v -1.60867 h 0.18627 z"
         style="fill:#ffffff"
         id="path82625" /><path
         d="m 406.55369,335.93318 q 0,0.28152 -0.14393,0.43603 -0.14182,0.15452 -0.38524,0.15452 -0.15028,0 -0.26881,-0.0677 -0.11642,-0.0699 -0.18415,-0.20109 -0.0677,-0.13335 -0.0677,-0.32173 0,-0.28152 0.14182,-0.43392 0.14182,-0.1524 0.38523,-0.1524 0.15452,0 0.27094,0.0699 0.11853,0.0677 0.18415,0.19897 0.0677,0.12912 0.0677,0.3175 z m -0.85725,0 q 0,0.20108 0.0783,0.31962 0.0804,0.11641 0.254,0.11641 0.17145,0 0.25188,-0.11641 0.0804,-0.11854 0.0804,-0.31962 0,-0.20108 -0.0804,-0.31538 -0.0804,-0.1143 -0.254,-0.1143 -0.17357,0 -0.25188,0.1143 -0.0783,0.1143 -0.0783,0.31538 z"
         style="fill:#ffffff"
         id="path82627" /><path
         d="m 407.37708,335.34686 q 0.0318,0 0.0677,0.004 0.0381,0.002 0.0656,0.008 l -0.0233,0.17145 q -0.0275,-0.006 -0.0614,-0.0106 -0.0318,-0.004 -0.0614,-0.004 -0.0868,0 -0.16299,0.0487 -0.0762,0.0466 -0.12277,0.13335 -0.0444,0.0847 -0.0444,0.19897 v 0.60536 h -0.18626 v -1.13453 h 0.1524 l 0.0212,0.20743 h 0.008 q 0.055,-0.0931 0.14182,-0.16086 0.0868,-0.0677 0.20532,-0.0677 z"
         style="fill:#ffffff"
         id="path82629" /><path
         d="m 408.11791,335.34686 q 0.14605,0 0.24977,0.0635 0.10583,0.0635 0.16086,0.17992 0.0571,0.1143 0.0571,0.26882 v 0.11218 h -0.77682 q 0.004,0.19262 0.0974,0.29422 0.0952,0.0995 0.26459,0.0995 0.10795,0 0.1905,-0.019 0.0847,-0.0212 0.17356,-0.0593 v 0.16299 q -0.0868,0.0381 -0.17145,0.055 -0.0847,0.019 -0.20108,0.019 -0.16087,0 -0.28575,-0.0656 -0.12277,-0.0656 -0.19262,-0.19473 -0.0677,-0.13123 -0.0677,-0.31962 0,-0.18626 0.0614,-0.31961 0.0635,-0.13335 0.17568,-0.20532 0.1143,-0.072 0.26459,-0.072 z m -0.002,0.1524 q -0.13335,0 -0.21167,0.0868 -0.0762,0.0847 -0.091,0.23706 h 0.57785 q -0.002,-0.14393 -0.0677,-0.23283 -0.0656,-0.091 -0.20744,-0.091 z"
         style="fill:#ffffff"
         id="path82631" /><path
         d="m 409.61228,336.1893 q 0,0.1651 -0.12277,0.24976 -0.12277,0.0847 -0.3302,0.0847 -0.11854,0 -0.20532,-0.019 -0.0847,-0.019 -0.15028,-0.0529 v -0.16933 q 0.0677,0.0339 0.16298,0.0635 0.0974,0.0275 0.19685,0.0275 0.14182,0 0.20532,-0.0444 0.0635,-0.0466 0.0635,-0.12277 0,-0.0423 -0.0233,-0.0762 -0.0233,-0.0339 -0.0847,-0.0677 -0.0593,-0.0339 -0.17145,-0.0762 -0.11007,-0.0423 -0.18839,-0.0847 -0.0783,-0.0423 -0.12065,-0.1016 -0.0423,-0.0593 -0.0423,-0.1524 0,-0.14393 0.11642,-0.22225 0.11853,-0.0783 0.30903,-0.0783 0.10372,0 0.19262,0.0212 0.091,0.0191 0.16933,0.055 l -0.0635,0.14817 q -0.072,-0.0296 -0.15028,-0.0508 -0.0783,-0.0212 -0.16087,-0.0212 -0.1143,0 -0.17568,0.0381 -0.0593,0.036 -0.0593,0.0995 0,0.0466 0.0275,0.0804 0.0275,0.0317 0.091,0.0635 0.0656,0.0296 0.17357,0.072 0.10795,0.0402 0.18415,0.0825 0.0762,0.0423 0.11642,0.10371 0.0402,0.0593 0.0402,0.15029 z"
         style="fill:#ffffff"
         id="path82633" /></g><g
       aria-label="Cod: 123456"
       id="text79340"
       style="font-size:1.05833px;line-height:1.25;font-family:'Noto Sans';-inkscape-font-specification:'Noto Sans';stroke-width:0.264583"><path
         d="m 384.27685,337.40881 q -0.12171,0 -0.19156,0.0815 -0.0698,0.0815 -0.0698,0.22331 0,0.14075 0.0646,0.2233 0.0656,0.0815 0.19579,0.0815 0.0497,0 0.0942,-0.008 0.0444,-0.008 0.0868,-0.0212 v 0.0826 q -0.0423,0.0159 -0.0878,0.0233 -0.0444,0.007 -0.10689,0.007 -0.11536,0 -0.19261,-0.0476 -0.0773,-0.0476 -0.11642,-0.13547 -0.0381,-0.0878 -0.0381,-0.20637 0,-0.1143 0.0413,-0.20108 0.0423,-0.0878 0.12383,-0.13653 0.0815,-0.0497 0.19791,-0.0497 0.11959,0 0.20849,0.0444 l -0.0381,0.0804 q -0.0349,-0.0159 -0.0783,-0.0286 -0.0423,-0.0127 -0.0931,-0.0127 z"
         id="path82636" /><path
         d="m 385.10235,337.80674 q 0,0.14076 -0.072,0.21802 -0.0709,0.0772 -0.19262,0.0772 -0.0751,0 -0.1344,-0.0339 -0.0582,-0.0349 -0.0921,-0.10054 -0.0339,-0.0667 -0.0339,-0.16087 0,-0.14076 0.0709,-0.21696 0.0709,-0.0762 0.19262,-0.0762 0.0773,0 0.13546,0.0349 0.0593,0.0339 0.0921,0.0995 0.0339,0.0646 0.0339,0.15875 z m -0.42863,0 q 0,0.10054 0.0392,0.15981 0.0402,0.0582 0.127,0.0582 0.0857,0 0.12594,-0.0582 0.0402,-0.0593 0.0402,-0.15981 0,-0.10054 -0.0402,-0.15769 -0.0402,-0.0571 -0.127,-0.0571 -0.0868,0 -0.12594,0.0571 -0.0392,0.0572 -0.0392,0.15769 z"
         id="path82638" /><path
         d="m 385.45054,338.10201 q -0.10584,0 -0.16934,-0.073 -0.0635,-0.0741 -0.0635,-0.22013 0,-0.14605 0.0635,-0.22014 0.0646,-0.0751 0.17039,-0.0751 0.0656,0 0.1069,0.0243 0.0423,0.0244 0.0688,0.0593 h 0.006 q -10e-4,-0.0138 -0.004,-0.0402 -0.002,-0.0275 -0.002,-0.0434 v -0.22648 h 0.0931 v 0.80433 h -0.0751 l -0.0138,-0.0762 h -0.004 q -0.0254,0.036 -0.0677,0.0614 -0.0423,0.0254 -0.109,0.0254 z m 0.0148,-0.0772 q 0.09,0 0.12594,-0.0487 0.037,-0.0497 0.037,-0.14922 v -0.0169 q 0,-0.10583 -0.0349,-0.16192 -0.0349,-0.0571 -0.12912,-0.0571 -0.0751,0 -0.11324,0.0603 -0.037,0.0593 -0.037,0.1598 0,0.1016 0.037,0.15769 0.0381,0.0561 0.1143,0.0561 z"
         id="path82640" /><path
         d="m 385.88657,337.58132 q 0,-0.0402 0.019,-0.0561 0.019,-0.0159 0.0455,-0.0159 0.0275,0 0.0466,0.0159 0.0201,0.0159 0.0201,0.0561 0,0.0381 -0.0201,0.055 -0.019,0.0169 -0.0466,0.0169 -0.0265,0 -0.0455,-0.0169 -0.019,-0.0169 -0.019,-0.055 z m 0,0.45296 q 0,-0.0392 0.019,-0.055 0.019,-0.0159 0.0455,-0.0159 0.0275,0 0.0466,0.0159 0.0201,0.0159 0.0201,0.055 0,0.0381 -0.0201,0.055 -0.019,0.0169 -0.0466,0.0169 -0.0265,0 -0.0455,-0.0169 -0.019,-0.0169 -0.019,-0.055 z"
         id="path82642" /><path
         d="m 386.74487,338.09143 h -0.091 v -0.52811 q 0,-0.0455 0.001,-0.073 10e-4,-0.0275 0.003,-0.0571 -0.0169,0.0169 -0.0307,0.0286 -0.0138,0.0116 -0.0349,0.0296 l -0.0804,0.0656 -0.0487,-0.0624 0.20426,-0.15875 h 0.0772 z"
         id="path82644" /><path
         d="m 387.52486,338.09143 h -0.49953 v -0.0773 l 0.19791,-0.20002 q 0.0572,-0.0571 0.0963,-0.1016 0.0392,-0.0445 0.0593,-0.0868 0.0201,-0.0434 0.0201,-0.0942 0,-0.0624 -0.037,-0.0942 -0.037,-0.0328 -0.0963,-0.0328 -0.055,0 -0.0974,0.0191 -0.0413,0.019 -0.0847,0.0529 l -0.0497,-0.0624 q 0.0445,-0.037 0.1016,-0.0624 0.0582,-0.0265 0.13017,-0.0265 0.10584,0 0.16722,0.054 0.0614,0.0529 0.0614,0.14711 0,0.0593 -0.0243,0.11113 -0.0243,0.0519 -0.0677,0.10266 -0.0434,0.0497 -0.1016,0.10689 l -0.15769,0.15557 v 0.004 h 0.38205 z"
         id="path82646" /><path
         d="m 388.10165,337.51252 q 0,0.0762 -0.0423,0.12171 -0.0423,0.0444 -0.1143,0.0593 v 0.004 q 0.091,0.0106 0.13547,0.0572 0.0444,0.0466 0.0444,0.12171 0,0.0656 -0.0307,0.11747 -0.0307,0.0508 -0.0952,0.0794 -0.0635,0.0286 -0.16405,0.0286 -0.0593,0 -0.11006,-0.01 -0.0508,-0.008 -0.0974,-0.0317 v -0.0868 q 0.0476,0.0233 0.10266,0.037 0.055,0.0127 0.10583,0.0127 0.1016,0 0.14605,-0.0392 0.0455,-0.0402 0.0455,-0.11007 0,-0.0709 -0.0561,-0.1016 -0.055,-0.0317 -0.15558,-0.0317 h -0.073 v -0.0794 h 0.0741 q 0.0931,0 0.14076,-0.0392 0.0487,-0.0392 0.0487,-0.10372 0,-0.055 -0.037,-0.0847 -0.037,-0.0307 -0.10054,-0.0307 -0.0614,0 -0.10477,0.018 -0.0434,0.018 -0.0857,0.0455 l -0.0466,-0.0635 q 0.0402,-0.0317 0.0995,-0.055 0.0603,-0.0233 0.13652,-0.0233 0.11854,0 0.17569,0.0529 0.0582,0.0529 0.0582,0.1344 z"
         id="path82648" /><path
         d="m 388.76946,337.91998 h -0.11007 v 0.17145 h -0.0899 v -0.17145 h -0.36195 v -0.0794 l 0.3556,-0.50906 h 0.0963 v 0.50482 h 0.11007 z m -0.20002,-0.32173 q 0,-0.055 0.002,-0.0931 0.002,-0.0392 0.003,-0.0741 h -0.004 q -0.008,0.0201 -0.0212,0.0434 -0.0127,0.0233 -0.0243,0.0392 l -0.22649,0.32279 h 0.27094 z"
         id="path82650" /><path
         d="m 389.08167,337.62788 q 0.11642,0 0.18521,0.0582 0.0688,0.0582 0.0688,0.16404 0,0.11748 -0.0751,0.18521 -0.0741,0.0667 -0.20744,0.0667 -0.0582,0 -0.11006,-0.0106 -0.0508,-0.0106 -0.0857,-0.0307 v -0.0878 q 0.0381,0.0233 0.0921,0.037 0.055,0.0127 0.10477,0.0127 0.0836,0 0.13441,-0.0392 0.0519,-0.0402 0.0519,-0.12382 0,-0.0741 -0.0455,-0.11324 -0.0455,-0.0402 -0.14393,-0.0402 -0.0296,0 -0.0677,0.005 -0.0381,0.005 -0.0614,0.0106 l -0.0466,-0.0296 0.0286,-0.35666 h 0.37888 v 0.0847 h -0.29951 l -0.018,0.21907 q 0.018,-0.003 0.0487,-0.007 0.0307,-0.004 0.0677,-0.004 z"
         id="path82652" /><path
         d="m 389.4542,337.76864 q 0,-0.0815 0.0138,-0.15981 0.0148,-0.0794 0.0519,-0.14287 0.0381,-0.0646 0.10583,-0.10266 0.0677,-0.0381 0.17463,-0.0381 0.0222,0 0.0487,0.002 0.0275,0.002 0.0445,0.007 v 0.0794 q -0.019,-0.006 -0.0434,-0.01 -0.0233,-0.003 -0.0476,-0.003 -0.073,0 -0.12171,0.0243 -0.0487,0.0243 -0.0772,0.0667 -0.0275,0.0423 -0.0402,0.0974 -0.0127,0.055 -0.0159,0.11748 h 0.006 q 0.0244,-0.037 0.0677,-0.0624 0.0434,-0.0265 0.11112,-0.0265 0.0984,0 0.15875,0.0603 0.0603,0.0593 0.0603,0.16933 0,0.11854 -0.0656,0.18627 -0.0646,0.0677 -0.17462,0.0677 -0.072,0 -0.13018,-0.036 -0.0582,-0.036 -0.0931,-0.11007 -0.0339,-0.0741 -0.0339,-0.18732 z m 0.25612,0.25506 q 0.0667,0 0.10795,-0.0423 0.0413,-0.0434 0.0413,-0.13335 0,-0.072 -0.037,-0.11429 -0.036,-0.0423 -0.10901,-0.0423 -0.0497,0 -0.0868,0.0212 -0.037,0.0201 -0.0582,0.0519 -0.0201,0.0317 -0.0201,0.0656 0,0.0455 0.018,0.091 0.018,0.0444 0.054,0.0741 0.036,0.0286 0.09,0.0286 z"
         id="path82654" /></g><rect
       style="fill:#ff0000;stroke:#000000;stroke-width:0.329825;stroke-linecap:round;stroke-linejoin:miter;stroke-dasharray:none;stroke-dashoffset:0;paint-order:markers fill stroke"
       id="rect79342"
       width="12.712893"
       height="4.8415952"
       x="396.73447"
       y="329.04883"
       ry="2.3260634" /><rect
       style="fill:#ff0000;stroke:#000000;stroke-width:0.329825;stroke-linecap:round;stroke-linejoin:miter;stroke-dasharray:none;stroke-dashoffset:0;paint-order:markers fill stroke"
       id="rect79344"
       width="12.712893"
       height="4.8415952"
       x="410.64984"
       y="329.04883"
       ry="2.3260634" /><g
       aria-label="1702"
       id="text79348"
       style="font-size:4.65419px;line-height:1.25;font-family:'Noto Sans';-inkscape-font-specification:'Noto Sans';stroke-width:0.43633"><path
         d="m 413.54358,327.34711 h -0.70278 v -1.92218 q 0,-0.12101 0.005,-0.31649 0.009,-0.19547 0.014,-0.34441 -0.0233,0.0279 -0.10239,0.10239 -0.0745,0.0698 -0.13962,0.12567 l -0.38165,0.30717 -0.33975,-0.42353 1.07046,-0.85171 h 0.57712 z"
         style="font-weight:bold;-inkscape-font-specification:'Noto Sans Bold'"
         id="path82575" /><path
         d="m 414.80021,327.34711 1.24733,-2.73201 h -1.63828 v -0.59108 h 2.38295 v 0.44214 l -1.25663,2.88095 z"
         style="font-weight:bold;-inkscape-font-specification:'Noto Sans Bold'"
         id="path82577" /><path
         d="m 419.43579,325.68556 q 0,0.53523 -0.11636,0.91688 -0.1117,0.38164 -0.36768,0.58642 -0.25132,0.20479 -0.67951,0.20479 -0.60039,0 -0.87964,-0.45146 -0.27925,-0.45611 -0.27925,-1.25663 0,-0.53988 0.1117,-0.92153 0.1117,-0.38164 0.36768,-0.58643 0.25598,-0.20478 0.67951,-0.20478 0.59574,0 0.87964,0.45146 0.28391,0.45145 0.28391,1.26128 z m -1.62431,0 q 0,0.56781 0.0977,0.85637 0.0977,0.28391 0.36303,0.28391 0.26064,0 0.36303,-0.28391 0.10239,-0.2839 0.10239,-0.85637 0,-0.56781 -0.10239,-0.85637 -0.10239,-0.28856 -0.36303,-0.28856 -0.26529,0 -0.36303,0.28856 -0.0977,0.28856 -0.0977,0.85637 z"
         style="font-weight:bold;-inkscape-font-specification:'Noto Sans Bold'"
         id="path82579" /><path
         d="m 422.1166,327.34711 h -2.32244 v -0.48869 l 0.8331,-0.84241 q 0.25133,-0.26064 0.40492,-0.43284 0.15359,-0.17686 0.2234,-0.31649 0.0698,-0.14428 0.0698,-0.30717 0,-0.20013 -0.1117,-0.29787 -0.10704,-0.0977 -0.29321,-0.0977 -0.19082,0 -0.37234,0.0884 -0.18151,0.0884 -0.38164,0.25133 l -0.38164,-0.45146 q 0.14428,-0.12566 0.30252,-0.23271 0.16289,-0.10705 0.37233,-0.1722 0.2141,-0.0698 0.51196,-0.0698 0.3258,0 0.55851,0.12101 0.23736,0.11636 0.36302,0.32114 0.13032,0.20013 0.13032,0.45611 0,0.2746 -0.1117,0.50265 -0.10705,0.22806 -0.31648,0.45146 -0.20479,0.2234 -0.498,0.49335 l -0.42819,0.40026 v 0.0326 h 1.44745 z"
         style="font-weight:bold;-inkscape-font-specification:'Noto Sans Bold'"
         id="path82581" /></g><g
       aria-label="1703"
       id="text79352"
       style="font-size:4.65419px;line-height:1.25;font-family:'Noto Sans';-inkscape-font-specification:'Noto Sans';stroke-width:0.43633"><path
         d="m 399.64447,333.13351 h -0.70278 v -1.92218 q 0,-0.12101 0.005,-0.31648 0.009,-0.19548 0.014,-0.34441 -0.0233,0.0279 -0.10239,0.10239 -0.0745,0.0698 -0.13962,0.12566 l -0.38165,0.30718 -0.33975,-0.42353 1.07046,-0.85172 h 0.57712 z"
         style="font-weight:bold;-inkscape-font-specification:'Noto Sans Bold'"
         id="path82593" /><path
         d="m 400.9011,333.13351 1.24733,-2.73201 h -1.63828 v -0.59108 h 2.38295 v 0.44215 l -1.25663,2.88094 z"
         style="font-weight:bold;-inkscape-font-specification:'Noto Sans Bold'"
         id="path82595" /><path
         d="m 405.53668,331.47197 q 0,0.53523 -0.11635,0.91687 -0.11171,0.38165 -0.36769,0.58643 -0.25132,0.20479 -0.67951,0.20479 -0.60039,0 -0.87964,-0.45146 -0.27925,-0.45611 -0.27925,-1.25663 0,-0.53989 0.1117,-0.92153 0.1117,-0.38164 0.36768,-0.58643 0.25598,-0.20478 0.67951,-0.20478 0.59574,0 0.87964,0.45145 0.28391,0.45146 0.28391,1.26129 z m -1.62431,0 q 0,0.56781 0.0977,0.85637 0.0977,0.28391 0.36302,0.28391 0.26064,0 0.36303,-0.28391 0.10239,-0.28391 0.10239,-0.85637 0,-0.56781 -0.10239,-0.85637 -0.10239,-0.28856 -0.36303,-0.28856 -0.26529,0 -0.36302,0.28856 -0.0977,0.28856 -0.0977,0.85637 z"
         style="font-weight:bold;-inkscape-font-specification:'Noto Sans Bold'"
         id="path82597" /><path
         d="m 408.08718,330.55509 q 0,0.34441 -0.20944,0.5492 -0.20478,0.20478 -0.50731,0.27925 v 0.014 q 0.40026,0.0465 0.60505,0.24202 0.20944,0.19548 0.20944,0.52592 0,0.28856 -0.14428,0.52127 -0.13963,0.22806 -0.4375,0.36303 -0.29321,0.13032 -0.75863,0.13032 -0.53989,0 -0.95876,-0.18152 v -0.59573 q 0.21409,0.10704 0.4468,0.16289 0.23736,0.0559 0.43749,0.0559 0.37699,0 0.52593,-0.13031 0.15358,-0.13032 0.15358,-0.36768 0,-0.13963 -0.0698,-0.23271 -0.0698,-0.0977 -0.24667,-0.14428 -0.17221,-0.0512 -0.48404,-0.0512 h -0.25132 v -0.53989 h 0.25598 q 0.30717,0 0.46542,-0.0559 0.16289,-0.0605 0.21874,-0.15824 0.0605,-0.10239 0.0605,-0.23271 0,-0.17686 -0.1117,-0.2746 -0.10705,-0.10239 -0.36303,-0.10239 -0.23736,0 -0.41422,0.0838 -0.17221,0.0791 -0.29322,0.15824 l -0.32579,-0.48404 q 0.19548,-0.13962 0.45611,-0.23271 0.26529,-0.0931 0.62832,-0.0931 0.51196,0 0.80983,0.20944 0.30252,0.20478 0.30252,0.58177 z"
         style="font-weight:bold;-inkscape-font-specification:'Noto Sans Bold'"
         id="path82599" /></g><g
       aria-label="1704"
       id="text79356"
       style="font-size:4.65419px;line-height:1.25;font-family:'Noto Sans';-inkscape-font-specification:'Noto Sans';stroke-width:0.43633"><path
         d="m 413.50635,333.13351 h -0.70278 v -1.92218 q 0,-0.12101 0.005,-0.31648 0.009,-0.19548 0.014,-0.34441 -0.0233,0.0279 -0.10239,0.10239 -0.0745,0.0698 -0.13963,0.12566 l -0.38164,0.30718 -0.33976,-0.42353 1.07047,-0.85172 h 0.57712 z"
         style="font-weight:bold;-inkscape-font-specification:'Noto Sans Bold'"
         id="path82602" /><path
         d="m 414.76298,333.13351 1.24732,-2.73201 h -1.63827 v -0.59108 h 2.38294 v 0.44215 l -1.25663,2.88094 z"
         style="font-weight:bold;-inkscape-font-specification:'Noto Sans Bold'"
         id="path82604" /><path
         d="m 419.39856,331.47197 q 0,0.53523 -0.11636,0.91687 -0.1117,0.38165 -0.36768,0.58643 -0.25132,0.20479 -0.67951,0.20479 -0.60039,0 -0.87964,-0.45146 -0.27925,-0.45611 -0.27925,-1.25663 0,-0.53989 0.1117,-0.92153 0.1117,-0.38164 0.36768,-0.58643 0.25598,-0.20478 0.67951,-0.20478 0.59574,0 0.87964,0.45145 0.28391,0.45146 0.28391,1.26129 z m -1.62432,0 q 0,0.56781 0.0977,0.85637 0.0977,0.28391 0.36303,0.28391 0.26063,0 0.36303,-0.28391 0.10239,-0.28391 0.10239,-0.85637 0,-0.56781 -0.10239,-0.85637 -0.1024,-0.28856 -0.36303,-0.28856 -0.26529,0 -0.36303,0.28856 -0.0977,0.28856 -0.0977,0.85637 z"
         style="font-weight:bold;-inkscape-font-specification:'Noto Sans Bold'"
         id="path82606" /><path
         d="m 422.15384,332.44469 h -0.40026 v 0.68882 h -0.68417 v -0.68882 h -1.41952 V 331.956 l 1.45676,-2.14558 h 0.64693 v 2.08973 h 0.40026 z m -1.08443,-1.10769 q 0,-0.10705 0.005,-0.26064 0.005,-0.15359 0.009,-0.2839 0.009,-0.13497 0.014,-0.17686 h -0.0186 q -0.0419,0.0931 -0.0884,0.18151 -0.0465,0.0884 -0.1117,0.18151 l -0.6097,0.92153 h 0.80052 z"
         style="font-weight:bold;-inkscape-font-specification:'Noto Sans Bold'"
         id="path82608" /></g><path
       id="path79360"
       style="fill:#000000;stroke:#000000;stroke-width:0.2;stroke-linecap:round;stroke-dasharray:none;paint-order:markers fill stroke"
       d="m 383.57838,340.55674 h 31.00388 c 15.15011,0 14.47455,24.90967 0,24.90967 h -31.00388 z"
       sodipodi:nodetypes="ccccc" /><rect
       style="fill:#ff0000;stroke:#000000;stroke-width:0.329825;stroke-linecap:round;stroke-linejoin:miter;stroke-dasharray:none;stroke-dashoffset:0;paint-order:markers fill stroke"
       id="rect79362"
       width="12.712893"
       height="4.8415952"
       x="396.73447"
       y="344.11395"
       ry="2.3260634" /><g
       aria-label="1710"
       id="text79366"
       style="font-weight:600;font-size:4.65419px;line-height:1.25;font-family:'Noto Sans';-inkscape-font-specification:'Noto Sans Semi-Bold';stroke-width:0.43633"><path
         d="m 399.53512,348.19861 h -0.58643 v -2.07112 q 0,-0.14893 0.005,-0.31648 0.005,-0.16755 0.014,-0.31183 -0.0465,0.0465 -0.11636,0.1117 -0.0698,0.0605 -0.14428,0.12566 l -0.37233,0.29787 -0.29321,-0.36303 1.0053,-0.79586 h 0.48869 z"
         id="path82478" /><path
         d="m 400.93603,348.19861 1.29387,-2.81579 h -1.69878 v -0.5073 h 2.32709 v 0.3956 l -1.29386,2.92749 z"
         id="path82480" /><path
         d="m 404.85952,348.19861 h -0.58643 v -2.07112 q 0,-0.14893 0.005,-0.31648 0.005,-0.16755 0.014,-0.31183 -0.0465,0.0465 -0.11636,0.1117 -0.0698,0.0605 -0.14428,0.12566 l -0.37233,0.29787 -0.29322,-0.36303 1.00531,-0.79586 h 0.48869 z"
         id="path82482" /><path
         d="m 408.16865,346.53706 q 0,0.53523 -0.1117,0.91688 -0.1117,0.38164 -0.36303,0.58643 -0.25132,0.20478 -0.66555,0.20478 -0.58642,0 -0.86102,-0.45146 -0.2746,-0.45611 -0.2746,-1.25663 0,-0.53988 0.1117,-0.92153 0.1117,-0.38164 0.35837,-0.58643 0.25133,-0.20478 0.66555,-0.20478 0.58178,0 0.86103,0.45146 0.27925,0.45145 0.27925,1.26128 z m -1.68482,0 q 0,0.6097 0.11636,0.91688 0.12101,0.30717 0.42818,0.30717 0.30253,0 0.42353,-0.30252 0.12567,-0.30717 0.12567,-0.92153 0,-0.61435 -0.12567,-0.92153 -0.121,-0.30717 -0.42353,-0.30717 -0.30717,0 -0.42818,0.30717 -0.11636,0.30718 -0.11636,0.92153 z"
         id="path82484" /></g><rect
       style="fill:#1a1a1a;stroke:#000000;stroke-width:0.329825;stroke-linecap:round;stroke-linejoin:miter;stroke-dasharray:none;stroke-dashoffset:0;paint-order:markers fill stroke"
       id="rect79368"
       width="12.712893"
       height="4.8415952"
       x="396.73447"
       y="349.90036"
       ry="2.3260634" /><rect
       style="fill:#1a1a1a;stroke:#000000;stroke-width:0.329825;stroke-linecap:round;stroke-linejoin:miter;stroke-dasharray:none;stroke-dashoffset:0;paint-order:markers fill stroke"
       id="rect79370"
       width="12.712893"
       height="4.8415952"
       x="410.64984"
       y="344.11395"
       ry="2.3260634" /><rect
       style="fill:#1a1a1a;stroke:#000000;stroke-width:0.329825;stroke-linecap:round;stroke-linejoin:miter;stroke-dasharray:none;stroke-dashoffset:0;paint-order:markers fill stroke"
       id="rect79372"
       width="12.712893"
       height="4.8415952"
       x="410.64984"
       y="349.90036"
       ry="2.3260634" /><path
       id="path79374"
       style="fill:#ffd42a;stroke:#ffff00;stroke-width:0.2;stroke-linecap:round;stroke-dasharray:none;paint-order:markers fill stroke"
       d="m 383.57838,340.55674 h 3.76174 c 11.40591,0 12.09674,24.90967 0,24.90967 h -3.76174 z"
       sodipodi:nodetypes="ccccc" /><g
       aria-label="Rua das Flores"
       id="text79378"
       style="font-weight:600;font-size:2.11667px;line-height:1.25;font-family:'Noto Sans';-inkscape-font-specification:'Noto Sans Semi-Bold';stroke-width:0.503922"><path
         d="m 395.95341,361.62917 q 0.29845,0 0.44027,0.11007 0.14393,0.11006 0.14393,0.33443 0,0.11007 -0.0423,0.18838 -0.0402,0.0783 -0.10584,0.13124 -0.0656,0.0508 -0.14181,0.0826 l 0.43391,0.66463 h -0.3048 l -0.36195,-0.5969 h -0.22013 v 0.5969 h -0.27094 v -1.5113 z m -0.0169,0.22648 h -0.14181 v 0.46567 h 0.15028 q 0.16722,0 0.2413,-0.0593 0.0762,-0.0614 0.0762,-0.17991 0,-0.12277 -0.0804,-0.17357 -0.0783,-0.0529 -0.24554,-0.0529 z"
         style="fill:#ffffff"
         id="path82487" /><path
         d="m 397.88381,361.99324 v 1.14723 h -0.20955 l -0.036,-0.14816 h -0.0127 q -0.0572,0.0889 -0.15452,0.12911 -0.0953,0.0402 -0.2032,0.0402 -0.19262,0 -0.30268,-0.0995 -0.10795,-0.0995 -0.10795,-0.31962 v -0.7493 h 0.2667 v 0.69638 q 0,0.25612 0.21166,0.25612 0.16087,0 0.22014,-0.0995 0.0614,-0.1016 0.0614,-0.29211 v -0.56091 z"
         style="fill:#ffffff"
         id="path82489" /><path
         d="m 398.6818,361.97207 q 0.22225,0 0.33655,0.0974 0.11641,0.0974 0.11641,0.30056 v 0.77047 h -0.18838 l -0.0529,-0.15875 h -0.008 q -0.0741,0.0931 -0.15664,0.13759 -0.0826,0.0423 -0.22436,0.0423 -0.15452,0 -0.25612,-0.0868 -0.1016,-0.0868 -0.1016,-0.26882 0,-0.1778 0.12912,-0.2667 0.13123,-0.0889 0.39581,-0.0995 l 0.19897,-0.006 v -0.0571 q 0,-0.10795 -0.0529,-0.15451 -0.0529,-0.0487 -0.14816,-0.0487 -0.0868,0 -0.16722,0.0254 -0.0783,0.0254 -0.15663,0.0593 l -0.0847,-0.18627 q 0.0847,-0.0444 0.19262,-0.072 0.11006,-0.0275 0.2286,-0.0275 z m 0.0487,0.63077 q -0.17568,0.006 -0.24342,0.0614 -0.0677,0.0529 -0.0677,0.14394 0,0.0826 0.0466,0.11853 0.0487,0.0339 0.127,0.0339 0.11641,0 0.19685,-0.0656 0.0804,-0.0677 0.0804,-0.19897 v -0.0974 z"
         style="fill:#ffffff"
         id="path82491" /><path
         d="m 400.39841,363.16164 q -0.20108,0 -0.32385,-0.15028 -0.12276,-0.15029 -0.12276,-0.44239 0,-0.29633 0.12488,-0.44662 0.12488,-0.15028 0.32808,-0.15028 0.127,0 0.20744,0.0487 0.0826,0.0487 0.13123,0.11854 h 0.0127 q -0.006,-0.0296 -0.0127,-0.091 -0.006,-0.0614 -0.006,-0.1143 v -0.40217 h 0.2667 v 1.60867 h -0.20743 l -0.0487,-0.15028 h -0.0106 q -0.0487,0.072 -0.12912,0.12277 -0.0804,0.0487 -0.20955,0.0487 z m 0.0804,-0.2159 q 0.14816,0 0.20743,-0.0847 0.0614,-0.0847 0.0635,-0.25612 v -0.0339 q 0,-0.18415 -0.0593,-0.28152 -0.0572,-0.0995 -0.2159,-0.0995 -0.12276,0 -0.18838,0.1016 -0.0635,0.0995 -0.0635,0.28151 0,0.18204 0.0656,0.27729 0.0656,0.0953 0.1905,0.0953 z"
         style="fill:#ffffff"
         id="path82493" /><path
         d="m 401.80177,361.97207 q 0.22225,0 0.33655,0.0974 0.11641,0.0974 0.11641,0.30056 v 0.77047 h -0.18838 l -0.0529,-0.15875 h -0.008 q -0.0741,0.0931 -0.15664,0.13759 -0.0825,0.0423 -0.22437,0.0423 -0.15451,0 -0.25611,-0.0868 -0.1016,-0.0868 -0.1016,-0.26882 0,-0.1778 0.12911,-0.2667 0.13124,-0.0889 0.39582,-0.0995 l 0.19897,-0.006 v -0.0571 q 0,-0.10795 -0.0529,-0.15451 -0.0529,-0.0487 -0.14816,-0.0487 -0.0868,0 -0.16722,0.0254 -0.0783,0.0254 -0.15664,0.0593 l -0.0847,-0.18627 q 0.0847,-0.0444 0.19261,-0.072 0.11007,-0.0275 0.22861,-0.0275 z m 0.0487,0.63077 q -0.17568,0.006 -0.24342,0.0614 -0.0677,0.0529 -0.0677,0.14394 0,0.0826 0.0466,0.11853 0.0487,0.0339 0.12701,0.0339 0.11641,0 0.19685,-0.0656 0.0804,-0.0677 0.0804,-0.19897 v -0.0974 z"
         style="fill:#ffffff"
         id="path82495" /><path
         d="m 403.37022,362.80816 q 0,0.17356 -0.12489,0.26458 -0.12276,0.0889 -0.35348,0.0889 -0.12065,0 -0.20743,-0.0169 -0.0847,-0.0169 -0.16511,-0.0529 v -0.22648 q 0.0847,0.0402 0.18627,0.0677 0.10372,0.0275 0.19474,0.0275 0.11006,0 0.15875,-0.0339 0.0487,-0.0339 0.0487,-0.091 0,-0.0339 -0.019,-0.0593 -0.019,-0.0275 -0.0762,-0.0593 -0.055,-0.0317 -0.1651,-0.0783 -0.11007,-0.0423 -0.18415,-0.0868 -0.072,-0.0466 -0.11007,-0.10795 -0.036,-0.0614 -0.036,-0.15875 0,-0.15452 0.12065,-0.23284 0.12277,-0.0804 0.32597,-0.0804 0.10583,0 0.19896,0.0212 0.0953,0.0212 0.1905,0.0635 l -0.0847,0.19685 q -0.0804,-0.0339 -0.15664,-0.0571 -0.0762,-0.0233 -0.15663,-0.0233 -0.17568,0 -0.17568,0.0995 0,0.036 0.0212,0.0614 0.0233,0.0254 0.0783,0.055 0.0572,0.0275 0.16087,0.0677 0.1016,0.0402 0.17568,0.0847 0.0741,0.0423 0.1143,0.10584 0.0402,0.0635 0.0402,0.16087 z"
         style="fill:#ffffff"
         id="path82497" /><path
         d="m 404.46877,363.14047 h -0.2667 v -1.5113 h 0.85725 v 0.22648 h -0.59055 v 0.4445 h 0.55033 v 0.22649 h -0.55033 z"
         style="fill:#ffffff"
         id="path82499" /><path
         d="m 405.58214,363.14047 h -0.2667 v -1.60867 h 0.2667 z"
         style="fill:#ffffff"
         id="path82501" /><path
         d="m 406.94739,362.56474 q 0,0.28575 -0.14817,0.44238 -0.14816,0.15452 -0.40216,0.15452 -0.15664,0 -0.2794,-0.0698 -0.12277,-0.0699 -0.19262,-0.2032 -0.0699,-0.13335 -0.0699,-0.32385 0,-0.28575 0.14605,-0.43815 0.14817,-0.15452 0.40217,-0.15452 0.15875,0 0.28151,0.0699 0.12277,0.0677 0.19262,0.20108 0.0698,0.13124 0.0698,0.32174 z m -0.81915,0 q 0,0.18203 0.0635,0.28152 0.0656,0.0995 0.20955,0.0995 0.14393,0 0.20743,-0.0995 0.0656,-0.0995 0.0656,-0.28152 0,-0.18204 -0.0656,-0.2794 -0.0635,-0.0974 -0.20955,-0.0974 -0.14181,0 -0.20743,0.0974 -0.0635,0.0974 -0.0635,0.2794 z"
         style="fill:#ffffff"
         id="path82503" /><path
         d="m 407.82369,361.97207 q 0.0275,0 0.0593,0.002 0.0339,0.002 0.0571,0.008 l -0.0233,0.24765 q -0.0212,-0.004 -0.0508,-0.006 -0.0296,-0.004 -0.0529,-0.004 -0.0847,0 -0.15875,0.036 -0.0741,0.0339 -0.12065,0.10795 -0.0444,0.072 -0.0444,0.18204 v 0.59478 h -0.2667 v -1.14723 h 0.20531 l 0.0381,0.19896 h 0.0127 q 0.0508,-0.091 0.1397,-0.15451 0.0889,-0.0656 0.20532,-0.0656 z"
         style="fill:#ffffff"
         id="path82505" /><path
         d="m 408.57087,361.97207 q 0.23072,0 0.36407,0.13758 0.13547,0.13759 0.13547,0.38312 v 0.13547 h -0.75777 q 0.004,0.15663 0.0868,0.24342 0.0825,0.0847 0.2286,0.0847 0.11007,0 0.19897,-0.0212 0.0889,-0.0233 0.18203,-0.0656 v 0.21378 q -0.0847,0.0402 -0.17568,0.0593 -0.091,0.019 -0.21802,0.019 -0.16721,0 -0.29845,-0.0635 -0.12911,-0.0656 -0.2032,-0.19685 -0.072,-0.13123 -0.072,-0.32597 0,-0.29422 0.14605,-0.44873 0.14605,-0.15452 0.38311,-0.15452 z m 0,0.19685 q -0.10795,0 -0.17568,0.0698 -0.0656,0.0677 -0.0762,0.2032 h 0.49318 q -0.002,-0.11853 -0.0614,-0.19473 -0.0571,-0.0783 -0.17992,-0.0783 z"
         style="fill:#ffffff"
         id="path82507" /><path
         d="m 410.12027,362.80816 q 0,0.17356 -0.12488,0.26458 -0.12277,0.0889 -0.35348,0.0889 -0.12065,0 -0.20744,-0.0169 -0.0847,-0.0169 -0.1651,-0.0529 v -0.22648 q 0.0847,0.0402 0.18627,0.0677 0.10372,0.0275 0.19473,0.0275 0.11007,0 0.15875,-0.0339 0.0487,-0.0339 0.0487,-0.091 0,-0.0339 -0.019,-0.0593 -0.019,-0.0275 -0.0762,-0.0593 -0.055,-0.0317 -0.1651,-0.0783 -0.11007,-0.0423 -0.18415,-0.0868 -0.072,-0.0466 -0.11007,-0.10795 -0.036,-0.0614 -0.036,-0.15875 0,-0.15452 0.12065,-0.23284 0.12276,-0.0804 0.32596,-0.0804 0.10584,0 0.19897,0.0212 0.0952,0.0212 0.1905,0.0635 l -0.0847,0.19685 q -0.0804,-0.0339 -0.15663,-0.0571 -0.0762,-0.0233 -0.15663,-0.0233 -0.17569,0 -0.17569,0.0995 0,0.036 0.0212,0.0614 0.0233,0.0254 0.0783,0.055 0.0571,0.0275 0.16086,0.0677 0.1016,0.0402 0.17569,0.0847 0.0741,0.0423 0.1143,0.10584 0.0402,0.0635 0.0402,0.16087 z"
         style="fill:#ffffff"
         id="path82509" /></g><g
       aria-label="Cod: 123456"
       id="text79382"
       style="font-weight:600;font-size:1.05833px;line-height:1.25;font-family:'Noto Sans';-inkscape-font-specification:'Noto Sans Semi-Bold';stroke-width:0.264583"><path
         d="m 384.2705,364.07744 q -0.10372,0 -0.16087,0.0741 -0.0561,0.0741 -0.0561,0.20108 0,0.12806 0.0529,0.20109 0.0529,0.072 0.16298,0.072 0.0476,0 0.0931,-0.01 0.0455,-0.0106 0.0953,-0.0275 v 0.11536 q -0.0466,0.019 -0.0942,0.0275 -0.0466,0.008 -0.10795,0.008 -0.11641,0 -0.19261,-0.0476 -0.0762,-0.0487 -0.11325,-0.13547 -0.037,-0.0878 -0.037,-0.20531 0,-0.1143 0.0413,-0.20109 0.0413,-0.0878 0.12065,-0.13758 0.0804,-0.0497 0.19579,-0.0497 0.0571,0 0.11218,0.0138 0.0561,0.0127 0.10478,0.036 l -0.0466,0.11113 q -0.0402,-0.018 -0.0836,-0.0317 -0.0423,-0.0148 -0.0868,-0.0148 z"
         id="path82512" /><path
         d="m 385.12034,364.4415 q 0,0.14288 -0.0741,0.2212 -0.0741,0.0773 -0.20108,0.0773 -0.0783,0 -0.1397,-0.0349 -0.0614,-0.0349 -0.0963,-0.1016 -0.0349,-0.0667 -0.0349,-0.16193 0,-0.14287 0.073,-0.21907 0.0741,-0.0773 0.20109,-0.0773 0.0794,0 0.14076,0.0349 0.0614,0.0339 0.0963,0.10054 0.0349,0.0656 0.0349,0.16086 z m -0.40958,0 q 0,0.091 0.0317,0.14076 0.0328,0.0497 0.10478,0.0497 0.072,0 0.10372,-0.0497 0.0328,-0.0497 0.0328,-0.14076 0,-0.091 -0.0328,-0.1397 -0.0317,-0.0487 -0.10478,-0.0487 -0.0709,0 -0.10372,0.0487 -0.0317,0.0487 -0.0317,0.1397 z"
         id="path82514" /><path
         d="m 385.44736,364.73995 q -0.10054,0 -0.16192,-0.0751 -0.0614,-0.0751 -0.0614,-0.22119 0,-0.14817 0.0625,-0.22331 0.0624,-0.0751 0.16404,-0.0751 0.0635,0 0.10371,0.0243 0.0413,0.0243 0.0656,0.0593 h 0.006 q -0.003,-0.0148 -0.006,-0.0455 -0.003,-0.0307 -0.003,-0.0571 v -0.20108 h 0.13334 v 0.80433 h -0.10371 l -0.0243,-0.0751 h -0.005 q -0.0243,0.036 -0.0646,0.0614 -0.0402,0.0243 -0.10478,0.0243 z m 0.0402,-0.10795 q 0.0741,0 0.10372,-0.0423 0.0307,-0.0423 0.0317,-0.12806 v -0.0169 q 0,-0.0921 -0.0296,-0.14076 -0.0286,-0.0497 -0.10795,-0.0497 -0.0614,0 -0.0942,0.0508 -0.0318,0.0497 -0.0318,0.14076 0,0.091 0.0328,0.13864 0.0328,0.0476 0.0952,0.0476 z"
         id="path82516" /><path
         d="m 385.90139,364.22561 q 0,-0.0455 0.0233,-0.0635 0.0233,-0.019 0.0572,-0.019 0.0328,0 0.0571,0.019 0.0243,0.018 0.0243,0.0635 0,0.0434 -0.0243,0.0624 -0.0243,0.019 -0.0571,0.019 -0.0339,0 -0.0572,-0.019 -0.0233,-0.019 -0.0233,-0.0624 z m 0,0.43603 q 0,-0.0444 0.0233,-0.0624 0.0233,-0.019 0.0572,-0.019 0.0328,0 0.0571,0.019 0.0243,0.018 0.0243,0.0624 0,0.0434 -0.0243,0.0624 -0.0243,0.019 -0.0571,0.019 -0.0339,0 -0.0572,-0.019 -0.0233,-0.019 -0.0233,-0.0624 z"
         id="path82518" /><path
         d="m 386.81896,364.72937 h -0.13335 v -0.47096 q 0,-0.0339 10e-4,-0.072 0.001,-0.0381 0.003,-0.0709 -0.0106,0.0106 -0.0265,0.0254 -0.0159,0.0138 -0.0328,0.0286 l -0.0847,0.0677 -0.0667,-0.0826 0.2286,-0.18098 h 0.11113 z"
         id="path82520" /><path
         d="m 387.57355,364.72937 h -0.51753 v -0.0984 l 0.19262,-0.19474 q 0.0571,-0.0582 0.0931,-0.0995 0.037,-0.0413 0.054,-0.0773 0.018,-0.037 0.018,-0.0794 0,-0.0519 -0.0296,-0.0773 -0.0296,-0.0265 -0.0783,-0.0265 -0.0476,0 -0.0889,0.0201 -0.0413,0.019 -0.0857,0.055 l -0.073,-0.0878 q 0.0466,-0.0402 0.10583,-0.0698 0.0593,-0.0307 0.14923,-0.0307 0.073,0 0.12594,0.0265 0.0529,0.0254 0.0804,0.0709 0.0286,0.0455 0.0286,0.10583 0,0.0614 -0.0243,0.11324 -0.0244,0.0508 -0.0709,0.10266 -0.0455,0.0508 -0.10901,0.11006 l -0.11959,0.11536 v 0.006 h 0.34925 z"
         id="path82522" /><path
         d="m 388.14928,364.14623 q 0,0.0773 -0.0455,0.12382 -0.0444,0.0455 -0.11536,0.0614 v 0.003 q 0.091,0.0116 0.13759,0.0571 0.0466,0.0445 0.0466,0.11959 0,0.0656 -0.0317,0.11748 -0.0317,0.0519 -0.0984,0.0815 -0.0656,0.0296 -0.16934,0.0296 -0.0614,0 -0.11429,-0.0106 -0.0529,-0.01 -0.0995,-0.0307 v -0.11748 q 0.0476,0.0243 0.1016,0.037 0.054,0.0127 0.1016,0.0127 0.0921,0 0.13018,-0.0328 0.0381,-0.0339 0.0381,-0.0931 0,-0.0561 -0.0444,-0.0836 -0.0445,-0.0275 -0.14817,-0.0275 h -0.0635 v -0.10689 h 0.0646 q 0.10054,0 0.13864,-0.0317 0.0381,-0.0328 0.0381,-0.0857 0,-0.0455 -0.0296,-0.0709 -0.0296,-0.0254 -0.0889,-0.0254 -0.0571,0 -0.0984,0.019 -0.0413,0.018 -0.0741,0.0392 l -0.0635,-0.0921 q 0.0423,-0.0317 0.1016,-0.054 0.0603,-0.0222 0.14076,-0.0222 0.11747,0 0.18097,0.0497 0.0646,0.0487 0.0646,0.13335 z"
         id="path82524" /><path
         d="m 388.80756,364.56745 h -0.0984 v 0.16192 h -0.13124 v -0.16192 h -0.33655 v -0.0995 l 0.33973,-0.49635 h 0.12806 v 0.48683 h 0.0984 z m -0.22966,-0.27835 q 0,-0.0286 10e-4,-0.0614 0.001,-0.0328 0.002,-0.0603 0.002,-0.0286 0.003,-0.0434 h -0.004 q -0.019,0.0444 -0.0455,0.0826 l -0.17145,0.25188 h 0.21484 z"
         id="path82526" /><path
         d="m 389.13459,364.25418 q 0.072,0 0.127,0.0265 0.055,0.0254 0.0857,0.0762 0.0317,0.0508 0.0317,0.12382 0,0.12065 -0.0762,0.1905 -0.0751,0.0688 -0.21802,0.0688 -0.0593,0 -0.11112,-0.0106 -0.0519,-0.0106 -0.09,-0.0307 v -0.11853 q 0.0392,0.0212 0.0942,0.0349 0.055,0.0138 0.10372,0.0138 0.0751,0 0.11747,-0.0328 0.0434,-0.0328 0.0434,-0.10266 0,-0.0624 -0.0402,-0.0953 -0.0402,-0.0339 -0.12488,-0.0339 -0.0296,0 -0.0646,0.005 -0.0339,0.005 -0.0561,0.0106 l -0.0572,-0.0317 0.0286,-0.37465 h 0.39793 v 0.11642 h -0.28045 l -0.0159,0.17462 q 0.018,-0.003 0.0423,-0.006 0.0244,-0.004 0.0625,-0.004 z"
         id="path82528" /><path
         d="m 389.47748,364.40764 q 0,-0.0646 0.008,-0.12806 0.01,-0.0646 0.0328,-0.12065 0.0233,-0.0571 0.0646,-0.10054 0.0413,-0.0444 0.10477,-0.0688 0.0646,-0.0254 0.15558,-0.0254 0.0222,0 0.0508,0.002 0.0286,0.002 0.0476,0.006 v 0.11007 q -0.0423,-0.0116 -0.091,-0.0116 -0.0953,0 -0.14817,0.0349 -0.0529,0.0339 -0.0741,0.0931 -0.0212,0.0593 -0.0254,0.1344 h 0.006 q 0.0222,-0.037 0.0635,-0.0624 0.0413,-0.0265 0.10689,-0.0265 0.0984,0 0.15769,0.0625 0.0593,0.0614 0.0593,0.17356 0,0.12171 -0.0677,0.1905 -0.0677,0.0688 -0.18309,0.0688 -0.0751,0 -0.13652,-0.036 -0.0614,-0.036 -0.0974,-0.10901 -0.0349,-0.0741 -0.0349,-0.18732 z m 0.2667,0.22331 q 0.054,0 0.0879,-0.036 0.0339,-0.037 0.0339,-0.11324 0,-0.0614 -0.0296,-0.0963 -0.0296,-0.036 -0.0889,-0.036 -0.0413,0 -0.072,0.018 -0.0307,0.0169 -0.0476,0.0445 -0.0159,0.0265 -0.0159,0.055 0,0.0392 0.0148,0.0773 0.0148,0.037 0.0434,0.0624 0.0296,0.0243 0.0741,0.0243 z"
         id="path82530" /></g><rect
       style="fill:#1a1a1a;stroke:#000000;stroke-width:0.329825;stroke-linecap:round;stroke-linejoin:miter;stroke-dasharray:none;stroke-dashoffset:0;paint-order:markers fill stroke"
       id="rect79384"
       width="12.712893"
       height="4.8415952"
       x="396.73447"
       y="355.68677"
       ry="2.3260634" /><rect
       style="fill:#1a1a1a;stroke:#000000;stroke-width:0.329825;stroke-linecap:round;stroke-linejoin:miter;stroke-dasharray:none;stroke-dashoffset:0;paint-order:markers fill stroke"
       id="rect79386"
       width="12.712893"
       height="4.8415952"
       x="410.64984"
       y="355.68677"
       ry="2.3260634" /><g
       id="g79420"
       transform="translate(-47.946758,118.4213)"><path
         id="path79388"
         style="fill:#000000;stroke:#000000;stroke-width:0.2;stroke-linecap:round;stroke-dasharray:none;paint-order:markers fill stroke"
         d="m 425.69295,195.49754 h -31.00388 c -15.15011,0 -14.47455,24.90967 0,24.90967 h 31.00388 z"
         sodipodi:nodetypes="ccccc" /><rect
         style="fill:#ffcc00;stroke:#000000;stroke-width:0.329825;stroke-linecap:round;stroke-linejoin:miter;stroke-dasharray:none;stroke-dashoffset:0;paint-order:markers fill stroke"
         id="rect79390"
         width="12.712893"
         height="4.8415952"
         x="-412.53687"
         y="199.05472"
         ry="2.3260634"
         transform="scale(-1,1)" /><rect
         style="fill:#ffcc00;stroke:#000000;stroke-width:0.329825;stroke-linecap:round;stroke-linejoin:miter;stroke-dasharray:none;stroke-dashoffset:0;paint-order:markers fill stroke"
         id="rect79392"
         width="12.712893"
         height="4.8415952"
         x="-398.62149"
         y="199.05472"
         ry="2.3260634"
         transform="scale(-1,1)" /><g
         aria-label="4701"
         id="text79396"
         style="font-size:4.65419px;line-height:1.25;font-family:'Noto Sans';-inkscape-font-specification:'Noto Sans';stroke-width:0.43633"><path
           d="m 389.75645,202.45057 h -0.40026 v 0.68882 h -0.68417 v -0.68882 h -1.41953 v -0.48869 l 1.45676,-2.14558 h 0.64694 v 2.08973 h 0.40026 z m -1.08443,-1.1077 q 0,-0.10704 0.005,-0.26063 0.005,-0.15359 0.009,-0.28391 0.009,-0.13497 0.014,-0.17686 h -0.0186 q -0.0419,0.0931 -0.0884,0.18152 -0.0465,0.0884 -0.1117,0.18151 l -0.6097,0.92153 h 0.80052 z"
           style="font-weight:bold;-inkscape-font-specification:'Noto Sans Bold'"
           id="path82339" /><path
           d="m 390.35218,203.13939 1.24733,-2.73201 h -1.63828 v -0.59108 h 2.38295 v 0.44215 l -1.25663,2.88094 z"
           style="font-weight:bold;-inkscape-font-specification:'Noto Sans Bold'"
           id="path82341" /><path
           d="m 394.98776,201.47784 q 0,0.53524 -0.11635,0.91688 -0.11171,0.38164 -0.36769,0.58643 -0.25132,0.20478 -0.67951,0.20478 -0.60039,0 -0.87964,-0.45146 -0.27925,-0.45611 -0.27925,-1.25663 0,-0.53988 0.1117,-0.92153 0.1117,-0.38164 0.36768,-0.58642 0.25598,-0.20479 0.67951,-0.20479 0.59574,0 0.87964,0.45146 0.28391,0.45145 0.28391,1.26128 z m -1.62431,0 q 0,0.56781 0.0977,0.85637 0.0977,0.28391 0.36302,0.28391 0.26064,0 0.36303,-0.28391 0.10239,-0.2839 0.10239,-0.85637 0,-0.56781 -0.10239,-0.85637 -0.10239,-0.28856 -0.36303,-0.28856 -0.26529,0 -0.36302,0.28856 -0.0977,0.28856 -0.0977,0.85637 z"
           style="font-weight:bold;-inkscape-font-specification:'Noto Sans Bold'"
           id="path82343" /><path
           d="m 397.08215,203.13939 h -0.70278 v -1.92218 q 0,-0.12101 0.005,-0.31649 0.009,-0.19547 0.014,-0.34441 -0.0233,0.0279 -0.10239,0.1024 -0.0745,0.0698 -0.13963,0.12566 l -0.38164,0.30718 -0.33976,-0.42354 1.07047,-0.85171 h 0.57712 z"
           style="font-weight:bold;-inkscape-font-specification:'Noto Sans Bold'"
           id="path82345" /></g><rect
         style="fill:#1a1a1a;stroke:#000000;stroke-width:0.329825;stroke-linecap:round;stroke-linejoin:miter;stroke-dasharray:none;stroke-dashoffset:0;paint-order:markers fill stroke"
         id="rect79398"
         width="12.712893"
         height="4.8415952"
         x="-412.53687"
         y="204.84113"
         ry="2.3260634"
         transform="scale(-1,1)" /><path
         id="path79400"
         style="fill:#ffd42a;stroke:#ffff00;stroke-width:0.2;stroke-linecap:round;stroke-dasharray:none;paint-order:markers fill stroke"
         d="m 425.69295,195.49754 h -3.76174 c -11.40591,0 -12.09674,24.90967 0,24.90967 h 3.76174 z"
         sodipodi:nodetypes="ccccc" /><g
         aria-label="4702"
         id="text79404"
         style="font-size:4.65419px;line-height:1.25;font-family:'Noto Sans';-inkscape-font-specification:'Noto Sans';stroke-width:0.43633"><path
           d="m 403.37861,202.45057 h -0.40026 v 0.68882 h -0.68417 v -0.68882 h -1.41953 v -0.48869 l 1.45676,-2.14558 h 0.64694 v 2.08973 h 0.40026 z m -1.08443,-1.1077 q 0,-0.10704 0.005,-0.26063 0.005,-0.15359 0.009,-0.28391 0.009,-0.13497 0.014,-0.17686 h -0.0186 q -0.0419,0.0931 -0.0884,0.18152 -0.0465,0.0884 -0.1117,0.18151 l -0.6097,0.92153 h 0.80052 z"
           style="font-weight:bold;-inkscape-font-specification:'Noto Sans Bold'"
           id="path82330" /><path
           d="m 403.97435,203.13939 1.24732,-2.73201 h -1.63828 v -0.59108 h 2.38295 v 0.44215 l -1.25663,2.88094 z"
           style="font-weight:bold;-inkscape-font-specification:'Noto Sans Bold'"
           id="path82332" /><path
           d="m 408.60992,201.47784 q 0,0.53524 -0.11635,0.91688 -0.1117,0.38164 -0.36768,0.58643 -0.25133,0.20478 -0.67952,0.20478 -0.60039,0 -0.87964,-0.45146 -0.27925,-0.45611 -0.27925,-1.25663 0,-0.53988 0.1117,-0.92153 0.1117,-0.38164 0.36768,-0.58642 0.25598,-0.20479 0.67951,-0.20479 0.59574,0 0.87965,0.45146 0.2839,0.45145 0.2839,1.26128 z m -1.62431,0 q 0,0.56781 0.0977,0.85637 0.0977,0.28391 0.36302,0.28391 0.26064,0 0.36303,-0.28391 0.10239,-0.2839 0.10239,-0.85637 0,-0.56781 -0.10239,-0.85637 -0.10239,-0.28856 -0.36303,-0.28856 -0.26528,0 -0.36302,0.28856 -0.0977,0.28856 -0.0977,0.85637 z"
           style="font-weight:bold;-inkscape-font-specification:'Noto Sans Bold'"
           id="path82334" /><path
           d="m 411.29074,203.13939 h -2.32244 v -0.48869 l 0.8331,-0.84241 q 0.25132,-0.26063 0.40491,-0.43284 0.15359,-0.17686 0.2234,-0.31648 0.0698,-0.14428 0.0698,-0.30718 0,-0.20013 -0.11171,-0.29787 -0.10704,-0.0977 -0.29321,-0.0977 -0.19082,0 -0.37233,0.0884 -0.18152,0.0884 -0.38165,0.25133 l -0.38164,-0.45146 q 0.14428,-0.12566 0.30252,-0.23271 0.1629,-0.10704 0.37234,-0.1722 0.21409,-0.0698 0.51196,-0.0698 0.32579,0 0.5585,0.121 0.23736,0.11636 0.36303,0.32114 0.13031,0.20013 0.13031,0.45611 0,0.2746 -0.1117,0.50266 -0.10704,0.22805 -0.31648,0.45145 -0.20479,0.2234 -0.498,0.49335 l -0.42819,0.40026 v 0.0326 h 1.44746 z"
           style="font-weight:bold;-inkscape-font-specification:'Noto Sans Bold'"
           id="path82336" /></g><rect
         style="fill:#1a1a1a;stroke:#000000;stroke-width:0.329825;stroke-linecap:round;stroke-linejoin:miter;stroke-dasharray:none;stroke-dashoffset:0;paint-order:markers fill stroke"
         id="rect79406"
         width="12.712893"
         height="4.8415952"
         x="-398.62149"
         y="204.84113"
         ry="2.3260634"
         transform="scale(-1,1)" /><g
         aria-label="Rua d Flors"
         id="text79410"
         style="font-size:2.11667px;line-height:1.25;font-family:'Noto Sans';-inkscape-font-specification:'Noto Sans';stroke-width:0.503922"><path
           d="m 389.64189,216.56995 q 0.28152,0 0.41487,0.10795 0.13547,0.10583 0.13547,0.32173 0,0.12065 -0.0444,0.20109 -0.0444,0.0804 -0.1143,0.12912 -0.0677,0.0466 -0.14394,0.0741 l 0.41487,0.67733 h -0.22225 l -0.36618,-0.62441 h -0.30057 v 0.62441 h -0.1905 v -1.5113 z m -0.0106,0.1651 h -0.2159 v 0.56092 h 0.22648 q 0.18415,0 0.26882,-0.072 0.0847,-0.0741 0.0847,-0.2159 0,-0.14817 -0.0889,-0.20955 -0.0889,-0.0635 -0.27517,-0.0635 z"
           style="fill:#ffffff"
           id="path82348" /><path
           d="m 391.46435,216.94672 v 1.13453 h -0.1524 l -0.0275,-0.15028 h -0.008 q -0.055,0.0889 -0.1524,0.13123 -0.0974,0.0402 -0.20743,0.0402 -0.20532,0 -0.30904,-0.0974 -0.10371,-0.0995 -0.10371,-0.31538 v -0.74295 h 0.18838 v 0.73025 q 0,0.27093 0.25188,0.27093 0.18839,0 0.26036,-0.10583 0.0741,-0.10583 0.0741,-0.3048 v -0.59055 z"
           style="fill:#ffffff"
           id="path82350" /><path
           d="m 392.25386,216.92767 q 0.20744,0 0.30692,0.091 0.0995,0.091 0.0995,0.28999 v 0.77258 h -0.13546 l -0.036,-0.16086 h -0.008 q -0.0741,0.0931 -0.15664,0.13758 -0.0804,0.0444 -0.22436,0.0444 -0.15452,0 -0.25612,-0.0804 -0.1016,-0.0825 -0.1016,-0.25612 0,-0.16933 0.13335,-0.26035 0.13335,-0.0931 0.41063,-0.1016 l 0.19262,-0.006 v -0.0677 q 0,-0.14182 -0.0614,-0.19686 -0.0614,-0.055 -0.17357,-0.055 -0.0889,0 -0.16933,0.0275 -0.0804,0.0254 -0.15029,0.0593 l -0.0571,-0.1397 q 0.0741,-0.0402 0.17569,-0.0677 0.1016,-0.0296 0.21166,-0.0296 z m 0.055,0.60537 q -0.21167,0.008 -0.29422,0.0677 -0.0804,0.0593 -0.0804,0.16722 0,0.0952 0.0571,0.1397 0.0593,0.0445 0.15028,0.0445 0.14393,0 0.23918,-0.0783 0.0953,-0.0804 0.0953,-0.24553 v -0.1016 z"
           style="fill:#ffffff"
           id="path82352" /><path
           d="m 393.96413,218.10242 q -0.21166,0 -0.33866,-0.14605 -0.127,-0.14817 -0.127,-0.44027 0,-0.2921 0.127,-0.44027 0.12911,-0.15028 0.34078,-0.15028 0.13123,0 0.21379,0.0487 0.0847,0.0487 0.13758,0.11854 h 0.0127 q -0.002,-0.0275 -0.008,-0.0804 -0.004,-0.055 -0.004,-0.0868 v -0.45297 h 0.18627 v 1.60867 h -0.15029 l -0.0275,-0.1524 h -0.008 q -0.0508,0.072 -0.13547,0.12277 -0.0847,0.0508 -0.21802,0.0508 z m 0.0296,-0.15452 q 0.17992,0 0.25188,-0.0974 0.0741,-0.0995 0.0741,-0.29845 v -0.0339 q 0,-0.21167 -0.0699,-0.32385 -0.0698,-0.1143 -0.25824,-0.1143 -0.15028,0 -0.22648,0.12065 -0.0741,0.11853 -0.0741,0.31962 0,0.2032 0.0741,0.31538 0.0762,0.11218 0.2286,0.11218 z"
           style="fill:#ffffff"
           id="path82354" /><path
           d="m 395.62995,218.08125 h -0.1905 v -1.5113 h 0.84455 v 0.16722 h -0.65405 v 0.53552 h 0.61384 v 0.16721 h -0.61384 z"
           style="fill:#ffffff"
           id="path82356" /><path
           d="m 396.69887,218.08125 h -0.18627 v -1.60867 h 0.18627 z"
           style="fill:#ffffff"
           id="path82358" /><path
           d="m 398.04507,217.51187 q 0,0.28152 -0.14393,0.43603 -0.14182,0.15452 -0.38524,0.15452 -0.15028,0 -0.26881,-0.0677 -0.11642,-0.0699 -0.18415,-0.20109 -0.0677,-0.13335 -0.0677,-0.32173 0,-0.28152 0.14182,-0.43392 0.14182,-0.1524 0.38523,-0.1524 0.15452,0 0.27094,0.0699 0.11853,0.0677 0.18415,0.19897 0.0677,0.12912 0.0677,0.3175 z m -0.85725,0 q 0,0.20108 0.0783,0.31962 0.0804,0.11641 0.254,0.11641 0.17145,0 0.25188,-0.11641 0.0804,-0.11854 0.0804,-0.31962 0,-0.20108 -0.0804,-0.31538 -0.0804,-0.11431 -0.254,-0.11431 -0.17357,0 -0.25188,0.11431 -0.0783,0.1143 -0.0783,0.31538 z"
           style="fill:#ffffff"
           id="path82360" /><path
           d="m 398.86845,216.92555 q 0.0317,0 0.0677,0.004 0.0381,0.002 0.0656,0.008 l -0.0233,0.17145 q -0.0275,-0.006 -0.0614,-0.0106 -0.0318,-0.004 -0.0614,-0.004 -0.0868,0 -0.16298,0.0487 -0.0762,0.0466 -0.12277,0.13335 -0.0444,0.0847 -0.0444,0.19897 v 0.60536 h -0.18626 v -1.13453 h 0.1524 l 0.0212,0.20743 h 0.008 q 0.055,-0.0931 0.14182,-0.16087 0.0868,-0.0677 0.20531,-0.0677 z"
           style="fill:#ffffff"
           id="path82362" /><path
           d="m 399.95219,217.76799 q 0,0.1651 -0.12277,0.24976 -0.12276,0.0847 -0.3302,0.0847 -0.11853,0 -0.20531,-0.019 -0.0847,-0.019 -0.15029,-0.0529 v -0.16933 q 0.0677,0.0339 0.16299,0.0635 0.0974,0.0275 0.19685,0.0275 0.14181,0 0.20531,-0.0445 0.0635,-0.0466 0.0635,-0.12277 0,-0.0423 -0.0233,-0.0762 -0.0233,-0.0339 -0.0847,-0.0677 -0.0593,-0.0339 -0.17145,-0.0762 -0.11006,-0.0423 -0.18838,-0.0847 -0.0783,-0.0423 -0.12065,-0.1016 -0.0423,-0.0593 -0.0423,-0.1524 0,-0.14394 0.11641,-0.22225 0.11854,-0.0783 0.30904,-0.0783 0.10371,0 0.19261,0.0212 0.091,0.019 0.16934,0.055 l -0.0635,0.14817 q -0.072,-0.0296 -0.15029,-0.0508 -0.0783,-0.0212 -0.16086,-0.0212 -0.1143,0 -0.17569,0.0381 -0.0593,0.036 -0.0593,0.0995 0,0.0466 0.0275,0.0804 0.0275,0.0317 0.091,0.0635 0.0656,0.0296 0.17357,0.072 0.10795,0.0402 0.18415,0.0825 0.0762,0.0423 0.11641,0.10371 0.0402,0.0593 0.0402,0.15029 z"
           style="fill:#ffffff"
           id="path82364" /></g><g
         aria-label="Cod: 123999"
         id="text79414"
         style="font-size:1.05833px;line-height:1.25;font-family:'Noto Sans';-inkscape-font-specification:'Noto Sans';stroke-width:0.264583"><path
           d="m 419.75341,218.98751 q -0.12171,0 -0.19156,0.0815 -0.0698,0.0815 -0.0698,0.22331 0,0.14076 0.0646,0.22331 0.0656,0.0815 0.19579,0.0815 0.0497,0 0.0942,-0.008 0.0444,-0.008 0.0868,-0.0212 v 0.0825 q -0.0423,0.0159 -0.0878,0.0233 -0.0444,0.007 -0.1069,0.007 -0.11535,0 -0.19261,-0.0476 -0.0773,-0.0476 -0.11642,-0.13546 -0.0381,-0.0878 -0.0381,-0.20638 0,-0.1143 0.0413,-0.20108 0.0423,-0.0878 0.12382,-0.13652 0.0815,-0.0498 0.19791,-0.0498 0.11959,0 0.20849,0.0445 l -0.0381,0.0804 q -0.0349,-0.0159 -0.0783,-0.0286 -0.0423,-0.0127 -0.0931,-0.0127 z"
           id="path82367" /><path
           d="m 420.57891,219.38544 q 0,0.14076 -0.072,0.21802 -0.0709,0.0773 -0.19261,0.0773 -0.0752,0 -0.13441,-0.0339 -0.0582,-0.0349 -0.0921,-0.10054 -0.0339,-0.0667 -0.0339,-0.16087 0,-0.14075 0.0709,-0.21695 0.0709,-0.0762 0.19261,-0.0762 0.0773,0 0.13547,0.0349 0.0593,0.0339 0.0921,0.0995 0.0339,0.0645 0.0339,0.15874 z m -0.42862,0 q 0,0.10055 0.0392,0.15981 0.0402,0.0582 0.127,0.0582 0.0857,0 0.12594,-0.0582 0.0402,-0.0593 0.0402,-0.15981 0,-0.10054 -0.0402,-0.15769 -0.0402,-0.0571 -0.127,-0.0571 -0.0868,0 -0.12594,0.0571 -0.0392,0.0572 -0.0392,0.15769 z"
           id="path82369" /><path
           d="m 420.9271,219.68072 q -0.10583,0 -0.16933,-0.073 -0.0635,-0.0741 -0.0635,-0.22013 0,-0.14605 0.0635,-0.22013 0.0645,-0.0751 0.17039,-0.0751 0.0656,0 0.10689,0.0243 0.0423,0.0243 0.0688,0.0593 h 0.006 q -10e-4,-0.0138 -0.004,-0.0402 -0.002,-0.0275 -0.002,-0.0434 v -0.22649 h 0.0931 v 0.80434 h -0.0751 l -0.0138,-0.0762 h -0.004 q -0.0254,0.036 -0.0677,0.0614 -0.0423,0.0254 -0.10901,0.0254 z m 0.0148,-0.0773 q 0.09,0 0.12594,-0.0487 0.037,-0.0497 0.037,-0.14923 v -0.0169 q 0,-0.10583 -0.0349,-0.16192 -0.0349,-0.0572 -0.12911,-0.0572 -0.0751,0 -0.11324,0.0603 -0.0371,0.0593 -0.0371,0.15981 0,0.1016 0.0371,0.15769 0.0381,0.0561 0.1143,0.0561 z"
           id="path82371" /><path
           d="m 421.36313,219.16002 q 0,-0.0402 0.019,-0.0561 0.019,-0.0159 0.0455,-0.0159 0.0275,0 0.0466,0.0159 0.0201,0.0159 0.0201,0.0561 0,0.0381 -0.0201,0.055 -0.019,0.0169 -0.0466,0.0169 -0.0265,0 -0.0455,-0.0169 -0.019,-0.0169 -0.019,-0.055 z m 0,0.45297 q 0,-0.0392 0.019,-0.055 0.019,-0.0159 0.0455,-0.0159 0.0275,0 0.0466,0.0159 0.0201,0.0159 0.0201,0.055 0,0.0381 -0.0201,0.055 -0.019,0.0169 -0.0466,0.0169 -0.0265,0 -0.0455,-0.0169 -0.019,-0.0169 -0.019,-0.055 z"
           id="path82373" /><path
           d="m 422.22144,219.67014 h -0.091 v -0.52811 q 0,-0.0455 10e-4,-0.073 10e-4,-0.0275 0.003,-0.0571 -0.0169,0.0169 -0.0307,0.0286 -0.0138,0.0116 -0.0349,0.0296 l -0.0804,0.0656 -0.0487,-0.0624 0.20426,-0.15875 h 0.0773 z"
           id="path82375" /><path
           d="m 423.00143,219.67014 h -0.49954 v -0.0773 l 0.19791,-0.20003 q 0.0572,-0.0572 0.0963,-0.1016 0.0392,-0.0444 0.0593,-0.0868 0.0201,-0.0434 0.0201,-0.0942 0,-0.0624 -0.037,-0.0942 -0.037,-0.0328 -0.0963,-0.0328 -0.055,0 -0.0974,0.019 -0.0413,0.019 -0.0847,0.0529 l -0.0497,-0.0625 q 0.0444,-0.037 0.1016,-0.0624 0.0582,-0.0265 0.13017,-0.0265 0.10584,0 0.16722,0.054 0.0614,0.0529 0.0614,0.14711 0,0.0593 -0.0243,0.11112 -0.0243,0.0519 -0.0677,0.10266 -0.0434,0.0497 -0.1016,0.10689 l -0.15769,0.15558 v 0.004 h 0.38206 z"
           id="path82377" /><path
           d="m 423.57822,219.09123 q 0,0.0762 -0.0423,0.12171 -0.0423,0.0444 -0.1143,0.0593 v 0.004 q 0.091,0.0106 0.13547,0.0571 0.0444,0.0466 0.0444,0.1217 0,0.0656 -0.0307,0.11748 -0.0307,0.0508 -0.0953,0.0794 -0.0635,0.0286 -0.16404,0.0286 -0.0593,0 -0.11007,-0.01 -0.0508,-0.008 -0.0974,-0.0317 v -0.0868 q 0.0476,0.0233 0.10266,0.037 0.055,0.0127 0.10584,0.0127 0.1016,0 0.14605,-0.0392 0.0455,-0.0402 0.0455,-0.11006 0,-0.0709 -0.0561,-0.1016 -0.055,-0.0318 -0.15557,-0.0318 h -0.073 v -0.0794 h 0.0741 q 0.0931,0 0.14075,-0.0392 0.0487,-0.0392 0.0487,-0.10372 0,-0.055 -0.037,-0.0847 -0.037,-0.0307 -0.10055,-0.0307 -0.0614,0 -0.10477,0.018 -0.0434,0.018 -0.0857,0.0455 l -0.0466,-0.0635 q 0.0402,-0.0318 0.0995,-0.055 0.0603,-0.0233 0.13653,-0.0233 0.11853,0 0.17568,0.0529 0.0582,0.0529 0.0582,0.13441 z"
           id="path82379" /><path
           d="m 424.21216,219.23728 q 0,0.0815 -0.0148,0.16086 -0.0138,0.0783 -0.0519,0.14288 -0.037,0.0635 -0.10583,0.1016 -0.0677,0.0381 -0.17463,0.0381 -0.0212,0 -0.0497,-0.003 -0.0275,-0.002 -0.0455,-0.007 v -0.0794 q 0.0413,0.0138 0.0931,0.0138 0.0741,0 0.12171,-0.0243 0.0487,-0.0243 0.0772,-0.0656 0.0286,-0.0423 0.0413,-0.0974 0.0127,-0.0561 0.0148,-0.11747 h -0.006 q -0.0233,0.036 -0.0677,0.0624 -0.0434,0.0254 -0.11218,0.0254 -0.0974,0 -0.15769,-0.0593 -0.0593,-0.0603 -0.0593,-0.16933 0,-0.0794 0.0296,-0.13652 0.0307,-0.0571 0.0847,-0.0878 0.054,-0.0307 0.127,-0.0307 0.072,0 0.13018,0.037 0.0582,0.036 0.0921,0.11006 0.0339,0.073 0.0339,0.18627 z m -0.25612,-0.25506 q -0.0656,0 -0.10795,0.0434 -0.0413,0.0434 -0.0413,0.13229 0,0.073 0.0349,0.11536 0.036,0.0413 0.11007,0.0413 0.0508,0 0.0878,-0.0201 0.037,-0.0212 0.0571,-0.0529 0.0212,-0.0318 0.0212,-0.0656 0,-0.0455 -0.018,-0.09 -0.018,-0.0444 -0.054,-0.0741 -0.036,-0.0296 -0.09,-0.0296 z"
           id="path82381" /><path
           d="m 424.81752,219.23728 q 0,0.0815 -0.0148,0.16086 -0.0138,0.0783 -0.0519,0.14288 -0.037,0.0635 -0.10584,0.1016 -0.0677,0.0381 -0.17462,0.0381 -0.0212,0 -0.0497,-0.003 -0.0275,-0.002 -0.0455,-0.007 v -0.0794 q 0.0413,0.0138 0.0931,0.0138 0.0741,0 0.12171,-0.0243 0.0487,-0.0243 0.0773,-0.0656 0.0286,-0.0423 0.0413,-0.0974 0.0127,-0.0561 0.0148,-0.11747 h -0.006 q -0.0233,0.036 -0.0677,0.0624 -0.0434,0.0254 -0.11219,0.0254 -0.0974,0 -0.15769,-0.0593 -0.0593,-0.0603 -0.0593,-0.16933 0,-0.0794 0.0296,-0.13652 0.0307,-0.0571 0.0847,-0.0878 0.054,-0.0307 0.127,-0.0307 0.072,0 0.13017,0.037 0.0582,0.036 0.0921,0.11006 0.0339,0.073 0.0339,0.18627 z m -0.25611,-0.25506 q -0.0656,0 -0.10795,0.0434 -0.0413,0.0434 -0.0413,0.13229 0,0.073 0.0349,0.11536 0.036,0.0413 0.11006,0.0413 0.0508,0 0.0878,-0.0201 0.037,-0.0212 0.0571,-0.0529 0.0212,-0.0318 0.0212,-0.0656 0,-0.0455 -0.018,-0.09 -0.018,-0.0444 -0.054,-0.0741 -0.036,-0.0296 -0.0899,-0.0296 z"
           id="path82383" /><path
           d="m 425.42289,219.23728 q 0,0.0815 -0.0148,0.16086 -0.0138,0.0783 -0.0519,0.14288 -0.037,0.0635 -0.10583,0.1016 -0.0677,0.0381 -0.17462,0.0381 -0.0212,0 -0.0498,-0.003 -0.0275,-0.002 -0.0455,-0.007 v -0.0794 q 0.0413,0.0138 0.0931,0.0138 0.0741,0 0.12171,-0.0243 0.0487,-0.0243 0.0772,-0.0656 0.0286,-0.0423 0.0413,-0.0974 0.0127,-0.0561 0.0148,-0.11747 h -0.006 q -0.0233,0.036 -0.0677,0.0624 -0.0434,0.0254 -0.11218,0.0254 -0.0974,0 -0.15769,-0.0593 -0.0593,-0.0603 -0.0593,-0.16933 0,-0.0794 0.0296,-0.13652 0.0307,-0.0571 0.0847,-0.0878 0.054,-0.0307 0.127,-0.0307 0.072,0 0.13018,0.037 0.0582,0.036 0.0921,0.11006 0.0339,0.073 0.0339,0.18627 z m -0.25612,-0.25506 q -0.0656,0 -0.10795,0.0434 -0.0413,0.0434 -0.0413,0.13229 0,0.073 0.0349,0.11536 0.036,0.0413 0.11007,0.0413 0.0508,0 0.0878,-0.0201 0.037,-0.0212 0.0571,-0.0529 0.0212,-0.0318 0.0212,-0.0656 0,-0.0455 -0.018,-0.09 -0.018,-0.0444 -0.054,-0.0741 -0.036,-0.0296 -0.09,-0.0296 z"
           id="path82385" /></g><rect
         style="fill:#1a1a1a;stroke:#000000;stroke-width:0.329825;stroke-linecap:round;stroke-linejoin:miter;stroke-dasharray:none;stroke-dashoffset:0;paint-order:markers fill stroke"
         id="rect79416"
         width="12.712893"
         height="4.8415952"
         x="-412.53687"
         y="210.62753"
         ry="2.3260634"
         transform="scale(-1,1)" /><rect
         style="fill:#1a1a1a;stroke:#000000;stroke-width:0.329825;stroke-linecap:round;stroke-linejoin:miter;stroke-dasharray:none;stroke-dashoffset:0;paint-order:markers fill stroke"
         id="rect79418"
         width="12.712893"
         height="4.8415952"
         x="-398.62149"
         y="210.62753"
         ry="2.3260634"
         transform="scale(-1,1)" /></g><path
       id="path79422"
       style="fill:#000000;stroke:#000000;stroke-width:0.2;stroke-linecap:round;stroke-dasharray:none;paint-order:markers fill stroke"
       d="m 377.74619,340.55675 h -31.00388 c -15.15011,0 -14.47455,24.90967 0,24.90967 h 31.00388 z"
       sodipodi:nodetypes="ccccc" /><rect
       style="fill:#ab37c8;stroke:#000000;stroke-width:0.329825;stroke-linecap:round;stroke-linejoin:miter;stroke-dasharray:none;stroke-dashoffset:0;paint-order:markers fill stroke"
       id="rect79424"
       width="12.712893"
       height="4.8415952"
       x="-364.59012"
       y="344.11392"
       ry="2.3260634"
       transform="scale(-1,1)" /><rect
       style="fill:#ab37c8;stroke:#000000;stroke-width:0.329825;stroke-linecap:round;stroke-linejoin:miter;stroke-dasharray:none;stroke-dashoffset:0;paint-order:markers fill stroke"
       id="rect79426"
       width="12.712893"
       height="4.8415952"
       x="-350.67474"
       y="344.11392"
       ry="2.3260634"
       transform="scale(-1,1)" /><g
       aria-label="4901"
       id="text79430"
       style="font-size:4.65419px;line-height:1.25;font-family:'Noto Sans';-inkscape-font-specification:'Noto Sans';stroke-width:0.43633"><path
         d="m 341.8097,347.50979 h -0.40026 v 0.68882 h -0.68417 v -0.68882 h -1.41953 v -0.48869 l 1.45677,-2.14558 h 0.64693 v 2.08973 h 0.40026 z m -1.08443,-1.1077 q 0,-0.10705 0.005,-0.26063 0.005,-0.15359 0.009,-0.28391 0.009,-0.13497 0.014,-0.17686 h -0.0186 q -0.0419,0.0931 -0.0884,0.18151 -0.0465,0.0884 -0.1117,0.18152 l -0.6097,0.92153 h 0.80052 z"
         style="font-weight:bold;-inkscape-font-specification:'Noto Sans Bold'"
         id="path82413" /><path
         d="m 344.38347,346.29504 q 0,0.28391 -0.0419,0.56782 -0.0419,0.27925 -0.14893,0.53057 -0.1024,0.24668 -0.29322,0.44215 -0.18616,0.19082 -0.47938,0.30252 -0.28856,0.10705 -0.70278,0.10705 -0.0977,0 -0.22806,-0.009 -0.13031,-0.005 -0.21874,-0.0233 v -0.56316 q 0.0931,0.0186 0.19547,0.0326 0.10239,0.014 0.20479,0.014 0.41422,0 0.63762,-0.13032 0.22806,-0.13497 0.32114,-0.36768 0.0931,-0.23271 0.10705,-0.53989 h -0.0279 q -0.0977,0.1629 -0.26063,0.2746 -0.15825,0.1117 -0.47473,0.1117 -0.42353,0 -0.67951,-0.2746 -0.25598,-0.2746 -0.25598,-0.77725 0,-0.53988 0.30252,-0.84706 0.30718,-0.30718 0.82844,-0.30718 0.33976,0 0.61436,0.15825 0.2746,0.15358 0.43749,0.47938 0.1629,0.32114 0.1629,0.81913 z m -1.20078,-0.8936 q -0.20479,0 -0.3351,0.13963 -0.13032,0.13962 -0.13032,0.44214 0,0.24202 0.1117,0.38165 0.1117,0.13962 0.33975,0.13962 0.15825,0 0.26995,-0.0698 0.11635,-0.0698 0.18151,-0.1722 0.0652,-0.10705 0.0652,-0.21875 0,-0.15359 -0.0559,-0.30252 -0.0558,-0.14894 -0.16755,-0.24202 -0.1117,-0.0977 -0.27925,-0.0977 z"
         style="font-weight:bold;-inkscape-font-specification:'Noto Sans Bold'"
         id="path82415" /><path
         d="m 347.04101,346.53706 q 0,0.53523 -0.11635,0.91688 -0.1117,0.38164 -0.36768,0.58643 -0.25133,0.20478 -0.67951,0.20478 -0.60039,0 -0.87965,-0.45146 -0.27925,-0.45611 -0.27925,-1.25663 0,-0.53988 0.1117,-0.92153 0.1117,-0.38164 0.36768,-0.58643 0.25598,-0.20478 0.67952,-0.20478 0.59573,0 0.87964,0.45146 0.2839,0.45145 0.2839,1.26128 z m -1.62431,0 q 0,0.56781 0.0977,0.85637 0.0977,0.28391 0.36303,0.28391 0.26063,0 0.36302,-0.28391 0.10239,-0.2839 0.10239,-0.85637 0,-0.56781 -0.10239,-0.85637 -0.10239,-0.28856 -0.36302,-0.28856 -0.26529,0 -0.36303,0.28856 -0.0977,0.28856 -0.0977,0.85637 z"
         style="font-weight:bold;-inkscape-font-specification:'Noto Sans Bold'"
         id="path82417" /><path
         d="m 349.1354,348.19861 h -0.70278 v -1.92218 q 0,-0.12101 0.005,-0.31649 0.009,-0.19547 0.014,-0.34441 -0.0233,0.0279 -0.1024,0.1024 -0.0745,0.0698 -0.13962,0.12566 l -0.38165,0.30717 -0.33975,-0.42353 1.07046,-0.85171 h 0.57712 z"
         style="font-weight:bold;-inkscape-font-specification:'Noto Sans Bold'"
         id="path82419" /></g><rect
       style="fill:#1a1a1a;stroke:#000000;stroke-width:0.329825;stroke-linecap:round;stroke-linejoin:miter;stroke-dasharray:none;stroke-dashoffset:0;paint-order:markers fill stroke"
       id="rect79432"
       width="12.712893"
       height="4.8415952"
       x="-364.59012"
       y="349.90033"
       ry="2.3260634"
       transform="scale(-1,1)" /><path
       id="path79434"
       style="fill:#ffd42a;stroke:#ffff00;stroke-width:0.2;stroke-linecap:round;stroke-dasharray:none;paint-order:markers fill stroke"
       d="m 377.74619,340.55675 h -3.76174 c -11.40591,0 -12.09674,24.90967 0,24.90967 h 3.76174 z"
       sodipodi:nodetypes="ccccc" /><g
       aria-label="4902"
       id="text79438"
       style="font-size:4.65419px;line-height:1.25;font-family:'Noto Sans';-inkscape-font-specification:'Noto Sans';stroke-width:0.43633"><path
         d="m 355.43186,347.50979 h -0.40026 v 0.68882 h -0.68417 v -0.68882 h -1.41952 v -0.48869 l 1.45676,-2.14558 h 0.64693 v 2.08973 h 0.40026 z m -1.08443,-1.1077 q 0,-0.10705 0.005,-0.26063 0.005,-0.15359 0.009,-0.28391 0.009,-0.13497 0.014,-0.17686 h -0.0186 q -0.0419,0.0931 -0.0884,0.18151 -0.0465,0.0884 -0.1117,0.18152 l -0.6097,0.92153 h 0.80052 z"
         style="font-weight:bold;-inkscape-font-specification:'Noto Sans Bold'"
         id="path82404" /><path
         d="m 358.00563,346.29504 q 0,0.28391 -0.0419,0.56782 -0.0419,0.27925 -0.14893,0.53057 -0.10239,0.24668 -0.29322,0.44215 -0.18616,0.19082 -0.47938,0.30252 -0.28856,0.10705 -0.70278,0.10705 -0.0977,0 -0.22806,-0.009 -0.13031,-0.005 -0.21874,-0.0233 v -0.56316 q 0.0931,0.0186 0.19547,0.0326 0.1024,0.014 0.20479,0.014 0.41422,0 0.63762,-0.13032 0.22806,-0.13497 0.32114,-0.36768 0.0931,-0.23271 0.10705,-0.53989 h -0.0279 q -0.0977,0.1629 -0.26063,0.2746 -0.15824,0.1117 -0.47473,0.1117 -0.42353,0 -0.67951,-0.2746 -0.25598,-0.2746 -0.25598,-0.77725 0,-0.53988 0.30252,-0.84706 0.30718,-0.30718 0.82845,-0.30718 0.33975,0 0.61435,0.15825 0.2746,0.15358 0.43749,0.47938 0.1629,0.32114 0.1629,0.81913 z m -1.20078,-0.8936 q -0.20479,0 -0.3351,0.13963 -0.13032,0.13962 -0.13032,0.44214 0,0.24202 0.1117,0.38165 0.1117,0.13962 0.33976,0.13962 0.15824,0 0.26994,-0.0698 0.11635,-0.0698 0.18151,-0.1722 0.0652,-0.10705 0.0652,-0.21875 0,-0.15359 -0.0559,-0.30252 -0.0558,-0.14894 -0.16755,-0.24202 -0.1117,-0.0977 -0.27925,-0.0977 z"
         style="font-weight:bold;-inkscape-font-specification:'Noto Sans Bold'"
         id="path82406" /><path
         d="m 360.66318,346.53706 q 0,0.53523 -0.11636,0.91688 -0.1117,0.38164 -0.36768,0.58643 -0.25133,0.20478 -0.67951,0.20478 -0.60039,0 -0.87964,-0.45146 -0.27926,-0.45611 -0.27926,-1.25663 0,-0.53988 0.1117,-0.92153 0.11171,-0.38164 0.36769,-0.58643 0.25598,-0.20478 0.67951,-0.20478 0.59573,0 0.87964,0.45146 0.28391,0.45145 0.28391,1.26128 z m -1.62432,0 q 0,0.56781 0.0977,0.85637 0.0977,0.28391 0.36303,0.28391 0.26063,0 0.36302,-0.28391 0.1024,-0.2839 0.1024,-0.85637 0,-0.56781 -0.1024,-0.85637 -0.10239,-0.28856 -0.36302,-0.28856 -0.26529,0 -0.36303,0.28856 -0.0977,0.28856 -0.0977,0.85637 z"
         style="font-weight:bold;-inkscape-font-specification:'Noto Sans Bold'"
         id="path82408" /><path
         d="m 363.34399,348.19861 h -2.32244 v -0.48869 l 0.8331,-0.84241 q 0.25133,-0.26063 0.40491,-0.43284 0.15359,-0.17686 0.22341,-0.31648 0.0698,-0.14428 0.0698,-0.30718 0,-0.20013 -0.1117,-0.29787 -0.10705,-0.0977 -0.29322,-0.0977 -0.19082,0 -0.37233,0.0884 -0.18151,0.0884 -0.38164,0.25133 l -0.38165,-0.45146 q 0.14428,-0.12566 0.30252,-0.23271 0.1629,-0.10704 0.37234,-0.1722 0.21409,-0.0698 0.51196,-0.0698 0.32579,0 0.5585,0.12101 0.23737,0.11636 0.36303,0.32114 0.13032,0.20013 0.13032,0.45611 0,0.2746 -0.1117,0.50266 -0.10705,0.22805 -0.31649,0.45145 -0.20478,0.2234 -0.498,0.49335 l -0.42818,0.40026 v 0.0326 h 1.44745 z"
         style="font-weight:bold;-inkscape-font-specification:'Noto Sans Bold'"
         id="path82410" /></g><rect
       style="fill:#1a1a1a;stroke:#000000;stroke-width:0.329825;stroke-linecap:round;stroke-linejoin:miter;stroke-dasharray:none;stroke-dashoffset:0;paint-order:markers fill stroke"
       id="rect79440"
       width="12.712893"
       height="4.8415952"
       x="-350.67474"
       y="349.90033"
       ry="2.3260634"
       transform="scale(-1,1)" /><g
       aria-label="Rua d Flors (Sombra)"
       id="text79444"
       style="font-size:2.11667px;line-height:1.25;font-family:'Noto Sans';-inkscape-font-specification:'Noto Sans';stroke-width:0.503922"><path
         d="m 341.69515,361.62917 q 0.28151,0 0.41486,0.10795 0.13547,0.10583 0.13547,0.32173 0,0.12065 -0.0444,0.20109 -0.0444,0.0804 -0.1143,0.12911 -0.0677,0.0466 -0.14393,0.0741 l 0.41486,0.67733 h -0.22225 l -0.36618,-0.62442 h -0.30057 v 0.62442 h -0.1905 v -1.5113 z m -0.0106,0.1651 h -0.2159 v 0.56092 h 0.22649 q 0.18415,0 0.26881,-0.072 0.0847,-0.0741 0.0847,-0.2159 0,-0.14817 -0.0889,-0.20955 -0.0889,-0.0635 -0.27517,-0.0635 z"
         style="fill:#ffffff"
         id="path82422" /><path
         d="m 343.5176,362.00594 v 1.13453 h -0.1524 l -0.0275,-0.15028 h -0.008 q -0.055,0.0889 -0.15241,0.13123 -0.0974,0.0402 -0.20743,0.0402 -0.20532,0 -0.30903,-0.0974 -0.10372,-0.0995 -0.10372,-0.31538 v -0.74295 h 0.18838 v 0.73025 q 0,0.27093 0.25189,0.27093 0.18838,0 0.26035,-0.10583 0.0741,-0.10583 0.0741,-0.3048 v -0.59055 z"
         style="fill:#ffffff"
         id="path82424" /><path
         d="m 344.30712,361.98689 q 0.20743,0 0.30691,0.091 0.0995,0.091 0.0995,0.28999 v 0.77258 h -0.13547 l -0.036,-0.16086 h -0.008 q -0.0741,0.0931 -0.15663,0.13758 -0.0804,0.0444 -0.22437,0.0444 -0.15452,0 -0.25612,-0.0804 -0.1016,-0.0826 -0.1016,-0.25612 0,-0.16933 0.13335,-0.26035 0.13335,-0.0931 0.41064,-0.1016 l 0.19261,-0.006 v -0.0677 q 0,-0.14181 -0.0614,-0.19685 -0.0614,-0.055 -0.17357,-0.055 -0.0889,0 -0.16933,0.0275 -0.0804,0.0254 -0.15028,0.0593 l -0.0571,-0.1397 q 0.0741,-0.0402 0.17568,-0.0677 0.1016,-0.0296 0.21167,-0.0296 z m 0.055,0.60536 q -0.21167,0.008 -0.29422,0.0677 -0.0804,0.0593 -0.0804,0.16722 0,0.0953 0.0571,0.1397 0.0593,0.0445 0.15028,0.0445 0.14394,0 0.23919,-0.0783 0.0952,-0.0804 0.0952,-0.24553 v -0.10161 z"
         style="fill:#ffffff"
         id="path82426" /><path
         d="m 346.01739,363.16164 q -0.21167,0 -0.33867,-0.14605 -0.127,-0.14817 -0.127,-0.44027 0,-0.2921 0.127,-0.44027 0.12912,-0.15028 0.34078,-0.15028 0.13124,0 0.21379,0.0487 0.0847,0.0487 0.13758,0.11854 h 0.0127 q -0.002,-0.0275 -0.008,-0.0804 -0.004,-0.055 -0.004,-0.0868 v -0.45297 h 0.18627 v 1.60867 h -0.15028 l -0.0275,-0.1524 h -0.008 q -0.0508,0.072 -0.13547,0.12277 -0.0847,0.0508 -0.21801,0.0508 z m 0.0296,-0.15452 q 0.17992,0 0.25189,-0.0974 0.0741,-0.0995 0.0741,-0.29846 v -0.0339 q 0,-0.21167 -0.0699,-0.32385 -0.0698,-0.1143 -0.25824,-0.1143 -0.15028,0 -0.22648,0.12065 -0.0741,0.11853 -0.0741,0.31961 0,0.20321 0.0741,0.31539 0.0762,0.11218 0.2286,0.11218 z"
         style="fill:#ffffff"
         id="path82428" /><path
         d="m 347.68321,363.14047 h -0.1905 v -1.5113 h 0.84455 v 0.16722 h -0.65405 v 0.53551 h 0.61383 v 0.16722 h -0.61383 z"
         style="fill:#ffffff"
         id="path82430" /><path
         d="m 348.75212,363.14047 h -0.18626 v -1.60867 h 0.18626 z"
         style="fill:#ffffff"
         id="path82432" /><path
         d="m 350.09832,362.57109 q 0,0.28152 -0.14393,0.43603 -0.14182,0.15452 -0.38523,0.15452 -0.15029,0 -0.26882,-0.0677 -0.11642,-0.0698 -0.18415,-0.20109 -0.0677,-0.13335 -0.0677,-0.32173 0,-0.28152 0.14181,-0.43392 0.14182,-0.1524 0.38524,-0.1524 0.15451,0 0.27093,0.0698 0.11853,0.0677 0.18415,0.19897 0.0677,0.12911 0.0677,0.3175 z m -0.85725,0 q 0,0.20108 0.0783,0.31962 0.0804,0.11641 0.254,0.11641 0.17145,0 0.25188,-0.11641 0.0804,-0.11854 0.0804,-0.31962 0,-0.20109 -0.0804,-0.31539 -0.0804,-0.1143 -0.254,-0.1143 -0.17356,0 -0.25188,0.1143 -0.0783,0.1143 -0.0783,0.31539 z"
         style="fill:#ffffff"
         id="path82434" /><path
         d="m 350.92171,361.98477 q 0.0317,0 0.0677,0.004 0.0381,0.002 0.0656,0.008 l -0.0233,0.17145 q -0.0275,-0.006 -0.0614,-0.0106 -0.0317,-0.004 -0.0614,-0.004 -0.0868,0 -0.16299,0.0487 -0.0762,0.0466 -0.12276,0.13335 -0.0445,0.0847 -0.0445,0.19896 V 363.14 h -0.18627 v -1.13453 h 0.1524 l 0.0212,0.20743 h 0.008 q 0.055,-0.0931 0.14182,-0.16087 0.0868,-0.0677 0.20532,-0.0677 z"
         style="fill:#ffffff"
         id="path82436" /><path
         d="m 352.00544,362.82721 q 0,0.1651 -0.12276,0.24976 -0.12277,0.0847 -0.3302,0.0847 -0.11854,0 -0.20532,-0.019 -0.0847,-0.019 -0.15028,-0.0529 v -0.16933 q 0.0677,0.0339 0.16298,0.0635 0.0974,0.0275 0.19685,0.0275 0.14182,0 0.20532,-0.0445 0.0635,-0.0466 0.0635,-0.12277 0,-0.0423 -0.0233,-0.0762 -0.0233,-0.0339 -0.0847,-0.0677 -0.0593,-0.0339 -0.17145,-0.0762 -0.11007,-0.0423 -0.18839,-0.0847 -0.0783,-0.0423 -0.12065,-0.1016 -0.0423,-0.0593 -0.0423,-0.1524 0,-0.14394 0.11642,-0.22225 0.11853,-0.0783 0.30903,-0.0783 0.10372,0 0.19262,0.0212 0.091,0.019 0.16933,0.055 l -0.0635,0.14817 q -0.072,-0.0296 -0.15028,-0.0508 -0.0783,-0.0212 -0.16087,-0.0212 -0.1143,0 -0.17568,0.0381 -0.0593,0.036 -0.0593,0.0995 0,0.0466 0.0275,0.0804 0.0275,0.0317 0.091,0.0635 0.0656,0.0296 0.17357,0.072 0.10795,0.0402 0.18415,0.0825 0.0762,0.0423 0.11642,0.10372 0.0402,0.0593 0.0402,0.15029 z"
         style="fill:#ffffff"
         id="path82438" /><path
         d="m 352.73569,362.5605 q 0,-0.25823 0.0741,-0.49741 0.0762,-0.2413 0.23706,-0.43392 h 0.17569 q -0.14817,0.19897 -0.22437,0.43815 -0.0741,0.23918 -0.0741,0.49107 0,0.24553 0.0741,0.4826 0.0762,0.23495 0.22225,0.43392 h -0.17357 q -0.16086,-0.18627 -0.23706,-0.42122 -0.0741,-0.23707 -0.0741,-0.49319 z"
         style="fill:#ffffff"
         id="path82440" /><path
         d="m 354.3486,362.73619 q 0,0.20108 -0.14605,0.31327 -0.14605,0.11218 -0.3937,0.11218 -0.127,0 -0.23495,-0.019 -0.10796,-0.019 -0.17992,-0.0529 v -0.18203 q 0.0762,0.0339 0.18838,0.0614 0.1143,0.0275 0.23495,0.0275 0.16934,0 0.254,-0.0656 0.0868,-0.0656 0.0868,-0.1778 0,-0.0741 -0.0317,-0.12488 -0.0317,-0.0508 -0.11007,-0.0931 -0.0762,-0.0444 -0.21378,-0.0931 -0.19262,-0.0699 -0.29211,-0.17145 -0.0974,-0.1016 -0.0974,-0.27728 0,-0.12065 0.0614,-0.20532 0.0614,-0.0868 0.16934,-0.13335 0.11006,-0.0466 0.25188,-0.0466 0.12488,0 0.2286,0.0233 0.10372,0.0233 0.18838,0.0614 l -0.0593,0.16298 q -0.0783,-0.0339 -0.17145,-0.0572 -0.091,-0.0233 -0.1905,-0.0233 -0.14182,0 -0.21379,0.0614 -0.072,0.0593 -0.072,0.15875 0,0.0762 0.0317,0.127 0.0317,0.0508 0.10371,0.091 0.072,0.0402 0.19474,0.0868 0.13335,0.0487 0.22436,0.10584 0.0931,0.055 0.1397,0.13335 0.0487,0.0783 0.0487,0.19685 z"
         style="fill:#ffffff"
         id="path82442" /><path
         d="m 355.61436,362.57109 q 0,0.28152 -0.14393,0.43603 -0.14182,0.15452 -0.38523,0.15452 -0.15029,0 -0.26882,-0.0677 -0.11642,-0.0698 -0.18415,-0.20109 -0.0677,-0.13335 -0.0677,-0.32173 0,-0.28152 0.14181,-0.43392 0.14182,-0.1524 0.38524,-0.1524 0.15451,0 0.27093,0.0698 0.11853,0.0677 0.18415,0.19897 0.0677,0.12911 0.0677,0.3175 z m -0.85725,0 q 0,0.20108 0.0783,0.31962 0.0804,0.11641 0.254,0.11641 0.17145,0 0.25188,-0.11641 0.0804,-0.11854 0.0804,-0.31962 0,-0.20109 -0.0804,-0.31539 -0.0804,-0.1143 -0.254,-0.1143 -0.17356,0 -0.25188,0.1143 -0.0783,0.1143 -0.0783,0.31539 z"
         style="fill:#ffffff"
         id="path82444" /><path
         d="m 357.15318,361.98477 q 0.19262,0 0.28787,0.0995 0.0952,0.0974 0.0952,0.3175 v 0.73872 h -0.18415 v -0.73025 q 0,-0.26882 -0.23072,-0.26882 -0.1651,0 -0.23706,0.0953 -0.0698,0.0953 -0.0698,0.27729 v 0.62653 h -0.18416 v -0.73025 q 0,-0.26882 -0.23283,-0.26882 -0.17145,0 -0.23707,0.10584 -0.0656,0.10583 -0.0656,0.3048 v 0.58843 h -0.18627 v -1.13453 h 0.15028 l 0.0275,0.15451 h 0.0106 q 0.0529,-0.0889 0.14182,-0.13123 0.091,-0.0444 0.19262,-0.0444 0.2667,0 0.34713,0.1905 h 0.0106 q 0.0571,-0.0974 0.15451,-0.14393 0.0995,-0.0466 0.20955,-0.0466 z"
         style="fill:#ffffff"
         id="path82446" /><path
         d="m 358.07393,361.92339 q 0,0.072 -0.004,0.13546 -0.002,0.0614 -0.006,0.0974 h 0.0106 q 0.0487,-0.072 0.13335,-0.12065 0.0847,-0.0487 0.21802,-0.0487 0.21167,0 0.33867,0.14816 0.12911,0.14605 0.12911,0.43815 0,0.29211 -0.12911,0.44027 -0.12912,0.14817 -0.33867,0.14817 -0.13335,0 -0.21802,-0.0487 -0.0847,-0.0487 -0.13335,-0.11642 h -0.0148 l -0.0381,0.14393 h -0.13335 v -1.60867 h 0.18626 z m 0.31962,0.21801 q -0.17992,0 -0.24977,0.10372 -0.0698,0.10372 -0.0698,0.32173 v 0.008 q 0,0.20955 0.0677,0.32174 0.0699,0.11006 0.25611,0.11006 0.1524,0 0.22649,-0.11218 0.0762,-0.11218 0.0762,-0.32385 0,-0.42969 -0.30692,-0.42969 z"
         style="fill:#ffffff"
         id="path82448" /><path
         d="m 359.71858,361.98477 q 0.0318,0 0.0677,0.004 0.0381,0.002 0.0656,0.008 l -0.0233,0.17145 q -0.0275,-0.006 -0.0614,-0.0106 -0.0317,-0.004 -0.0614,-0.004 -0.0868,0 -0.16298,0.0487 -0.0762,0.0466 -0.12277,0.13335 -0.0444,0.0847 -0.0444,0.19896 V 363.14 h -0.18626 v -1.13453 h 0.1524 l 0.0212,0.20743 h 0.008 q 0.055,-0.0931 0.14182,-0.16087 0.0868,-0.0677 0.20531,-0.0677 z"
         style="fill:#ffffff"
         id="path82450" /><path
         d="m 360.45095,361.98689 q 0.20744,0 0.30692,0.091 0.0995,0.091 0.0995,0.28999 v 0.77258 h -0.13546 l -0.036,-0.16086 h -0.008 q -0.0741,0.0931 -0.15664,0.13758 -0.0804,0.0444 -0.22437,0.0444 -0.15451,0 -0.25611,-0.0804 -0.1016,-0.0826 -0.1016,-0.25612 0,-0.16933 0.13335,-0.26035 0.13335,-0.0931 0.41063,-0.1016 l 0.19262,-0.006 v -0.0677 q 0,-0.14181 -0.0614,-0.19685 -0.0614,-0.055 -0.17357,-0.055 -0.0889,0 -0.16934,0.0275 -0.0804,0.0254 -0.15028,0.0593 l -0.0571,-0.1397 q 0.0741,-0.0402 0.17568,-0.0677 0.1016,-0.0296 0.21167,-0.0296 z m 0.055,0.60536 q -0.21166,0.008 -0.29421,0.0677 -0.0804,0.0593 -0.0804,0.16722 0,0.0953 0.0572,0.1397 0.0593,0.0445 0.15029,0.0445 0.14393,0 0.23918,-0.0783 0.0953,-0.0804 0.0953,-0.24553 v -0.10161 z"
         style="fill:#ffffff"
         id="path82452" /><path
         d="m 361.57914,362.5605 q 0,0.25612 -0.0762,0.49319 -0.0741,0.23495 -0.23495,0.42122 h -0.17357 q 0.14605,-0.19897 0.22014,-0.43392 0.0762,-0.23707 0.0762,-0.4826 0,-0.25189 -0.0762,-0.49107 -0.0741,-0.23918 -0.22226,-0.43815 h 0.17569 q 0.16087,0.19262 0.23495,0.43392 0.0762,0.23918 0.0762,0.49741 z"
         style="fill:#ffffff"
         id="path82454" /></g><g
       aria-label="Cod: 123999"
       id="text79448"
       style="font-size:1.05833px;line-height:1.25;font-family:'Noto Sans';-inkscape-font-specification:'Noto Sans';stroke-width:0.264583"><path
         d="m 371.80666,364.04672 q -0.1217,0 -0.19155,0.0815 -0.0699,0.0815 -0.0699,0.22331 0,0.14075 0.0646,0.2233 0.0656,0.0815 0.19579,0.0815 0.0497,0 0.0942,-0.008 0.0444,-0.008 0.0868,-0.0212 v 0.0825 q -0.0423,0.0159 -0.0878,0.0233 -0.0444,0.007 -0.10689,0.007 -0.11536,0 -0.19262,-0.0476 -0.0773,-0.0476 -0.11641,-0.13547 -0.0381,-0.0878 -0.0381,-0.20637 0,-0.1143 0.0413,-0.20109 0.0423,-0.0878 0.12383,-0.13652 0.0815,-0.0497 0.1979,-0.0497 0.11959,0 0.20849,0.0445 l -0.0381,0.0804 q -0.0349,-0.0159 -0.0783,-0.0286 -0.0423,-0.0127 -0.0931,-0.0127 z"
         id="path82457" /><path
         d="m 372.63216,364.44465 q 0,0.14076 -0.072,0.21801 -0.0709,0.0773 -0.19262,0.0773 -0.0751,0 -0.13441,-0.0339 -0.0582,-0.0349 -0.0921,-0.10055 -0.0339,-0.0667 -0.0339,-0.16086 0,-0.14076 0.0709,-0.21696 0.0709,-0.0762 0.19261,-0.0762 0.0773,0 0.13547,0.0349 0.0593,0.0339 0.0921,0.0995 0.0339,0.0646 0.0339,0.15875 z m -0.42862,0 q 0,0.10054 0.0392,0.15981 0.0402,0.0582 0.127,0.0582 0.0857,0 0.12594,-0.0582 0.0402,-0.0593 0.0402,-0.15981 0,-0.10054 -0.0402,-0.15769 -0.0402,-0.0572 -0.127,-0.0572 -0.0868,0 -0.12594,0.0572 -0.0392,0.0571 -0.0392,0.15769 z"
         id="path82459" /><path
         d="m 372.98035,364.73992 q -0.10583,0 -0.16933,-0.073 -0.0635,-0.0741 -0.0635,-0.22013 0,-0.14605 0.0635,-0.22014 0.0646,-0.0751 0.17039,-0.0751 0.0656,0 0.10689,0.0243 0.0423,0.0243 0.0688,0.0593 h 0.006 q -10e-4,-0.0138 -0.004,-0.0402 -0.002,-0.0275 -0.002,-0.0434 v -0.22648 h 0.0931 v 0.80433 h -0.0752 l -0.0137,-0.0762 h -0.004 q -0.0254,0.036 -0.0677,0.0614 -0.0423,0.0254 -0.10901,0.0254 z m 0.0148,-0.0773 q 0.09,0 0.12594,-0.0487 0.037,-0.0497 0.037,-0.14922 v -0.0169 q 0,-0.10583 -0.0349,-0.16192 -0.0349,-0.0572 -0.12912,-0.0572 -0.0751,0 -0.11324,0.0603 -0.037,0.0593 -0.037,0.15981 0,0.1016 0.037,0.15769 0.0381,0.0561 0.1143,0.0561 z"
         id="path82461" /><path
         d="m 373.41638,364.21922 q 0,-0.0402 0.019,-0.0561 0.019,-0.0159 0.0455,-0.0159 0.0275,0 0.0466,0.0159 0.0201,0.0159 0.0201,0.0561 0,0.0381 -0.0201,0.055 -0.019,0.0169 -0.0466,0.0169 -0.0265,0 -0.0455,-0.0169 -0.019,-0.0169 -0.019,-0.055 z m 0,0.45297 q 0,-0.0392 0.019,-0.055 0.019,-0.0159 0.0455,-0.0159 0.0275,0 0.0466,0.0159 0.0201,0.0159 0.0201,0.055 0,0.0381 -0.0201,0.055 -0.019,0.0169 -0.0466,0.0169 -0.0265,0 -0.0455,-0.0169 -0.019,-0.0169 -0.019,-0.055 z"
         id="path82463" /><path
         d="m 374.27469,364.72934 h -0.091 v -0.52811 q 0,-0.0455 10e-4,-0.073 0.001,-0.0275 0.003,-0.0572 -0.0169,0.0169 -0.0307,0.0286 -0.0138,0.0116 -0.0349,0.0296 l -0.0804,0.0656 -0.0487,-0.0624 0.20426,-0.15875 h 0.0773 z"
         id="path82465" /><path
         d="m 375.05468,364.72934 h -0.49953 v -0.0773 l 0.1979,-0.20002 q 0.0572,-0.0572 0.0963,-0.1016 0.0392,-0.0444 0.0593,-0.0868 0.0201,-0.0434 0.0201,-0.0942 0,-0.0624 -0.037,-0.0942 -0.0371,-0.0328 -0.0963,-0.0328 -0.055,0 -0.0974,0.019 -0.0413,0.019 -0.0847,0.0529 l -0.0498,-0.0624 q 0.0445,-0.037 0.1016,-0.0624 0.0582,-0.0265 0.13018,-0.0265 0.10583,0 0.16721,0.054 0.0614,0.0529 0.0614,0.14711 0,0.0593 -0.0243,0.11113 -0.0243,0.0519 -0.0677,0.10265 -0.0434,0.0498 -0.1016,0.1069 l -0.15769,0.15557 v 0.004 h 0.38206 z"
         id="path82467" /><path
         d="m 375.63147,364.15043 q 0,0.0762 -0.0423,0.12171 -0.0423,0.0445 -0.1143,0.0593 v 0.004 q 0.091,0.0106 0.13546,0.0571 0.0444,0.0466 0.0444,0.12171 0,0.0656 -0.0307,0.11747 -0.0307,0.0508 -0.0952,0.0794 -0.0635,0.0286 -0.16404,0.0286 -0.0593,0 -0.11007,-0.01 -0.0508,-0.008 -0.0974,-0.0317 v -0.0868 q 0.0476,0.0233 0.10266,0.0371 0.055,0.0127 0.10583,0.0127 0.1016,0 0.14605,-0.0392 0.0455,-0.0402 0.0455,-0.11007 0,-0.0709 -0.0561,-0.1016 -0.055,-0.0317 -0.15557,-0.0317 h -0.073 v -0.0794 h 0.0741 q 0.0931,0 0.14076,-0.0392 0.0487,-0.0392 0.0487,-0.10372 0,-0.055 -0.037,-0.0847 -0.037,-0.0307 -0.10054,-0.0307 -0.0614,0 -0.10478,0.018 -0.0434,0.018 -0.0857,0.0455 l -0.0466,-0.0635 q 0.0402,-0.0317 0.0995,-0.055 0.0603,-0.0233 0.13653,-0.0233 0.11853,0 0.17568,0.0529 0.0582,0.0529 0.0582,0.1344 z"
         id="path82469" /><path
         d="m 376.26541,364.29648 q 0,0.0815 -0.0148,0.16087 -0.0138,0.0783 -0.0519,0.14287 -0.037,0.0635 -0.10584,0.1016 -0.0677,0.0381 -0.17462,0.0381 -0.0212,0 -0.0497,-0.003 -0.0275,-0.002 -0.0455,-0.007 v -0.0794 q 0.0413,0.0138 0.0931,0.0138 0.0741,0 0.12171,-0.0243 0.0487,-0.0243 0.0773,-0.0656 0.0286,-0.0423 0.0413,-0.0974 0.0127,-0.0561 0.0148,-0.11748 h -0.006 q -0.0233,0.036 -0.0677,0.0625 -0.0434,0.0254 -0.11219,0.0254 -0.0974,0 -0.15769,-0.0593 -0.0593,-0.0603 -0.0593,-0.16933 0,-0.0794 0.0296,-0.13653 0.0307,-0.0571 0.0847,-0.0878 0.054,-0.0307 0.127,-0.0307 0.072,0 0.13018,0.037 0.0582,0.036 0.0921,0.11007 0.0339,0.073 0.0339,0.18626 z m -0.25612,-0.25505 q -0.0656,0 -0.10795,0.0434 -0.0413,0.0434 -0.0413,0.13229 0,0.073 0.0349,0.11536 0.036,0.0413 0.11007,0.0413 0.0508,0 0.0878,-0.0201 0.037,-0.0212 0.0572,-0.0529 0.0212,-0.0317 0.0212,-0.0656 0,-0.0455 -0.018,-0.09 -0.018,-0.0445 -0.054,-0.0741 -0.036,-0.0296 -0.09,-0.0296 z"
         id="path82471" /><path
         d="m 376.87078,364.29648 q 0,0.0815 -0.0148,0.16087 -0.0138,0.0783 -0.0519,0.14287 -0.037,0.0635 -0.10583,0.1016 -0.0677,0.0381 -0.17463,0.0381 -0.0212,0 -0.0497,-0.003 -0.0275,-0.002 -0.0455,-0.007 v -0.0794 q 0.0413,0.0138 0.0931,0.0138 0.0741,0 0.1217,-0.0243 0.0487,-0.0243 0.0773,-0.0656 0.0286,-0.0423 0.0413,-0.0974 0.0127,-0.0561 0.0148,-0.11748 h -0.006 q -0.0233,0.036 -0.0677,0.0625 -0.0434,0.0254 -0.11218,0.0254 -0.0974,0 -0.15769,-0.0593 -0.0593,-0.0603 -0.0593,-0.16933 0,-0.0794 0.0296,-0.13653 0.0307,-0.0571 0.0847,-0.0878 0.054,-0.0307 0.127,-0.0307 0.072,0 0.13017,0.037 0.0582,0.036 0.0921,0.11007 0.0339,0.073 0.0339,0.18626 z m -0.25612,-0.25505 q -0.0656,0 -0.10795,0.0434 -0.0413,0.0434 -0.0413,0.13229 0,0.073 0.0349,0.11536 0.036,0.0413 0.11007,0.0413 0.0508,0 0.0878,-0.0201 0.037,-0.0212 0.0572,-0.0529 0.0212,-0.0317 0.0212,-0.0656 0,-0.0455 -0.018,-0.09 -0.018,-0.0445 -0.054,-0.0741 -0.036,-0.0296 -0.09,-0.0296 z"
         id="path82473" /><path
         d="m 377.47614,364.29648 q 0,0.0815 -0.0148,0.16087 -0.0138,0.0783 -0.0519,0.14287 -0.0371,0.0635 -0.10584,0.1016 -0.0677,0.0381 -0.17462,0.0381 -0.0212,0 -0.0497,-0.003 -0.0275,-0.002 -0.0455,-0.007 v -0.0794 q 0.0413,0.0138 0.0931,0.0138 0.0741,0 0.12171,-0.0243 0.0487,-0.0243 0.0773,-0.0656 0.0286,-0.0423 0.0413,-0.0974 0.0127,-0.0561 0.0148,-0.11748 h -0.006 q -0.0233,0.036 -0.0677,0.0625 -0.0434,0.0254 -0.11219,0.0254 -0.0974,0 -0.15769,-0.0593 -0.0593,-0.0603 -0.0593,-0.16933 0,-0.0794 0.0296,-0.13653 0.0307,-0.0571 0.0847,-0.0878 0.054,-0.0307 0.12699,-0.0307 0.072,0 0.13018,0.037 0.0582,0.036 0.0921,0.11007 0.0339,0.073 0.0339,0.18626 z m -0.25612,-0.25505 q -0.0656,0 -0.10795,0.0434 -0.0413,0.0434 -0.0413,0.13229 0,0.073 0.0349,0.11536 0.036,0.0413 0.11006,0.0413 0.0508,0 0.0878,-0.0201 0.037,-0.0212 0.0571,-0.0529 0.0212,-0.0317 0.0212,-0.0656 0,-0.0455 -0.018,-0.09 -0.018,-0.0445 -0.054,-0.0741 -0.036,-0.0296 -0.09,-0.0296 z"
         id="path82475" /></g><rect
       style="fill:#1a1a1a;stroke:#000000;stroke-width:0.329825;stroke-linecap:round;stroke-linejoin:miter;stroke-dasharray:none;stroke-dashoffset:0;paint-order:markers fill stroke"
       id="rect79450"
       width="12.712893"
       height="4.8415952"
       x="-364.59012"
       y="355.68674"
       ry="2.3260634"
       transform="scale(-1,1)" /><rect
       style="fill:#1a1a1a;stroke:#000000;stroke-width:0.329825;stroke-linecap:round;stroke-linejoin:miter;stroke-dasharray:none;stroke-dashoffset:0;paint-order:markers fill stroke"
       id="rect79452"
       width="12.712893"
       height="4.8415952"
       x="-350.67474"
       y="355.68674"
       ry="2.3260634"
       transform="scale(-1,1)" /></g></svg>
