<?xml version="1.0" encoding="UTF-8" standalone="no"?>
<!-- Created with Inkscape (http://www.inkscape.org/) -->

<svg
   width="33.025543mm"
   height="21.096344mm"
   viewBox="0 0 33.025543 21.096344"
   version="1.1"
   id="svg336"
   xml:space="preserve"
   inkscape:version="1.2.2 (b0a8486541, 2022-12-01)"
   sodipodi:docname="instructions.svg"
   xmlns:inkscape="http://www.inkscape.org/namespaces/inkscape"
   xmlns:sodipodi="http://sodipodi.sourceforge.net/DTD/sodipodi-0.dtd"
   xmlns="http://www.w3.org/2000/svg"
   xmlns:svg="http://www.w3.org/2000/svg"><sodipodi:namedview
     id="namedview338"
     pagecolor="#ffffff"
     bordercolor="#999999"
     borderopacity="1"
     inkscape:showpageshadow="0"
     inkscape:pageopacity="0"
     inkscape:pagecheckerboard="0"
     inkscape:deskcolor="#d1d1d1"
     inkscape:document-units="mm"
     showgrid="false"
     inkscape:zoom="0.2102413"
     inkscape:cx="2123.7502"
     inkscape:cy="1346.0723"
     inkscape:window-width="1920"
     inkscape:window-height="1131"
     inkscape:window-x="1920"
     inkscape:window-y="32"
     inkscape:window-maximized="1"
     inkscape:current-layer="layer1"
     inkscape:lockguides="true" /><defs
     id="defs333" /><g
     inkscape:label="Layer 1"
     inkscape:groupmode="layer"
     id="layer1"
     transform="translate(-263.60203,-399.83458)"><g
       id="g110046"><path
         style="fill:#fff6d5;stroke:none;stroke-width:0.264583px;stroke-linecap:butt;stroke-linejoin:miter;stroke-opacity:1"
         d="m 269.44935,403.36775 5.35176,10.48181 3.38747,4.67739 h 3.07843 l 0.0117,-2.18933 -5.92211,-8.41174 10.27516,-0.39111 -13.96862,-6.38074"
         id="path105938"
         sodipodi:nodetypes="cccccccc" /><rect
         style="fill:#f9f9f9;fill-opacity:1;stroke:#4d4d4d;stroke-width:0.403301;stroke-linecap:round;stroke-linejoin:round;stroke-dasharray:none;stroke-dashoffset:0;stroke-opacity:1;paint-order:markers fill stroke"
         id="rect105934"
         width="25.58194"
         height="2.2023456"
         x="270.7579"
         y="418.52695" /><path
         style="fill:#b3b3b3;fill-opacity:1;stroke:#000000;stroke-width:0.3;stroke-linecap:round;stroke-linejoin:miter;stroke-dasharray:none;stroke-opacity:1"
         d="m 278.96005,419.04717 v -2.16764 c 0,-0.32515 0.21676,-0.54191 0.54191,-0.54191 h 8.0938 c 0.32514,0 0.54191,0.21676 0.54191,0.54191 v 2.16764"
         id="path105936"
         sodipodi:nodetypes="cccccc" /><g
         id="g105966"
         transform="matrix(0.14707566,0,0,0.14707566,278.35173,409.9615)"><g
           id="g105942" /><g
           id="g105950"><g
             id="g105948"><path
               fill="#fcea2b"
               d="m 42.533,22.2881 a 4.3,4.3 0 0 0 -4.209,-4.1314 h -6 a 4.3,4.3 0 0 0 -4.209,4.1314 l -0.792,19.4393 a 1.0173,1.0173 0 0 1 -0.1209,0.4369 L 30.1357,40.07 29.4221,62.2033 a 1.2322,1.2322 0 0 0 0.25,0.8789 0.2412,0.2412 0 0 0 0.152,0.09 c 0.214,0 0.656,-0.4266 0.735,-1.1254 l 2.8986,-22.5033 a 4.9252,4.9252 0 0 1 0.4028,-1.1922 l 0.7246,-0.8052 H 36.21 l 0.984,0.6231 a 4.9259,4.9259 0 0 1 0.352,1.3413 l 2.542,22.5343 c 0.079,0.6978 0.522,1.1254 0.736,1.1254 a 0.242,0.242 0 0 0 0.152,-0.09 c 0.1922,-0.2483 0.4894,-0.585 0.4568,-0.9 L 40.5006,40.0702 44,42.5"
               id="path105944" /><circle
               cx="35.4039"
               cy="10.6511"
               r="2.9690001"
               fill="#fcea2b"
               id="circle105946" /></g></g><g
           id="g105964"><g
             id="g105962"><g
               id="g105958"><circle
                 cx="35.4039"
                 cy="10.6511"
                 r="2.9690001"
                 fill="none"
                 stroke="#000000"
                 stroke-miterlimit="10"
                 stroke-width="2"
                 id="circle105952" /><path
                 fill="none"
                 stroke="#000000"
                 stroke-linecap="round"
                 stroke-linejoin="round"
                 stroke-width="2"
                 d="m 40.37,23.5891 1.9,38 c 0.055,1.1 -0.575,2 -1.4,2 a 2.076,2.076 0 0 1 -1.729,-1.987 l -2.542,-22.031 c -0.129,-1.093 -0.679,-1.987 -1.229,-1.987 -0.55,0 -1.103,0.894 -1.229,1.987 l -2.539,22.031 a 2.076,2.076 0 0 1 -1.729,1.987 c -0.825,0 -1.455,-0.9 -1.4,-2 l 1.9,-38"
                 id="path105954" /><path
                 fill="none"
                 stroke="#000000"
                 stroke-linecap="round"
                 stroke-linejoin="round"
                 stroke-width="2"
                 d="m 26.3729,41.5891 0.792,-19 a 5.274,5.274 0 0 1 5.208,-5 h 6"
                 id="path105956" /></g><path
               fill="none"
               stroke="#000000"
               stroke-linecap="round"
               stroke-linejoin="round"
               stroke-width="2"
               d="m 38.3,17.589 a 5.274,5.274 0 0 1 5.208,5 l 0.792,19"
               id="path105960" /></g></g></g><rect
         style="opacity:1;fill:#d7e3f4;fill-opacity:1;stroke:#b3b3b3;stroke-width:0.2;stroke-linecap:round;stroke-linejoin:round;stroke-dasharray:none;stroke-dashoffset:0;stroke-opacity:1;paint-order:markers fill stroke"
         id="rect105968"
         width="0.91101074"
         height="11.222862"
         x="274.34561"
         y="408.23813" /><rect
         style="fill:#cccccc;fill-opacity:1;stroke:#808080;stroke-width:0.2;stroke-linecap:round;stroke-linejoin:round;stroke-dasharray:none;stroke-dashoffset:0;stroke-opacity:1;paint-order:markers fill stroke"
         id="rect105982"
         width="18.506508"
         height="1.4066277"
         x="274.34561"
         y="406.83148" /><path
         style="fill:none;stroke:#d7e3f4;stroke-width:0.264583px;stroke-linecap:butt;stroke-linejoin:miter;stroke-opacity:1"
         d="m 263.67172,409.5871 c 0,0 2.58936,1.60541 4.04808,1.93633 1.04028,0.236 2.42082,0.6978 3.40633,0.28959 1.01111,-0.41882 2.12217,-1.5168 2.11542,-2.6112 -0.006,-1.00633 -1.15461,-2.11196 -2.16095,-2.10829 -0.89685,0.003 -1.90982,0.99604 -1.91208,1.89289 -0.002,0.71187 0.79825,1.51011 1.51012,1.51011 0.53595,0 1.13693,-0.60096 1.13693,-1.13691 1e-5,-0.3432 -0.72803,-0.72806 -0.72803,-0.72806"
         id="path105984"
         sodipodi:nodetypes="csssssssc" /><path
         style="fill:none;stroke:#d7e3f4;stroke-width:0.178902px;stroke-linecap:butt;stroke-linejoin:miter;stroke-opacity:1"
         d="m 266.18323,413.27949 c 0,0 1.97213,-0.59539 2.98277,-0.55624 0.72073,0.0279 1.70322,-0.0321 2.27544,0.40699 0.58709,0.45049 1.1206,1.36205 0.92467,2.07565 -0.18003,0.65621 -1.12371,1.17732 -1.78034,0.99881 -0.58523,-0.15892 -1.07304,-0.98477 -0.91756,-1.57093 0.12327,-0.46529 0.78563,-0.84659 1.25058,-0.72201 0.35004,0.0938 0.63738,0.59147 0.54359,0.94152 -0.0601,0.22415 -0.60291,0.3481 -0.60291,0.3481"
         id="path105986"
         sodipodi:nodetypes="csssssssc" /><g
         id="g106004"
         transform="matrix(0.07826838,0,0,0.07826838,267.73859,399.44323)"><g
           id="g105990"><polygon
             fill="#fcea2b"
             stroke="none"
             points="21.8576,50.1418 10.0177,51.0056 16.6764,41.1813 6,36 16.6765,30.8184 10.0181,20.9937 21.8582,21.8576 20.9944,10.0177 30.8187,16.6764 36,6 41.1816,16.6765 51.0063,10.0181 50.1424,21.8582 61.9823,20.9944 55.3236,30.8187 66,36 55.3235,41.1816 61.9819,51.0063 50.1418,50.1424 51.0056,61.9823 41.1813,55.3236 36,66 30.8184,55.3235 20.9937,61.9819 "
             id="polygon105988" /></g><g
           id="g105992" /><g
           id="g105994" /><g
           id="g105996" /><g
           id="g106002"><circle
             cx="36"
             cy="35.950001"
             r="19.8276"
             fill="none"
             stroke="#000000"
             stroke-linecap="round"
             stroke-linejoin="round"
             stroke-miterlimit="10"
             stroke-width="2"
             id="circle105998" /><polygon
             fill="none"
             stroke="#000000"
             stroke-linecap="round"
             stroke-linejoin="round"
             stroke-miterlimit="10"
             stroke-width="2"
             points="21.8576,50.1418 10.0177,51.0056 16.6764,41.1813 6,36 16.6765,30.8184 10.0181,20.9937 21.8582,21.8576 20.9944,10.0177 30.8187,16.6764 36,6 41.1816,16.6765 51.0063,10.0181 50.1424,21.8582 61.9823,20.9944 55.3236,30.8187 66,36 55.3235,41.1816 61.9819,51.0063 50.1418,50.1424 51.0056,61.9823 41.1813,55.3236 36,66 30.8184,55.3235 20.9937,61.9819 "
             id="polygon106000" /></g></g><g
         id="g106155"><rect
           style="fill:#d7e3f4;fill-opacity:1;stroke:#b3b3b3;stroke-width:0.2;stroke-linecap:round;stroke-linejoin:round;stroke-dasharray:none;stroke-dashoffset:0;stroke-opacity:1;paint-order:markers fill stroke"
           id="rect105974"
           width="0.80453491"
           height="11.222862"
           x="291.84109"
           y="408.23813" /><path
           style="fill:#5f8dd3;stroke:#0b1728;stroke-width:0.187355px;stroke-linecap:butt;stroke-linejoin:miter;stroke-opacity:1"
           d="m 293.00181,416.70415 c -0.54348,0.34385 -1.53239,0.65704 -1.00928,1.20627 0.52311,0.54923 0.83693,-0.24617 1.00928,-1.20627 z"
           id="path105970"
           sodipodi:nodetypes="czc" /><path
           style="fill:#5f8dd3;stroke:#0b1728;stroke-width:0.264583px;stroke-linecap:butt;stroke-linejoin:miter;stroke-opacity:1"
           d="m 293.98272,408.6278 c -0.76751,0.48559 -2.16405,0.92788 -1.42531,1.7035 0.73874,0.77562 1.18192,-0.34765 1.42531,-1.7035 z"
           id="path105972"
           sodipodi:nodetypes="czc" /><path
           style="fill:#5f8dd3;stroke:#0b1728;stroke-width:0.264583px;stroke-linecap:butt;stroke-linejoin:miter;stroke-opacity:1"
           d="m 296.01285,410.61933 c -0.76751,0.48559 -2.16405,0.92788 -1.42531,1.7035 0.73874,0.77562 1.18192,-0.34765 1.42531,-1.7035 z"
           id="path105976"
           sodipodi:nodetypes="czc" /><path
           style="fill:#5f8dd3;stroke:#0b1728;stroke-width:0.264583px;stroke-linecap:butt;stroke-linejoin:miter;stroke-opacity:1"
           d="m 294.61793,413.18016 c -0.76751,0.48559 -2.16405,0.92788 -1.42531,1.7035 0.73874,0.77562 1.18192,-0.34765 1.42531,-1.7035 z"
           id="path105978"
           sodipodi:nodetypes="czc" /><path
           style="fill:#5f8dd3;stroke:#0b1728;stroke-width:0.264583px;stroke-linecap:butt;stroke-linejoin:miter;stroke-opacity:1"
           d="m 296.44423,415.74099 c -0.76751,0.48559 -2.16405,0.92788 -1.42531,1.7035 0.73874,0.77562 1.18192,-0.34765 1.42531,-1.7035 z"
           id="path105980"
           sodipodi:nodetypes="czc" /><path
           style="fill:none;stroke:#d7e3f4;stroke-width:0.15;stroke-linecap:butt;stroke-linejoin:miter;stroke-dasharray:none;stroke-opacity:1"
           d="m 284.11744,409.18534 c 0,0 0.94988,-0.28677 1.43666,-0.26792 0.34715,0.0134 0.82037,-0.0155 1.09598,0.19603 0.28277,0.21698 0.53974,0.65604 0.44537,0.99975 -0.0867,0.31606 -0.54124,0.56706 -0.85751,0.48108 -0.28188,-0.0765 -0.51683,-0.47432 -0.44194,-0.75665 0.0594,-0.22411 0.3784,-0.40776 0.60234,-0.34776 0.1686,0.0452 0.307,0.28489 0.26183,0.45349 -0.029,0.10796 -0.2904,0.16766 -0.2904,0.16766"
           id="path106006"
           sodipodi:nodetypes="csssssssc" /><path
           style="fill:none;stroke:#d7e3f4;stroke-width:0.15;stroke-linecap:butt;stroke-linejoin:miter;stroke-dasharray:none;stroke-opacity:1"
           d="m 287.29556,415.63033 c 0,0 0.94988,0.28677 1.43666,0.26792 0.34715,-0.0134 0.82037,0.0155 1.09598,-0.19603 0.28277,-0.21698 0.53974,-0.65604 0.44537,-0.99975 -0.0867,-0.31606 -0.54124,-0.56706 -0.85751,-0.48108 -0.28188,0.0765 -0.51683,0.47432 -0.44194,0.75665 0.0594,0.22411 0.3784,0.40776 0.60234,0.34776 0.1686,-0.0452 0.307,-0.28489 0.26183,-0.45349 -0.029,-0.10796 -0.2904,-0.16766 -0.2904,-0.16766"
           id="path106008"
           sodipodi:nodetypes="csssssssc" /><path
           style="fill:#5f8dd3;stroke:#0b1728;stroke-width:0.16839px;stroke-linecap:butt;stroke-linejoin:miter;stroke-opacity:1"
           d="m 290.87228,416.18294 c -0.48847,0.30904 -1.37728,0.59053 -0.90712,1.08416 0.47016,0.49363 0.75222,-0.22125 0.90712,-1.08416 z"
           id="path106010"
           sodipodi:nodetypes="czc" /><path
           style="fill:#5f8dd3;stroke:#0b1728;stroke-width:0.16333px;stroke-linecap:butt;stroke-linejoin:miter;stroke-opacity:1"
           d="m 292.5021,411.55081 c -0.4738,0.29976 -1.3359,0.5728 -0.87986,1.05159 0.45603,0.4788 0.72961,-0.2146 0.87986,-1.05159 z"
           id="path106012"
           sodipodi:nodetypes="czc" /><path
           style="fill:#5f8dd3;stroke:#0b1728;stroke-width:0.16333px;stroke-linecap:butt;stroke-linejoin:miter;stroke-opacity:1"
           d="m 292.13019,413.48983 c -0.4738,0.29976 -1.3359,0.5728 -0.87986,1.05159 0.45603,0.4788 0.72961,-0.2146 0.87986,-1.05159 z"
           id="path106014"
           sodipodi:nodetypes="czc" /></g></g></g><style
     type="text/css"
     id="style3760">
	.st0{fill-rule:evenodd;clip-rule:evenodd;fill:#388344;}
	.st1{fill-rule:evenodd;clip-rule:evenodd;fill:#1F1D21;}
</style><style
     type="text/css"
     id="style3760-5">
	.st0{fill-rule:evenodd;clip-rule:evenodd;fill:#388344;}
	.st1{fill-rule:evenodd;clip-rule:evenodd;fill:#1F1D21;}
</style><style
     type="text/css"
     id="style3760-9">
	.st0{fill-rule:evenodd;clip-rule:evenodd;fill:#388344;}
	.st1{fill-rule:evenodd;clip-rule:evenodd;fill:#1F1D21;}
</style><style
     type="text/css"
     id="style3760-7">
	.st0{fill-rule:evenodd;clip-rule:evenodd;fill:#388344;}
	.st1{fill-rule:evenodd;clip-rule:evenodd;fill:#1F1D21;}
</style></svg>
