<?xml version="1.0" encoding="UTF-8" standalone="no"?>
<!-- Created with Inkscape (http://www.inkscape.org/) -->

<svg
   width="32.298218mm"
   height="21.754089mm"
   viewBox="0 0 32.298218 21.754089"
   version="1.1"
   id="svg336"
   xml:space="preserve"
   inkscape:version="1.2.2 (b0a8486541, 2022-12-01)"
   sodipodi:docname="instructions.svg"
   inkscape:export-filename="instructions.svg"
   inkscape:export-xdpi="300.34"
   inkscape:export-ydpi="300.34"
   xmlns:inkscape="http://www.inkscape.org/namespaces/inkscape"
   xmlns:sodipodi="http://sodipodi.sourceforge.net/DTD/sodipodi-0.dtd"
   xmlns="http://www.w3.org/2000/svg"
   xmlns:svg="http://www.w3.org/2000/svg"><sodipodi:namedview
     id="namedview338"
     pagecolor="#ffffff"
     bordercolor="#999999"
     borderopacity="1"
     inkscape:showpageshadow="0"
     inkscape:pageopacity="0"
     inkscape:pagecheckerboard="0"
     inkscape:deskcolor="#d1d1d1"
     inkscape:document-units="mm"
     showgrid="false"
     inkscape:zoom="1.5341659"
     inkscape:cx="2054.2107"
     inkscape:cy="1731.2339"
     inkscape:window-width="1920"
     inkscape:window-height="1131"
     inkscape:window-x="1920"
     inkscape:window-y="32"
     inkscape:window-maximized="1"
     inkscape:current-layer="layer1"
     inkscape:lockguides="true" /><defs
     id="defs333" /><g
     inkscape:label="Layer 1"
     inkscape:groupmode="layer"
     id="layer1"
     transform="translate(-608.64815,-447.54225)"><g
       id="g175812"><rect
         style="fill:#000000;fill-opacity:1;stroke:none;stroke-width:0.447628;stroke-linecap:round;stroke-linejoin:round;stroke-dasharray:none;stroke-dashoffset:0;stroke-opacity:1;paint-order:markers fill stroke"
         id="rect171190"
         width="31.796934"
         height="21.503433"
         x="608.89874"
         y="447.54227"
         inkscape:export-filename="./lightownshelter.svg"
         inkscape:export-xdpi="300.34"
         inkscape:export-ydpi="300.34" /><rect
         style="fill:#000000;fill-opacity:1;stroke:#1a1a1a;stroke-width:0.501281;stroke-linecap:round;stroke-linejoin:round;stroke-dasharray:none;stroke-dashoffset:0;stroke-opacity:1;paint-order:markers fill stroke"
         id="rect171192"
         width="31.796947"
         height="2.7373946"
         x="608.89874"
         y="466.30832" /><rect
         style="fill:#0d0d0d;fill-opacity:1;stroke:#000000;stroke-width:0.248589;stroke-linecap:round;stroke-linejoin:round;stroke-dasharray:none;stroke-dashoffset:0;stroke-opacity:1;paint-order:markers fill stroke"
         id="rect171194"
         width="1.1323364"
         height="13.949402"
         x="613.35809"
         y="453.51987" /><rect
         style="fill:#0d0d0d;fill-opacity:1;stroke:#000000;stroke-width:0.248589;stroke-linecap:round;stroke-linejoin:round;stroke-dasharray:none;stroke-dashoffset:0;stroke-opacity:1;paint-order:markers fill stroke"
         id="rect171196"
         width="0.99999273"
         height="13.949402"
         x="635.104"
         y="453.51987" /><path
         style="fill:#0e0e0e;fill-opacity:1;stroke:#000000;stroke-width:0.372884;stroke-linecap:round;stroke-linejoin:miter;stroke-dasharray:none;stroke-opacity:1"
         d="m 619.09361,466.9549 v -2.69427 c 0,-0.40415 0.26942,-0.67355 0.67357,-0.67355 h 10.06015 c 0.40413,0 0.67356,0.26942 0.67356,0.67355 v 2.69427"
         id="path171198"
         sodipodi:nodetypes="cccccc" /><rect
         style="fill:#000000;fill-opacity:1;stroke:#0d0d0d;stroke-width:0.249;stroke-linecap:round;stroke-linejoin:round;stroke-dasharray:none;stroke-dashoffset:0;stroke-opacity:1;paint-order:markers fill stroke"
         id="rect171200"
         width="23.002573"
         height="1.748361"
         x="613.35809"
         y="451.77148" /><g
         id="g171226"
         transform="matrix(0.18280697,0,0,0.18280697,618.3375,455.66191)"><g
           id="g171202" /><g
           id="g171210"
           style="fill:#080808;fill-opacity:1"><g
             id="g171208"
             style="fill:#080808;fill-opacity:1"><path
               fill="#fcea2b"
               d="m 42.533,22.2881 a 4.3,4.3 0 0 0 -4.209,-4.1314 h -6 a 4.3,4.3 0 0 0 -4.209,4.1314 l -0.792,19.4393 a 1.0173,1.0173 0 0 1 -0.1209,0.4369 L 30.1357,40.07 29.4221,62.2033 a 1.2322,1.2322 0 0 0 0.25,0.8789 0.2412,0.2412 0 0 0 0.152,0.09 c 0.214,0 0.656,-0.4266 0.735,-1.1254 l 2.8986,-22.5033 a 4.9252,4.9252 0 0 1 0.4028,-1.1922 l 0.7246,-0.8052 H 36.21 l 0.984,0.6231 a 4.9259,4.9259 0 0 1 0.352,1.3413 l 2.542,22.5343 c 0.079,0.6978 0.522,1.1254 0.736,1.1254 a 0.242,0.242 0 0 0 0.152,-0.09 c 0.1922,-0.2483 0.4894,-0.585 0.4568,-0.9 L 40.5006,40.0702 44,42.5"
               id="path171204"
               style="fill:#080808;fill-opacity:1" /><circle
               cx="35.4039"
               cy="10.6511"
               r="2.9690001"
               fill="#fcea2b"
               id="circle171206"
               style="fill:#080808;fill-opacity:1;stroke-width:1.00106;stroke-dasharray:none" /></g></g><g
           id="g171224"><g
             id="g171222"><g
               id="g171218"><circle
                 cx="35.4039"
                 cy="10.6511"
                 r="2.9690001"
                 fill="none"
                 stroke="#000000"
                 stroke-miterlimit="10"
                 stroke-width="2"
                 id="circle171212" /><path
                 fill="none"
                 stroke="#000000"
                 stroke-linecap="round"
                 stroke-linejoin="round"
                 stroke-width="2"
                 d="m 40.37,23.5891 1.9,38 c 0.055,1.1 -0.575,2 -1.4,2 a 2.076,2.076 0 0 1 -1.729,-1.987 l -2.542,-22.031 c -0.129,-1.093 -0.679,-1.987 -1.229,-1.987 -0.55,0 -1.103,0.894 -1.229,1.987 l -2.539,22.031 a 2.076,2.076 0 0 1 -1.729,1.987 c -0.825,0 -1.455,-0.9 -1.4,-2 l 1.9,-38"
                 id="path171214" /><path
                 fill="none"
                 stroke="#000000"
                 stroke-linecap="round"
                 stroke-linejoin="round"
                 stroke-width="2"
                 d="m 26.3729,41.5891 0.792,-19 a 5.274,5.274 0 0 1 5.208,-5 h 6"
                 id="path171216" /></g><path
               fill="none"
               stroke="#000000"
               stroke-linecap="round"
               stroke-linejoin="round"
               stroke-width="2"
               d="m 38.3,17.589 a 5.274,5.274 0 0 1 5.208,5 l 0.792,19"
               id="path171220" /></g></g></g></g></g><style
     type="text/css"
     id="style3760">
	.st0{fill-rule:evenodd;clip-rule:evenodd;fill:#388344;}
	.st1{fill-rule:evenodd;clip-rule:evenodd;fill:#1F1D21;}
</style><style
     type="text/css"
     id="style3760-5">
	.st0{fill-rule:evenodd;clip-rule:evenodd;fill:#388344;}
	.st1{fill-rule:evenodd;clip-rule:evenodd;fill:#1F1D21;}
</style><style
     type="text/css"
     id="style3760-9">
	.st0{fill-rule:evenodd;clip-rule:evenodd;fill:#388344;}
	.st1{fill-rule:evenodd;clip-rule:evenodd;fill:#1F1D21;}
</style><style
     type="text/css"
     id="style3760-7">
	.st0{fill-rule:evenodd;clip-rule:evenodd;fill:#388344;}
	.st1{fill-rule:evenodd;clip-rule:evenodd;fill:#1F1D21;}
</style><style
     type="text/css"
     id="style3760-6">
	.st0{fill-rule:evenodd;clip-rule:evenodd;fill:#388344;}
	.st1{fill-rule:evenodd;clip-rule:evenodd;fill:#1F1D21;}
</style><style
     type="text/css"
     id="style3760-7-7">
	.st0{fill-rule:evenodd;clip-rule:evenodd;fill:#388344;}
	.st1{fill-rule:evenodd;clip-rule:evenodd;fill:#1F1D21;}
</style></svg>
