<?xml version="1.0" encoding="UTF-8" standalone="no"?>
<!-- Created with Inkscape (http://www.inkscape.org/) -->

<svg
   width="46.288086mm"
   height="17.724457mm"
   viewBox="0 0 46.288086 17.724457"
   version="1.1"
   id="svg336"
   xml:space="preserve"
   inkscape:version="1.2.2 (b0a8486541, 2022-12-01)"
   sodipodi:docname="instructions.svg"
   inkscape:export-filename="instructions.svg"
   inkscape:export-xdpi="300.34"
   inkscape:export-ydpi="300.34"
   xmlns:inkscape="http://www.inkscape.org/namespaces/inkscape"
   xmlns:sodipodi="http://sodipodi.sourceforge.net/DTD/sodipodi-0.dtd"
   xmlns:xlink="http://www.w3.org/1999/xlink"
   xmlns="http://www.w3.org/2000/svg"
   xmlns:svg="http://www.w3.org/2000/svg"><sodipodi:namedview
     id="namedview338"
     pagecolor="#ffffff"
     bordercolor="#999999"
     borderopacity="1"
     inkscape:showpageshadow="0"
     inkscape:pageopacity="0"
     inkscape:pagecheckerboard="0"
     inkscape:deskcolor="#d1d1d1"
     inkscape:document-units="mm"
     showgrid="false"
     inkscape:zoom="4.3392765"
     inkscape:cx="1249.1714"
     inkscape:cy="1577.2215"
     inkscape:window-width="1920"
     inkscape:window-height="1131"
     inkscape:window-x="1920"
     inkscape:window-y="32"
     inkscape:window-maximized="1"
     inkscape:current-layer="layer1"
     inkscape:lockguides="true" /><defs
     id="defs333"><linearGradient
       inkscape:collect="always"
       id="linearGradient653"><stop
         style="stop-color:#eae800;stop-opacity:1;"
         offset="0"
         id="stop649" /><stop
         style="stop-color:#edff78;stop-opacity:0.2133304;"
         offset="1"
         id="stop651" /></linearGradient><radialGradient
       inkscape:collect="always"
       xlink:href="#linearGradient653"
       id="radialGradient148328"
       gradientUnits="userSpaceOnUse"
       gradientTransform="matrix(0,8.0373029,-0.59548964,2.1460351e-6,431.80467,-585.94921)"
       cx="16.163664"
       cy="9.5981598"
       fx="16.163664"
       fy="9.5981598"
       r="2.6176522" /><radialGradient
       inkscape:collect="always"
       xlink:href="#linearGradient653"
       id="radialGradient148330"
       gradientUnits="userSpaceOnUse"
       gradientTransform="matrix(0,6.1077737,-0.23633373,1.6308327e-6,430.2389,-550.69238)"
       cx="16.163664"
       cy="9.5981598"
       fx="16.163664"
       fy="9.5981598"
       r="2.6176522" /><radialGradient
       inkscape:collect="always"
       xlink:href="#linearGradient653"
       id="radialGradient148332"
       gradientUnits="userSpaceOnUse"
       gradientTransform="matrix(0,4.2115793,-1.0128619,1.1245311e-6,607.89775,-259.90652)"
       cx="16.163664"
       cy="9.5981598"
       fx="16.163664"
       fy="9.5981598"
       r="2.6176522" /></defs><g
     inkscape:label="Layer 1"
     inkscape:groupmode="layer"
     id="layer1"
     transform="translate(-433.74058,-412.86202)"><rect
       style="opacity:1;fill:#1a1a1a;fill-opacity:1;stroke:none;stroke-width:0.387629;stroke-linecap:round;stroke-linejoin:round;stroke-dasharray:none;stroke-dashoffset:0;stroke-opacity:1;paint-order:markers fill stroke"
       id="rect148256"
       width="45.884789"
       height="17.300385"
       x="433.94223"
       y="412.862" /><ellipse
       style="opacity:1;fill:url(#radialGradient148332);fill-opacity:1;stroke:none;stroke-width:0.129021;stroke-linecap:round;stroke-linejoin:round;paint-order:markers fill stroke"
       id="ellipse148260"
       cx="598.05243"
       cy="-190.60574"
       rx="7.112721"
       ry="10.085707"
       transform="rotate(60)" /><rect
       style="fill:#808080;fill-opacity:1;stroke:#4d4d4d;stroke-width:0.403301;stroke-linecap:round;stroke-linejoin:round;stroke-dasharray:none;stroke-dashoffset:0;stroke-opacity:1;paint-order:markers fill stroke"
       id="rect148262"
       width="45.884796"
       height="2.2023315"
       x="433.94223"
       y="427.96005" /><rect
       style="opacity:1;fill:#d4aa00;fill-opacity:1;stroke:#aa8800;stroke-width:0.2;stroke-linecap:round;stroke-linejoin:round;stroke-dasharray:none;stroke-dashoffset:0;stroke-opacity:1;paint-order:markers fill stroke"
       id="rect148264"
       width="0.80453491"
       height="11.222862"
       x="445.69128"
       y="417.67123" /><ellipse
       style="opacity:1;fill:url(#radialGradient148330);fill-opacity:1;stroke:none;stroke-width:0.0750531;stroke-linecap:round;stroke-linejoin:round;paint-order:markers fill stroke"
       id="ellipse148266"
       cx="427.94162"
       cy="-450.19"
       rx="1.6596299"
       ry="14.626631"
       transform="rotate(90)" /><g
       id="g148298"
       transform="matrix(0.05960412,0,0,-0.05960412,471.33492,418.19755)"><g
         id="g148274"><path
           fill="#d0cfce"
           d="m 35.71,64.65 c 4.779,0 7.509,-2.244 8.156,-5.151 h -16.31 c 0.647,2.907 3.376,5.151 8.155,5.151 z"
           id="path148268" /><path
           fill="#fcea2b"
           d="m 45.5,10.41 c -4e-4,0 -12.23,-3.457 -18.2,1.269 -5.969,4.726 -7.651,15.6 -7.651,15.6 0.5848,2.213 4.226,8.493 4.226,8.493 0.54,0.9111 2.253,7.981 3.249,11.86 h 17.17 c 0.8662,-2.845 4.35,-13.65 4.805,-14.71 0.584,-1.363 1.58,-4.016 2.083,-5.017 1.21,-2.409 0.5378,-4.455 0.5378,-7.027 0,-5.487 -1.902,-7.726 -6.221,-10.47 z"
           id="path148270" /><path
           fill="#ffffff"
           d="m 35.71,7.202 c -8.532,0 -16.5,6.752 -16.5,15.28 0,1.079 -0.2641,4.491 1.217,4.491 0,0 2.393,-7.825 8.362,-12.55 5.969,-4.725 15.52,-3.725 15.52,-3.725 -0.6645,-2.045 -5.55,-3.499 -8.596,-3.499 z"
           id="path148272" /></g><g
         id="g148276" /><g
         id="g148278" /><g
         id="g148280" /><g
         id="g148296"><path
           fill="none"
           stroke="#000000"
           stroke-linecap="round"
           stroke-linejoin="round"
           stroke-miterlimit="10"
           stroke-width="2"
           d="m 52.55,23.75 c 0,3.985 -1.785,5.908 -3.754,10.5 -0.5028,1.172 -4.211,13.38 -4.211,13.38 h -17.17 c 0,0 -2.981,-11.67 -3.546,-12.62 C 21.499,31.012 19.45,28.1 19.45,23.75 19.45,14.609 26.86,7.2 36,7.2 c 9.141,0 16.55,7.41 16.55,16.55 z"
           id="path148282"
           style="stroke-width:2.16733;stroke-dasharray:none" /><line
           x1="36"
           x2="36"
           y1="47.220001"
           y2="35.279999"
           stroke="#000000"
           stroke-linecap="round"
           stroke-linejoin="round"
           stroke-miterlimit="10"
           stroke-width="2"
           id="line148284" /><line
           x1="41.970001"
           x2="30.030001"
           y1="35.279999"
           y2="35.279999"
           stroke="#000000"
           stroke-linecap="round"
           stroke-linejoin="round"
           stroke-miterlimit="10"
           stroke-width="2"
           id="line148286" /><path
           fill="none"
           stroke="#000000"
           stroke-linecap="round"
           stroke-linejoin="round"
           stroke-miterlimit="10"
           stroke-width="1.696"
           d="m 44.16,58.79 c 0,3.24 -3.651,5.867 -8.155,5.867 -4.504,0 -8.155,-2.627 -8.155,-5.867 z"
           id="path148288" /><line
           x1="27.99"
           x2="44.009998"
           y1="54.98"
           y2="51.509998"
           stroke="#000000"
           stroke-linecap="round"
           stroke-linejoin="round"
           stroke-miterlimit="10"
           stroke-width="1.965"
           id="line148290" /><line
           x1="38.200001"
           x2="43.98"
           y1="56.07"
           y2="54.889999"
           stroke="#000000"
           stroke-linecap="round"
           stroke-linejoin="round"
           stroke-miterlimit="10"
           stroke-width="2"
           id="line148292" /><line
           x1="28.02"
           x2="33.799999"
           y1="51.599998"
           y2="50.419998"
           stroke="#000000"
           stroke-linecap="round"
           stroke-linejoin="round"
           stroke-miterlimit="10"
           stroke-width="2"
           id="line148294" /></g></g><g
       id="g148324"
       transform="matrix(0.14707566,0,0,0.14707566,438.02281,419.39458)"><g
         id="g148300" /><g
         id="g148308"><g
           id="g148306"><path
             fill="#fcea2b"
             d="m 42.533,22.2881 a 4.3,4.3 0 0 0 -4.209,-4.1314 h -6 a 4.3,4.3 0 0 0 -4.209,4.1314 l -0.792,19.4393 a 1.0173,1.0173 0 0 1 -0.1209,0.4369 L 30.1357,40.07 29.4221,62.2033 a 1.2322,1.2322 0 0 0 0.25,0.8789 0.2412,0.2412 0 0 0 0.152,0.09 c 0.214,0 0.656,-0.4266 0.735,-1.1254 l 2.8986,-22.5033 a 4.9252,4.9252 0 0 1 0.4028,-1.1922 l 0.7246,-0.8052 H 36.21 l 0.984,0.6231 a 4.9259,4.9259 0 0 1 0.352,1.3413 l 2.542,22.5343 c 0.079,0.6978 0.522,1.1254 0.736,1.1254 a 0.242,0.242 0 0 0 0.152,-0.09 c 0.1922,-0.2483 0.4894,-0.585 0.4568,-0.9 L 40.5006,40.0702 44,42.5"
             id="path148302" /><circle
             cx="35.4039"
             cy="10.6511"
             r="2.9690001"
             fill="#fcea2b"
             id="circle148304" /></g></g><g
         id="g148322"><g
           id="g148320"><g
             id="g148316"><circle
               cx="35.4039"
               cy="10.6511"
               r="2.9690001"
               fill="none"
               stroke="#000000"
               stroke-miterlimit="10"
               stroke-width="2"
               id="circle148310" /><path
               fill="none"
               stroke="#000000"
               stroke-linecap="round"
               stroke-linejoin="round"
               stroke-width="2"
               d="m 40.37,23.5891 1.9,38 c 0.055,1.1 -0.575,2 -1.4,2 a 2.076,2.076 0 0 1 -1.729,-1.987 l -2.542,-22.031 c -0.129,-1.093 -0.679,-1.987 -1.229,-1.987 -0.55,0 -1.103,0.894 -1.229,1.987 l -2.539,22.031 a 2.076,2.076 0 0 1 -1.729,1.987 c -0.825,0 -1.455,-0.9 -1.4,-2 l 1.9,-38"
               id="path148312" /><path
               fill="none"
               stroke="#000000"
               stroke-linecap="round"
               stroke-linejoin="round"
               stroke-width="2"
               d="m 26.3729,41.5891 0.792,-19 a 5.274,5.274 0 0 1 5.208,-5 h 6"
               id="path148314" /></g><path
             fill="none"
             stroke="#000000"
             stroke-linecap="round"
             stroke-linejoin="round"
             stroke-width="2"
             d="m 38.3,17.589 a 5.274,5.274 0 0 1 5.208,5 l 0.792,19"
             id="path148318" /></g></g></g><ellipse
       style="opacity:0.3;fill:url(#radialGradient148328);fill-opacity:1;stroke:none;stroke-width:0.136666;stroke-linecap:round;stroke-linejoin:round;paint-order:markers fill stroke"
       id="ellipse148326"
       cx="426.01633"
       cy="-453.69684"
       rx="4.181766"
       ry="19.247383"
       transform="rotate(90)" /></g><style
     type="text/css"
     id="style3760">
	.st0{fill-rule:evenodd;clip-rule:evenodd;fill:#388344;}
	.st1{fill-rule:evenodd;clip-rule:evenodd;fill:#1F1D21;}
</style><style
     type="text/css"
     id="style3760-5">
	.st0{fill-rule:evenodd;clip-rule:evenodd;fill:#388344;}
	.st1{fill-rule:evenodd;clip-rule:evenodd;fill:#1F1D21;}
</style><style
     type="text/css"
     id="style3760-9">
	.st0{fill-rule:evenodd;clip-rule:evenodd;fill:#388344;}
	.st1{fill-rule:evenodd;clip-rule:evenodd;fill:#1F1D21;}
</style><style
     type="text/css"
     id="style3760-7">
	.st0{fill-rule:evenodd;clip-rule:evenodd;fill:#388344;}
	.st1{fill-rule:evenodd;clip-rule:evenodd;fill:#1F1D21;}
</style><style
     type="text/css"
     id="style3760-6">
	.st0{fill-rule:evenodd;clip-rule:evenodd;fill:#388344;}
	.st1{fill-rule:evenodd;clip-rule:evenodd;fill:#1F1D21;}
</style><style
     type="text/css"
     id="style3760-7-7">
	.st0{fill-rule:evenodd;clip-rule:evenodd;fill:#388344;}
	.st1{fill-rule:evenodd;clip-rule:evenodd;fill:#1F1D21;}
</style></svg>
