<?xml version="1.0" encoding="UTF-8" standalone="no"?>
<!-- Created with Inkscape (http://www.inkscape.org/) -->

<svg
   width="136.18317mm"
   height="84.581543mm"
   viewBox="0 0 136.18317 84.581543"
   version="1.1"
   id="svg336"
   xml:space="preserve"
   xmlns:inkscape="http://www.inkscape.org/namespaces/inkscape"
   xmlns:sodipodi="http://sodipodi.sourceforge.net/DTD/sodipodi-0.dtd"
   xmlns="http://www.w3.org/2000/svg"
   xmlns:svg="http://www.w3.org/2000/svg"><sodipodi:namedview
     id="namedview338"
     pagecolor="#ffffff"
     bordercolor="#999999"
     borderopacity="1"
     inkscape:showpageshadow="0"
     inkscape:pageopacity="0"
     inkscape:pagecheckerboard="0"
     inkscape:deskcolor="#d1d1d1"
     inkscape:document-units="mm"
     showgrid="false" /><defs
     id="defs333" /><g
     inkscape:label="Layer 1"
     inkscape:groupmode="layer"
     id="layer1"
     transform="translate(-722.64235,-366.36309)"><rect
       style="fill:#000000;fill-opacity:1;stroke:none;stroke-width:0.239459;stroke-linecap:round;stroke-linejoin:round;stroke-dasharray:none;stroke-dashoffset:0;stroke-opacity:1;paint-order:markers fill stroke"
       id="rect85731"
       width="136.18315"
       height="32.245861"
       x="722.64233"
       y="366.3631"
       ry="0"
       inkscape:export-filename="schedule-cmet.svg."
       inkscape:export-xdpi="300.34"
       inkscape:export-ydpi="300.34" /><rect
       style="fill:#0000ff;stroke:#000000;stroke-width:1.7843;stroke-linecap:round;stroke-linejoin:miter;stroke-dasharray:none;stroke-dashoffset:0;paint-order:markers fill stroke"
       id="rect85733"
       width="68.774857"
       height="26.192308"
       x="786.78284"
       y="369.05087"
       ry="12.583656" /><g
       aria-label="1001"
       id="text85737"
       style="font-size:25.1785px;line-height:1.25;font-family:'Noto Sans';-inkscape-font-specification:'Noto Sans';stroke-width:2.36048"><path
         d="m 804.02378,391.14832 h -3.80195 V 380.7496 q 0,-0.65465 0.0252,-1.71214 0.0503,-1.0575 0.0755,-1.86321 -0.12589,0.15107 -0.55393,0.55393 -0.40285,0.37767 -0.75535,0.67981 l -2.06464,1.66179 -1.83803,-2.29125 5.79106,-4.60766 h 3.12213 z"
         style="font-weight:bold;-inkscape-font-specification:'Noto Sans Bold'"
         id="path85954" /><path
         d="m 821.49767,382.15959 q 0,2.89553 -0.62946,4.96017 -0.60428,2.06463 -1.9891,3.17249 -1.35964,1.10785 -3.67606,1.10785 -3.24803,0 -4.75874,-2.44231 -1.51071,-2.4675 -1.51071,-6.7982 0,-2.9207 0.60428,-4.98534 0.60429,-2.06464 1.98911,-3.17249 1.38481,-1.10786 3.67606,-1.10786 3.22285,0 4.75873,2.44232 1.53589,2.44231 1.53589,6.82337 z m -8.78729,0 q 0,3.07178 0.52874,4.63285 0.52875,1.53588 1.96393,1.53588 1.40999,0 1.96392,-1.53588 0.55393,-1.53589 0.55393,-4.63285 0,-3.07178 -0.55393,-4.63284 -0.55393,-1.56107 -1.96392,-1.56107 -1.43518,0 -1.96393,1.56107 -0.52874,1.56106 -0.52874,4.63284 z"
         style="font-weight:bold;-inkscape-font-specification:'Noto Sans Bold'"
         id="path85956" /><path
         d="m 835.89979,382.15959 q 0,2.89553 -0.62947,4.96017 -0.60428,2.06463 -1.9891,3.17249 -1.35964,1.10785 -3.67606,1.10785 -3.24803,0 -4.75874,-2.44231 -1.51071,-2.4675 -1.51071,-6.7982 0,-2.9207 0.60429,-4.98534 0.60428,-2.06464 1.9891,-3.17249 1.38482,-1.10786 3.67606,-1.10786 3.22285,0 4.75874,2.44232 1.53589,2.44231 1.53589,6.82337 z m -8.7873,0 q 0,3.07178 0.52875,4.63285 0.52875,1.53588 1.96392,1.53588 1.41,0 1.96392,-1.53588 0.55393,-1.53589 0.55393,-4.63285 0,-3.07178 -0.55393,-4.63284 -0.55392,-1.56107 -1.96392,-1.56107 -1.43517,0 -1.96392,1.56107 -0.52875,1.56106 -0.52875,4.63284 z"
         style="font-weight:bold;-inkscape-font-specification:'Noto Sans Bold'"
         id="path85958" /><path
         d="m 847.23012,391.14832 h -3.80195 V 380.7496 q 0,-0.65465 0.0252,-1.71214 0.0503,-1.0575 0.0755,-1.86321 -0.12589,0.15107 -0.55392,0.55393 -0.40286,0.37767 -0.75536,0.67981 l -2.06464,1.66179 -1.83803,-2.29125 5.79106,-4.60766 h 3.12213 z"
         style="font-weight:bold;-inkscape-font-specification:'Noto Sans Bold'"
         id="path85960" /></g><g
       aria-label="Origem"
       id="text85743"
       style="font-weight:600;font-size:5.64444px;line-height:1.25;font-family:'Noto Sans';-inkscape-font-specification:'Noto Sans Semi-Bold';stroke-width:0.264583"><path
         d="m 745.88378,372.18107 q 0,0.62654 -0.20885,1.09502 -0.2032,0.46285 -0.62653,0.72249 -0.42333,0.25965 -1.06116,0.25965 -0.64346,0 -1.06679,-0.25965 -0.41769,-0.25964 -0.62654,-0.72813 -0.2032,-0.46849 -0.2032,-1.09502 0,-0.62089 0.2032,-1.08373 0.20885,-0.46849 0.62654,-0.72249 0.42333,-0.25965 1.07244,-0.25965 0.63782,0 1.05551,0.25965 0.42333,0.254 0.62653,0.72249 0.20885,0.46284 0.20885,1.08937 z m -3.03107,0 q 0,0.68298 0.27093,1.07245 0.27094,0.38946 0.8636,0.38946 0.59831,0 0.8636,-0.38946 0.27094,-0.38947 0.27094,-1.07245 0,-0.68297 -0.26529,-1.07244 -0.26529,-0.38947 -0.8636,-0.38947 -0.59267,0 -0.86925,0.38947 -0.27093,0.38947 -0.27093,1.07244 z"
         style="fill:#ffffff"
         id="path85872" /><path
         d="m 748.27702,371.08605 q 0.0734,0 0.15805,0.006 0.0903,0.006 0.1524,0.0226 l -0.0621,0.6604 q -0.0564,-0.0113 -0.13547,-0.0169 -0.079,-0.0113 -0.14111,-0.0113 -0.22578,0 -0.42333,0.096 -0.19756,0.0903 -0.32173,0.28786 -0.11854,0.19191 -0.11854,0.48542 v 1.58609 h -0.7112 v -3.05928 h 0.54751 l 0.1016,0.53057 h 0.0339 q 0.13547,-0.24271 0.37253,-0.41204 0.23707,-0.17498 0.54751,-0.17498 z"
         style="fill:#ffffff"
         id="path85874" /><path
         d="m 749.50751,369.96281 q 0.16369,0 0.27657,0.0847 0.11854,0.079 0.11854,0.28787 0,0.20884 -0.11854,0.29351 -0.11288,0.0847 -0.27657,0.0847 -0.16369,0 -0.28222,-0.0847 -0.11289,-0.0847 -0.11289,-0.29351 0,-0.20884 0.11289,-0.28787 0.11853,-0.0847 0.28222,-0.0847 z m 0.3556,1.17969 v 3.05928 h -0.7112 v -3.05928 z"
         style="fill:#ffffff"
         id="path85876" /><path
         d="m 751.79915,371.08605 q 0.58138,0 0.90876,0.45156 h 0.0282 l 0.0677,-0.39511 h 0.59267 v 3.08186 q 0,0.65476 -0.37253,0.99342 -0.36689,0.33867 -1.10067,0.33867 -0.32738,0 -0.60395,-0.0452 -0.27658,-0.0395 -0.52494,-0.14111 v -0.58702 q 0.52494,0.23707 1.17405,0.23707 0.34995,0 0.53057,-0.19756 0.18627,-0.19191 0.18627,-0.56444 v -0.079 q 0,-0.0847 0.006,-0.19755 0.006,-0.11289 0.0169,-0.18062 h -0.0226 q -0.15804,0.23706 -0.38947,0.34995 -0.22577,0.10725 -0.51364,0.10725 -0.5588,0 -0.87489,-0.41769 -0.31609,-0.41769 -0.31609,-1.16276 0,-0.74506 0.31609,-1.1684 0.32174,-0.42333 0.89182,-0.42333 z m 0.18627,0.58138 q -0.66604,0 -0.66604,1.02164 0,1.00471 0.67733,1.00471 0.37253,0 0.54751,-0.2032 0.18062,-0.20884 0.18062,-0.69991 v -0.10724 q 0,-0.54187 -0.18062,-0.77893 -0.17498,-0.23707 -0.5588,-0.23707 z"
         style="fill:#ffffff"
         id="path85878" /><path
         d="m 755.53577,371.08605 q 0.61524,0 0.97084,0.36689 0.36125,0.36689 0.36125,1.02164 v 0.36125 h -2.02071 q 0.0113,0.41769 0.23142,0.64911 0.22013,0.22578 0.6096,0.22578 0.29351,0 0.53058,-0.0564 0.23706,-0.0621 0.48542,-0.17498 v 0.57009 q -0.22578,0.10725 -0.46849,0.15805 -0.24271,0.0508 -0.58138,0.0508 -0.44591,0 -0.79586,-0.16934 -0.34431,-0.17497 -0.54187,-0.52493 -0.19191,-0.34995 -0.19191,-0.86924 0,-0.78458 0.38947,-1.19662 0.38946,-0.41205 1.02164,-0.41205 z m 0,0.52493 q -0.28787,0 -0.46849,0.18627 -0.17498,0.18062 -0.2032,0.54187 h 1.31516 q -0.006,-0.31609 -0.16369,-0.51929 -0.1524,-0.20885 -0.47978,-0.20885 z"
         style="fill:#ffffff"
         id="path85880" /><path
         d="m 761.0899,371.08605 q 0.51928,0 0.77893,0.26529 0.26529,0.26529 0.26529,0.85795 v 1.99249 h -0.7112 v -1.85702 q 0,-0.68298 -0.51929,-0.68298 -0.37253,0 -0.53058,0.24272 -0.15804,0.24271 -0.15804,0.70555 v 1.59173 h -0.7112 v -1.85702 q 0,-0.68298 -0.52493,-0.68298 -0.38947,0 -0.53623,0.27094 -0.14675,0.27093 -0.14675,0.77329 v 1.49577 h -0.7112 v -3.05928 h 0.54751 l 0.1016,0.40075 h 0.0395 q 0.13547,-0.23707 0.37818,-0.34431 0.24835,-0.11289 0.51364,-0.11289 0.34431,0 0.57573,0.11853 0.23707,0.11289 0.36125,0.3556 h 0.0564 q 0.14111,-0.24835 0.39511,-0.36124 0.254,-0.11289 0.53623,-0.11289 z"
         style="fill:#ffffff"
         id="path85882" /></g><rect
       style="fill:#ff0000;fill-opacity:1;stroke:none;stroke-width:0.499999;stroke-linecap:round;stroke-linejoin:round;stroke-dasharray:none;stroke-dashoffset:0;stroke-opacity:1;paint-order:markers fill stroke"
       id="rect85745"
       width="5"
       height="26.756004"
       x="730.35693"
       y="369.44446"
       ry="2.8257525" /><circle
       style="fill:#ffffff;fill-opacity:1;stroke:none;stroke-width:0.499999;stroke-linecap:round;stroke-linejoin:round;stroke-dasharray:none;stroke-dashoffset:0;stroke-opacity:1;paint-order:markers fill stroke"
       id="circle85747"
       cx="732.85693"
       cy="371.94446"
       r="2.5" /><circle
       style="fill:#ffffff;fill-opacity:1;stroke:none;stroke-width:0.499999;stroke-linecap:round;stroke-linejoin:round;stroke-dasharray:none;stroke-dashoffset:0;stroke-opacity:1;paint-order:markers fill stroke"
       id="circle85749"
       cx="732.85693"
       cy="393.70047"
       r="2.5" /><g
       id="g85755"
       transform="translate(18.184076,355.47428)"><path
         style="fill:none;stroke:#000000;stroke-width:0.4;stroke-linecap:butt;stroke-linejoin:miter;stroke-dasharray:none;stroke-opacity:1"
         d="m 713.55933,37.112651 2.22705,2.227046"
         id="path85751" /><path
         style="fill:none;stroke:#000000;stroke-width:0.4;stroke-linecap:butt;stroke-linejoin:miter;stroke-dasharray:none;stroke-opacity:1"
         d="m 715.78638,37.112649 -2.22705,2.22705"
         id="path85753" /></g><path
       style="fill:none;stroke:#000000;stroke-width:0.4;stroke-linecap:butt;stroke-linejoin:miter;stroke-dasharray:none;stroke-opacity:1"
       d="m 733.97044,371.36325 -1.1135,1.11353 -1.11353,-1.11353"
       id="path85757" /><g
       aria-label="Destino"
       id="text85763"
       style="font-weight:600;font-size:5.64444px;line-height:1.25;font-family:'Noto Sans';-inkscape-font-specification:'Noto Sans Semi-Bold';stroke-width:0.264583"><path
         d="m 745.57898,393.38485 q 0,1.02164 -0.57009,1.54093 -0.57009,0.51364 -1.59173,0.51364 h -1.13454 v -4.03013 h 1.25307 q 0.62089,0 1.07809,0.22578 0.46284,0.22578 0.7112,0.66604 0.254,0.43463 0.254,1.08374 z m -0.75636,0.0226 q 0,-0.72248 -0.33302,-1.06115 -0.32738,-0.33867 -0.95391,-0.33867 h -0.53058 v 2.82787 h 0.43462 q 1.38289,0 1.38289,-1.42805 z"
         style="fill:#ffffff"
         id="path85885" /><path
         d="m 747.59969,392.32369 q 0.61524,0 0.97084,0.36689 0.36124,0.36689 0.36124,1.02164 v 0.36125 h -2.02071 q 0.0113,0.41769 0.23143,0.64911 0.22013,0.22578 0.6096,0.22578 0.29351,0 0.53057,-0.0564 0.23707,-0.0621 0.48543,-0.17498 v 0.57009 q -0.22578,0.10725 -0.46849,0.15805 -0.24271,0.0508 -0.58138,0.0508 -0.44591,0 -0.79587,-0.16934 -0.34431,-0.17497 -0.54186,-0.52493 -0.19191,-0.34995 -0.19191,-0.86924 0,-0.78458 0.38946,-1.19662 0.38947,-0.41205 1.02165,-0.41205 z m 0,0.52493 q -0.28787,0 -0.46849,0.18627 -0.17498,0.18062 -0.2032,0.54187 h 1.31515 q -0.006,-0.31609 -0.16369,-0.51929 -0.1524,-0.20885 -0.47977,-0.20885 z"
         style="fill:#ffffff"
         id="path85887" /><path
         d="m 751.73141,394.55325 q 0,0.46284 -0.33302,0.70555 -0.32738,0.23707 -0.94262,0.23707 -0.32173,0 -0.55316,-0.0452 -0.22577,-0.0452 -0.44026,-0.14111 v -0.60395 q 0.22578,0.10724 0.49671,0.18062 0.27658,0.0734 0.51929,0.0734 0.29351,0 0.42333,-0.0903 0.12982,-0.0903 0.12982,-0.24271 0,-0.0903 -0.0508,-0.15804 -0.0508,-0.0734 -0.2032,-0.15805 -0.14675,-0.0847 -0.44026,-0.20884 -0.29351,-0.11289 -0.49107,-0.23142 -0.19191,-0.12418 -0.29351,-0.28787 -0.096,-0.16369 -0.096,-0.42333 0,-0.41205 0.32174,-0.62089 0.32737,-0.21449 0.86924,-0.21449 0.28222,0 0.53058,0.0564 0.254,0.0564 0.508,0.16933 l -0.22578,0.52493 q -0.21449,-0.0903 -0.41769,-0.1524 -0.2032,-0.0621 -0.41769,-0.0621 -0.46849,0 -0.46849,0.26529 0,0.096 0.0565,0.16369 0.0621,0.0677 0.20884,0.14676 0.1524,0.0734 0.42898,0.18062 0.27093,0.10724 0.46849,0.22578 0.19755,0.11288 0.3048,0.28222 0.10724,0.16933 0.10724,0.42898 z"
         style="fill:#ffffff"
         id="path85889" /><path
         d="m 753.59972,394.92578 q 0.12982,0 0.254,-0.0226 0.12982,-0.0282 0.23707,-0.0621 v 0.53058 q -0.11289,0.0508 -0.29351,0.0847 -0.18063,0.0395 -0.37818,0.0395 -0.25964,0 -0.47413,-0.0847 -0.21449,-0.0903 -0.33867,-0.3048 -0.12418,-0.21449 -0.12418,-0.59831 v -1.59173 h -0.41204 v -0.31045 l 0.45155,-0.24835 0.22578,-0.64911 h 0.44591 v 0.67169 h 0.86925 v 0.53622 h -0.86925 v 1.58609 q 0,0.21448 0.11289,0.32173 0.11289,0.1016 0.29351,0.1016 z"
         style="fill:#ffffff"
         id="path85891" /><path
         d="m 755.06163,391.20045 q 0.16369,0 0.27658,0.0847 0.11853,0.079 0.11853,0.28787 0,0.20885 -0.11853,0.29351 -0.11289,0.0847 -0.27658,0.0847 -0.16369,0 -0.28222,-0.0847 -0.11289,-0.0847 -0.11289,-0.29351 0,-0.20884 0.11289,-0.28787 0.11853,-0.0847 0.28222,-0.0847 z m 0.3556,1.17969 v 3.05928 h -0.7112 v -3.05928 z"
         style="fill:#ffffff"
         id="path85893" /><path
         d="m 757.96288,392.32369 q 0.51364,0 0.80151,0.26529 0.29351,0.26529 0.29351,0.85796 v 1.99248 h -0.7112 v -1.85137 q 0,-0.68863 -0.56444,-0.68863 -0.42898,0 -0.58703,0.27094 -0.15804,0.27093 -0.15804,0.77329 v 1.49577 h -0.7112 v -3.05928 h 0.54751 l 0.1016,0.40075 h 0.0395 q 0.14676,-0.23707 0.40076,-0.34431 0.25964,-0.11289 0.54751,-0.11289 z"
         style="fill:#ffffff"
         id="path85895" /><path
         d="m 762.68163,393.90413 q 0,0.762 -0.39511,1.17969 -0.39511,0.41205 -1.07244,0.41205 -0.41769,0 -0.74507,-0.18627 -0.32738,-0.18627 -0.51364,-0.54187 -0.18627,-0.3556 -0.18627,-0.8636 0,-0.76199 0.38947,-1.16839 0.39511,-0.41205 1.07244,-0.41205 0.42333,0 0.75071,0.18627 0.32738,0.18062 0.51365,0.53622 0.18626,0.34996 0.18626,0.85795 z m -2.1844,0 q 0,0.48543 0.16934,0.75072 0.17497,0.26528 0.5588,0.26528 0.38382,0 0.55315,-0.26528 0.17498,-0.26529 0.17498,-0.75072 0,-0.48542 -0.17498,-0.74506 -0.16933,-0.25965 -0.5588,-0.25965 -0.37818,0 -0.55315,0.25965 -0.16934,0.25964 -0.16934,0.74506 z"
         style="fill:#ffffff"
         id="path85897" /></g><rect
       style="fill:#ffffff;fill-opacity:1;stroke:none;stroke-width:0.195705;stroke-linecap:round;stroke-linejoin:round;stroke-dasharray:none;stroke-dashoffset:0;stroke-opacity:1;paint-order:markers fill stroke"
       id="rect85765"
       width="136.18309"
       height="52.335648"
       x="722.64233"
       y="398.60898" /><rect
       style="fill:#ff0000;fill-opacity:1;stroke:none;stroke-width:0.499999;stroke-linecap:round;stroke-linejoin:round;stroke-dasharray:none;stroke-dashoffset:0;stroke-opacity:1;paint-order:markers fill stroke"
       id="rect85767"
       width="5"
       height="35.327312"
       x="730.35693"
       y="408.68167"
       ry="2.5" /><circle
       style="fill:#000000;fill-opacity:1;stroke:none;stroke-width:0.499999;stroke-linecap:round;stroke-linejoin:round;stroke-dasharray:none;stroke-dashoffset:0;stroke-opacity:1;paint-order:markers fill stroke"
       id="circle85769"
       cx="732.85693"
       cy="410.84772"
       r="2.5" /><circle
       style="fill:#000000;fill-opacity:1;stroke:none;stroke-width:0.499999;stroke-linecap:round;stroke-linejoin:round;stroke-dasharray:none;stroke-dashoffset:0;stroke-opacity:1;paint-order:markers fill stroke"
       id="circle85771"
       cx="732.85693"
       cy="441.50897"
       r="2.5" /><g
       id="g85777"
       transform="translate(18.184081,403.28281)"
       style="stroke:#ffffff"><path
         style="fill:none;stroke:#ffffff;stroke-width:0.4;stroke-linecap:butt;stroke-linejoin:miter;stroke-dasharray:none;stroke-opacity:1"
         d="m 713.55933,37.112651 2.22705,2.227046"
         id="path85773" /><path
         style="fill:none;stroke:#ffffff;stroke-width:0.4;stroke-linecap:butt;stroke-linejoin:miter;stroke-dasharray:none;stroke-opacity:1"
         d="m 715.78638,37.112649 -2.22705,2.22705"
         id="path85775" /></g><path
       style="fill:none;stroke:#ffffff;stroke-width:0.4;stroke-linecap:butt;stroke-linejoin:miter;stroke-dasharray:none;stroke-opacity:1"
       d="m 733.97044,410.26653 -1.1135,1.11352 -1.11353,-1.11352"
       id="path85779" /><g
       aria-label="Origem"
       id="text85783"
       style="font-weight:600;font-size:5.64444px;line-height:1.25;font-family:'Noto Sans';-inkscape-font-specification:'Noto Sans Semi-Bold';stroke-width:0.264583"><path
         d="m 748.1411,411.08433 q 0,0.62653 -0.20884,1.09502 -0.2032,0.46285 -0.62654,0.72249 -0.42333,0.25965 -1.06115,0.25965 -0.64347,0 -1.0668,-0.25965 -0.41769,-0.25964 -0.62653,-0.72813 -0.2032,-0.46849 -0.2032,-1.09502 0,-0.62089 0.2032,-1.08374 0.20884,-0.46848 0.62653,-0.72248 0.42333,-0.25965 1.07244,-0.25965 0.63782,0 1.05551,0.25965 0.42334,0.254 0.62654,0.72248 0.20884,0.46285 0.20884,1.08938 z m -3.03106,0 q 0,0.68298 0.27093,1.07245 0.27093,0.38946 0.8636,0.38946 0.59831,0 0.8636,-0.38946 0.27093,-0.38947 0.27093,-1.07245 0,-0.68298 -0.26529,-1.07244 -0.26529,-0.38947 -0.8636,-0.38947 -0.59266,0 -0.86924,0.38947 -0.27093,0.38946 -0.27093,1.07244 z"
         id="path85900" /><path
         d="m 750.53435,409.98931 q 0.0734,0 0.15804,0.006 0.0903,0.006 0.1524,0.0226 l -0.0621,0.6604 q -0.0564,-0.0113 -0.13546,-0.0169 -0.079,-0.0113 -0.14111,-0.0113 -0.22578,0 -0.42334,0.096 -0.19755,0.0903 -0.32173,0.28786 -0.11853,0.19191 -0.11853,0.48542 v 1.58609 h -0.7112 v -3.05929 h 0.54751 l 0.1016,0.53058 h 0.0339 q 0.13547,-0.24271 0.37254,-0.41204 0.23706,-0.17498 0.54751,-0.17498 z"
         id="path85902" /><path
         d="m 751.76483,408.86607 q 0.16369,0 0.27658,0.0847 0.11853,0.079 0.11853,0.28787 0,0.20884 -0.11853,0.29351 -0.11289,0.0847 -0.27658,0.0847 -0.16369,0 -0.28222,-0.0847 -0.11289,-0.0847 -0.11289,-0.29351 0,-0.20884 0.11289,-0.28787 0.11853,-0.0847 0.28222,-0.0847 z m 0.3556,1.17968 v 3.05929 h -0.7112 v -3.05929 z"
         id="path85904" /><path
         d="m 754.05648,409.98931 q 0.58138,0 0.90875,0.45156 h 0.0282 l 0.0677,-0.39512 h 0.59266 v 3.08187 q 0,0.65475 -0.37253,0.99342 -0.36689,0.33867 -1.10066,0.33867 -0.32738,0 -0.60396,-0.0452 -0.27658,-0.0395 -0.52493,-0.14111 v -0.58702 q 0.52493,0.23707 1.17404,0.23707 0.34996,0 0.53058,-0.19756 0.18626,-0.19191 0.18626,-0.56444 v -0.079 q 0,-0.0847 0.006,-0.19755 0.006,-0.11289 0.0169,-0.18062 h -0.0226 q -0.15804,0.23706 -0.38946,0.34995 -0.22578,0.10725 -0.51365,0.10725 -0.5588,0 -0.87488,-0.41769 -0.31609,-0.41769 -0.31609,-1.16276 0,-0.74506 0.31609,-1.1684 0.32173,-0.42333 0.89182,-0.42333 z m 0.18626,0.58138 q -0.66604,0 -0.66604,1.02164 0,1.00471 0.67733,1.00471 0.37254,0 0.54751,-0.2032 0.18063,-0.20884 0.18063,-0.69991 v -0.10724 q 0,-0.54187 -0.18063,-0.77894 -0.17497,-0.23706 -0.5588,-0.23706 z"
         id="path85906" /><path
         d="m 757.79309,409.98931 q 0.61525,0 0.97085,0.36689 0.36124,0.36689 0.36124,1.02164 v 0.36125 h -2.02071 q 0.0113,0.41769 0.23142,0.64911 0.22014,0.22578 0.6096,0.22578 0.29352,0 0.53058,-0.0565 0.23707,-0.0621 0.48542,-0.17498 v 0.57009 q -0.22577,0.10725 -0.46849,0.15805 -0.24271,0.0508 -0.58137,0.0508 -0.44591,0 -0.79587,-0.16934 -0.34431,-0.17497 -0.54186,-0.52493 -0.19192,-0.34996 -0.19192,-0.86924 0,-0.78458 0.38947,-1.19663 0.38947,-0.41204 1.02164,-0.41204 z m 0,0.52493 q -0.28786,0 -0.46848,0.18627 -0.17498,0.18062 -0.2032,0.54187 h 1.31515 q -0.006,-0.31609 -0.16369,-0.51929 -0.1524,-0.20885 -0.47978,-0.20885 z"
         id="path85908" /><path
         d="m 763.34722,409.98931 q 0.51929,0 0.77893,0.26529 0.26529,0.26529 0.26529,0.85795 v 1.99249 h -0.7112 v -1.85702 q 0,-0.68298 -0.51929,-0.68298 -0.37253,0 -0.53057,0.24271 -0.15805,0.24272 -0.15805,0.70556 v 1.59173 h -0.7112 v -1.85702 q 0,-0.68298 -0.52493,-0.68298 -0.38947,0 -0.53622,0.27094 -0.14676,0.27093 -0.14676,0.77328 v 1.49578 h -0.7112 v -3.05929 h 0.54751 l 0.1016,0.40076 h 0.0395 q 0.13547,-0.23707 0.37818,-0.34431 0.24836,-0.11289 0.51365,-0.11289 0.34431,0 0.57573,0.11853 0.23707,0.11289 0.36124,0.3556 h 0.0565 q 0.14111,-0.24835 0.39511,-0.36124 0.254,-0.11289 0.53622,-0.11289 z"
         id="path85910" /></g><path
       style="fill:none;stroke:#000000;stroke-width:0.5;stroke-linecap:butt;stroke-linejoin:miter;stroke-dasharray:none;stroke-opacity:1"
       d="m 735.35693,410.84773 h 2.4525"
       id="path85785"
       sodipodi:nodetypes="cc" /><path
       style="fill:none;stroke:#000000;stroke-width:0.5;stroke-linecap:butt;stroke-linejoin:miter;stroke-dasharray:none;stroke-opacity:1"
       d="m 735.35693,422.56815 h 2.4525"
       id="path85787"
       sodipodi:nodetypes="cc" /><path
       style="fill:none;stroke:#000000;stroke-width:0.5;stroke-linecap:butt;stroke-linejoin:miter;stroke-dasharray:none;stroke-opacity:1"
       d="m 735.35693,432.03857 h 2.4525"
       id="path85789"
       sodipodi:nodetypes="cc" /><path
       style="fill:none;stroke:#000000;stroke-width:0.5;stroke-linecap:butt;stroke-linejoin:miter;stroke-dasharray:none;stroke-opacity:1"
       d="m 735.35693,441.50898 h 2.4525"
       id="path85791"
       sodipodi:nodetypes="cc" /><g
       aria-label="Destino"
       id="text85795"
       style="font-weight:600;font-size:5.64444px;line-height:1.25;font-family:'Noto Sans';-inkscape-font-specification:'Noto Sans Semi-Bold';stroke-width:0.264583"><path
         d="m 747.8363,441.67476 q 0,1.02165 -0.57009,1.54094 -0.57009,0.51364 -1.59173,0.51364 h -1.13453 v -4.03013 h 1.25306 q 0.62089,0 1.07809,0.22578 0.46285,0.22577 0.7112,0.66604 0.254,0.43462 0.254,1.08373 z m -0.75635,0.0226 q 0,-0.72249 -0.33303,-1.06115 -0.32737,-0.33867 -0.95391,-0.33867 h -0.53057 v 2.82786 h 0.43462 q 1.38289,0 1.38289,-1.42804 z"
         id="path85913" /><path
         d="m 749.85701,440.61361 q 0.61524,0 0.97084,0.36689 0.36125,0.36689 0.36125,1.02164 v 0.36125 h -2.02071 q 0.0113,0.41768 0.23142,0.64911 0.22013,0.22577 0.6096,0.22577 0.29351,0 0.53058,-0.0564 0.23706,-0.0621 0.48542,-0.17498 v 0.57009 q -0.22578,0.10724 -0.46849,0.15804 -0.24271,0.0508 -0.58138,0.0508 -0.44591,0 -0.79586,-0.16933 -0.34431,-0.17498 -0.54187,-0.52493 -0.19191,-0.34996 -0.19191,-0.86925 0,-0.78457 0.38947,-1.19662 0.38946,-0.41204 1.02164,-0.41204 z m 0,0.52493 q -0.28787,0 -0.46849,0.18627 -0.17498,0.18062 -0.2032,0.54186 h 1.31516 q -0.006,-0.31608 -0.16369,-0.51928 -0.1524,-0.20885 -0.47978,-0.20885 z"
         id="path85915" /><path
         d="m 753.98874,442.84316 q 0,0.46285 -0.33302,0.70556 -0.32738,0.23706 -0.94263,0.23706 -0.32173,0 -0.55315,-0.0451 -0.22578,-0.0452 -0.44027,-0.14111 v -0.60396 q 0.22578,0.10725 0.49671,0.18062 0.27658,0.0734 0.51929,0.0734 0.29351,0 0.42333,-0.0903 0.12983,-0.0903 0.12983,-0.24271 0,-0.0903 -0.0508,-0.15804 -0.0508,-0.0734 -0.2032,-0.15805 -0.14676,-0.0847 -0.44027,-0.20884 -0.29351,-0.11289 -0.49107,-0.23142 -0.19191,-0.12418 -0.29351,-0.28787 -0.096,-0.16369 -0.096,-0.42333 0,-0.41205 0.32173,-0.62089 0.32738,-0.21449 0.86924,-0.21449 0.28223,0 0.53058,0.0564 0.254,0.0564 0.508,0.16934 l -0.22578,0.52493 q -0.21448,-0.0903 -0.41768,-0.1524 -0.2032,-0.0621 -0.41769,-0.0621 -0.46849,0 -0.46849,0.26529 0,0.096 0.0564,0.16369 0.0621,0.0677 0.20885,0.14675 0.1524,0.0734 0.42897,0.18063 0.27094,0.10724 0.46849,0.22577 0.19756,0.11289 0.3048,0.28223 0.10725,0.16933 0.10725,0.42897 z"
         id="path85917" /><path
         d="m 755.85705,443.2157 q 0.12982,0 0.254,-0.0226 0.12982,-0.0282 0.23706,-0.0621 v 0.53058 q -0.11289,0.0508 -0.29351,0.0847 -0.18062,0.0395 -0.37818,0.0395 -0.25964,0 -0.47413,-0.0847 -0.21449,-0.0903 -0.33867,-0.3048 -0.12417,-0.21449 -0.12417,-0.59831 v -1.59174 h -0.41205 v -0.31044 l 0.45156,-0.24835 0.22578,-0.64912 h 0.44591 v 0.67169 h 0.86924 v 0.53622 h -0.86924 v 1.58609 q 0,0.21449 0.11288,0.32174 0.11289,0.1016 0.29352,0.1016 z"
         id="path85919" /><path
         d="m 757.31896,439.49037 q 0.16369,0 0.27657,0.0847 0.11854,0.079 0.11854,0.28787 0,0.20884 -0.11854,0.29351 -0.11288,0.0847 -0.27657,0.0847 -0.16369,0 -0.28223,-0.0847 -0.11288,-0.0847 -0.11288,-0.29351 0,-0.20885 0.11288,-0.28787 0.11854,-0.0847 0.28223,-0.0847 z m 0.3556,1.17968 v 3.05929 h -0.7112 v -3.05929 z"
         id="path85921" /><path
         d="m 760.2202,440.61361 q 0.51365,0 0.80151,0.26529 0.29351,0.26529 0.29351,0.85795 v 1.99249 h -0.7112 v -1.85138 q 0,-0.68862 -0.56444,-0.68862 -0.42898,0 -0.58702,0.27093 -0.15805,0.27094 -0.15805,0.77329 v 1.49578 h -0.7112 v -3.05929 h 0.54752 l 0.1016,0.40076 h 0.0395 q 0.14675,-0.23707 0.40075,-0.34431 0.25965,-0.11289 0.54751,-0.11289 z"
         id="path85923" /><path
         d="m 764.93896,442.19405 q 0,0.762 -0.39511,1.17969 -0.39512,0.41204 -1.07245,0.41204 -0.41769,0 -0.74506,-0.18626 -0.32738,-0.18627 -0.51365,-0.54187 -0.18627,-0.3556 -0.18627,-0.8636 0,-0.762 0.38947,-1.1684 0.39511,-0.41204 1.07244,-0.41204 0.42334,0 0.75072,0.18627 0.32737,0.18062 0.51364,0.53622 0.18627,0.34995 0.18627,0.85795 z m -2.1844,0 q 0,0.48542 0.16933,0.75071 0.17498,0.26529 0.5588,0.26529 0.38382,0 0.55316,-0.26529 0.17497,-0.26529 0.17497,-0.75071 0,-0.48542 -0.17497,-0.74506 -0.16934,-0.25965 -0.5588,-0.25965 -0.37818,0 -0.55316,0.25965 -0.16933,0.25964 -0.16933,0.74506 z"
         id="path85925" /></g><g
       aria-label="Local A"
       id="text85799"
       style="font-weight:600;font-size:4.23333px;line-height:1.25;font-family:'Noto Sans';-inkscape-font-specification:'Noto Sans Semi-Bold';stroke-width:0.264583"><path
         d="m 744.41718,423.76031 v -3.02259 h 0.4572 v 2.6289 h 1.29117 v 0.39369 z"
         style="font-weight:500;-inkscape-font-specification:'Noto Sans Medium'"
         id="path85928" /><path
         d="m 748.64627,422.61732 q 0,0.56726 -0.2921,0.8763 -0.2921,0.30903 -0.78739,0.30903 -0.30904,0 -0.55034,-0.1397 -0.23706,-0.1397 -0.37676,-0.40217 -0.13547,-0.2667 -0.13547,-0.64346 0,-0.56727 0.28787,-0.87207 0.28786,-0.30903 0.7874,-0.30903 0.31326,0 0.55033,0.1397 0.2413,0.13546 0.37676,0.39793 0.1397,0.26247 0.1397,0.64347 z m -1.68063,0 q 0,0.38523 0.14394,0.60113 0.14816,0.2159 0.46566,0.2159 0.3175,0 0.46143,-0.2159 0.14817,-0.2159 0.14817,-0.60113 0,-0.38947 -0.14817,-0.5969 -0.14816,-0.21167 -0.46566,-0.21167 -0.3175,0 -0.46143,0.21167 -0.14394,0.20743 -0.14394,0.5969 z"
         style="font-weight:500;-inkscape-font-specification:'Noto Sans Medium'"
         id="path85930" /><path
         d="m 750.13217,423.80265 q -0.47413,0 -0.762,-0.2794 -0.28787,-0.28363 -0.28787,-0.889 0,-0.42333 0.1397,-0.6858 0.1397,-0.26247 0.38524,-0.38523 0.24553,-0.127 0.5588,-0.127 0.1905,0 0.3556,0.0423 0.16933,0.0381 0.2794,0.0889 l -0.13547,0.36407 q -0.11853,-0.0466 -0.254,-0.0804 -0.13123,-0.0339 -0.24977,-0.0339 -0.61806,0 -0.61806,0.8128 0,0.38946 0.1524,0.59266 0.1524,0.2032 0.44873,0.2032 0.1905,0 0.33443,-0.0423 0.14817,-0.0423 0.27094,-0.11007 v 0.38947 q -0.12277,0.072 -0.2667,0.10583 -0.14394,0.0339 -0.35137,0.0339 z"
         style="font-weight:500;-inkscape-font-specification:'Noto Sans Medium'"
         id="path85932" /><path
         d="m 752.17263,421.43622 q 0.42757,0 0.63924,0.1905 0.2159,0.18626 0.2159,0.58843 v 1.54516 h -0.3175 l -0.0889,-0.31749 h -0.0169 q -0.14816,0.18626 -0.31326,0.27516 -0.16087,0.0847 -0.44874,0.0847 -0.30903,0 -0.51223,-0.1651 -0.2032,-0.16933 -0.2032,-0.52493 0,-0.34714 0.26247,-0.52917 0.26246,-0.18203 0.80856,-0.19897 l 0.38947,-0.0127 v -0.127 q 0,-0.24976 -0.1143,-0.35136 -0.1143,-0.10584 -0.32173,-0.10584 -0.17357,0 -0.33444,0.0508 -0.16086,0.0508 -0.30903,0.12277 l -0.14393,-0.32597 q 0.16086,-0.0847 0.3683,-0.1397 0.21166,-0.0593 0.44026,-0.0593 z m 0.10584,1.23613 q -0.38947,0.0169 -0.54187,0.13123 -0.14817,0.11007 -0.14817,0.31327 0,0.1778 0.10584,0.25823 0.10583,0.0804 0.27516,0.0804 0.26247,0 0.43604,-0.14817 0.1778,-0.14817 0.1778,-0.4445 v -0.19897 z"
         style="font-weight:500;-inkscape-font-specification:'Noto Sans Medium'"
         id="path85934" /><path
         d="m 754.16653,423.76031 h -0.44873 v -3.21733 h 0.44873 z"
         style="font-weight:500;-inkscape-font-specification:'Noto Sans Medium'"
         id="path85936" /><path
         d="m 757.90456,423.76031 -0.32173,-0.87206 h -1.1684 l -0.32174,0.87206 h -0.47413 l 1.14723,-3.03529 h 0.47414 l 1.143,3.03529 z m -0.75353,-2.12089 q -0.0127,-0.0466 -0.0466,-0.1397 -0.0296,-0.0931 -0.0593,-0.19474 -0.0296,-0.1016 -0.0466,-0.1651 -0.0339,0.13124 -0.0762,0.2794 -0.0423,0.14817 -0.0677,0.22014 l -0.3048,0.8509 h 0.90594 z"
         style="font-weight:500;-inkscape-font-specification:'Noto Sans Medium'"
         id="path85938" /></g><g
       aria-label="Local B"
       id="text85803"
       style="font-weight:600;font-size:4.23333px;line-height:1.25;font-family:'Noto Sans';-inkscape-font-specification:'Noto Sans Semi-Bold';stroke-width:0.264583"><path
         d="m 744.41718,433.23071 v -3.02259 h 0.4572 v 2.62889 h 1.29117 v 0.3937 z"
         style="font-weight:500;-inkscape-font-specification:'Noto Sans Medium'"
         id="path85941" /><path
         d="m 748.64627,432.08771 q 0,0.56727 -0.2921,0.8763 -0.2921,0.30904 -0.78739,0.30904 -0.30904,0 -0.55034,-0.1397 -0.23706,-0.1397 -0.37676,-0.40217 -0.13547,-0.2667 -0.13547,-0.64347 0,-0.56726 0.28787,-0.87206 0.28786,-0.30904 0.7874,-0.30904 0.31326,0 0.55033,0.1397 0.2413,0.13547 0.37676,0.39794 0.1397,0.26246 0.1397,0.64346 z m -1.68063,0 q 0,0.38524 0.14394,0.60114 0.14816,0.2159 0.46566,0.2159 0.3175,0 0.46143,-0.2159 0.14817,-0.2159 0.14817,-0.60114 0,-0.38946 -0.14817,-0.5969 -0.14816,-0.21166 -0.46566,-0.21166 -0.3175,0 -0.46143,0.21166 -0.14394,0.20744 -0.14394,0.5969 z"
         style="font-weight:500;-inkscape-font-specification:'Noto Sans Medium'"
         id="path85943" /><path
         d="m 750.13217,433.27305 q -0.47413,0 -0.762,-0.2794 -0.28787,-0.28364 -0.28787,-0.889 0,-0.42334 0.1397,-0.6858 0.1397,-0.26247 0.38524,-0.38524 0.24553,-0.127 0.5588,-0.127 0.1905,0 0.3556,0.0423 0.16933,0.0381 0.2794,0.0889 l -0.13547,0.36406 q -0.11853,-0.0466 -0.254,-0.0804 -0.13123,-0.0339 -0.24977,-0.0339 -0.61806,0 -0.61806,0.8128 0,0.38947 0.1524,0.59267 0.1524,0.2032 0.44873,0.2032 0.1905,0 0.33443,-0.0423 0.14817,-0.0423 0.27094,-0.11007 v 0.38947 q -0.12277,0.072 -0.2667,0.10583 -0.14394,0.0339 -0.35137,0.0339 z"
         style="font-weight:500;-inkscape-font-specification:'Noto Sans Medium'"
         id="path85945" /><path
         d="m 752.17263,430.90661 q 0.42757,0 0.63924,0.1905 0.2159,0.18627 0.2159,0.58844 v 1.54516 h -0.3175 l -0.0889,-0.3175 h -0.0169 q -0.14816,0.18627 -0.31326,0.27517 -0.16087,0.0847 -0.44874,0.0847 -0.30903,0 -0.51223,-0.1651 -0.2032,-0.16934 -0.2032,-0.52494 0,-0.34713 0.26247,-0.52916 0.26246,-0.18204 0.80856,-0.19897 l 0.38947,-0.0127 v -0.127 q 0,-0.24977 -0.1143,-0.35137 -0.1143,-0.10583 -0.32173,-0.10583 -0.17357,0 -0.33444,0.0508 -0.16086,0.0508 -0.30903,0.12277 l -0.14393,-0.32597 q 0.16086,-0.0847 0.3683,-0.1397 0.21166,-0.0593 0.44026,-0.0593 z m 0.10584,1.23614 q -0.38947,0.0169 -0.54187,0.13123 -0.14817,0.11007 -0.14817,0.31327 0,0.1778 0.10584,0.25823 0.10583,0.0804 0.27516,0.0804 0.26247,0 0.43604,-0.14816 0.1778,-0.14817 0.1778,-0.4445 v -0.19897 z"
         style="font-weight:500;-inkscape-font-specification:'Noto Sans Medium'"
         id="path85947" /><path
         d="m 754.16653,433.23071 h -0.44873 v -3.21733 h 0.44873 z"
         style="font-weight:500;-inkscape-font-specification:'Noto Sans Medium'"
         id="path85949" /><path
         d="m 756.90549,430.20812 q 0.57574,0 0.87207,0.16933 0.30057,0.16933 0.30057,0.5842 0,0.2667 -0.14394,0.4445 -0.1397,0.17356 -0.40216,0.22013 v 0.0212 q 0.1778,0.0296 0.32173,0.11006 0.14817,0.0804 0.23283,0.2286 0.0847,0.14394 0.0847,0.381 0,0.41064 -0.28787,0.63924 -0.28786,0.22436 -0.77893,0.22436 h -1.08373 v -3.02259 z m 0.0762,1.26153 q 0.3556,0 0.48684,-0.1143 0.13546,-0.1143 0.13546,-0.33867 0,-0.22437 -0.16086,-0.32173 -0.16087,-0.1016 -0.51224,-0.1016 h -0.45296 v 0.8763 z m -0.50376,0.37253 v 1.00753 h 0.55456 q 0.36407,0 0.508,-0.14393 0.14817,-0.14393 0.14817,-0.381 0,-0.2159 -0.1524,-0.34713 -0.14817,-0.13547 -0.5334,-0.13547 z"
         style="font-weight:500;-inkscape-font-specification:'Noto Sans Medium'"
         id="path85951" /></g><g
       aria-label="COD. 123456 / 01/02/2023"
       id="text85809"
       style="font-weight:600;font-size:4.23333px;line-height:1.25;font-family:'Noto Sans';-inkscape-font-specification:'Noto Sans Semi-Bold';stroke-width:0.264583"><path
         d="m 802.72086,402.67975 q -0.45297,0 -0.70697,0.31327 -0.254,0.30903 -0.254,0.8509 0,0.53763 0.23707,0.84666 0.23707,0.30904 0.71967,0.30904 0.19473,0 0.37253,-0.0339 0.18203,-0.0381 0.3683,-0.0974 v 0.3937 q -0.1778,0.0677 -0.36407,0.0974 -0.18203,0.0339 -0.4318,0.0339 -0.46566,0 -0.77046,-0.1905 -0.3048,-0.19474 -0.4572,-0.54187 -0.1524,-0.35137 -0.1524,-0.82127 0,-0.4572 0.1651,-0.80856 0.16933,-0.35137 0.49106,-0.5461 0.32174,-0.19897 0.7874,-0.19897 0.2286,0 0.4445,0.0508 0.22013,0.0466 0.40217,0.13547 l -0.16934,0.381 q -0.14816,-0.0677 -0.32173,-0.11854 -0.16933,-0.055 -0.35983,-0.055 z"
         style="font-weight:500;-inkscape-font-specification:'Noto Sans Medium'"
         id="path85963" /><path
         d="m 806.69172,403.83545 q 0,0.4699 -0.15664,0.82127 -0.15663,0.34713 -0.4699,0.54186 -0.31326,0.19474 -0.77893,0.19474 -0.47836,0 -0.79163,-0.19474 -0.31327,-0.19473 -0.46567,-0.5461 -0.1524,-0.35136 -0.1524,-0.82126 0,-0.46567 0.1524,-0.8128 0.15664,-0.34714 0.4699,-0.54187 0.31327,-0.19473 0.79164,-0.19473 0.46566,0 0.77469,0.19473 0.31327,0.1905 0.4699,0.54187 0.15664,0.34713 0.15664,0.81703 z m -2.33257,0 q 0,0.54187 0.22437,0.85513 0.22437,0.31327 0.70273,0.31327 0.4826,0 0.70273,-0.31327 0.22014,-0.31326 0.22014,-0.85513 0,-0.54187 -0.22014,-0.8509 -0.21589,-0.30903 -0.69849,-0.30903 -0.4826,0 -0.70697,0.30903 -0.22437,0.30903 -0.22437,0.8509 z"
         style="font-weight:500;-inkscape-font-specification:'Noto Sans Medium'"
         id="path85965" /><path
         d="m 809.79475,403.81005 q 0,0.76623 -0.42334,1.1557 -0.41909,0.38523 -1.17686,0.38523 h -0.84667 v -3.02259 h 0.93557 q 0.46143,0 0.8001,0.16933 0.33866,0.16933 0.52493,0.49953 0.18627,0.32597 0.18627,0.8128 z m -0.47837,0.0127 q 0,-0.5715 -0.2794,-0.8382 -0.27516,-0.27093 -0.78316,-0.27093 h -0.44874 v 2.25213 h 0.3683 q 1.143,0 1.143,-1.143 z"
         style="font-weight:500;-inkscape-font-specification:'Noto Sans Medium'"
         id="path85967" /><path
         d="m 810.16728,405.10122 q 0,-0.1651 0.0804,-0.23284 0.0847,-0.0677 0.20743,-0.0677 0.11854,0 0.2032,0.0677 0.0889,0.0677 0.0889,0.23284 0,0.1651 -0.0889,0.23706 -0.0847,0.072 -0.2032,0.072 -0.12276,0 -0.20743,-0.072 -0.0804,-0.072 -0.0804,-0.23706 z"
         style="font-weight:500;-inkscape-font-specification:'Noto Sans Medium'"
         id="path85969" /><path
         d="m 813.71058,405.35098 h -0.4445 v -2.0066 q 0,-0.15663 0.004,-0.28786 0.004,-0.13124 0.0127,-0.254 -0.055,0.055 -0.1143,0.11006 -0.0593,0.0508 -0.13547,0.1143 l -0.3302,0.2667 -0.2286,-0.28786 0.8636,-0.67733 h 0.37254 z"
         style="font-weight:500;-inkscape-font-specification:'Noto Sans Medium'"
         id="path85971" /><path
         d="m 816.78398,405.35098 h -2.032 v -0.34713 l 0.77893,-0.79163 q 0.2286,-0.23284 0.381,-0.40217 0.1524,-0.17357 0.2286,-0.3302 0.0762,-0.16087 0.0762,-0.34713 0,-0.2286 -0.13547,-0.34714 -0.13546,-0.11853 -0.35136,-0.11853 -0.20744,0 -0.37254,0.0762 -0.1651,0.0762 -0.3429,0.22013 l -0.24129,-0.30056 q 0.18203,-0.1524 0.41486,-0.26247 0.23283,-0.1143 0.55457,-0.1143 0.4318,0 0.67733,0.22014 0.24977,0.22013 0.24977,0.58843 0,0.2413 -0.0974,0.44873 -0.0974,0.2032 -0.27517,0.4064 -0.1778,0.2032 -0.4191,0.43603 l -0.56303,0.5461 v 0.0212 h 1.46897 z"
         style="font-weight:500;-inkscape-font-specification:'Noto Sans Medium'"
         id="path85973" /><path
         d="m 819.08691,403.02688 q 0,0.30904 -0.1778,0.49107 -0.17357,0.18203 -0.45297,0.2413 v 0.0169 q 0.35984,0.0423 0.54187,0.2286 0.18203,0.18204 0.18203,0.4826 0,0.26247 -0.127,0.4699 -0.12276,0.2032 -0.38523,0.32174 -0.25823,0.1143 -0.66463,0.1143 -0.2413,0 -0.44874,-0.0381 -0.20743,-0.0381 -0.39369,-0.127 v -0.4064 q 0.1905,0.0974 0.40639,0.14816 0.22014,0.0508 0.4191,0.0508 0.38524,0 0.55457,-0.14393 0.16933,-0.14817 0.16933,-0.41063 0,-0.254 -0.2032,-0.37254 -0.2032,-0.11853 -0.6096,-0.11853 h -0.27516 v -0.3683 h 0.2794 q 0.38523,0 0.5588,-0.14393 0.17356,-0.14394 0.17356,-0.37677 0,-0.2032 -0.13546,-0.31327 -0.13124,-0.1143 -0.381,-0.1143 -0.23284,0 -0.4064,0.072 -0.16934,0.072 -0.3175,0.17357 l -0.22013,-0.30904 q 0.1651,-0.12699 0.40216,-0.21589 0.2413,-0.0931 0.55457,-0.0931 0.4699,0 0.7112,0.20744 0.24553,0.20319 0.24553,0.53339 z"
         style="font-weight:500;-inkscape-font-specification:'Noto Sans Medium'"
         id="path85975" /><path
         d="m 821.74121,404.68212 h -0.4191 v 0.66886 h -0.43603 v -0.66886 h -1.40123 v -0.3556 l 1.39276,-2.01083 h 0.4445 v 1.98543 h 0.4191 z m -0.85513,-1.20227 q 0,-0.19897 0.008,-0.37253 0.008,-0.1778 0.0127,-0.29634 h -0.0169 q -0.0339,0.0847 -0.0847,0.17357 -0.0466,0.0889 -0.0974,0.15663 l -0.8001,1.15994 h 0.9779 z"
         style="font-weight:500;-inkscape-font-specification:'Noto Sans Medium'"
         id="path85977" /><path
         d="m 823.01544,403.47562 q 0.44874,0 0.7239,0.23283 0.27517,0.23283 0.27517,0.66463 0,0.47414 -0.30057,0.7493 -0.30056,0.27094 -0.8509,0.27094 -0.23706,0 -0.44449,-0.0423 -0.2032,-0.0423 -0.34714,-0.12276 v -0.41064 q 0.1524,0.0889 0.3683,0.14394 0.22014,0.055 0.4191,0.055 0.3175,0 0.508,-0.14393 0.1905,-0.14817 0.1905,-0.4572 0,-0.27517 -0.17357,-0.4191 -0.16933,-0.14817 -0.53763,-0.14817 -0.12277,0 -0.2667,0.0212 -0.14393,0.0212 -0.23283,0.0423 l -0.20743,-0.12277 0.1143,-1.46049 h 1.55363 v 0.39793 h -1.16417 l -0.0677,0.79163 q 0.072,-0.0127 0.18203,-0.0254 0.11007,-0.0169 0.25823,-0.0169 z"
         style="font-weight:500;-inkscape-font-specification:'Noto Sans Medium'"
         id="path85979" /><path
         d="m 824.45055,404.06405 q 0,-0.26247 0.0339,-0.51647 0.0381,-0.25823 0.127,-0.4826 0.0931,-0.2286 0.254,-0.40216 0.16087,-0.17357 0.4064,-0.27093 0.24977,-0.1016 0.60113,-0.1016 0.0889,0 0.19897,0.008 0.11007,0.008 0.18627,0.0254 v 0.37677 q -0.16087,-0.0508 -0.36407,-0.0508 -0.2921,0 -0.4826,0.0889 -0.1905,0.0889 -0.30056,0.24553 -0.11007,0.15663 -0.16087,0.36407 -0.0508,0.20743 -0.0635,0.4445 h 0.0254 q 0.0931,-0.1524 0.26247,-0.254 0.16933,-0.1016 0.43603,-0.1016 0.3937,0 0.63076,0.24553 0.2413,0.2413 0.2413,0.6858 0,0.47837 -0.2667,0.75353 -0.26246,0.27094 -0.71543,0.27094 -0.2921,0 -0.5334,-0.14394 -0.23706,-0.14393 -0.37676,-0.43603 -0.1397,-0.29633 -0.1397,-0.7493 z m 1.04563,0.95673 q 0.2413,0 0.3937,-0.15663 0.1524,-0.16087 0.1524,-0.4953 0,-0.2667 -0.13547,-0.42333 -0.13123,-0.15664 -0.39793,-0.15664 -0.18204,0 -0.3175,0.0762 -0.13547,0.0762 -0.21167,0.19474 -0.0762,0.11853 -0.0762,0.2413 0,0.17356 0.0677,0.33866 0.0677,0.1651 0.19896,0.27517 0.13124,0.10583 0.32597,0.10583 z"
         style="font-weight:500;-inkscape-font-specification:'Noto Sans Medium'"
         id="path85981" /><path
         d="m 829.35698,402.32839 -1.12607,3.02259 h -0.42756 l 1.12606,-3.02259 z"
         style="font-weight:500;-inkscape-font-specification:'Noto Sans Medium'"
         id="path85983" /><path
         d="m 832.72248,403.83545 q 0,0.49107 -0.10583,0.8382 -0.1016,0.34713 -0.32597,0.5334 -0.22437,0.18627 -0.59267,0.18627 -0.5207,0 -0.77046,-0.41064 -0.24554,-0.41486 -0.24554,-1.14723 0,-0.48683 0.0974,-0.83397 0.1016,-0.35136 0.32597,-0.53339 0.22436,-0.18627 0.59266,-0.18627 0.51647,0 0.77047,0.41063 0.254,0.4064 0.254,1.143 z m -1.59173,0 q 0,0.59267 0.127,0.889 0.127,0.2921 0.44026,0.2921 0.30904,0 0.44027,-0.2921 0.13123,-0.2921 0.13123,-0.889 0,-0.58843 -0.13123,-0.88053 -0.13123,-0.29634 -0.44027,-0.29634 -0.31326,0 -0.44026,0.29634 -0.127,0.2921 -0.127,0.88053 z"
         style="font-weight:500;-inkscape-font-specification:'Noto Sans Medium'"
         id="path85985" /><path
         d="m 834.48778,405.35098 h -0.4445 v -2.0066 q 0,-0.15663 0.004,-0.28786 0.004,-0.13124 0.0127,-0.254 -0.055,0.055 -0.1143,0.11006 -0.0593,0.0508 -0.13546,0.1143 l -0.3302,0.2667 -0.2286,-0.28786 0.8636,-0.67733 h 0.37253 z"
         style="font-weight:500;-inkscape-font-specification:'Noto Sans Medium'"
         id="path85987" /><path
         d="m 836.92618,402.32839 -1.12606,3.02259 h -0.42757 l 1.12607,-3.02259 z"
         style="font-weight:500;-inkscape-font-specification:'Noto Sans Medium'"
         id="path85989" /><path
         d="m 839.19102,403.83545 q 0,0.49107 -0.10584,0.8382 -0.1016,0.34713 -0.32596,0.5334 -0.22437,0.18627 -0.59267,0.18627 -0.5207,0 -0.77046,-0.41064 -0.24554,-0.41486 -0.24554,-1.14723 0,-0.48683 0.0974,-0.83397 0.1016,-0.35136 0.32597,-0.53339 0.22436,-0.18627 0.59266,-0.18627 0.51647,0 0.77047,0.41063 0.254,0.4064 0.254,1.143 z m -1.59173,0 q 0,0.59267 0.127,0.889 0.127,0.2921 0.44026,0.2921 0.30903,0 0.44027,-0.2921 0.13123,-0.2921 0.13123,-0.889 0,-0.58843 -0.13123,-0.88053 -0.13124,-0.29634 -0.44027,-0.29634 -0.31326,0 -0.44026,0.29634 -0.127,0.2921 -0.127,0.88053 z"
         style="font-weight:500;-inkscape-font-specification:'Noto Sans Medium'"
         id="path85991" /><path
         d="m 841.60825,405.35098 h -2.032 v -0.34713 l 0.77893,-0.79163 q 0.2286,-0.23284 0.381,-0.40217 0.1524,-0.17357 0.2286,-0.3302 0.0762,-0.16087 0.0762,-0.34713 0,-0.2286 -0.13547,-0.34714 -0.13546,-0.11853 -0.35136,-0.11853 -0.20744,0 -0.37254,0.0762 -0.1651,0.0762 -0.34289,0.22013 l -0.2413,-0.30056 q 0.18203,-0.1524 0.41486,-0.26247 0.23283,-0.1143 0.55457,-0.1143 0.4318,0 0.67733,0.22014 0.24977,0.22013 0.24977,0.58843 0,0.2413 -0.0974,0.44873 -0.0974,0.2032 -0.27517,0.4064 -0.1778,0.2032 -0.4191,0.43603 l -0.56303,0.5461 v 0.0212 h 1.46897 z"
         style="font-weight:500;-inkscape-font-specification:'Noto Sans Medium'"
         id="path85993" /><path
         d="m 843.39472,402.32839 -1.12607,3.02259 h -0.42756 l 1.12606,-3.02259 z"
         style="font-weight:500;-inkscape-font-specification:'Noto Sans Medium'"
         id="path85995" /><path
         d="m 845.65532,405.35098 h -2.032 v -0.34713 l 0.77893,-0.79163 q 0.2286,-0.23284 0.381,-0.40217 0.1524,-0.17357 0.2286,-0.3302 0.0762,-0.16087 0.0762,-0.34713 0,-0.2286 -0.13547,-0.34714 -0.13546,-0.11853 -0.35136,-0.11853 -0.20744,0 -0.37254,0.0762 -0.1651,0.0762 -0.3429,0.22013 l -0.2413,-0.30056 q 0.18204,-0.1524 0.41487,-0.26247 0.23283,-0.1143 0.55457,-0.1143 0.4318,0 0.67733,0.22014 0.24977,0.22013 0.24977,0.58843 0,0.2413 -0.0974,0.44873 -0.0974,0.2032 -0.27517,0.4064 -0.1778,0.2032 -0.4191,0.43603 l -0.56303,0.5461 v 0.0212 h 1.46897 z"
         style="font-weight:500;-inkscape-font-specification:'Noto Sans Medium'"
         id="path85997" /><path
         d="m 848.08102,403.83545 q 0,0.49107 -0.10584,0.8382 -0.1016,0.34713 -0.32596,0.5334 -0.22437,0.18627 -0.59267,0.18627 -0.5207,0 -0.77047,-0.41064 -0.24553,-0.41486 -0.24553,-1.14723 0,-0.48683 0.0974,-0.83397 0.1016,-0.35136 0.32596,-0.53339 0.22437,-0.18627 0.59267,-0.18627 0.51647,0 0.77047,0.41063 0.254,0.4064 0.254,1.143 z m -1.59174,0 q 0,0.59267 0.127,0.889 0.127,0.2921 0.44027,0.2921 0.30903,0 0.44027,-0.2921 0.13123,-0.2921 0.13123,-0.889 0,-0.58843 -0.13123,-0.88053 -0.13124,-0.29634 -0.44027,-0.29634 -0.31327,0 -0.44027,0.29634 -0.127,0.2921 -0.127,0.88053 z"
         style="font-weight:500;-inkscape-font-specification:'Noto Sans Medium'"
         id="path85999" /><path
         d="m 850.49825,405.35098 h -2.032 v -0.34713 l 0.77893,-0.79163 q 0.2286,-0.23284 0.381,-0.40217 0.1524,-0.17357 0.2286,-0.3302 0.0762,-0.16087 0.0762,-0.34713 0,-0.2286 -0.13546,-0.34714 -0.13547,-0.11853 -0.35137,-0.11853 -0.20743,0 -0.37253,0.0762 -0.1651,0.0762 -0.3429,0.22013 l -0.2413,-0.30056 q 0.18203,-0.1524 0.41486,-0.26247 0.23284,-0.1143 0.55457,-0.1143 0.4318,0 0.67733,0.22014 0.24977,0.22013 0.24977,0.58843 0,0.2413 -0.0974,0.44873 -0.0974,0.2032 -0.27516,0.4064 -0.1778,0.2032 -0.4191,0.43603 l -0.56304,0.5461 v 0.0212 h 1.46897 z"
         style="font-weight:500;-inkscape-font-specification:'Noto Sans Medium'"
         id="path86001" /><path
         d="m 852.80118,403.02688 q 0,0.30904 -0.1778,0.49107 -0.17356,0.18203 -0.45296,0.2413 v 0.0169 q 0.35983,0.0423 0.54186,0.2286 0.18204,0.18204 0.18204,0.4826 0,0.26247 -0.127,0.4699 -0.12277,0.2032 -0.38524,0.32174 -0.25823,0.1143 -0.66463,0.1143 -0.2413,0 -0.44873,-0.0381 -0.20743,-0.0381 -0.3937,-0.127 v -0.4064 q 0.1905,0.0974 0.4064,0.14816 0.22013,0.0508 0.4191,0.0508 0.38523,0 0.55456,-0.14393 0.16934,-0.14817 0.16934,-0.41063 0,-0.254 -0.2032,-0.37254 -0.2032,-0.11853 -0.6096,-0.11853 h -0.27517 v -0.3683 h 0.2794 q 0.38523,0 0.5588,-0.14393 0.17357,-0.14394 0.17357,-0.37677 0,-0.2032 -0.13547,-0.31327 -0.13123,-0.1143 -0.381,-0.1143 -0.23283,0 -0.4064,0.072 -0.16933,0.072 -0.3175,0.17357 l -0.22013,-0.30904 q 0.1651,-0.12699 0.40217,-0.21589 0.24129,-0.0931 0.55456,-0.0931 0.4699,0 0.7112,0.20744 0.24553,0.20319 0.24553,0.53339 z"
         style="font-weight:500;-inkscape-font-specification:'Noto Sans Medium'"
         id="path86003" /></g><g
       aria-label="..."
       id="text85813"
       style="font-size:50.8px;line-height:1.25;font-family:'Noto Sans';-inkscape-font-specification:'Noto Sans';stroke-width:0.264583"><path
         d="m 801.63166,439.06069 q 0,-1.8796 0.9144,-2.6416 0.9144,-0.762 2.1844,-0.762 1.3208,0 2.2352,0.762 0.9652,0.762 0.9652,2.6416 0,1.8288 -0.9652,2.6416 -0.9144,0.8128 -2.2352,0.8128 -1.27,0 -2.1844,-0.8128 -0.9144,-0.8128 -0.9144,-2.6416 z"
         id="path86078" /><path
         d="m 815.24604,439.06069 q 0,-1.8796 0.9144,-2.6416 0.9144,-0.762 2.1844,-0.762 1.3208,0 2.2352,0.762 0.9652,0.762 0.9652,2.6416 0,1.8288 -0.9652,2.6416 -0.9144,0.8128 -2.2352,0.8128 -1.27,0 -2.1844,-0.8128 -0.9144,-0.8128 -0.9144,-2.6416 z"
         id="path86080" /><path
         d="m 828.86042,439.06069 q 0,-1.8796 0.9144,-2.6416 0.9144,-0.762 2.1844,-0.762 1.3208,0 2.2352,0.762 0.9652,0.762 0.9652,2.6416 0,1.8288 -0.9652,2.6416 -0.9144,0.8128 -2.2352,0.8128 -1.27,0 -2.1844,-0.8128 -0.9144,-0.8128 -0.9144,-2.6416 z"
         id="path86082" /></g><rect
       style="fill:#000000;fill-opacity:1;stroke:none;stroke-width:0.499999;stroke-linecap:round;stroke-linejoin:round;stroke-dasharray:none;stroke-dashoffset:0;stroke-opacity:1;paint-order:markers fill stroke"
       id="rect85815"
       width="5.0000038"
       height="73.804489"
       x="421.45679"
       y="-852.89435"
       ry="2.8257525"
       transform="rotate(90)" /><g
       aria-label="Período Escolar"
       id="text85819"
       style="font-size:5.99722px;line-height:1.25;font-family:'Noto Sans';-inkscape-font-specification:'Noto Sans';stroke-width:0.264583"><path
         d="m 780.33373,410.74612 q 1.54129,0 1.54129,1.21144 0,0.61771 -0.40182,0.97155 -0.39581,0.34784 -1.22943,0.34784 h -0.62971 v 1.75119 h -0.34783 v -4.28202 z m -0.036,0.30586 h -0.68369 v 1.91911 h 0.59373 q 0.61771,0 0.95955,-0.2159 0.34784,-0.2159 0.34784,-0.77964 0,-0.47978 -0.29986,-0.70167 -0.29386,-0.2219 -0.91757,-0.2219 z"
         style="font-weight:300;-inkscape-font-specification:'Noto Sans Light'"
         id="path86006" /><path
         d="m 783.93806,411.77764 q 0.40782,0 0.67769,0.19191 0.27587,0.18592 0.41381,0.51577 0.14393,0.32984 0.14393,0.75565 v 0.23389 h -2.27894 q 0,0.6357 0.29386,0.97754 0.29986,0.33585 0.85161,0.33585 0.29386,0 0.51576,-0.048 0.2219,-0.054 0.48577,-0.16792 v 0.31185 q -0.23989,0.10795 -0.47378,0.15593 -0.23389,0.048 -0.53975,0.048 -0.71966,0 -1.10349,-0.4378 -0.38382,-0.43779 -0.38382,-1.19344 0,-0.48578 0.16193,-0.8636 0.16792,-0.37783 0.47977,-0.59373 0.31186,-0.2219 0.75565,-0.2219 z m -0.006,0.28787 q -0.4378,0 -0.71367,0.29386 -0.26988,0.29387 -0.31186,0.83362 h 1.91312 q 0,-0.50377 -0.2219,-0.81562 -0.2159,-0.31186 -0.66569,-0.31186 z"
         style="font-weight:300;-inkscape-font-specification:'Noto Sans Light'"
         id="path86008" /><path
         d="m 787.35048,411.78364 q 0.23389,0 0.4318,0.048 l -0.054,0.31785 q -0.19191,-0.054 -0.39582,-0.054 -0.4378,0 -0.69568,0.32385 -0.25788,0.32385 -0.25788,0.8576 v 1.75119 h -0.34184 v -3.19052 h 0.28787 l 0.036,0.59372 h 0.018 q 0.11995,-0.26987 0.36583,-0.45579 0.24589,-0.19191 0.60572,-0.19191 z"
         style="font-weight:300;-inkscape-font-specification:'Noto Sans Light'"
         id="path86010" /><path
         d="m 788.74183,415.02814 h -0.34184 v -3.19052 h 0.34184 z m 0.6477,-4.5459 q -0.09,0.12595 -0.23989,0.29387 -0.14393,0.16792 -0.31185,0.33584 -0.16792,0.16193 -0.31785,0.28187 h -0.23989 v -0.054 q 0.11394,-0.11395 0.24588,-0.27588 0.13194,-0.16192 0.25189,-0.32984 0.12594,-0.16792 0.2039,-0.29986 h 0.40781 z"
         style="font-weight:300;-inkscape-font-specification:'Noto Sans Light'"
         id="path86012" /><path
         d="m 792.4661,413.42688 q 0,0.50377 -0.16792,0.87559 -0.16192,0.37183 -0.48577,0.58173 -0.31785,0.20391 -0.77964,0.20391 -0.4438,0 -0.76165,-0.20391 -0.31785,-0.2039 -0.49177,-0.57573 -0.16792,-0.37782 -0.16792,-0.88159 0,-0.77364 0.38382,-1.21144 0.38382,-0.4378 1.06151,-0.4378 0.45579,0 0.76764,0.20991 0.31785,0.2039 0.47978,0.57573 0.16192,0.37183 0.16192,0.8636 z m -2.50084,0 q 0,0.61771 0.25788,0.99554 0.26388,0.37183 0.81563,0.37183 0.55774,0 0.81562,-0.37783 0.25788,-0.37782 0.25788,-0.98954 0,-0.39582 -0.10795,-0.70168 -0.10795,-0.30585 -0.34184,-0.47977 -0.23389,-0.17392 -0.61172,-0.17392 -0.53975,0 -0.81562,0.35983 -0.26988,0.35983 -0.26988,0.99554 z"
         style="font-weight:300;-inkscape-font-specification:'Noto Sans Light'"
         id="path86014" /><path
         d="m 794.48117,415.08811 q -0.6417,0 -0.98954,-0.40781 -0.34184,-0.41381 -0.34184,-1.21744 0,-0.82162 0.35983,-1.25342 0.35984,-0.4318 1.00154,-0.4318 0.40181,0 0.6477,0.17992 0.25188,0.17392 0.37782,0.4258 h 0.024 q -0.006,-0.13793 -0.018,-0.30586 -0.006,-0.17391 -0.006,-0.31785 v -1.2894 h 0.34184 v 4.55789 h -0.27587 l -0.048,-0.55774 h -0.018 q -0.12594,0.25788 -0.37782,0.43779 -0.25189,0.17992 -0.67769,0.17992 z m 0.042,-0.29386 q 0.55175,0 0.78564,-0.33585 0.23389,-0.33584 0.23389,-0.97155 v -0.054 q 0,-0.6597 -0.23389,-1.00754 -0.2279,-0.35383 -0.76165,-0.35383 -0.51576,0 -0.77964,0.36583 -0.26388,0.35983 -0.26388,1.03152 0,0.6477 0.25189,0.98954 0.25188,0.33585 0.76764,0.33585 z"
         style="font-weight:300;-inkscape-font-specification:'Noto Sans Light'"
         id="path86016" /><path
         d="m 799.59681,413.42688 q 0,0.50377 -0.16793,0.87559 -0.16192,0.37183 -0.48577,0.58173 -0.31785,0.20391 -0.77964,0.20391 -0.44379,0 -0.76165,-0.20391 -0.31785,-0.2039 -0.49177,-0.57573 -0.16792,-0.37782 -0.16792,-0.88159 0,-0.77364 0.38382,-1.21144 0.38382,-0.4378 1.06151,-0.4378 0.45579,0 0.76764,0.20991 0.31786,0.2039 0.47978,0.57573 0.16193,0.37183 0.16193,0.8636 z m -2.50084,0 q 0,0.61771 0.25788,0.99554 0.26387,0.37183 0.81562,0.37183 0.55774,0 0.81562,-0.37783 0.25788,-0.37782 0.25788,-0.98954 0,-0.39582 -0.10795,-0.70168 -0.10795,-0.30585 -0.34184,-0.47977 -0.23389,-0.17392 -0.61172,-0.17392 -0.53975,0 -0.81562,0.35983 -0.26987,0.35983 -0.26987,0.99554 z"
         style="font-weight:300;-inkscape-font-specification:'Noto Sans Light'"
         id="path86018" /><path
         d="m 804.44856,415.02814 h -2.35091 v -4.28202 h 2.35091 v 0.31186 h -2.00307 v 1.56527 h 1.88912 v 0.31186 h -1.88912 v 1.78117 h 2.00307 z"
         style="font-weight:300;-inkscape-font-specification:'Noto Sans Light'"
         id="path86020" /><path
         d="m 807.35121,414.18253 q 0,0.4318 -0.32385,0.67169 -0.32385,0.23389 -0.91158,0.23389 -0.33584,0 -0.59372,-0.06 -0.25788,-0.054 -0.4318,-0.14394 v -0.32984 q 0.2099,0.10795 0.47978,0.17991 0.26987,0.066 0.55174,0.066 0.46778,0 0.67769,-0.15592 0.2159,-0.16193 0.2159,-0.4378 0,-0.26388 -0.2219,-0.40182 -0.2219,-0.14393 -0.6537,-0.29386 -0.29986,-0.10195 -0.52775,-0.2039 -0.2219,-0.10795 -0.34784,-0.26988 -0.12594,-0.16192 -0.12594,-0.44379 0,-0.38383 0.31185,-0.59973 0.31186,-0.2159 0.83362,-0.2159 0.28786,0 0.53375,0.054 0.25188,0.054 0.46178,0.14393 l -0.12594,0.28187 q -0.18591,-0.078 -0.4198,-0.13194 -0.23389,-0.06 -0.46779,-0.06 -0.37782,0 -0.58772,0.13194 -0.20991,0.13194 -0.20991,0.38382 0,0.19191 0.10196,0.30586 0.10195,0.10795 0.29386,0.18591 0.19191,0.078 0.46778,0.17392 0.28787,0.10196 0.51576,0.20991 0.2279,0.10795 0.36583,0.27587 0.13794,0.16792 0.13794,0.44979 z"
         style="font-weight:300;-inkscape-font-specification:'Noto Sans Light'"
         id="path86022" /><path
         d="m 809.43225,415.08811 q -0.70168,0 -1.0855,-0.4318 -0.37783,-0.4318 -0.37783,-1.20544 0,-0.53975 0.19192,-0.91158 0.19191,-0.37183 0.53375,-0.56374 0.34784,-0.19791 0.80962,-0.19791 0.2279,0 0.4318,0.042 0.20391,0.042 0.35984,0.11395 l -0.096,0.29387 q -0.16192,-0.066 -0.34784,-0.10196 -0.18591,-0.042 -0.35383,-0.042 -0.56974,0 -0.8756,0.36583 -0.29986,0.36583 -0.29986,0.99554 0,0.59972 0.26988,0.97155 0.26987,0.36583 0.83961,0.36583 0.23389,0 0.44379,-0.048 0.2099,-0.048 0.37783,-0.11994 v 0.30586 q -0.15593,0.078 -0.35984,0.11994 -0.19791,0.048 -0.46178,0.048 z"
         style="font-weight:300;-inkscape-font-specification:'Noto Sans Light'"
         id="path86024" /><path
         d="m 813.67828,413.42688 q 0,0.50377 -0.16793,0.87559 -0.16192,0.37183 -0.48577,0.58173 -0.31785,0.20391 -0.77964,0.20391 -0.44379,0 -0.76165,-0.20391 -0.31785,-0.2039 -0.49177,-0.57573 -0.16792,-0.37782 -0.16792,-0.88159 0,-0.77364 0.38382,-1.21144 0.38382,-0.4378 1.06151,-0.4378 0.45579,0 0.76764,0.20991 0.31786,0.2039 0.47978,0.57573 0.16193,0.37183 0.16193,0.8636 z m -2.50084,0 q 0,0.61771 0.25788,0.99554 0.26387,0.37183 0.81562,0.37183 0.55774,0 0.81562,-0.37783 0.25788,-0.37782 0.25788,-0.98954 0,-0.39582 -0.10795,-0.70168 -0.10795,-0.30585 -0.34184,-0.47977 -0.23389,-0.17392 -0.61172,-0.17392 -0.53975,0 -0.81562,0.35983 -0.26987,0.35983 -0.26987,0.99554 z"
         style="font-weight:300;-inkscape-font-specification:'Noto Sans Light'"
         id="path86026" /><path
         d="m 814.88972,415.02814 h -0.34185 v -4.55789 h 0.34185 z"
         style="font-weight:300;-inkscape-font-specification:'Noto Sans Light'"
         id="path86028" /><path
         d="m 817.0727,411.78364 q 0.53975,0 0.80363,0.26388 0.26388,0.26388 0.26388,0.83361 v 2.14701 h -0.25788 l -0.06,-0.53975 h -0.018 q -0.17392,0.26987 -0.4258,0.43779 -0.24589,0.16193 -0.68968,0.16193 -0.46179,0 -0.72566,-0.22789 -0.26388,-0.2339 -0.26388,-0.6657 0,-0.47977 0.38982,-0.72566 0.38982,-0.25188 1.13347,-0.28187 l 0.58173,-0.03 v -0.22189 q 0,-0.46779 -0.19191,-0.66569 -0.18591,-0.19791 -0.55174,-0.19791 -0.24589,0 -0.47378,0.066 -0.2279,0.066 -0.45579,0.17392 l -0.10795,-0.27588 q 0.22789,-0.10795 0.49177,-0.17991 0.26988,-0.072 0.55774,-0.072 z m 0.19191,1.65523 q -0.61171,0.03 -0.91157,0.2159 -0.29387,0.17992 -0.29387,0.53975 0,0.29986 0.17992,0.45579 0.18591,0.14993 0.50976,0.14993 0.49777,0 0.77364,-0.28187 0.27588,-0.28786 0.28187,-0.79163 v -0.31185 z"
         style="font-weight:300;-inkscape-font-specification:'Noto Sans Light'"
         id="path86030" /><path
         d="m 820.47312,411.78364 q 0.2339,0 0.4318,0.048 l -0.054,0.31785 q -0.19191,-0.054 -0.39582,-0.054 -0.4378,0 -0.69568,0.32385 -0.25788,0.32385 -0.25788,0.8576 v 1.75119 h -0.34184 v -3.19052 h 0.28787 l 0.036,0.59372 h 0.018 q 0.11995,-0.26987 0.36583,-0.45579 0.24589,-0.19191 0.60572,-0.19191 z"
         style="font-weight:300;-inkscape-font-specification:'Noto Sans Light'"
         id="path86032" /></g><g
       aria-label="Dias úteis"
       id="text85823"
       style="font-size:4.23333px;line-height:1.25;font-family:'Noto Sans';-inkscape-font-specification:'Noto Sans';stroke-width:0.264583"><path
         d="m 781.41393,418.40255 q 0,0.762 -0.40639,1.15147 -0.40217,0.38946 -1.1684,0.38946 h -0.7493 v -3.0226 h 0.84243 q 0.71543,0 1.09643,0.381 0.38523,0.37677 0.38523,1.10067 z m -0.25823,0.008 q 0,-1.27424 -1.27423,-1.27424 h -0.5461 v 2.5908 h 0.4826 q 1.33773,0 1.33773,-1.31656 z"
         style="font-weight:300;-inkscape-font-specification:'Noto Sans Light'"
         id="path86035" /><path
         d="m 782.1717,416.85738 q 0.1651,0 0.1651,0.18204 0,0.18626 -0.1651,0.18626 -0.1651,0 -0.1651,-0.18626 0,-0.18204 0.1651,-0.18204 z m 0.11854,0.83397 v 2.25213 h -0.2413 v -2.25213 z"
         style="font-weight:300;-inkscape-font-specification:'Noto Sans Light'"
         id="path86037" /><path
         d="m 783.83117,417.65325 q 0.381,0 0.56726,0.18627 0.18627,0.18626 0.18627,0.58843 v 1.51553 h -0.18203 l -0.0423,-0.381 h -0.0127 q -0.12276,0.1905 -0.30056,0.30903 -0.17357,0.1143 -0.48684,0.1143 -0.32596,0 -0.51223,-0.16086 -0.18627,-0.1651 -0.18627,-0.4699 0,-0.33867 0.27517,-0.51223 0.27517,-0.1778 0.8001,-0.19897 l 0.41063,-0.0212 v -0.15663 q 0,-0.3302 -0.13546,-0.4699 -0.13124,-0.1397 -0.38947,-0.1397 -0.17357,0 -0.33443,0.0466 -0.16087,0.0466 -0.32174,0.12276 l -0.0762,-0.19473 q 0.16087,-0.0762 0.34714,-0.127 0.1905,-0.0508 0.3937,-0.0508 z m 0.13546,1.1684 q -0.4318,0.0212 -0.64346,0.1524 -0.20744,0.127 -0.20744,0.381 0,0.21167 0.127,0.32173 0.13124,0.10583 0.35984,0.10583 0.35136,0 0.5461,-0.19896 0.19473,-0.2032 0.19896,-0.5588 v -0.22013 z"
         style="font-weight:300;-inkscape-font-specification:'Noto Sans Light'"
         id="path86039" /><path
         d="m 786.72253,419.34658 q 0,0.3048 -0.2286,0.47413 -0.2286,0.1651 -0.64347,0.1651 -0.23706,0 -0.4191,-0.0423 -0.18203,-0.0381 -0.3048,-0.1016 v -0.23283 q 0.14817,0.0762 0.33867,0.127 0.1905,0.0466 0.38947,0.0466 0.3302,0 0.47836,-0.11006 0.1524,-0.1143 0.1524,-0.30903 0,-0.18627 -0.15663,-0.28364 -0.15663,-0.1016 -0.46143,-0.20743 -0.21167,-0.072 -0.37254,-0.14393 -0.15663,-0.0762 -0.24553,-0.1905 -0.0889,-0.1143 -0.0889,-0.31327 0,-0.27093 0.22013,-0.42333 0.22014,-0.1524 0.58844,-0.1524 0.2032,0 0.37676,0.0381 0.1778,0.0381 0.32597,0.1016 l -0.0889,0.19896 q -0.13123,-0.055 -0.29633,-0.0931 -0.1651,-0.0423 -0.3302,-0.0423 -0.2667,0 -0.41487,0.0931 -0.14817,0.0931 -0.14817,0.27093 0,0.13547 0.072,0.2159 0.072,0.0762 0.20743,0.13124 0.13547,0.055 0.3302,0.12276 0.2032,0.072 0.36407,0.14817 0.16087,0.0762 0.25823,0.19473 0.0974,0.11854 0.0974,0.3175 z"
         style="font-weight:300;-inkscape-font-specification:'Noto Sans Light'"
         id="path86041" /><path
         d="m 790.16423,417.69135 v 2.25213 h -0.19474 l -0.0381,-0.38523 h -0.0127 q -0.0931,0.18626 -0.28786,0.30903 -0.1905,0.11853 -0.47837,0.11853 -0.79163,0 -0.79163,-0.82126 v -1.4732 h 0.2413 v 1.45203 q 0,0.32597 0.14393,0.4826 0.14817,0.1524 0.43603,0.1524 0.74084,0 0.74084,-0.85936 v -1.22767 z m -0.3048,-0.95673 q -0.0635,0.0889 -0.16934,0.20743 -0.1016,0.11853 -0.22013,0.23707 -0.11853,0.1143 -0.22437,0.19896 h -0.16933 v -0.0381 q 0.0804,-0.0804 0.17357,-0.19473 0.0931,-0.1143 0.1778,-0.23283 0.0889,-0.11854 0.14393,-0.21167 h 0.28787 z"
         style="font-weight:300;-inkscape-font-specification:'Noto Sans Light'"
         id="path86043" /><path
         d="m 791.54853,419.77838 q 0.0931,0 0.1778,-0.0127 0.0847,-0.0127 0.14816,-0.0381 v 0.19473 q -0.0635,0.0254 -0.15663,0.0423 -0.0931,0.0212 -0.19897,0.0212 -0.28363,0 -0.43603,-0.15663 -0.1524,-0.15663 -0.1524,-0.51223 v -1.43087 h -0.33443 v -0.13546 l 0.33443,-0.0804 0.0847,-0.51646 h 0.15663 v 0.53763 h 0.69003 v 0.19473 h -0.69003 v 1.41817 q 0,0.47413 0.37677,0.47413 z"
         style="font-weight:300;-inkscape-font-specification:'Noto Sans Light'"
         id="path86045" /><path
         d="m 793.20799,417.64902 q 0.28787,0 0.47837,0.13546 0.19473,0.13124 0.2921,0.36407 0.1016,0.23283 0.1016,0.5334 v 0.1651 h -1.60867 q 0,0.44873 0.20744,0.69003 0.21166,0.23707 0.60113,0.23707 0.20743,0 0.36407,-0.0339 0.15663,-0.0381 0.3429,-0.11853 v 0.22013 q -0.16934,0.0762 -0.33444,0.11007 -0.1651,0.0339 -0.381,0.0339 -0.508,0 -0.77893,-0.30903 -0.27093,-0.30903 -0.27093,-0.84243 0,-0.3429 0.1143,-0.6096 0.11853,-0.2667 0.33866,-0.4191 0.22014,-0.15663 0.5334,-0.15663 z m -0.004,0.2032 q -0.30903,0 -0.50377,0.20743 -0.1905,0.20743 -0.22013,0.58843 h 1.35043 q 0,-0.3556 -0.15663,-0.57573 -0.1524,-0.22013 -0.4699,-0.22013 z"
         style="font-weight:300;-inkscape-font-specification:'Noto Sans Light'"
         id="path86047" /><path
         d="m 794.81243,416.85738 q 0.1651,0 0.1651,0.18204 0,0.18626 -0.1651,0.18626 -0.1651,0 -0.1651,-0.18626 0,-0.18204 0.1651,-0.18204 z m 0.11853,0.83397 v 2.25213 h -0.2413 v -2.25213 z"
         style="font-weight:300;-inkscape-font-specification:'Noto Sans Light'"
         id="path86049" /><path
         d="m 797.09419,419.34658 q 0,0.3048 -0.2286,0.47413 -0.2286,0.1651 -0.64347,0.1651 -0.23706,0 -0.4191,-0.0423 -0.18203,-0.0381 -0.3048,-0.1016 v -0.23283 q 0.14817,0.0762 0.33867,0.127 0.1905,0.0466 0.38947,0.0466 0.3302,0 0.47836,-0.11006 0.1524,-0.1143 0.1524,-0.30903 0,-0.18627 -0.15663,-0.28364 -0.15663,-0.1016 -0.46143,-0.20743 -0.21167,-0.072 -0.37254,-0.14393 -0.15663,-0.0762 -0.24553,-0.1905 -0.0889,-0.1143 -0.0889,-0.31327 0,-0.27093 0.22013,-0.42333 0.22014,-0.1524 0.58844,-0.1524 0.2032,0 0.37676,0.0381 0.1778,0.0381 0.32597,0.1016 l -0.0889,0.19896 q -0.13123,-0.055 -0.29633,-0.0931 -0.1651,-0.0423 -0.3302,-0.0423 -0.2667,0 -0.41487,0.0931 -0.14817,0.0931 -0.14817,0.27093 0,0.13547 0.072,0.2159 0.072,0.0762 0.20743,0.13124 0.13547,0.055 0.3302,0.12276 0.2032,0.072 0.36407,0.14817 0.16087,0.0762 0.25823,0.19473 0.0974,0.11854 0.0974,0.3175 z"
         style="font-weight:300;-inkscape-font-specification:'Noto Sans Light'"
         id="path86051" /></g><path
       style="fill:none;stroke:#000000;stroke-width:0.264583px;stroke-linecap:butt;stroke-linejoin:miter;stroke-opacity:1"
       d="m 779.16038,415.88764 73.73393,0.0171"
       id="path85825" /><g
       aria-label="Hora   ..."
       id="text85831"
       style="font-weight:600;font-size:2.82222px;line-height:1.25;font-family:'Noto Sans';-inkscape-font-specification:'Noto Sans Semi-Bold';stroke-width:0.264583"><path
         d="m 783.16856,424.74011 h -0.36125 v -0.89464 h -0.88618 v 0.89464 h -0.36124 v -2.01506 h 0.36124 v 0.8128 h 0.88618 v -0.8128 h 0.36125 z"
         style="fill:#ffffff"
         id="path86054" /><path
         d="m 785.02558,423.97247 q 0,0.381 -0.19756,0.58984 -0.19755,0.20602 -0.53622,0.20602 -0.20884,0 -0.37253,-0.0931 -0.16369,-0.0931 -0.25682,-0.27093 -0.0931,-0.1778 -0.0931,-0.4318 0,-0.381 0.19474,-0.5842 0.19755,-0.20602 0.53622,-0.20602 0.21166,0 0.37535,0.0931 0.16369,0.0903 0.25683,0.26811 0.0931,0.17498 0.0931,0.42898 z m -1.0922,0 q 0,0.24271 0.0847,0.37535 0.0875,0.13265 0.2794,0.13265 0.19191,0 0.27657,-0.13265 0.0875,-0.13264 0.0875,-0.37535 0,-0.24271 -0.0875,-0.37253 -0.0847,-0.12983 -0.2794,-0.12983 -0.18909,0 -0.27657,0.12983 -0.0847,0.12982 -0.0847,0.37253 z"
         style="fill:#ffffff"
         id="path86056" /><path
         d="m 786.19398,423.18225 q 0.0367,0 0.079,0.003 0.0452,0.003 0.0762,0.0113 l -0.031,0.3302 q -0.0282,-0.006 -0.0677,-0.008 -0.0395,-0.006 -0.0705,-0.006 -0.11289,0 -0.21167,0.048 -0.0988,0.0452 -0.16087,0.14394 -0.0593,0.096 -0.0593,0.24271 v 0.79304 h -0.3556 v -1.52964 h 0.27375 l 0.0508,0.26529 h 0.0169 q 0.0677,-0.12136 0.18626,-0.20602 0.11854,-0.0875 0.27376,-0.0875 z"
         style="fill:#ffffff"
         id="path86058" /><path
         d="m 787.18457,423.18225 q 0.29634,0 0.44874,0.12982 0.15522,0.12982 0.15522,0.40075 v 1.02729 h -0.25118 l -0.0705,-0.21166 h -0.0113 q -0.0988,0.12417 -0.20885,0.18344 -0.11006,0.0564 -0.29915,0.0564 -0.20602,0 -0.34149,-0.11571 -0.13547,-0.11571 -0.13547,-0.35842 0,-0.23706 0.17216,-0.3556 0.17498,-0.11853 0.52775,-0.13264 l 0.26529,-0.008 v -0.0762 q 0,-0.14393 -0.0706,-0.20602 -0.0706,-0.0649 -0.19756,-0.0649 -0.11571,0 -0.22295,0.0339 -0.10443,0.0339 -0.20885,0.079 l -0.11289,-0.24836 q 0.11289,-0.0593 0.25682,-0.096 0.14676,-0.0367 0.3048,-0.0367 z m 0.0649,0.84102 q -0.23424,0.008 -0.32455,0.0818 -0.0903,0.0706 -0.0903,0.19191 0,0.11007 0.0621,0.15805 0.0649,0.0452 0.16933,0.0452 0.15522,0 0.26247,-0.0875 0.10724,-0.0903 0.10724,-0.26528 v -0.12983 z"
         style="fill:#ffffff"
         id="path86060" /><path
         d="m 790.38497,424.55949 q 0,-0.11853 0.0621,-0.16651 0.0621,-0.0508 0.1524,-0.0508 0.0875,0 0.1524,0.0508 0.0649,0.048 0.0649,0.16651 0,0.11571 -0.0649,0.16651 -0.0649,0.0508 -0.1524,0.0508 -0.0903,0 -0.1524,-0.0508 -0.0621,-0.0508 -0.0621,-0.16651 z"
         style="fill:#ffffff"
         id="path86062" /><path
         d="m 791.17237,424.55949 q 0,-0.11853 0.0621,-0.16651 0.0621,-0.0508 0.1524,-0.0508 0.0875,0 0.1524,0.0508 0.0649,0.048 0.0649,0.16651 0,0.11571 -0.0649,0.16651 -0.0649,0.0508 -0.1524,0.0508 -0.0903,0 -0.1524,-0.0508 -0.0621,-0.0508 -0.0621,-0.16651 z"
         style="fill:#ffffff"
         id="path86064" /><path
         d="m 791.95977,424.55949 q 0,-0.11853 0.0621,-0.16651 0.0621,-0.0508 0.1524,-0.0508 0.0875,0 0.1524,0.0508 0.0649,0.048 0.0649,0.16651 0,0.11571 -0.0649,0.16651 -0.0649,0.0508 -0.1524,0.0508 -0.0903,0 -0.1524,-0.0508 -0.0621,-0.0508 -0.0621,-0.16651 z"
         style="fill:#ffffff"
         id="path86066" /></g><g
       aria-label="Min."
       id="text85835"
       style="font-weight:600;font-size:2.82222px;line-height:1.25;font-family:'Noto Sans';-inkscape-font-specification:'Noto Sans Semi-Bold';stroke-width:0.264583"><path
         d="m 782.44325,429.94281 -0.6096,-1.71309 h -0.0113 q 0.003,0.0593 0.008,0.15522 0.006,0.0931 0.008,0.2032 0.003,0.11007 0.003,0.21732 v 1.13735 h -0.27657 v -2.01507 h 0.43462 l 0.57855,1.61714 h 0.0113 l 0.59549,-1.61714 h 0.43462 v 2.01507 h -0.29633 v -1.15429 q 0,-0.096 0.003,-0.20038 0.006,-0.10724 0.008,-0.20037 0.006,-0.0931 0.008,-0.15523 h -0.0113 l -0.62653,1.71027 z"
         style="font-weight:500;-inkscape-font-specification:'Noto Sans Medium'"
         id="path86069" /><path
         d="m 784.27486,427.84308 q 0.0677,0 0.11854,0.0395 0.0508,0.0395 0.0508,0.13264 0,0.0903 -0.0508,0.13265 -0.0508,0.0395 -0.11854,0.0395 -0.0734,0 -0.12417,-0.0395 -0.048,-0.0423 -0.048,-0.13265 0,-0.0931 0.048,-0.13264 0.0508,-0.0395 0.12417,-0.0395 z m 0.14676,0.57855 v 1.52118 h -0.29916 v -1.52118 z"
         style="font-weight:500;-inkscape-font-specification:'Noto Sans Medium'"
         id="path86071" /><path
         d="m 785.66057,428.39341 q 0.26529,0 0.4064,0.13265 0.14111,0.13264 0.14111,0.42615 v 0.9906 h -0.29633 v -0.94827 q 0,-0.3556 -0.31327,-0.3556 -0.23424,0 -0.32173,0.13829 -0.0875,0.13829 -0.0875,0.39794 v 0.76764 h -0.29915 v -1.52118 h 0.23706 l 0.0423,0.2032 h 0.0169 q 0.0734,-0.11853 0.20038,-0.17497 0.12982,-0.0564 0.27375,-0.0564 z"
         style="font-weight:500;-inkscape-font-specification:'Noto Sans Medium'"
         id="path86073" /><path
         d="m 786.62577,429.7763 q 0,-0.11007 0.0536,-0.15522 0.0565,-0.0452 0.13829,-0.0452 0.079,0 0.13547,0.0452 0.0593,0.0451 0.0593,0.15522 0,0.11007 -0.0593,0.15804 -0.0565,0.048 -0.13547,0.048 -0.0818,0 -0.13829,-0.048 -0.0536,-0.048 -0.0536,-0.15804 z"
         style="font-weight:500;-inkscape-font-specification:'Noto Sans Medium'"
         id="path86075" /></g></g></svg>
