<svg width="135.43mm" height="130.44mm" version="1.1" viewBox="0 0 135.43 130.44" xmlns="http://www.w3.org/2000/svg"><path d="m133.22 51.62-0.18521-0.47625-18.441-48.101c-0.37042-0.92604-1.0319-1.7462-1.905-2.2754-0.635-0.42333-1.3494-0.66146-2.1167-0.74083-0.76729-0.07938-1.5081 0.02646-2.2225 0.29104-0.71437 0.26458-1.3494 0.68792-1.8785 1.27-0.50271 0.55562-0.87312 1.2171-1.0848 1.9579l-12.435 38.1h-50.403l-12.462-38.1c-0.21167-0.74083-0.58208-1.4023-1.0848-1.9579-0.52917-0.55562-1.1642-1.0054-1.8785-1.27-0.68792-0.26458-1.4552-0.37042-2.2225-0.29104-0.74083 0.07937-1.4817 0.3175-2.1167 0.74083-0.87312 0.52917-1.5346 1.3494-1.905 2.2754l-18.415 48.101-0.21167 0.47625c-2.6458 6.9321-2.9633 14.552-0.92604 21.696 2.0638 7.1173 6.3765 13.414 12.303 17.886l0.05292 0.0529 0.15875 0.10583 28.046 21.034 13.917 10.504 8.4667 6.4029c0.97896 0.5027 2.196 1.1377 3.4396 1.1377s2.4606-0.635 3.4396-1.1377l8.4667-6.4029 13.917-10.504 28.231-21.14 0.0794-0.0794c5.9267-4.4715 10.239-10.742 12.065-17.859 2.2754-7.1438 1.9579-14.764-0.68791-21.696z" fill="#fff" stroke-width=".26458"/></svg>
