<svg width="110.59mm" height="118.55mm" version="1.1" viewBox="0 0 110.59 118.55" xmlns="http://www.w3.org/2000/svg"><path d="m110.59 38.924c0-25.718-16.854-33.258-16.854-33.258-16.536-7.5935-60.484-7.5142-76.861 0 0 0-16.854 7.5406-16.854 33.258 0 30.612-1.7463 68.633 27.94 76.491 10.716 2.831 19.923 3.4396 27.331 3.0162 13.441-0.74084 20.981-4.789 20.981-4.789l-0.44979-9.7631s-9.6044 3.0162-20.399 2.6723c-10.689-0.37041-21.96-1.1642-23.707-14.287a27.12 27.12 0 0 1-0.23812-3.6777c22.648 5.5298 41.989 2.4077 47.307 1.7727 14.843-1.7727 27.781-10.927 29.422-19.288 2.5929-13.176 2.3812-32.147 2.3812-32.147zm-19.87 33.126h-12.33v-30.215c0-13.15-16.933-13.652-16.933 1.8256v16.536h-12.25v-16.536c0-15.478-16.933-14.975-16.933-1.8256v30.215h-12.382c0-32.306-1.3758-39.132 4.8683-46.302 6.8527-7.6465 21.114-8.1492 27.464 1.614l3.0692 5.1594 3.0692-5.1594c6.3765-9.816 20.664-9.2075 27.464-1.614 6.2706 7.2231 4.8683 14.023 4.8683 46.302z" fill="#fff" stroke-width=".26458"/></svg>
